<svg width="653" height="327" viewBox="0 0 653 327" fill="none" xmlns="http://www.w3.org/2000/svg">
<g clip-path="url(#clip0_589_7257)">
<g opacity="0.75" filter="url(#filter0_ddd_589_7257)">
<rect x="160.152" y="70" width="330.617" height="193.122" rx="31.4873" fill="url(#paint0_linear_589_7257)"/>
<mask id="mask0_589_7257" style="mask-type:alpha" maskUnits="userSpaceOnUse" x="160" y="70" width="331" height="194">
<rect x="160.152" y="70" width="330.617" height="193.122" rx="31.4873" fill="#ED713C"/>
</mask>
<g mask="url(#mask0_589_7257)">
<ellipse opacity="0.1" cx="185.866" cy="293.56" rx="168.457" ry="118.602" fill="black"/>
<ellipse opacity="0.08" cx="465.053" cy="39.5624" rx="168.457" ry="118.602" fill="black"/>
</g>
<path d="M418.91 231.535C418.91 234.265 420.072 236.393 422.438 236.393C424.818 236.393 425.952 234.265 425.952 231.535C425.952 230.121 425.658 228.987 425.056 228.133C424.468 227.279 423.6 226.845 422.438 226.845C421.276 226.845 420.408 227.279 419.806 228.147C419.204 229.001 418.91 230.135 418.91 231.535ZM424.412 231.549C424.412 233.733 423.796 235.035 422.438 235.035C421.08 235.035 420.45 233.733 420.45 231.549C420.45 229.323 421.108 228.203 422.438 228.203C423.754 228.203 424.412 229.323 424.412 231.549ZM434.474 230.051C434.516 228.231 432.962 226.817 431.212 226.845C429.448 226.845 427.936 228.231 427.936 230.037C427.936 231.787 429.378 233.131 430.96 233.131C431.114 233.131 431.24 233.117 431.366 233.089L429.14 236.239H430.904L433.2 232.977C433.522 232.529 433.76 232.179 433.914 231.927C434.068 231.661 434.208 231.381 434.306 231.073C434.418 230.751 434.474 230.415 434.474 230.051ZM433.004 230.037C433.004 230.555 432.836 230.989 432.486 231.339C432.136 231.689 431.716 231.871 431.212 231.871C430.694 231.871 430.26 231.703 429.91 231.353C429.56 231.003 429.392 230.555 429.392 230.037C429.392 229.519 429.56 229.085 429.91 228.735C430.26 228.385 430.694 228.203 431.212 228.203C431.716 228.203 432.136 228.385 432.486 228.735C432.836 229.085 433.004 229.519 433.004 230.037ZM433.974 237.933H435.612L442.934 225.319H441.296L433.974 237.933ZM446.309 234.951L447.933 233.229C448.577 232.543 449.067 231.955 449.389 231.437C449.725 230.919 449.893 230.345 449.893 229.715C449.893 228.091 448.591 226.845 446.827 226.845C444.937 226.845 443.719 228.287 443.719 229.799C443.719 230.079 443.747 230.345 443.817 230.597H445.315C445.273 230.317 445.245 230.079 445.245 229.883C445.245 228.931 445.875 228.203 446.813 228.203C447.751 228.203 448.353 228.889 448.353 229.827C448.353 230.611 447.905 231.283 446.883 232.361L443.593 235.903V236.239H450.215V234.951H446.309ZM458.6 233.257C458.6 231.395 457.102 230.373 455.45 230.373C455.03 230.373 454.638 230.415 454.274 230.499V228.329H458.082V226.999H452.818V231.647H454.946C456.304 231.647 457.074 232.235 457.074 233.285C457.074 234.349 456.262 235.035 455.156 235.035C454.162 235.035 453.476 234.517 452.916 233.663L451.88 234.405C452.51 235.595 453.672 236.393 455.198 236.393C457.032 236.393 458.6 235.119 458.6 233.257Z" fill="white"/>
<path opacity="0.9" d="M198.779 233.257C198.779 231.395 197.281 230.373 195.629 230.373C195.209 230.373 194.817 230.415 194.453 230.499V228.329H198.261V226.999H192.997V231.647H195.125C196.483 231.647 197.253 232.235 197.253 233.285C197.253 234.349 196.441 235.035 195.335 235.035C194.341 235.035 193.655 234.517 193.095 233.663L192.059 234.405C192.689 235.595 193.851 236.393 195.377 236.393C197.211 236.393 198.779 235.119 198.779 233.257ZM203.319 234.951L204.943 233.229C205.587 232.543 206.077 231.955 206.399 231.437C206.735 230.919 206.903 230.345 206.903 229.715C206.903 228.091 205.601 226.845 203.837 226.845C201.947 226.845 200.729 228.287 200.729 229.799C200.729 230.079 200.757 230.345 200.827 230.597H202.325C202.283 230.317 202.255 230.079 202.255 229.883C202.255 228.931 202.885 228.203 203.823 228.203C204.761 228.203 205.363 228.889 205.363 229.827C205.363 230.611 204.915 231.283 203.893 232.361L200.603 235.903V236.239H207.225V234.951H203.319ZM215.905 233.831C215.905 232.655 215.121 231.885 213.903 231.437C214.925 230.891 215.471 230.177 215.471 229.211C215.471 228.469 215.191 227.881 214.645 227.475C214.099 227.055 213.399 226.845 212.559 226.845C211.705 226.845 211.005 227.055 210.445 227.475C209.899 227.881 209.619 228.469 209.619 229.211C209.619 230.205 210.179 230.891 211.187 231.437C209.955 231.885 209.185 232.655 209.185 233.831C209.185 235.385 210.571 236.393 212.559 236.393C214.533 236.393 215.905 235.385 215.905 233.831ZM211.033 229.267C211.033 228.525 211.663 228.063 212.559 228.063C213.441 228.063 214.057 228.525 214.057 229.267C214.057 229.953 213.595 230.317 212.545 230.765C211.495 230.303 211.033 229.939 211.033 229.267ZM214.407 233.775C214.407 234.615 213.749 235.161 212.559 235.161C211.369 235.161 210.683 234.615 210.683 233.775C210.683 232.949 211.313 232.515 212.545 232.081C213.777 232.529 214.407 232.935 214.407 233.775ZM220.493 234.951L222.117 233.229C222.761 232.543 223.251 231.955 223.573 231.437C223.909 230.919 224.077 230.345 224.077 229.715C224.077 228.091 222.775 226.845 221.011 226.845C219.121 226.845 217.903 228.287 217.903 229.799C217.903 230.079 217.931 230.345 218.001 230.597H219.499C219.457 230.317 219.429 230.079 219.429 229.883C219.429 228.931 220.059 228.203 220.997 228.203C221.935 228.203 222.537 228.889 222.537 229.827C222.537 230.611 222.089 231.283 221.067 232.361L217.777 235.903V236.239H224.399V234.951H220.493ZM236.985 233.271C236.985 232.473 236.747 231.829 236.271 231.339C235.795 230.849 235.221 230.541 234.535 230.429L236.775 227.405V226.999H231.021V228.357H234.465L232.309 231.255V231.661H233.331C234.689 231.661 235.459 232.235 235.459 233.285C235.459 234.335 234.675 235.035 233.569 235.035C232.617 235.035 231.959 234.517 231.399 233.663L230.363 234.391C230.979 235.581 232.113 236.393 233.611 236.393C235.431 236.393 236.985 235.147 236.985 233.271ZM245.786 233.355H244.526V230.513H243.042V233.355H240.284L242.902 226.999H241.376L238.422 234.223V234.629H243.042V236.239H244.526V234.629H245.786V233.355ZM253.672 233.257C253.672 231.395 252.174 230.373 250.522 230.373C250.102 230.373 249.71 230.415 249.346 230.499V228.329H253.154V226.999H247.89V231.647H250.018C251.376 231.647 252.146 232.235 252.146 233.285C252.146 234.349 251.334 235.035 250.228 235.035C249.234 235.035 248.548 234.517 247.988 233.663L246.952 234.405C247.582 235.595 248.744 236.393 250.27 236.393C252.104 236.393 253.672 235.119 253.672 233.257ZM262.02 233.201C262.02 231.451 260.592 230.107 258.982 230.107C258.828 230.107 258.702 230.121 258.576 230.149L260.802 226.999H259.052L256.742 230.261C256.42 230.723 256.182 231.073 256.028 231.325C255.874 231.577 255.748 231.857 255.636 232.179C255.538 232.487 255.482 232.823 255.482 233.187C255.44 235.007 256.994 236.421 258.744 236.393C260.508 236.393 262.02 235.007 262.02 233.201ZM260.55 233.201C260.55 233.719 260.368 234.167 260.018 234.517C259.668 234.867 259.248 235.035 258.744 235.035C258.226 235.035 257.806 234.867 257.456 234.517C257.106 234.167 256.938 233.719 256.938 233.201C256.938 232.683 257.106 232.249 257.456 231.899C257.806 231.549 258.226 231.367 258.744 231.367C259.248 231.367 259.668 231.549 260.018 231.899C260.368 232.249 260.55 232.683 260.55 233.201ZM268.059 226.999V228.329H272.399L268.325 236.239H269.935L274.401 227.405V226.999H268.059ZM282.243 233.831C282.243 232.655 281.459 231.885 280.241 231.437C281.263 230.891 281.809 230.177 281.809 229.211C281.809 228.469 281.529 227.881 280.983 227.475C280.437 227.055 279.737 226.845 278.897 226.845C278.043 226.845 277.343 227.055 276.783 227.475C276.237 227.881 275.957 228.469 275.957 229.211C275.957 230.205 276.517 230.891 277.525 231.437C276.293 231.885 275.523 232.655 275.523 233.831C275.523 235.385 276.909 236.393 278.897 236.393C280.871 236.393 282.243 235.385 282.243 233.831ZM277.371 229.267C277.371 228.525 278.001 228.063 278.897 228.063C279.779 228.063 280.395 228.525 280.395 229.267C280.395 229.953 279.933 230.317 278.883 230.765C277.833 230.303 277.371 229.939 277.371 229.267ZM280.745 233.775C280.745 234.615 280.087 235.161 278.897 235.161C277.707 235.161 277.021 234.615 277.021 233.775C277.021 232.949 277.651 232.515 278.883 232.081C280.115 232.529 280.745 232.935 280.745 233.775ZM290.639 230.051C290.681 228.231 289.127 226.817 287.377 226.845C285.613 226.845 284.101 228.231 284.101 230.037C284.101 231.787 285.543 233.131 287.125 233.131C287.279 233.131 287.405 233.117 287.531 233.089L285.305 236.239H287.069L289.365 232.977C289.687 232.529 289.925 232.179 290.079 231.927C290.233 231.661 290.373 231.381 290.471 231.073C290.583 230.751 290.639 230.415 290.639 230.051ZM289.169 230.037C289.169 230.555 289.001 230.989 288.651 231.339C288.301 231.689 287.881 231.871 287.377 231.871C286.859 231.871 286.425 231.703 286.075 231.353C285.725 231.003 285.557 230.555 285.557 230.037C285.557 229.519 285.725 229.085 286.075 228.735C286.425 228.385 286.859 228.203 287.377 228.203C287.881 228.203 288.301 228.385 288.651 228.735C289.001 229.085 289.169 229.519 289.169 230.037ZM292.604 231.535C292.604 234.265 293.766 236.393 296.132 236.393C298.512 236.393 299.646 234.265 299.646 231.535C299.646 230.121 299.352 228.987 298.75 228.133C298.162 227.279 297.294 226.845 296.132 226.845C294.97 226.845 294.102 227.279 293.5 228.147C292.898 229.001 292.604 230.135 292.604 231.535ZM298.106 231.549C298.106 233.733 297.49 235.035 296.132 235.035C294.774 235.035 294.144 233.733 294.144 231.549C294.144 229.323 294.802 228.203 296.132 228.203C297.448 228.203 298.106 229.323 298.106 231.549ZM308.966 226.999L305.76 228.049L306.124 229.351L308 228.749V236.239H309.484V226.999H308.966ZM314.739 234.951L316.363 233.229C317.007 232.543 317.497 231.955 317.819 231.437C318.155 230.919 318.323 230.345 318.323 229.715C318.323 228.091 317.021 226.845 315.257 226.845C313.367 226.845 312.149 228.287 312.149 229.799C312.149 230.079 312.177 230.345 312.247 230.597H313.745C313.703 230.317 313.675 230.079 313.675 229.883C313.675 228.931 314.305 228.203 315.243 228.203C316.181 228.203 316.783 228.889 316.783 229.827C316.783 230.611 316.335 231.283 315.313 232.361L312.023 235.903V236.239H318.645V234.951H314.739ZM327.325 233.831C327.325 232.655 326.541 231.885 325.323 231.437C326.345 230.891 326.891 230.177 326.891 229.211C326.891 228.469 326.611 227.881 326.065 227.475C325.519 227.055 324.819 226.845 323.979 226.845C323.125 226.845 322.425 227.055 321.865 227.475C321.319 227.881 321.039 228.469 321.039 229.211C321.039 230.205 321.599 230.891 322.607 231.437C321.375 231.885 320.605 232.655 320.605 233.831C320.605 235.385 321.991 236.393 323.979 236.393C325.953 236.393 327.325 235.385 327.325 233.831ZM322.453 229.267C322.453 228.525 323.083 228.063 323.979 228.063C324.861 228.063 325.477 228.525 325.477 229.267C325.477 229.953 325.015 230.317 323.965 230.765C322.915 230.303 322.453 229.939 322.453 229.267ZM325.827 233.775C325.827 234.615 325.169 235.161 323.979 235.161C322.789 235.161 322.103 234.615 322.103 233.775C322.103 232.949 322.733 232.515 323.965 232.081C325.197 232.529 325.827 232.935 325.827 233.775ZM335.721 230.051C335.763 228.231 334.209 226.817 332.459 226.845C330.695 226.845 329.183 228.231 329.183 230.037C329.183 231.787 330.625 233.131 332.207 233.131C332.361 233.131 332.487 233.117 332.613 233.089L330.387 236.239H332.151L334.447 232.977C334.769 232.529 335.007 232.179 335.161 231.927C335.315 231.661 335.455 231.381 335.553 231.073C335.665 230.751 335.721 230.415 335.721 230.051ZM334.251 230.037C334.251 230.555 334.083 230.989 333.733 231.339C333.383 231.689 332.963 231.871 332.459 231.871C331.941 231.871 331.507 231.703 331.157 231.353C330.807 231.003 330.639 230.555 330.639 230.037C330.639 229.519 330.807 229.085 331.157 228.735C331.507 228.385 331.941 228.203 332.459 228.203C332.963 228.203 333.383 228.385 333.733 228.735C334.083 229.085 334.251 229.519 334.251 230.037Z" fill="white"/>
<path d="M429.28 99.3608H442.051V122.307H429.28V99.3608Z" fill="#FF5F00"/>
<path d="M420.645 133.857V131.425C420.645 130.492 420.077 129.884 419.104 129.884C418.618 129.884 418.091 130.046 417.726 130.574C417.442 130.128 417.037 129.884 416.428 129.884C416.023 129.884 415.618 130.006 415.293 130.452V129.965H414.442V133.857H415.293V131.709C415.293 131.02 415.658 130.695 416.226 130.695C416.793 130.695 417.077 131.06 417.077 131.709V133.857H417.929V131.709C417.929 131.02 418.334 130.695 418.861 130.695C419.429 130.695 419.712 131.06 419.712 131.709V133.857H420.645V133.857ZM433.253 129.965H431.875V128.79H431.023V129.965H430.253V130.735H431.023V132.519C431.023 133.411 431.388 133.938 432.361 133.938C432.726 133.938 433.131 133.817 433.415 133.655L433.172 132.925C432.929 133.087 432.645 133.128 432.442 133.128C432.037 133.128 431.875 132.884 431.875 132.479V130.735H433.253V129.965V129.965ZM440.469 129.884C439.983 129.884 439.659 130.128 439.456 130.452V129.965H438.605V133.857H439.456V131.668C439.456 131.02 439.74 130.655 440.267 130.655C440.429 130.655 440.632 130.695 440.794 130.736L441.037 129.925C440.875 129.884 440.632 129.884 440.469 129.884V129.884ZM429.564 130.29C429.158 130.006 428.591 129.884 427.983 129.884C427.01 129.884 426.361 130.371 426.361 131.141C426.361 131.79 426.848 132.155 427.699 132.276L428.104 132.317C428.55 132.398 428.794 132.519 428.794 132.722C428.794 133.006 428.469 133.209 427.902 133.209C427.334 133.209 426.888 133.006 426.604 132.803L426.199 133.452C426.645 133.776 427.253 133.938 427.861 133.938C428.996 133.938 429.645 133.411 429.645 132.682C429.645 131.992 429.118 131.627 428.307 131.506L427.902 131.465C427.537 131.425 427.253 131.344 427.253 131.101C427.253 130.817 427.537 130.655 427.983 130.655C428.469 130.655 428.956 130.857 429.199 130.979L429.564 130.29V130.29ZM452.186 129.884C451.699 129.884 451.375 130.128 451.172 130.452V129.965H450.321V133.857H451.172V131.668C451.172 131.02 451.456 130.655 451.983 130.655C452.145 130.655 452.348 130.695 452.51 130.736L452.753 129.925C452.591 129.884 452.348 129.884 452.186 129.884V129.884ZM441.321 131.911C441.321 133.087 442.132 133.938 443.388 133.938C443.956 133.938 444.361 133.817 444.767 133.493L444.361 132.803C444.037 133.047 443.713 133.168 443.348 133.168C442.659 133.168 442.172 132.682 442.172 131.911C442.172 131.182 442.659 130.695 443.348 130.655C443.713 130.655 444.037 130.776 444.361 131.02L444.767 130.33C444.361 130.006 443.956 129.884 443.388 129.884C442.132 129.884 441.321 130.736 441.321 131.911ZM449.186 131.911V129.965H448.335V130.452C448.051 130.087 447.645 129.884 447.118 129.884C446.024 129.884 445.172 130.736 445.172 131.911C445.172 133.087 446.024 133.938 447.118 133.938C447.686 133.938 448.091 133.736 448.335 133.371V133.857H449.186V131.911V131.911ZM446.064 131.911C446.064 131.222 446.51 130.655 447.24 130.655C447.929 130.655 448.416 131.182 448.416 131.911C448.416 132.601 447.929 133.168 447.24 133.168C446.51 133.127 446.064 132.601 446.064 131.911V131.911ZM435.888 129.884C434.753 129.884 433.942 130.695 433.942 131.911C433.942 133.128 434.753 133.938 435.929 133.938C436.496 133.938 437.064 133.776 437.51 133.411L437.104 132.803C436.78 133.047 436.375 133.209 435.969 133.209C435.442 133.209 434.915 132.965 434.794 132.276H437.672V131.952C437.713 130.695 436.983 129.884 435.888 129.884H435.888ZM435.888 130.614C436.415 130.614 436.78 130.938 436.861 131.547H434.834C434.915 131.02 435.28 130.614 435.888 130.614ZM457.01 131.911V128.425H456.159V130.452C455.875 130.087 455.47 129.884 454.943 129.884C453.848 129.884 452.997 130.736 452.997 131.911C452.997 133.087 453.848 133.938 454.943 133.938C455.51 133.938 455.916 133.736 456.159 133.371V133.857H457.01V131.911V131.911ZM453.889 131.911C453.889 131.222 454.334 130.655 455.064 130.655C455.754 130.655 456.24 131.182 456.24 131.911C456.24 132.601 455.754 133.168 455.064 133.168C454.334 133.127 453.889 132.601 453.889 131.911V131.911ZM425.429 131.911V129.965H424.577V130.452C424.293 130.087 423.888 129.884 423.361 129.884C422.266 129.884 421.415 130.736 421.415 131.911C421.415 133.087 422.266 133.938 423.361 133.938C423.929 133.938 424.334 133.736 424.577 133.371V133.857H425.429V131.911V131.911ZM422.266 131.911C422.266 131.222 422.712 130.655 423.442 130.655C424.131 130.655 424.618 131.182 424.618 131.911C424.618 132.601 424.131 133.168 423.442 133.168C422.712 133.127 422.266 132.601 422.266 131.911V131.911Z" fill="white"/>
<path d="M430.091 110.834C430.091 106.172 432.28 102.037 435.645 99.3611C433.172 97.4152 430.05 96.2395 426.645 96.2395C418.577 96.2395 412.05 102.767 412.05 110.834C412.05 118.902 418.577 125.429 426.645 125.429C430.05 125.429 433.172 124.254 435.645 122.308C432.28 119.672 430.091 115.497 430.091 110.834V110.834Z" fill="#EB001B"/>
<path d="M459.28 110.834C459.28 118.902 452.753 125.429 444.685 125.429C441.28 125.429 438.158 124.254 435.685 122.308C439.091 119.632 441.239 115.497 441.239 110.834C441.239 106.172 439.05 102.037 435.685 99.3611C438.158 97.4152 441.28 96.2395 444.685 96.2395C452.753 96.2395 459.28 102.807 459.28 110.834H459.28Z" fill="#F79E1B"/>
<path d="M200.487 149.906C203.259 149.486 205.163 147.75 205.163 145.174C205.163 142.934 203.707 141.422 200.991 140.386L198.919 139.602C197.379 138.93 196.679 138.398 196.679 137.306C196.679 136.046 197.827 135.43 199.255 135.43C200.711 135.43 201.747 136.074 202.727 137.502L204.743 135.99C203.763 134.254 202.335 133.218 200.487 132.882V129.606H197.771V132.938C195.391 133.414 193.739 135.066 193.739 137.334C193.739 139.378 195.083 140.946 197.799 142.01L199.731 142.766C201.439 143.522 202.223 144.11 202.223 145.23C202.223 146.574 200.991 147.386 199.283 147.386C197.407 147.386 195.895 146.434 194.691 144.558L192.647 146.07C193.767 148.086 195.531 149.43 197.771 149.85V153.238H200.487V149.906ZM220.958 144.614C220.958 140.89 217.962 138.846 214.658 138.846C213.818 138.846 213.034 138.93 212.306 139.098V134.758H219.922V132.098H209.394V141.394H213.65C216.366 141.394 217.906 142.57 217.906 144.67C217.906 146.798 216.282 148.17 214.07 148.17C212.082 148.17 210.71 147.134 209.59 145.426L207.518 146.91C208.778 149.29 211.102 150.886 214.154 150.886C217.822 150.886 220.958 148.338 220.958 144.614ZM224.475 155.562H226.855L228.171 147.61H224.755L224.475 155.562ZM230.901 132.098V134.758H239.581L231.433 150.578H234.653L243.585 132.91V132.098H230.901ZM258.529 144.614C258.529 140.89 255.533 138.846 252.229 138.846C251.389 138.846 250.605 138.93 249.877 139.098V134.758H257.493V132.098H246.965V141.394H251.221C253.937 141.394 255.477 142.57 255.477 144.67C255.477 146.798 253.853 148.17 251.641 148.17C249.653 148.17 248.281 147.134 247.161 145.426L245.089 146.91C246.349 149.29 248.673 150.886 251.725 150.886C255.393 150.886 258.529 148.338 258.529 144.614ZM261.597 141.17C261.597 146.63 263.921 150.886 268.653 150.886C273.413 150.886 275.681 146.63 275.681 141.17C275.681 138.342 275.093 136.074 273.889 134.366C272.713 132.658 270.977 131.79 268.653 131.79C266.329 131.79 264.593 132.658 263.389 134.394C262.185 136.102 261.597 138.37 261.597 141.17ZM272.601 141.198C272.601 145.566 271.369 148.17 268.653 148.17C265.937 148.17 264.677 145.566 264.677 141.198C264.677 136.746 265.993 134.506 268.653 134.506C271.285 134.506 272.601 136.746 272.601 141.198ZM279.272 155.562H281.652L282.968 147.61H279.552L279.272 155.562ZM291.683 148.002L294.931 144.558C296.219 143.186 297.199 142.01 297.843 140.974C298.515 139.938 298.851 138.79 298.851 137.53C298.851 134.282 296.247 131.79 292.719 131.79C288.939 131.79 286.503 134.674 286.503 137.698C286.503 138.258 286.559 138.79 286.699 139.294H289.695C289.611 138.734 289.555 138.258 289.555 137.866C289.555 135.962 290.815 134.506 292.691 134.506C294.567 134.506 295.771 135.878 295.771 137.754C295.771 139.322 294.875 140.666 292.831 142.822L286.251 149.906V150.578H299.495V148.002H291.683ZM302.695 141.17C302.695 146.63 305.019 150.886 309.751 150.886C314.511 150.886 316.779 146.63 316.779 141.17C316.779 138.342 316.191 136.074 314.987 134.366C313.811 132.658 312.075 131.79 309.751 131.79C307.427 131.79 305.691 132.658 304.487 134.394C303.283 136.102 302.695 138.37 302.695 141.17ZM313.699 141.198C313.699 145.566 312.467 148.17 309.751 148.17C307.035 148.17 305.775 145.566 305.775 141.198C305.775 136.746 307.091 134.506 309.751 134.506C312.383 134.506 313.699 136.746 313.699 141.198Z" fill="white"/>
<path opacity="0.54" d="M192.241 109.867C192.185 112.513 194.467 114.683 197.099 114.641C198.821 114.641 200.277 113.815 201.061 112.513L199.941 111.687C199.283 112.709 198.331 113.283 197.113 113.283C195.223 113.283 193.781 111.827 193.781 109.867C193.781 107.907 195.223 106.451 197.113 106.451C198.331 106.451 199.283 107.025 199.941 108.047L201.061 107.221C200.263 105.919 198.793 105.093 197.099 105.093C194.467 105.051 192.185 107.221 192.241 109.867ZM202.668 111.603C202.668 113.451 203.956 114.641 205.678 114.641C207.358 114.641 208.66 113.451 208.66 111.603V107.613H207.19V111.715C207.19 112.667 206.532 113.283 205.678 113.283C204.782 113.283 204.124 112.667 204.124 111.715V107.613H202.668V111.603ZM214.657 107.613C214.489 107.571 214.307 107.543 214.097 107.543C213.313 107.543 212.585 107.893 212.095 108.509V107.613H210.723V114.487H212.193V110.819C212.193 109.601 213.047 108.915 214.209 108.915H214.657V107.613ZM219.907 107.613C219.739 107.571 219.557 107.543 219.347 107.543C218.563 107.543 217.835 107.893 217.345 108.509V107.613H215.973V114.487H217.443V110.819C217.443 109.601 218.297 108.915 219.459 108.915H219.907V107.613ZM227.274 111.533C227.344 111.211 227.386 110.903 227.386 110.609C227.386 108.817 226.028 107.459 224.208 107.459C222.262 107.417 220.61 109.083 220.652 111.057C220.652 113.087 222.248 114.641 224.348 114.641C225.398 114.641 226.308 114.277 227.092 113.535L226.392 112.527C225.776 113.073 225.104 113.339 224.39 113.339C223.214 113.339 222.332 112.653 222.15 111.533H227.274ZM222.178 110.385C222.402 109.363 223.186 108.705 224.152 108.705C225.118 108.705 225.902 109.335 225.916 110.385H222.178ZM235.076 110.189C235.076 108.551 234.11 107.459 232.5 107.459C231.646 107.459 230.96 107.739 230.442 108.285V107.613H229.07V114.487H230.54V110.385C230.54 109.447 231.198 108.789 232.108 108.789C233.004 108.789 233.606 109.433 233.606 110.385V114.487H235.076V110.189ZM241.211 113.241C240.805 113.283 240.511 113.311 240.301 113.311C239.405 113.311 238.943 113.003 238.943 112.121V108.887H240.987V107.613H238.943V105.807H237.459V107.613H236.339V108.887H237.459V112.247C237.459 113.857 238.411 114.641 239.993 114.641C240.343 114.641 240.749 114.585 241.211 114.487V113.241ZM253.681 111.799C253.681 110.665 253.037 109.797 251.959 109.447C252.463 109.013 252.729 108.425 252.729 107.711C252.729 106.283 251.623 105.247 249.957 105.247H246.723V114.487H250.685C252.491 114.487 253.681 113.353 253.681 111.799ZM249.817 106.549C250.727 106.549 251.245 107.011 251.245 107.781C251.245 108.551 250.727 109.041 249.817 109.041H248.179V106.549H249.817ZM252.183 111.757C252.183 112.639 251.581 113.185 250.559 113.185H248.179V110.315H250.559C251.581 110.315 252.183 110.875 252.183 111.757ZM260.739 110.329C260.739 108.481 259.619 107.459 257.925 107.459C256.735 107.459 255.713 107.935 255.027 108.929L255.881 109.797C256.455 109.111 257.015 108.775 257.785 108.775C258.723 108.775 259.255 109.293 259.255 110.245V110.693H257.309C255.755 110.693 254.775 111.463 254.775 112.653C254.775 113.843 255.727 114.641 257.169 114.641C258.107 114.641 258.863 114.319 259.367 113.717V114.487H260.739V110.329ZM259.255 111.883C259.255 112.821 258.471 113.507 257.477 113.507C256.763 113.507 256.273 113.171 256.273 112.597C256.273 112.037 256.707 111.757 257.491 111.757H259.255V111.883ZM262.785 114.487H264.255V103.987H262.785V114.487ZM271.841 110.329C271.841 108.481 270.721 107.459 269.027 107.459C267.837 107.459 266.815 107.935 266.129 108.929L266.983 109.797C267.557 109.111 268.117 108.775 268.887 108.775C269.825 108.775 270.357 109.293 270.357 110.245V110.693H268.411C266.857 110.693 265.877 111.463 265.877 112.653C265.877 113.843 266.829 114.641 268.271 114.641C269.209 114.641 269.965 114.319 270.469 113.717V114.487H271.841V110.329ZM270.357 111.883C270.357 112.821 269.573 113.507 268.579 113.507C267.865 113.507 267.375 113.171 267.375 112.597C267.375 112.037 267.809 111.757 268.593 111.757H270.357V111.883ZM279.893 110.189C279.893 108.551 278.927 107.459 277.317 107.459C276.463 107.459 275.777 107.739 275.259 108.285V107.613H273.887V114.487H275.357V110.385C275.357 109.447 276.015 108.789 276.925 108.789C277.821 108.789 278.423 109.433 278.423 110.385V114.487H279.893V110.189ZM281.505 111.043C281.505 113.045 283.115 114.641 285.145 114.641C286.391 114.641 287.427 114.039 288.043 113.045L287.007 112.247C286.503 112.933 285.887 113.283 285.159 113.283C283.927 113.283 283.003 112.303 283.003 111.043C283.003 109.797 283.927 108.817 285.159 108.817C285.901 108.817 286.517 109.167 287.007 109.867L288.043 109.055C287.441 108.061 286.419 107.459 285.145 107.459C283.171 107.431 281.463 109.069 281.505 111.043ZM295.715 111.533C295.785 111.211 295.827 110.903 295.827 110.609C295.827 108.817 294.469 107.459 292.649 107.459C290.703 107.417 289.051 109.083 289.093 111.057C289.093 113.087 290.689 114.641 292.789 114.641C293.839 114.641 294.749 114.277 295.533 113.535L294.833 112.527C294.217 113.073 293.545 113.339 292.831 113.339C291.655 113.339 290.773 112.653 290.591 111.533H295.715ZM290.619 110.385C290.843 109.363 291.627 108.705 292.593 108.705C293.559 108.705 294.343 109.335 294.357 110.385H290.619Z" fill="white"/>
</g>
<g opacity="0.75" filter="url(#filter1_ddd_589_7257)">
<rect x="138" y="92" width="376.63" height="220" rx="35.8696" fill="url(#paint1_linear_589_7257)"/>
<mask id="mask1_589_7257" style="mask-type:alpha" maskUnits="userSpaceOnUse" x="138" y="92" width="377" height="220">
<rect x="138" y="92" width="376.63" height="220" rx="35.8696" fill="#ED713C"/>
</mask>
<g mask="url(#mask1_589_7257)">
<ellipse opacity="0.1" cx="167.293" cy="346.674" rx="191.902" ry="135.109" fill="black"/>
<ellipse opacity="0.08" cx="485.336" cy="57.3262" rx="191.902" ry="135.109" fill="black"/>
</g>
<path d="M438.39 274.861C438.39 277.591 439.552 279.719 441.918 279.719C444.298 279.719 445.432 277.591 445.432 274.861C445.432 273.447 445.138 272.313 444.536 271.459C443.948 270.605 443.08 270.171 441.918 270.171C440.756 270.171 439.888 270.605 439.286 271.473C438.684 272.327 438.39 273.461 438.39 274.861ZM443.892 274.875C443.892 277.059 443.276 278.361 441.918 278.361C440.56 278.361 439.93 277.059 439.93 274.875C439.93 272.649 440.588 271.529 441.918 271.529C443.234 271.529 443.892 272.649 443.892 274.875ZM453.954 273.377C453.996 271.557 452.442 270.143 450.692 270.171C448.928 270.171 447.416 271.557 447.416 273.363C447.416 275.113 448.858 276.457 450.44 276.457C450.594 276.457 450.72 276.443 450.846 276.415L448.62 279.565H450.384L452.68 276.303C453.002 275.855 453.24 275.505 453.394 275.253C453.548 274.987 453.688 274.707 453.786 274.399C453.898 274.077 453.954 273.741 453.954 273.377ZM452.484 273.363C452.484 273.881 452.316 274.315 451.966 274.665C451.616 275.015 451.196 275.197 450.692 275.197C450.174 275.197 449.74 275.029 449.39 274.679C449.04 274.329 448.872 273.881 448.872 273.363C448.872 272.845 449.04 272.411 449.39 272.061C449.74 271.711 450.174 271.529 450.692 271.529C451.196 271.529 451.616 271.711 451.966 272.061C452.316 272.411 452.484 272.845 452.484 273.363ZM453.454 281.259H455.092L462.414 268.645H460.776L453.454 281.259ZM465.789 278.277L467.413 276.555C468.057 275.869 468.547 275.281 468.869 274.763C469.205 274.245 469.373 273.671 469.373 273.041C469.373 271.417 468.071 270.171 466.307 270.171C464.417 270.171 463.199 271.613 463.199 273.125C463.199 273.405 463.227 273.671 463.297 273.923H464.795C464.753 273.643 464.725 273.405 464.725 273.209C464.725 272.257 465.355 271.529 466.293 271.529C467.231 271.529 467.833 272.215 467.833 273.153C467.833 273.937 467.385 274.609 466.363 275.687L463.073 279.229V279.565H469.695V278.277H465.789ZM478.08 276.583C478.08 274.721 476.582 273.699 474.93 273.699C474.51 273.699 474.118 273.741 473.754 273.825V271.655H477.562V270.325H472.298V274.973H474.426C475.784 274.973 476.554 275.561 476.554 276.611C476.554 277.675 475.742 278.361 474.636 278.361C473.642 278.361 472.956 277.843 472.396 276.989L471.36 277.731C471.99 278.921 473.152 279.719 474.678 279.719C476.512 279.719 478.08 278.445 478.08 276.583Z" fill="white"/>
<path opacity="0.9" d="M181.01 276.583C181.01 274.721 179.512 273.699 177.86 273.699C177.44 273.699 177.048 273.741 176.684 273.825V271.655H180.492V270.325H175.228V274.973H177.356C178.714 274.973 179.484 275.561 179.484 276.611C179.484 277.675 178.672 278.361 177.566 278.361C176.572 278.361 175.886 277.843 175.326 276.989L174.29 277.731C174.92 278.921 176.082 279.719 177.608 279.719C179.442 279.719 181.01 278.445 181.01 276.583ZM185.55 278.277L187.174 276.555C187.818 275.869 188.308 275.281 188.63 274.763C188.966 274.245 189.134 273.671 189.134 273.041C189.134 271.417 187.832 270.171 186.068 270.171C184.178 270.171 182.96 271.613 182.96 273.125C182.96 273.405 182.988 273.671 183.058 273.923H184.556C184.514 273.643 184.486 273.405 184.486 273.209C184.486 272.257 185.116 271.529 186.054 271.529C186.992 271.529 187.594 272.215 187.594 273.153C187.594 273.937 187.146 274.609 186.124 275.687L182.834 279.229V279.565H189.456V278.277H185.55ZM198.136 277.157C198.136 275.981 197.352 275.211 196.134 274.763C197.156 274.217 197.702 273.503 197.702 272.537C197.702 271.795 197.422 271.207 196.876 270.801C196.33 270.381 195.63 270.171 194.79 270.171C193.936 270.171 193.236 270.381 192.676 270.801C192.13 271.207 191.85 271.795 191.85 272.537C191.85 273.531 192.41 274.217 193.418 274.763C192.186 275.211 191.416 275.981 191.416 277.157C191.416 278.711 192.802 279.719 194.79 279.719C196.764 279.719 198.136 278.711 198.136 277.157ZM193.264 272.593C193.264 271.851 193.894 271.389 194.79 271.389C195.672 271.389 196.288 271.851 196.288 272.593C196.288 273.279 195.826 273.643 194.776 274.091C193.726 273.629 193.264 273.265 193.264 272.593ZM196.638 277.101C196.638 277.941 195.98 278.487 194.79 278.487C193.6 278.487 192.914 277.941 192.914 277.101C192.914 276.275 193.544 275.841 194.776 275.407C196.008 275.855 196.638 276.261 196.638 277.101ZM202.724 278.277L204.348 276.555C204.992 275.869 205.482 275.281 205.804 274.763C206.14 274.245 206.308 273.671 206.308 273.041C206.308 271.417 205.006 270.171 203.242 270.171C201.352 270.171 200.134 271.613 200.134 273.125C200.134 273.405 200.162 273.671 200.232 273.923H201.73C201.688 273.643 201.66 273.405 201.66 273.209C201.66 272.257 202.29 271.529 203.228 271.529C204.166 271.529 204.768 272.215 204.768 273.153C204.768 273.937 204.32 274.609 203.298 275.687L200.008 279.229V279.565H206.63V278.277H202.724ZM219.215 276.597C219.215 275.799 218.977 275.155 218.501 274.665C218.025 274.175 217.451 273.867 216.765 273.755L219.005 270.731V270.325H213.251V271.683H216.695L214.539 274.581V274.987H215.561C216.919 274.987 217.689 275.561 217.689 276.611C217.689 277.661 216.905 278.361 215.799 278.361C214.847 278.361 214.189 277.843 213.629 276.989L212.593 277.717C213.209 278.907 214.343 279.719 215.841 279.719C217.661 279.719 219.215 278.473 219.215 276.597ZM228.017 276.681H226.757V273.839H225.273V276.681H222.515L225.133 270.325H223.607L220.653 277.549V277.955H225.273V279.565H226.757V277.955H228.017V276.681ZM235.902 276.583C235.902 274.721 234.404 273.699 232.752 273.699C232.332 273.699 231.94 273.741 231.576 273.825V271.655H235.384V270.325H230.12V274.973H232.248C233.606 274.973 234.376 275.561 234.376 276.611C234.376 277.675 233.564 278.361 232.458 278.361C231.464 278.361 230.778 277.843 230.218 276.989L229.182 277.731C229.812 278.921 230.974 279.719 232.5 279.719C234.334 279.719 235.902 278.445 235.902 276.583ZM244.251 276.527C244.251 274.777 242.823 273.433 241.213 273.433C241.059 273.433 240.933 273.447 240.807 273.475L243.033 270.325H241.283L238.973 273.587C238.651 274.049 238.413 274.399 238.259 274.651C238.105 274.903 237.979 275.183 237.867 275.505C237.769 275.813 237.713 276.149 237.713 276.513C237.671 278.333 239.225 279.747 240.975 279.719C242.739 279.719 244.251 278.333 244.251 276.527ZM242.781 276.527C242.781 277.045 242.599 277.493 242.249 277.843C241.899 278.193 241.479 278.361 240.975 278.361C240.457 278.361 240.037 278.193 239.687 277.843C239.337 277.493 239.169 277.045 239.169 276.527C239.169 276.009 239.337 275.575 239.687 275.225C240.037 274.875 240.457 274.693 240.975 274.693C241.479 274.693 241.899 274.875 242.249 275.225C242.599 275.575 242.781 276.009 242.781 276.527ZM250.29 270.325V271.655H254.63L250.556 279.565H252.166L256.632 270.731V270.325H250.29ZM264.474 277.157C264.474 275.981 263.69 275.211 262.472 274.763C263.494 274.217 264.04 273.503 264.04 272.537C264.04 271.795 263.76 271.207 263.214 270.801C262.668 270.381 261.968 270.171 261.128 270.171C260.274 270.171 259.574 270.381 259.014 270.801C258.468 271.207 258.188 271.795 258.188 272.537C258.188 273.531 258.748 274.217 259.756 274.763C258.524 275.211 257.754 275.981 257.754 277.157C257.754 278.711 259.14 279.719 261.128 279.719C263.102 279.719 264.474 278.711 264.474 277.157ZM259.602 272.593C259.602 271.851 260.232 271.389 261.128 271.389C262.01 271.389 262.626 271.851 262.626 272.593C262.626 273.279 262.164 273.643 261.114 274.091C260.064 273.629 259.602 273.265 259.602 272.593ZM262.976 277.101C262.976 277.941 262.318 278.487 261.128 278.487C259.938 278.487 259.252 277.941 259.252 277.101C259.252 276.275 259.882 275.841 261.114 275.407C262.346 275.855 262.976 276.261 262.976 277.101ZM272.87 273.377C272.912 271.557 271.358 270.143 269.608 270.171C267.844 270.171 266.332 271.557 266.332 273.363C266.332 275.113 267.774 276.457 269.356 276.457C269.51 276.457 269.636 276.443 269.762 276.415L267.536 279.565H269.3L271.596 276.303C271.918 275.855 272.156 275.505 272.31 275.253C272.464 274.987 272.604 274.707 272.702 274.399C272.814 274.077 272.87 273.741 272.87 273.377ZM271.4 273.363C271.4 273.881 271.232 274.315 270.882 274.665C270.532 275.015 270.112 275.197 269.608 275.197C269.09 275.197 268.656 275.029 268.306 274.679C267.956 274.329 267.788 273.881 267.788 273.363C267.788 272.845 267.956 272.411 268.306 272.061C268.656 271.711 269.09 271.529 269.608 271.529C270.112 271.529 270.532 271.711 270.882 272.061C271.232 272.411 271.4 272.845 271.4 273.363ZM274.835 274.861C274.835 277.591 275.997 279.719 278.363 279.719C280.743 279.719 281.877 277.591 281.877 274.861C281.877 273.447 281.583 272.313 280.981 271.459C280.393 270.605 279.525 270.171 278.363 270.171C277.201 270.171 276.333 270.605 275.731 271.473C275.129 272.327 274.835 273.461 274.835 274.861ZM280.337 274.875C280.337 277.059 279.721 278.361 278.363 278.361C277.005 278.361 276.375 277.059 276.375 274.875C276.375 272.649 277.033 271.529 278.363 271.529C279.679 271.529 280.337 272.649 280.337 274.875ZM291.197 270.325L287.991 271.375L288.355 272.677L290.231 272.075V279.565H291.715V270.325H291.197ZM296.97 278.277L298.594 276.555C299.238 275.869 299.728 275.281 300.05 274.763C300.386 274.245 300.554 273.671 300.554 273.041C300.554 271.417 299.252 270.171 297.488 270.171C295.598 270.171 294.38 271.613 294.38 273.125C294.38 273.405 294.408 273.671 294.478 273.923H295.976C295.934 273.643 295.906 273.405 295.906 273.209C295.906 272.257 296.536 271.529 297.474 271.529C298.412 271.529 299.014 272.215 299.014 273.153C299.014 273.937 298.566 274.609 297.544 275.687L294.254 279.229V279.565H300.876V278.277H296.97ZM309.556 277.157C309.556 275.981 308.772 275.211 307.554 274.763C308.576 274.217 309.122 273.503 309.122 272.537C309.122 271.795 308.842 271.207 308.296 270.801C307.75 270.381 307.05 270.171 306.21 270.171C305.356 270.171 304.656 270.381 304.096 270.801C303.55 271.207 303.27 271.795 303.27 272.537C303.27 273.531 303.83 274.217 304.838 274.763C303.606 275.211 302.836 275.981 302.836 277.157C302.836 278.711 304.222 279.719 306.21 279.719C308.184 279.719 309.556 278.711 309.556 277.157ZM304.684 272.593C304.684 271.851 305.314 271.389 306.21 271.389C307.092 271.389 307.708 271.851 307.708 272.593C307.708 273.279 307.246 273.643 306.196 274.091C305.146 273.629 304.684 273.265 304.684 272.593ZM308.058 277.101C308.058 277.941 307.4 278.487 306.21 278.487C305.02 278.487 304.334 277.941 304.334 277.101C304.334 276.275 304.964 275.841 306.196 275.407C307.428 275.855 308.058 276.261 308.058 277.101ZM317.952 273.377C317.994 271.557 316.44 270.143 314.69 270.171C312.926 270.171 311.414 271.557 311.414 273.363C311.414 275.113 312.856 276.457 314.438 276.457C314.592 276.457 314.718 276.443 314.844 276.415L312.618 279.565H314.382L316.678 276.303C317 275.855 317.238 275.505 317.392 275.253C317.546 274.987 317.686 274.707 317.784 274.399C317.896 274.077 317.952 273.741 317.952 273.377ZM316.482 273.363C316.482 273.881 316.314 274.315 315.964 274.665C315.614 275.015 315.194 275.197 314.69 275.197C314.172 275.197 313.738 275.029 313.388 274.679C313.038 274.329 312.87 273.881 312.87 273.363C312.87 272.845 313.038 272.411 313.388 272.061C313.738 271.711 314.172 271.529 314.69 271.529C315.194 271.529 315.614 271.711 315.964 272.061C316.314 272.411 316.482 272.845 316.482 273.363Z" fill="white"/>
<path d="M444.584 125.447H459.132V151.587H444.584V125.447Z" fill="#FF5F00"/>
<path d="M434.747 164.745V161.974C434.747 160.911 434.101 160.219 432.992 160.219C432.438 160.219 431.838 160.404 431.422 161.004C431.099 160.496 430.637 160.219 429.944 160.219C429.482 160.219 429.021 160.357 428.651 160.865V160.311H427.681V164.745H428.651V162.297C428.651 161.512 429.067 161.142 429.713 161.142C430.36 161.142 430.683 161.558 430.683 162.297V164.745H431.653V162.297C431.653 161.512 432.115 161.142 432.715 161.142C433.362 161.142 433.685 161.558 433.685 162.297V164.745H434.747V164.745ZM449.11 160.311H447.54V158.972H446.57V160.311H445.693V161.188H446.57V163.221C446.57 164.237 446.986 164.837 448.094 164.837C448.51 164.837 448.972 164.699 449.295 164.514L449.018 163.682C448.741 163.867 448.418 163.913 448.187 163.913C447.725 163.913 447.54 163.636 447.54 163.174V161.188H449.11V160.311V160.311ZM457.331 160.219C456.777 160.219 456.408 160.496 456.177 160.865V160.311H455.207V164.745H456.177V162.251C456.177 161.512 456.5 161.096 457.1 161.096C457.285 161.096 457.516 161.143 457.701 161.189L457.978 160.265C457.793 160.219 457.516 160.219 457.331 160.219V160.219ZM444.908 160.681C444.446 160.357 443.799 160.219 443.106 160.219C441.998 160.219 441.259 160.773 441.259 161.65C441.259 162.389 441.813 162.805 442.783 162.944L443.245 162.99C443.753 163.082 444.03 163.221 444.03 163.452C444.03 163.775 443.661 164.006 443.014 164.006C442.368 164.006 441.86 163.775 441.536 163.544L441.074 164.283C441.582 164.652 442.275 164.837 442.968 164.837C444.261 164.837 445 164.237 445 163.405C445 162.62 444.4 162.205 443.476 162.066L443.014 162.02C442.598 161.974 442.275 161.881 442.275 161.604C442.275 161.281 442.598 161.096 443.106 161.096C443.661 161.096 444.215 161.327 444.492 161.466L444.908 160.681V160.681ZM470.678 160.219C470.124 160.219 469.754 160.496 469.523 160.865V160.311H468.554V164.745H469.523V162.251C469.523 161.512 469.847 161.096 470.447 161.096C470.632 161.096 470.863 161.143 471.048 161.189L471.325 160.265C471.14 160.219 470.863 160.219 470.678 160.219V160.219ZM458.301 162.528C458.301 163.867 459.225 164.837 460.656 164.837C461.303 164.837 461.765 164.699 462.226 164.329L461.765 163.544C461.395 163.821 461.026 163.96 460.61 163.96C459.825 163.96 459.271 163.405 459.271 162.528C459.271 161.697 459.825 161.142 460.61 161.096C461.026 161.096 461.395 161.235 461.765 161.512L462.226 160.727C461.765 160.357 461.303 160.219 460.656 160.219C459.225 160.219 458.301 161.189 458.301 162.528ZM467.261 162.528V160.311H466.291V160.865C465.967 160.45 465.506 160.219 464.905 160.219C463.658 160.219 462.688 161.189 462.688 162.528C462.688 163.867 463.658 164.837 464.905 164.837C465.552 164.837 466.014 164.606 466.291 164.191V164.745H467.261V162.528V162.528ZM463.704 162.528C463.704 161.743 464.212 161.096 465.044 161.096C465.829 161.096 466.383 161.697 466.383 162.528C466.383 163.313 465.829 163.96 465.044 163.96C464.212 163.913 463.704 163.313 463.704 162.528V162.528ZM452.112 160.219C450.819 160.219 449.895 161.142 449.895 162.528C449.895 163.913 450.819 164.837 452.158 164.837C452.805 164.837 453.452 164.652 453.96 164.237L453.498 163.544C453.128 163.821 452.667 164.006 452.205 164.006C451.604 164.006 451.004 163.729 450.865 162.943H454.144V162.574C454.191 161.142 453.359 160.219 452.112 160.219H452.112ZM452.112 161.05C452.713 161.05 453.129 161.42 453.221 162.112H450.912C451.004 161.512 451.42 161.05 452.112 161.05ZM476.174 162.528V158.556H475.204V160.865C474.881 160.45 474.419 160.219 473.819 160.219C472.572 160.219 471.602 161.189 471.602 162.528C471.602 163.867 472.572 164.837 473.819 164.837C474.465 164.837 474.927 164.606 475.204 164.191V164.745H476.174V162.528V162.528ZM472.618 162.528C472.618 161.743 473.126 161.096 473.957 161.096C474.742 161.096 475.297 161.697 475.297 162.528C475.297 163.313 474.742 163.96 473.957 163.96C473.126 163.913 472.618 163.313 472.618 162.528V162.528ZM440.197 162.528V160.311H439.227V160.865C438.904 160.45 438.442 160.219 437.841 160.219C436.595 160.219 435.625 161.189 435.625 162.528C435.625 163.867 436.595 164.837 437.841 164.837C438.488 164.837 438.95 164.606 439.227 164.191V164.745H440.197V162.528V162.528ZM436.595 162.528C436.595 161.743 437.103 161.096 437.934 161.096C438.719 161.096 439.273 161.697 439.273 162.528C439.273 163.313 438.719 163.96 437.934 163.96C437.103 163.913 436.595 163.313 436.595 162.528V162.528Z" fill="white"/>
<path d="M445.508 138.518C445.508 133.206 448.002 128.496 451.835 125.447C449.018 123.231 445.462 121.891 441.582 121.891C432.392 121.891 424.956 129.327 424.956 138.518C424.956 147.708 432.392 155.144 441.582 155.144C445.462 155.144 449.018 153.804 451.835 151.587C448.002 148.585 445.508 143.829 445.508 138.518V138.518Z" fill="#EB001B"/>
<path d="M478.76 138.518C478.76 147.708 471.324 155.144 462.134 155.144C458.254 155.144 454.698 153.804 451.881 151.587C455.76 148.539 458.208 143.829 458.208 138.518C458.208 133.206 455.714 128.496 451.881 125.447C454.698 123.231 458.254 121.891 462.134 121.891C471.324 121.891 478.76 129.373 478.76 138.518H478.76Z" fill="#F79E1B"/>
<path d="M182.718 179.502C185.49 179.082 187.394 177.346 187.394 174.77C187.394 172.53 185.938 171.018 183.222 169.982L181.15 169.198C179.61 168.526 178.91 167.994 178.91 166.902C178.91 165.642 180.058 165.026 181.486 165.026C182.942 165.026 183.978 165.67 184.958 167.098L186.974 165.586C185.994 163.85 184.566 162.814 182.718 162.478V159.202H180.002V162.534C177.622 163.01 175.97 164.662 175.97 166.93C175.97 168.974 177.314 170.542 180.03 171.606L181.962 172.362C183.67 173.118 184.454 173.706 184.454 174.826C184.454 176.17 183.222 176.982 181.514 176.982C179.638 176.982 178.126 176.03 176.922 174.154L174.878 175.666C175.998 177.682 177.762 179.026 180.002 179.446V182.834H182.718V179.502ZM203.189 174.21C203.189 170.486 200.193 168.442 196.889 168.442C196.049 168.442 195.265 168.526 194.537 168.694V164.354H202.153V161.694H191.625V170.99H195.881C198.597 170.99 200.137 172.166 200.137 174.266C200.137 176.394 198.513 177.766 196.301 177.766C194.313 177.766 192.941 176.73 191.821 175.022L189.749 176.506C191.009 178.886 193.333 180.482 196.385 180.482C200.053 180.482 203.189 177.934 203.189 174.21ZM206.705 185.158H209.085L210.401 177.206H206.985L206.705 185.158ZM213.132 161.694V164.354H221.812L213.664 180.174H216.884L225.816 162.506V161.694H213.132ZM240.759 174.21C240.759 170.486 237.763 168.442 234.459 168.442C233.619 168.442 232.835 168.526 232.107 168.694V164.354H239.723V161.694H229.195V170.99H233.451C236.167 170.99 237.707 172.166 237.707 174.266C237.707 176.394 236.083 177.766 233.871 177.766C231.883 177.766 230.511 176.73 229.391 175.022L227.319 176.506C228.579 178.886 230.903 180.482 233.955 180.482C237.623 180.482 240.759 177.934 240.759 174.21ZM243.828 170.766C243.828 176.226 246.152 180.482 250.884 180.482C255.644 180.482 257.912 176.226 257.912 170.766C257.912 167.938 257.324 165.67 256.12 163.962C254.944 162.254 253.208 161.386 250.884 161.386C248.56 161.386 246.824 162.254 245.62 163.99C244.416 165.698 243.828 167.966 243.828 170.766ZM254.832 170.794C254.832 175.162 253.6 177.766 250.884 177.766C248.168 177.766 246.908 175.162 246.908 170.794C246.908 166.342 248.224 164.102 250.884 164.102C253.516 164.102 254.832 166.342 254.832 170.794ZM261.502 185.158H263.882L265.198 177.206H261.782L261.502 185.158ZM273.914 177.598L277.162 174.154C278.45 172.782 279.43 171.606 280.074 170.57C280.746 169.534 281.082 168.386 281.082 167.126C281.082 163.878 278.478 161.386 274.95 161.386C271.17 161.386 268.734 164.27 268.734 167.294C268.734 167.854 268.79 168.386 268.93 168.89H271.926C271.842 168.33 271.786 167.854 271.786 167.462C271.786 165.558 273.046 164.102 274.922 164.102C276.798 164.102 278.002 165.474 278.002 167.35C278.002 168.918 277.106 170.262 275.062 172.418L268.482 179.502V180.174H281.726V177.598H273.914ZM284.925 170.766C284.925 176.226 287.249 180.482 291.981 180.482C296.741 180.482 299.009 176.226 299.009 170.766C299.009 167.938 298.421 165.67 297.217 163.962C296.041 162.254 294.305 161.386 291.981 161.386C289.657 161.386 287.921 162.254 286.717 163.99C285.513 165.698 284.925 167.966 284.925 170.766ZM295.929 170.794C295.929 175.162 294.697 177.766 291.981 177.766C289.265 177.766 288.005 175.162 288.005 170.794C288.005 166.342 289.321 164.102 291.981 164.102C294.613 164.102 295.929 166.342 295.929 170.794Z" fill="white"/>
<path opacity="0.54" d="M174.472 136.249C174.416 138.895 176.698 141.065 179.33 141.023C181.052 141.023 182.508 140.197 183.292 138.895L182.172 138.069C181.514 139.091 180.562 139.665 179.344 139.665C177.454 139.665 176.012 138.209 176.012 136.249C176.012 134.289 177.454 132.833 179.344 132.833C180.562 132.833 181.514 133.407 182.172 134.429L183.292 133.603C182.494 132.301 181.024 131.475 179.33 131.475C176.698 131.433 174.416 133.603 174.472 136.249ZM184.899 137.985C184.899 139.833 186.187 141.023 187.909 141.023C189.589 141.023 190.891 139.833 190.891 137.985V133.995H189.421V138.097C189.421 139.049 188.763 139.665 187.909 139.665C187.013 139.665 186.355 139.049 186.355 138.097V133.995H184.899V137.985ZM196.887 133.995C196.719 133.953 196.537 133.925 196.327 133.925C195.543 133.925 194.815 134.275 194.325 134.891V133.995H192.953V140.869H194.423V137.201C194.423 135.983 195.277 135.297 196.439 135.297H196.887V133.995ZM202.137 133.995C201.969 133.953 201.787 133.925 201.577 133.925C200.793 133.925 200.065 134.275 199.575 134.891V133.995H198.203V140.869H199.673V137.201C199.673 135.983 200.527 135.297 201.689 135.297H202.137V133.995ZM209.504 137.915C209.574 137.593 209.616 137.285 209.616 136.991C209.616 135.199 208.258 133.841 206.438 133.841C204.492 133.799 202.84 135.465 202.882 137.439C202.882 139.469 204.478 141.023 206.578 141.023C207.628 141.023 208.538 140.659 209.322 139.917L208.622 138.909C208.006 139.455 207.334 139.721 206.62 139.721C205.444 139.721 204.562 139.035 204.38 137.915H209.504ZM204.408 136.767C204.632 135.745 205.416 135.087 206.382 135.087C207.348 135.087 208.132 135.717 208.146 136.767H204.408ZM217.307 136.571C217.307 134.933 216.341 133.841 214.731 133.841C213.877 133.841 213.191 134.121 212.673 134.667V133.995H211.301V140.869H212.771V136.767C212.771 135.829 213.429 135.171 214.339 135.171C215.235 135.171 215.837 135.815 215.837 136.767V140.869H217.307V136.571ZM223.442 139.623C223.036 139.665 222.742 139.693 222.532 139.693C221.636 139.693 221.174 139.385 221.174 138.503V135.269H223.218V133.995H221.174V132.189H219.69V133.995H218.57V135.269H219.69V138.629C219.69 140.239 220.642 141.023 222.224 141.023C222.574 141.023 222.98 140.967 223.442 140.869V139.623ZM235.912 138.181C235.912 137.047 235.268 136.179 234.19 135.829C234.694 135.395 234.96 134.807 234.96 134.093C234.96 132.665 233.854 131.629 232.188 131.629H228.954V140.869H232.916C234.722 140.869 235.912 139.735 235.912 138.181ZM232.048 132.931C232.958 132.931 233.476 133.393 233.476 134.163C233.476 134.933 232.958 135.423 232.048 135.423H230.41V132.931H232.048ZM234.414 138.139C234.414 139.021 233.812 139.567 232.79 139.567H230.41V136.697H232.79C233.812 136.697 234.414 137.257 234.414 138.139ZM242.97 136.711C242.97 134.863 241.85 133.841 240.156 133.841C238.966 133.841 237.944 134.317 237.258 135.311L238.112 136.179C238.686 135.493 239.246 135.157 240.016 135.157C240.954 135.157 241.486 135.675 241.486 136.627V137.075H239.54C237.986 137.075 237.006 137.845 237.006 139.035C237.006 140.225 237.958 141.023 239.4 141.023C240.338 141.023 241.094 140.701 241.598 140.099V140.869H242.97V136.711ZM241.486 138.265C241.486 139.203 240.702 139.889 239.708 139.889C238.994 139.889 238.504 139.553 238.504 138.979C238.504 138.419 238.938 138.139 239.722 138.139H241.486V138.265ZM245.016 140.869H246.486V130.369H245.016V140.869ZM254.071 136.711C254.071 134.863 252.951 133.841 251.257 133.841C250.067 133.841 249.045 134.317 248.359 135.311L249.213 136.179C249.787 135.493 250.347 135.157 251.117 135.157C252.055 135.157 252.587 135.675 252.587 136.627V137.075H250.641C249.087 137.075 248.107 137.845 248.107 139.035C248.107 140.225 249.059 141.023 250.501 141.023C251.439 141.023 252.195 140.701 252.699 140.099V140.869H254.071V136.711ZM252.587 138.265C252.587 139.203 251.803 139.889 250.809 139.889C250.095 139.889 249.605 139.553 249.605 138.979C249.605 138.419 250.039 138.139 250.823 138.139H252.587V138.265ZM262.123 136.571C262.123 134.933 261.157 133.841 259.547 133.841C258.693 133.841 258.007 134.121 257.489 134.667V133.995H256.117V140.869H257.587V136.767C257.587 135.829 258.245 135.171 259.155 135.171C260.051 135.171 260.653 135.815 260.653 136.767V140.869H262.123V136.571ZM263.736 137.425C263.736 139.427 265.346 141.023 267.376 141.023C268.622 141.023 269.658 140.421 270.274 139.427L269.238 138.629C268.734 139.315 268.118 139.665 267.39 139.665C266.158 139.665 265.234 138.685 265.234 137.425C265.234 136.179 266.158 135.199 267.39 135.199C268.132 135.199 268.748 135.549 269.238 136.249L270.274 135.437C269.672 134.443 268.65 133.841 267.376 133.841C265.402 133.813 263.694 135.451 263.736 137.425ZM277.946 137.915C278.016 137.593 278.058 137.285 278.058 136.991C278.058 135.199 276.7 133.841 274.88 133.841C272.934 133.799 271.282 135.465 271.324 137.439C271.324 139.469 272.92 141.023 275.02 141.023C276.07 141.023 276.98 140.659 277.764 139.917L277.064 138.909C276.448 139.455 275.776 139.721 275.062 139.721C273.886 139.721 273.004 139.035 272.822 137.915H277.946ZM272.85 136.767C273.074 135.745 273.858 135.087 274.824 135.087C275.79 135.087 276.574 135.717 276.588 136.767H272.85Z" fill="white"/>
</g>
<g filter="url(#filter2_ddd_589_7257)">
<rect x="107" y="115" width="438.261" height="256" rx="41.7391" fill="url(#paint2_linear_589_7257)"/>
<mask id="mask2_589_7257" style="mask-type:alpha" maskUnits="userSpaceOnUse" x="107" y="115" width="439" height="256">
<rect x="107" y="115" width="438.261" height="256" rx="41.7391" fill="#ED713C"/>
</mask>
<g mask="url(#mask2_589_7257)">
<ellipse opacity="0.1" cx="141.087" cy="411.348" rx="223.304" ry="157.217" fill="black"/>
<ellipse opacity="0.08" cx="511.173" cy="74.6522" rx="223.304" ry="157.217" fill="black"/>
</g>
<path d="M463.151 326.427C463.151 329.157 464.313 331.285 466.679 331.285C469.059 331.285 470.193 329.157 470.193 326.427C470.193 325.013 469.899 323.879 469.297 323.025C468.709 322.171 467.841 321.737 466.679 321.737C465.517 321.737 464.649 322.171 464.047 323.039C463.445 323.893 463.151 325.027 463.151 326.427ZM468.653 326.441C468.653 328.625 468.037 329.927 466.679 329.927C465.321 329.927 464.691 328.625 464.691 326.441C464.691 324.215 465.349 323.095 466.679 323.095C467.995 323.095 468.653 324.215 468.653 326.441ZM478.715 324.943C478.757 323.123 477.203 321.709 475.453 321.737C473.689 321.737 472.177 323.123 472.177 324.929C472.177 326.679 473.619 328.023 475.201 328.023C475.355 328.023 475.481 328.009 475.607 327.981L473.381 331.131H475.145L477.441 327.869C477.763 327.421 478.001 327.071 478.155 326.819C478.309 326.553 478.449 326.273 478.547 325.965C478.659 325.643 478.715 325.307 478.715 324.943ZM477.245 324.929C477.245 325.447 477.077 325.881 476.727 326.231C476.377 326.581 475.957 326.763 475.453 326.763C474.935 326.763 474.501 326.595 474.151 326.245C473.801 325.895 473.633 325.447 473.633 324.929C473.633 324.411 473.801 323.977 474.151 323.627C474.501 323.277 474.935 323.095 475.453 323.095C475.957 323.095 476.377 323.277 476.727 323.627C477.077 323.977 477.245 324.411 477.245 324.929ZM478.215 332.825H479.853L487.175 320.211H485.537L478.215 332.825ZM490.55 329.843L492.174 328.121C492.818 327.435 493.308 326.847 493.63 326.329C493.966 325.811 494.134 325.237 494.134 324.607C494.134 322.983 492.832 321.737 491.068 321.737C489.178 321.737 487.96 323.179 487.96 324.691C487.96 324.971 487.988 325.237 488.058 325.489H489.556C489.514 325.209 489.486 324.971 489.486 324.775C489.486 323.823 490.116 323.095 491.054 323.095C491.992 323.095 492.594 323.781 492.594 324.719C492.594 325.503 492.146 326.175 491.124 327.253L487.834 330.795V331.131H494.456V329.843H490.55ZM502.842 328.149C502.842 326.287 501.344 325.265 499.692 325.265C499.272 325.265 498.88 325.307 498.516 325.391V323.221H502.324V321.891H497.06V326.539H499.188C500.546 326.539 501.316 327.127 501.316 328.177C501.316 329.241 500.504 329.927 499.398 329.927C498.404 329.927 497.718 329.409 497.158 328.555L496.122 329.297C496.752 330.487 497.914 331.285 499.44 331.285C501.274 331.285 502.842 330.011 502.842 328.149Z" fill="white"/>
<path opacity="0.9" d="M155.879 328.149C155.879 326.287 154.381 325.265 152.729 325.265C152.309 325.265 151.917 325.307 151.553 325.391V323.221H155.361V321.891H150.097V326.539H152.225C153.583 326.539 154.353 327.127 154.353 328.177C154.353 329.241 153.541 329.927 152.435 329.927C151.441 329.927 150.755 329.409 150.195 328.555L149.159 329.297C149.789 330.487 150.951 331.285 152.477 331.285C154.311 331.285 155.879 330.011 155.879 328.149ZM160.42 329.843L162.044 328.121C162.688 327.435 163.178 326.847 163.5 326.329C163.836 325.811 164.004 325.237 164.004 324.607C164.004 322.983 162.702 321.737 160.938 321.737C159.048 321.737 157.83 323.179 157.83 324.691C157.83 324.971 157.858 325.237 157.928 325.489H159.426C159.384 325.209 159.356 324.971 159.356 324.775C159.356 323.823 159.986 323.095 160.924 323.095C161.862 323.095 162.464 323.781 162.464 324.719C162.464 325.503 162.016 326.175 160.994 327.253L157.704 330.795V331.131H164.326V329.843H160.42ZM173.005 328.723C173.005 327.547 172.221 326.777 171.003 326.329C172.025 325.783 172.571 325.069 172.571 324.103C172.571 323.361 172.291 322.773 171.745 322.367C171.199 321.947 170.499 321.737 169.659 321.737C168.805 321.737 168.105 321.947 167.545 322.367C166.999 322.773 166.719 323.361 166.719 324.103C166.719 325.097 167.279 325.783 168.287 326.329C167.055 326.777 166.285 327.547 166.285 328.723C166.285 330.277 167.671 331.285 169.659 331.285C171.633 331.285 173.005 330.277 173.005 328.723ZM168.133 324.159C168.133 323.417 168.763 322.955 169.659 322.955C170.541 322.955 171.157 323.417 171.157 324.159C171.157 324.845 170.695 325.209 169.645 325.657C168.595 325.195 168.133 324.831 168.133 324.159ZM171.507 328.667C171.507 329.507 170.849 330.053 169.659 330.053C168.469 330.053 167.783 329.507 167.783 328.667C167.783 327.841 168.413 327.407 169.645 326.973C170.877 327.421 171.507 327.827 171.507 328.667ZM177.593 329.843L179.217 328.121C179.861 327.435 180.351 326.847 180.673 326.329C181.009 325.811 181.177 325.237 181.177 324.607C181.177 322.983 179.875 321.737 178.111 321.737C176.221 321.737 175.003 323.179 175.003 324.691C175.003 324.971 175.031 325.237 175.101 325.489H176.599C176.557 325.209 176.529 324.971 176.529 324.775C176.529 323.823 177.159 323.095 178.097 323.095C179.035 323.095 179.637 323.781 179.637 324.719C179.637 325.503 179.189 326.175 178.167 327.253L174.877 330.795V331.131H181.499V329.843H177.593ZM194.085 328.163C194.085 327.365 193.847 326.721 193.371 326.231C192.895 325.741 192.321 325.433 191.635 325.321L193.875 322.297V321.891H188.121V323.249H191.565L189.409 326.147V326.553H190.431C191.789 326.553 192.559 327.127 192.559 328.177C192.559 329.227 191.775 329.927 190.669 329.927C189.717 329.927 189.059 329.409 188.499 328.555L187.463 329.283C188.079 330.473 189.213 331.285 190.711 331.285C192.531 331.285 194.085 330.039 194.085 328.163ZM202.887 328.247H201.627V325.405H200.143V328.247H197.385L200.003 321.891H198.477L195.523 329.115V329.521H200.143V331.131H201.627V329.521H202.887V328.247ZM210.772 328.149C210.772 326.287 209.274 325.265 207.622 325.265C207.202 325.265 206.81 325.307 206.446 325.391V323.221H210.254V321.891H204.99V326.539H207.118C208.476 326.539 209.246 327.127 209.246 328.177C209.246 329.241 208.434 329.927 207.328 329.927C206.334 329.927 205.648 329.409 205.088 328.555L204.052 329.297C204.682 330.487 205.844 331.285 207.37 331.285C209.204 331.285 210.772 330.011 210.772 328.149ZM219.12 328.093C219.12 326.343 217.692 324.999 216.082 324.999C215.928 324.999 215.802 325.013 215.676 325.041L217.902 321.891H216.152L213.842 325.153C213.52 325.615 213.282 325.965 213.128 326.217C212.974 326.469 212.848 326.749 212.736 327.071C212.638 327.379 212.582 327.715 212.582 328.079C212.54 329.899 214.094 331.313 215.844 331.285C217.608 331.285 219.12 329.899 219.12 328.093ZM217.65 328.093C217.65 328.611 217.468 329.059 217.118 329.409C216.768 329.759 216.348 329.927 215.844 329.927C215.326 329.927 214.906 329.759 214.556 329.409C214.206 329.059 214.038 328.611 214.038 328.093C214.038 327.575 214.206 327.141 214.556 326.791C214.906 326.441 215.326 326.259 215.844 326.259C216.348 326.259 216.768 326.441 217.118 326.791C217.468 327.141 217.65 327.575 217.65 328.093ZM225.159 321.891V323.221H229.499L225.425 331.131H227.035L231.501 322.297V321.891H225.159ZM239.343 328.723C239.343 327.547 238.559 326.777 237.341 326.329C238.363 325.783 238.909 325.069 238.909 324.103C238.909 323.361 238.629 322.773 238.083 322.367C237.537 321.947 236.837 321.737 235.997 321.737C235.143 321.737 234.443 321.947 233.883 322.367C233.337 322.773 233.057 323.361 233.057 324.103C233.057 325.097 233.617 325.783 234.625 326.329C233.393 326.777 232.623 327.547 232.623 328.723C232.623 330.277 234.009 331.285 235.997 331.285C237.971 331.285 239.343 330.277 239.343 328.723ZM234.471 324.159C234.471 323.417 235.101 322.955 235.997 322.955C236.879 322.955 237.495 323.417 237.495 324.159C237.495 324.845 237.033 325.209 235.983 325.657C234.933 325.195 234.471 324.831 234.471 324.159ZM237.845 328.667C237.845 329.507 237.187 330.053 235.997 330.053C234.807 330.053 234.121 329.507 234.121 328.667C234.121 327.841 234.751 327.407 235.983 326.973C237.215 327.421 237.845 327.827 237.845 328.667ZM247.739 324.943C247.781 323.123 246.227 321.709 244.477 321.737C242.713 321.737 241.201 323.123 241.201 324.929C241.201 326.679 242.643 328.023 244.225 328.023C244.379 328.023 244.505 328.009 244.631 327.981L242.405 331.131H244.169L246.465 327.869C246.787 327.421 247.025 327.071 247.179 326.819C247.333 326.553 247.473 326.273 247.571 325.965C247.683 325.643 247.739 325.307 247.739 324.943ZM246.269 324.929C246.269 325.447 246.101 325.881 245.751 326.231C245.401 326.581 244.981 326.763 244.477 326.763C243.959 326.763 243.525 326.595 243.175 326.245C242.825 325.895 242.657 325.447 242.657 324.929C242.657 324.411 242.825 323.977 243.175 323.627C243.525 323.277 243.959 323.095 244.477 323.095C244.981 323.095 245.401 323.277 245.751 323.627C246.101 323.977 246.269 324.411 246.269 324.929ZM249.705 326.427C249.705 329.157 250.867 331.285 253.233 331.285C255.613 331.285 256.747 329.157 256.747 326.427C256.747 325.013 256.453 323.879 255.851 323.025C255.263 322.171 254.395 321.737 253.233 321.737C252.071 321.737 251.203 322.171 250.601 323.039C249.999 323.893 249.705 325.027 249.705 326.427ZM255.207 326.441C255.207 328.625 254.591 329.927 253.233 329.927C251.875 329.927 251.245 328.625 251.245 326.441C251.245 324.215 251.903 323.095 253.233 323.095C254.549 323.095 255.207 324.215 255.207 326.441ZM266.066 321.891L262.86 322.941L263.224 324.243L265.1 323.641V331.131H266.584V321.891H266.066ZM271.839 329.843L273.463 328.121C274.107 327.435 274.597 326.847 274.919 326.329C275.255 325.811 275.423 325.237 275.423 324.607C275.423 322.983 274.121 321.737 272.357 321.737C270.467 321.737 269.249 323.179 269.249 324.691C269.249 324.971 269.277 325.237 269.347 325.489H270.845C270.803 325.209 270.775 324.971 270.775 324.775C270.775 323.823 271.405 323.095 272.343 323.095C273.281 323.095 273.883 323.781 273.883 324.719C273.883 325.503 273.435 326.175 272.413 327.253L269.123 330.795V331.131H275.745V329.843H271.839ZM284.425 328.723C284.425 327.547 283.641 326.777 282.423 326.329C283.445 325.783 283.991 325.069 283.991 324.103C283.991 323.361 283.711 322.773 283.165 322.367C282.619 321.947 281.919 321.737 281.079 321.737C280.225 321.737 279.525 321.947 278.965 322.367C278.419 322.773 278.139 323.361 278.139 324.103C278.139 325.097 278.699 325.783 279.707 326.329C278.475 326.777 277.705 327.547 277.705 328.723C277.705 330.277 279.091 331.285 281.079 331.285C283.053 331.285 284.425 330.277 284.425 328.723ZM279.553 324.159C279.553 323.417 280.183 322.955 281.079 322.955C281.961 322.955 282.577 323.417 282.577 324.159C282.577 324.845 282.115 325.209 281.065 325.657C280.015 325.195 279.553 324.831 279.553 324.159ZM282.927 328.667C282.927 329.507 282.269 330.053 281.079 330.053C279.889 330.053 279.203 329.507 279.203 328.667C279.203 327.841 279.833 327.407 281.065 326.973C282.297 327.421 282.927 327.827 282.927 328.667ZM292.821 324.943C292.863 323.123 291.309 321.709 289.559 321.737C287.795 321.737 286.283 323.123 286.283 324.929C286.283 326.679 287.725 328.023 289.307 328.023C289.461 328.023 289.587 328.009 289.713 327.981L287.487 331.131H289.251L291.547 327.869C291.869 327.421 292.107 327.071 292.261 326.819C292.415 326.553 292.555 326.273 292.653 325.965C292.765 325.643 292.821 325.307 292.821 324.943ZM291.351 324.929C291.351 325.447 291.183 325.881 290.833 326.231C290.483 326.581 290.063 326.763 289.559 326.763C289.041 326.763 288.607 326.595 288.257 326.245C287.907 325.895 287.739 325.447 287.739 324.929C287.739 324.411 287.907 323.977 288.257 323.627C288.607 323.277 289.041 323.095 289.559 323.095C290.063 323.095 290.483 323.277 290.833 323.627C291.183 323.977 291.351 324.411 291.351 324.929Z" fill="white"/>
<path d="M463.753 153.92H480.681V184.338H463.753V153.92Z" fill="#FF5F00"/>
<path d="M452.307 199.648V196.424C452.307 195.188 451.554 194.382 450.264 194.382C449.619 194.382 448.921 194.597 448.437 195.295C448.061 194.704 447.524 194.382 446.717 194.382C446.18 194.382 445.643 194.543 445.213 195.134V194.489H444.084V199.648H445.213V196.8C445.213 195.887 445.696 195.456 446.449 195.456C447.201 195.456 447.577 195.94 447.577 196.8V199.648H448.706V196.8C448.706 195.887 449.243 195.456 449.942 195.456C450.694 195.456 451.07 195.94 451.07 196.8V199.648H452.307V199.648ZM469.02 194.489H467.193V192.931H466.064V194.489H465.043V195.51H466.064V197.875C466.064 199.057 466.548 199.756 467.838 199.756C468.321 199.756 468.858 199.595 469.235 199.38L468.912 198.412C468.59 198.627 468.214 198.681 467.945 198.681C467.408 198.681 467.193 198.359 467.193 197.821V195.51H469.02V194.489V194.489ZM478.586 194.381C477.941 194.381 477.511 194.704 477.242 195.134V194.489H476.114V199.648H477.242V196.746C477.242 195.887 477.618 195.403 478.317 195.403C478.532 195.403 478.801 195.457 479.016 195.51L479.338 194.436C479.123 194.382 478.801 194.382 478.586 194.382V194.381ZM464.129 194.919C463.592 194.543 462.84 194.382 462.033 194.382C460.744 194.382 459.884 195.027 459.884 196.048C459.884 196.908 460.529 197.391 461.657 197.552L462.195 197.606C462.786 197.714 463.108 197.875 463.108 198.144C463.108 198.52 462.678 198.788 461.926 198.788C461.174 198.788 460.582 198.52 460.206 198.251L459.669 199.111C460.26 199.541 461.066 199.756 461.872 199.756C463.377 199.756 464.237 199.057 464.237 198.09C464.237 197.176 463.538 196.692 462.463 196.531L461.926 196.478C461.442 196.424 461.066 196.316 461.066 195.994C461.066 195.618 461.442 195.403 462.033 195.403C462.678 195.403 463.323 195.671 463.646 195.833L464.129 194.919V194.919ZM494.117 194.382C493.472 194.382 493.042 194.704 492.773 195.134V194.489H491.645V199.648H492.773V196.746C492.773 195.887 493.15 195.403 493.848 195.403C494.063 195.403 494.332 195.457 494.547 195.51L494.869 194.436C494.654 194.382 494.332 194.382 494.117 194.382V194.382ZM479.714 197.069C479.714 198.627 480.789 199.756 482.455 199.756C483.207 199.756 483.745 199.595 484.282 199.165L483.745 198.251C483.315 198.574 482.885 198.735 482.401 198.735C481.488 198.735 480.843 198.09 480.843 197.069C480.843 196.101 481.488 195.456 482.401 195.403C482.885 195.403 483.315 195.564 483.745 195.887L484.282 194.973C483.745 194.543 483.207 194.382 482.455 194.382C480.789 194.382 479.714 195.51 479.714 197.069ZM490.14 197.069V194.489H489.012V195.134C488.635 194.651 488.098 194.382 487.399 194.382C485.948 194.382 484.82 195.51 484.82 197.069C484.82 198.627 485.948 199.756 487.399 199.756C488.152 199.756 488.689 199.487 489.012 199.003V199.648H490.14V197.069V197.069ZM486.002 197.069C486.002 196.155 486.593 195.403 487.56 195.403C488.474 195.403 489.119 196.101 489.119 197.069C489.119 197.982 488.474 198.735 487.56 198.735C486.593 198.681 486.002 197.982 486.002 197.069V197.069ZM472.513 194.382C471.008 194.382 469.933 195.456 469.933 197.069C469.933 198.681 471.008 199.756 472.567 199.756C473.319 199.756 474.072 199.541 474.663 199.057L474.125 198.251C473.695 198.574 473.158 198.788 472.621 198.788C471.922 198.788 471.223 198.466 471.062 197.552H474.878V197.123C474.932 195.456 473.964 194.382 472.513 194.382H472.513ZM472.513 195.349C473.212 195.349 473.695 195.779 473.803 196.585H471.116C471.223 195.887 471.707 195.349 472.513 195.349ZM500.512 197.069V192.447H499.383V195.134C499.007 194.651 498.47 194.382 497.771 194.382C496.32 194.382 495.192 195.51 495.192 197.069C495.192 198.627 496.32 199.756 497.771 199.756C498.524 199.756 499.061 199.487 499.383 199.003V199.648H500.512V197.069V197.069ZM496.374 197.069C496.374 196.155 496.965 195.403 497.933 195.403C498.846 195.403 499.491 196.101 499.491 197.069C499.491 197.982 498.846 198.735 497.933 198.735C496.965 198.681 496.374 197.982 496.374 197.069V197.069ZM458.648 197.069V194.489H457.519V195.134C457.143 194.651 456.606 194.382 455.907 194.382C454.456 194.382 453.327 195.51 453.327 197.069C453.327 198.627 454.456 199.756 455.907 199.756C456.659 199.756 457.197 199.487 457.519 199.003V199.648H458.648V197.069V197.069ZM454.456 197.069C454.456 196.155 455.047 195.403 456.014 195.403C456.928 195.403 457.573 196.101 457.573 197.069C457.573 197.982 456.928 198.735 456.014 198.735C455.047 198.681 454.456 197.982 454.456 197.069V197.069Z" fill="white"/>
<path d="M464.827 169.13C464.827 162.949 467.729 157.468 472.19 153.921C468.912 151.341 464.774 149.783 460.26 149.783C449.565 149.783 440.913 158.435 440.913 169.13C440.913 179.824 449.565 188.476 460.259 188.476C464.774 188.476 468.912 186.918 472.19 184.338C467.729 180.845 464.827 175.31 464.827 169.13V169.13Z" fill="#EB001B"/>
<path d="M503.521 169.13C503.521 179.824 494.869 188.476 484.174 188.476C479.66 188.476 475.522 186.918 472.244 184.338C476.758 180.791 479.606 175.31 479.606 169.13C479.606 162.949 476.704 157.468 472.244 153.921C475.522 151.341 479.66 149.783 484.174 149.783C494.869 149.783 503.521 158.489 503.521 169.13H503.521Z" fill="#F79E1B"/>
<path d="M157.587 212.676C160.359 212.256 162.263 210.52 162.263 207.944C162.263 205.704 160.807 204.192 158.091 203.156L156.019 202.372C154.479 201.7 153.779 201.168 153.779 200.076C153.779 198.816 154.927 198.2 156.355 198.2C157.811 198.2 158.847 198.844 159.827 200.272L161.843 198.76C160.863 197.024 159.435 195.988 157.587 195.652V192.376H154.871V195.708C152.491 196.184 150.839 197.836 150.839 200.104C150.839 202.148 152.183 203.716 154.899 204.78L156.831 205.536C158.539 206.292 159.323 206.88 159.323 208C159.323 209.344 158.091 210.156 156.383 210.156C154.507 210.156 152.995 209.204 151.791 207.328L149.747 208.84C150.867 210.856 152.631 212.2 154.871 212.62V216.008H157.587V212.676ZM178.058 207.384C178.058 203.66 175.062 201.616 171.758 201.616C170.918 201.616 170.134 201.7 169.406 201.868V197.528H177.022V194.868H166.494V204.164H170.75C173.466 204.164 175.006 205.34 175.006 207.44C175.006 209.568 173.382 210.94 171.17 210.94C169.182 210.94 167.81 209.904 166.69 208.196L164.618 209.68C165.878 212.06 168.202 213.656 171.254 213.656C174.922 213.656 178.058 211.108 178.058 207.384ZM181.575 218.332H183.955L185.271 210.38H181.855L181.575 218.332ZM188.001 194.868V197.528H196.681L188.533 213.348H191.753L200.685 195.68V194.868H188.001ZM215.629 207.384C215.629 203.66 212.633 201.616 209.329 201.616C208.489 201.616 207.705 201.7 206.977 201.868V197.528H214.593V194.868H204.065V204.164H208.321C211.037 204.164 212.577 205.34 212.577 207.44C212.577 209.568 210.953 210.94 208.741 210.94C206.753 210.94 205.381 209.904 204.261 208.196L202.189 209.68C203.449 212.06 205.773 213.656 208.825 213.656C212.493 213.656 215.629 211.108 215.629 207.384ZM218.697 203.94C218.697 209.4 221.021 213.656 225.753 213.656C230.513 213.656 232.781 209.4 232.781 203.94C232.781 201.112 232.193 198.844 230.989 197.136C229.813 195.428 228.077 194.56 225.753 194.56C223.429 194.56 221.693 195.428 220.489 197.164C219.285 198.872 218.697 201.14 218.697 203.94ZM229.701 203.968C229.701 208.336 228.469 210.94 225.753 210.94C223.037 210.94 221.777 208.336 221.777 203.968C221.777 199.516 223.093 197.276 225.753 197.276C228.385 197.276 229.701 199.516 229.701 203.968ZM236.372 218.332H238.752L240.068 210.38H236.652L236.372 218.332ZM248.783 210.772L252.031 207.328C253.319 205.956 254.299 204.78 254.943 203.744C255.615 202.708 255.951 201.56 255.951 200.3C255.951 197.052 253.347 194.56 249.819 194.56C246.039 194.56 243.603 197.444 243.603 200.468C243.603 201.028 243.659 201.56 243.799 202.064H246.795C246.711 201.504 246.655 201.028 246.655 200.636C246.655 198.732 247.915 197.276 249.791 197.276C251.667 197.276 252.871 198.648 252.871 200.524C252.871 202.092 251.975 203.436 249.931 205.592L243.351 212.676V213.348H256.595V210.772H248.783ZM259.795 203.94C259.795 209.4 262.119 213.656 266.851 213.656C271.611 213.656 273.879 209.4 273.879 203.94C273.879 201.112 273.291 198.844 272.087 197.136C270.911 195.428 269.175 194.56 266.851 194.56C264.527 194.56 262.791 195.428 261.587 197.164C260.383 198.872 259.795 201.14 259.795 203.94ZM270.799 203.968C270.799 208.336 269.567 210.94 266.851 210.94C264.135 210.94 262.875 208.336 262.875 203.968C262.875 199.516 264.191 197.276 266.851 197.276C269.483 197.276 270.799 199.516 270.799 203.968Z" fill="white"/>
<path opacity="0.54" d="M149.341 165.119C149.285 167.765 151.567 169.935 154.199 169.893C155.921 169.893 157.377 169.067 158.161 167.765L157.041 166.939C156.383 167.961 155.431 168.535 154.213 168.535C152.323 168.535 150.881 167.079 150.881 165.119C150.881 163.159 152.323 161.703 154.213 161.703C155.431 161.703 156.383 162.277 157.041 163.299L158.161 162.473C157.363 161.171 155.893 160.345 154.199 160.345C151.567 160.303 149.285 162.473 149.341 165.119ZM159.768 166.855C159.768 168.703 161.056 169.893 162.778 169.893C164.458 169.893 165.76 168.703 165.76 166.855V162.865H164.29V166.967C164.29 167.919 163.632 168.535 162.778 168.535C161.882 168.535 161.224 167.919 161.224 166.967V162.865H159.768V166.855ZM171.757 162.865C171.589 162.823 171.407 162.795 171.197 162.795C170.413 162.795 169.685 163.145 169.195 163.761V162.865H167.823V169.739H169.293V166.071C169.293 164.853 170.147 164.167 171.309 164.167H171.757V162.865ZM177.007 162.865C176.839 162.823 176.657 162.795 176.447 162.795C175.663 162.795 174.935 163.145 174.445 163.761V162.865H173.073V169.739H174.543V166.071C174.543 164.853 175.397 164.167 176.559 164.167H177.007V162.865ZM184.374 166.785C184.444 166.463 184.486 166.155 184.486 165.861C184.486 164.069 183.128 162.711 181.308 162.711C179.362 162.669 177.71 164.335 177.752 166.309C177.752 168.339 179.348 169.893 181.448 169.893C182.498 169.893 183.408 169.529 184.192 168.787L183.492 167.779C182.876 168.325 182.204 168.591 181.49 168.591C180.314 168.591 179.432 167.905 179.25 166.785H184.374ZM179.278 165.637C179.502 164.615 180.286 163.957 181.252 163.957C182.218 163.957 183.002 164.587 183.016 165.637H179.278ZM192.176 165.441C192.176 163.803 191.21 162.711 189.6 162.711C188.746 162.711 188.06 162.991 187.542 163.537V162.865H186.17V169.739H187.64V165.637C187.64 164.699 188.298 164.041 189.208 164.041C190.104 164.041 190.706 164.685 190.706 165.637V169.739H192.176V165.441ZM198.311 168.493C197.905 168.535 197.611 168.563 197.401 168.563C196.505 168.563 196.043 168.255 196.043 167.373V164.139H198.087V162.865H196.043V161.059H194.559V162.865H193.439V164.139H194.559V167.499C194.559 169.109 195.511 169.893 197.093 169.893C197.443 169.893 197.849 169.837 198.311 169.739V168.493ZM210.781 167.051C210.781 165.917 210.137 165.049 209.059 164.699C209.563 164.265 209.829 163.677 209.829 162.963C209.829 161.535 208.723 160.499 207.057 160.499H203.823V169.739H207.785C209.591 169.739 210.781 168.605 210.781 167.051ZM206.917 161.801C207.827 161.801 208.345 162.263 208.345 163.033C208.345 163.803 207.827 164.293 206.917 164.293H205.279V161.801H206.917ZM209.283 167.009C209.283 167.891 208.681 168.437 207.659 168.437H205.279V165.567H207.659C208.681 165.567 209.283 166.127 209.283 167.009ZM217.839 165.581C217.839 163.733 216.719 162.711 215.025 162.711C213.835 162.711 212.813 163.187 212.127 164.181L212.981 165.049C213.555 164.363 214.115 164.027 214.885 164.027C215.823 164.027 216.355 164.545 216.355 165.497V165.945H214.409C212.855 165.945 211.875 166.715 211.875 167.905C211.875 169.095 212.827 169.893 214.269 169.893C215.207 169.893 215.963 169.571 216.467 168.969V169.739H217.839V165.581ZM216.355 167.135C216.355 168.073 215.571 168.759 214.577 168.759C213.863 168.759 213.373 168.423 213.373 167.849C213.373 167.289 213.807 167.009 214.591 167.009H216.355V167.135ZM219.885 169.739H221.355V159.239H219.885V169.739ZM228.941 165.581C228.941 163.733 227.821 162.711 226.127 162.711C224.937 162.711 223.915 163.187 223.229 164.181L224.083 165.049C224.657 164.363 225.217 164.027 225.987 164.027C226.925 164.027 227.457 164.545 227.457 165.497V165.945H225.511C223.957 165.945 222.977 166.715 222.977 167.905C222.977 169.095 223.929 169.893 225.371 169.893C226.309 169.893 227.065 169.571 227.569 168.969V169.739H228.941V165.581ZM227.457 167.135C227.457 168.073 226.673 168.759 225.679 168.759C224.965 168.759 224.475 168.423 224.475 167.849C224.475 167.289 224.909 167.009 225.693 167.009H227.457V167.135ZM236.993 165.441C236.993 163.803 236.027 162.711 234.417 162.711C233.563 162.711 232.877 162.991 232.359 163.537V162.865H230.987V169.739H232.457V165.637C232.457 164.699 233.115 164.041 234.025 164.041C234.921 164.041 235.523 164.685 235.523 165.637V169.739H236.993V165.441ZM238.606 166.295C238.606 168.297 240.216 169.893 242.246 169.893C243.492 169.893 244.528 169.291 245.144 168.297L244.108 167.499C243.604 168.185 242.988 168.535 242.26 168.535C241.028 168.535 240.104 167.555 240.104 166.295C240.104 165.049 241.028 164.069 242.26 164.069C243.002 164.069 243.618 164.419 244.108 165.119L245.144 164.307C244.542 163.313 243.52 162.711 242.246 162.711C240.272 162.683 238.564 164.321 238.606 166.295ZM252.815 166.785C252.885 166.463 252.927 166.155 252.927 165.861C252.927 164.069 251.569 162.711 249.749 162.711C247.803 162.669 246.151 164.335 246.193 166.309C246.193 168.339 247.789 169.893 249.889 169.893C250.939 169.893 251.849 169.529 252.633 168.787L251.933 167.779C251.317 168.325 250.645 168.591 249.931 168.591C248.755 168.591 247.873 167.905 247.691 166.785H252.815ZM247.719 165.637C247.943 164.615 248.727 163.957 249.693 163.957C250.659 163.957 251.443 164.587 251.457 165.637H247.719Z" fill="white"/>
</g>
</g>
<defs>
<filter id="filter0_ddd_589_7257" x="111.871" y="70" width="427.178" height="289.683" filterUnits="userSpaceOnUse" color-interpolation-filters="sRGB">
<feFlood flood-opacity="0" result="BackgroundImageFix"/>
<feColorMatrix in="SourceAlpha" type="matrix" values="0 0 0 0 0 0 0 0 0 0 0 0 0 0 0 0 0 0 127 0" result="hardAlpha"/>
<feOffset dy="12.0701"/>
<feGaussianBlur stdDeviation="6.03507"/>
<feColorMatrix type="matrix" values="0 0 0 0 0 0 0 0 0 0 0 0 0 0 0 0 0 0 0.25 0"/>
<feBlend mode="normal" in2="BackgroundImageFix" result="effect1_dropShadow_589_7257"/>
<feColorMatrix in="SourceAlpha" type="matrix" values="0 0 0 0 0 0 0 0 0 0 0 0 0 0 0 0 0 0 127 0" result="hardAlpha"/>
<feOffset dy="24.1403"/>
<feGaussianBlur stdDeviation="12.0701"/>
<feColorMatrix type="matrix" values="0 0 0 0 0 0 0 0 0 0 0 0 0 0 0 0 0 0 0.25 0"/>
<feBlend mode="normal" in2="effect1_dropShadow_589_7257" result="effect2_dropShadow_589_7257"/>
<feColorMatrix in="SourceAlpha" type="matrix" values="0 0 0 0 0 0 0 0 0 0 0 0 0 0 0 0 0 0 127 0" result="hardAlpha"/>
<feOffset dy="48.2805"/>
<feGaussianBlur stdDeviation="24.1403"/>
<feColorMatrix type="matrix" values="0 0 0 0 0 0 0 0 0 0 0 0 0 0 0 0 0 0 0.25 0"/>
<feBlend mode="normal" in2="effect2_dropShadow_589_7257" result="effect3_dropShadow_589_7257"/>
<feBlend mode="normal" in="SourceGraphic" in2="effect3_dropShadow_589_7257" result="shape"/>
</filter>
<filter id="filter1_ddd_589_7257" x="83" y="92" width="486.63" height="330" filterUnits="userSpaceOnUse" color-interpolation-filters="sRGB">
<feFlood flood-opacity="0" result="BackgroundImageFix"/>
<feColorMatrix in="SourceAlpha" type="matrix" values="0 0 0 0 0 0 0 0 0 0 0 0 0 0 0 0 0 0 127 0" result="hardAlpha"/>
<feOffset dy="13.75"/>
<feGaussianBlur stdDeviation="6.875"/>
<feColorMatrix type="matrix" values="0 0 0 0 0 0 0 0 0 0 0 0 0 0 0 0 0 0 0.25 0"/>
<feBlend mode="normal" in2="BackgroundImageFix" result="effect1_dropShadow_589_7257"/>
<feColorMatrix in="SourceAlpha" type="matrix" values="0 0 0 0 0 0 0 0 0 0 0 0 0 0 0 0 0 0 127 0" result="hardAlpha"/>
<feOffset dy="27.5"/>
<feGaussianBlur stdDeviation="13.75"/>
<feColorMatrix type="matrix" values="0 0 0 0 0 0 0 0 0 0 0 0 0 0 0 0 0 0 0.25 0"/>
<feBlend mode="normal" in2="effect1_dropShadow_589_7257" result="effect2_dropShadow_589_7257"/>
<feColorMatrix in="SourceAlpha" type="matrix" values="0 0 0 0 0 0 0 0 0 0 0 0 0 0 0 0 0 0 127 0" result="hardAlpha"/>
<feOffset dy="55"/>
<feGaussianBlur stdDeviation="27.5"/>
<feColorMatrix type="matrix" values="0 0 0 0 0 0 0 0 0 0 0 0 0 0 0 0 0 0 0.25 0"/>
<feBlend mode="normal" in2="effect2_dropShadow_589_7257" result="effect3_dropShadow_589_7257"/>
<feBlend mode="normal" in="SourceGraphic" in2="effect3_dropShadow_589_7257" result="shape"/>
</filter>
<filter id="filter2_ddd_589_7257" x="43" y="115" width="566.261" height="384" filterUnits="userSpaceOnUse" color-interpolation-filters="sRGB">
<feFlood flood-opacity="0" result="BackgroundImageFix"/>
<feColorMatrix in="SourceAlpha" type="matrix" values="0 0 0 0 0 0 0 0 0 0 0 0 0 0 0 0 0 0 127 0" result="hardAlpha"/>
<feOffset dy="16"/>
<feGaussianBlur stdDeviation="8"/>
<feColorMatrix type="matrix" values="0 0 0 0 0 0 0 0 0 0 0 0 0 0 0 0 0 0 0.25 0"/>
<feBlend mode="normal" in2="BackgroundImageFix" result="effect1_dropShadow_589_7257"/>
<feColorMatrix in="SourceAlpha" type="matrix" values="0 0 0 0 0 0 0 0 0 0 0 0 0 0 0 0 0 0 127 0" result="hardAlpha"/>
<feOffset dy="32"/>
<feGaussianBlur stdDeviation="16"/>
<feColorMatrix type="matrix" values="0 0 0 0 0 0 0 0 0 0 0 0 0 0 0 0 0 0 0.25 0"/>
<feBlend mode="normal" in2="effect1_dropShadow_589_7257" result="effect2_dropShadow_589_7257"/>
<feColorMatrix in="SourceAlpha" type="matrix" values="0 0 0 0 0 0 0 0 0 0 0 0 0 0 0 0 0 0 127 0" result="hardAlpha"/>
<feOffset dy="64"/>
<feGaussianBlur stdDeviation="32"/>
<feColorMatrix type="matrix" values="0 0 0 0 0 0 0 0 0 0 0 0 0 0 0 0 0 0 0.25 0"/>
<feBlend mode="normal" in2="effect2_dropShadow_589_7257" result="effect3_dropShadow_589_7257"/>
<feBlend mode="normal" in="SourceGraphic" in2="effect3_dropShadow_589_7257" result="shape"/>
</filter>
<linearGradient id="paint0_linear_589_7257" x1="325.46" y1="70" x2="325.46" y2="263.122" gradientUnits="userSpaceOnUse">
<stop stop-color="#3F4346"/>
<stop offset="1" stop-color="#0C0C0C"/>
</linearGradient>
<linearGradient id="paint1_linear_589_7257" x1="326.315" y1="92" x2="326.315" y2="312" gradientUnits="userSpaceOnUse">
<stop stop-color="#3F4346"/>
<stop offset="1" stop-color="#0C0C0C"/>
</linearGradient>
<linearGradient id="paint2_linear_589_7257" x1="326.13" y1="115" x2="326.13" y2="371" gradientUnits="userSpaceOnUse">
<stop stop-color="#3F4346"/>
<stop offset="1" stop-color="#0C0C0C"/>
</linearGradient>
<clipPath id="clip0_589_7257">
<rect width="653" height="326.5" fill="white"/>
</clipPath>
</defs>
</svg>
