<svg width="653" height="327" viewBox="0 0 653 327" fill="none" xmlns="http://www.w3.org/2000/svg">
<g clip-path="url(#clip0_589_7249)">
<g opacity="0.75" filter="url(#filter0_ddd_589_7249)">
<rect x="161" y="70" width="330.617" height="193.122" rx="31.4873" fill="#4A14BD"/>
<mask id="mask0_589_7249" style="mask-type:alpha" maskUnits="userSpaceOnUse" x="161" y="70" width="331" height="194">
<rect x="161" y="70" width="330.617" height="193.122" rx="31.4873" fill="#ED713C"/>
</mask>
<g mask="url(#mask0_589_7249)">
<ellipse opacity="0.1" cx="186.714" cy="293.56" rx="168.457" ry="118.602" fill="black"/>
<ellipse opacity="0.08" cx="465.902" cy="39.5624" rx="168.457" ry="118.602" fill="black"/>
</g>
<path d="M419.759 231.535C419.759 234.265 420.921 236.393 423.287 236.393C425.667 236.393 426.801 234.265 426.801 231.535C426.801 230.121 426.507 228.987 425.905 228.133C425.317 227.279 424.449 226.845 423.287 226.845C422.125 226.845 421.257 227.279 420.655 228.147C420.053 229.001 419.759 230.135 419.759 231.535ZM425.261 231.549C425.261 233.733 424.645 235.035 423.287 235.035C421.929 235.035 421.299 233.733 421.299 231.549C421.299 229.323 421.957 228.203 423.287 228.203C424.603 228.203 425.261 229.323 425.261 231.549ZM435.323 230.051C435.365 228.231 433.811 226.817 432.061 226.845C430.297 226.845 428.785 228.231 428.785 230.037C428.785 231.787 430.227 233.131 431.809 233.131C431.963 233.131 432.089 233.117 432.215 233.089L429.989 236.239H431.753L434.049 232.977C434.371 232.529 434.609 232.179 434.763 231.927C434.917 231.661 435.057 231.381 435.155 231.073C435.267 230.751 435.323 230.415 435.323 230.051ZM433.853 230.037C433.853 230.555 433.685 230.989 433.335 231.339C432.985 231.689 432.565 231.871 432.061 231.871C431.543 231.871 431.109 231.703 430.759 231.353C430.409 231.003 430.241 230.555 430.241 230.037C430.241 229.519 430.409 229.085 430.759 228.735C431.109 228.385 431.543 228.203 432.061 228.203C432.565 228.203 432.985 228.385 433.335 228.735C433.685 229.085 433.853 229.519 433.853 230.037ZM434.822 237.933H436.46L443.782 225.319H442.144L434.822 237.933ZM447.157 234.951L448.781 233.229C449.425 232.543 449.915 231.955 450.237 231.437C450.573 230.919 450.741 230.345 450.741 229.715C450.741 228.091 449.439 226.845 447.675 226.845C445.785 226.845 444.567 228.287 444.567 229.799C444.567 230.079 444.595 230.345 444.665 230.597H446.163C446.121 230.317 446.093 230.079 446.093 229.883C446.093 228.931 446.723 228.203 447.661 228.203C448.599 228.203 449.201 228.889 449.201 229.827C449.201 230.611 448.753 231.283 447.731 232.361L444.441 235.903V236.239H451.063V234.951H447.157ZM459.449 233.257C459.449 231.395 457.951 230.373 456.299 230.373C455.879 230.373 455.487 230.415 455.123 230.499V228.329H458.931V226.999H453.667V231.647H455.795C457.153 231.647 457.923 232.235 457.923 233.285C457.923 234.349 457.111 235.035 456.005 235.035C455.011 235.035 454.325 234.517 453.765 233.663L452.729 234.405C453.359 235.595 454.521 236.393 456.047 236.393C457.881 236.393 459.449 235.119 459.449 233.257Z" fill="white"/>
<path opacity="0.9" d="M199.627 233.257C199.627 231.395 198.129 230.373 196.477 230.373C196.057 230.373 195.665 230.415 195.301 230.499V228.329H199.109V226.999H193.845V231.647H195.973C197.331 231.647 198.101 232.235 198.101 233.285C198.101 234.349 197.289 235.035 196.183 235.035C195.189 235.035 194.503 234.517 193.943 233.663L192.907 234.405C193.537 235.595 194.699 236.393 196.225 236.393C198.059 236.393 199.627 235.119 199.627 233.257ZM204.168 234.951L205.792 233.229C206.436 232.543 206.926 231.955 207.248 231.437C207.584 230.919 207.752 230.345 207.752 229.715C207.752 228.091 206.45 226.845 204.686 226.845C202.796 226.845 201.578 228.287 201.578 229.799C201.578 230.079 201.606 230.345 201.676 230.597H203.174C203.132 230.317 203.104 230.079 203.104 229.883C203.104 228.931 203.734 228.203 204.672 228.203C205.61 228.203 206.212 228.889 206.212 229.827C206.212 230.611 205.764 231.283 204.742 232.361L201.452 235.903V236.239H208.074V234.951H204.168ZM216.753 233.831C216.753 232.655 215.969 231.885 214.751 231.437C215.773 230.891 216.319 230.177 216.319 229.211C216.319 228.469 216.039 227.881 215.493 227.475C214.947 227.055 214.247 226.845 213.407 226.845C212.553 226.845 211.853 227.055 211.293 227.475C210.747 227.881 210.467 228.469 210.467 229.211C210.467 230.205 211.027 230.891 212.035 231.437C210.803 231.885 210.033 232.655 210.033 233.831C210.033 235.385 211.419 236.393 213.407 236.393C215.381 236.393 216.753 235.385 216.753 233.831ZM211.881 229.267C211.881 228.525 212.511 228.063 213.407 228.063C214.289 228.063 214.905 228.525 214.905 229.267C214.905 229.953 214.443 230.317 213.393 230.765C212.343 230.303 211.881 229.939 211.881 229.267ZM215.255 233.775C215.255 234.615 214.597 235.161 213.407 235.161C212.217 235.161 211.531 234.615 211.531 233.775C211.531 232.949 212.161 232.515 213.393 232.081C214.625 232.529 215.255 232.935 215.255 233.775ZM221.341 234.951L222.965 233.229C223.609 232.543 224.099 231.955 224.421 231.437C224.757 230.919 224.925 230.345 224.925 229.715C224.925 228.091 223.623 226.845 221.859 226.845C219.969 226.845 218.751 228.287 218.751 229.799C218.751 230.079 218.779 230.345 218.849 230.597H220.347C220.305 230.317 220.277 230.079 220.277 229.883C220.277 228.931 220.907 228.203 221.845 228.203C222.783 228.203 223.385 228.889 223.385 229.827C223.385 230.611 222.937 231.283 221.915 232.361L218.625 235.903V236.239H225.247V234.951H221.341ZM237.833 233.271C237.833 232.473 237.595 231.829 237.119 231.339C236.643 230.849 236.069 230.541 235.383 230.429L237.623 227.405V226.999H231.869V228.357H235.313L233.157 231.255V231.661H234.179C235.537 231.661 236.307 232.235 236.307 233.285C236.307 234.335 235.523 235.035 234.417 235.035C233.465 235.035 232.807 234.517 232.247 233.663L231.211 234.391C231.827 235.581 232.961 236.393 234.459 236.393C236.279 236.393 237.833 235.147 237.833 233.271ZM246.635 233.355H245.375V230.513H243.891V233.355H241.133L243.751 226.999H242.225L239.271 234.223V234.629H243.891V236.239H245.375V234.629H246.635V233.355ZM254.52 233.257C254.52 231.395 253.022 230.373 251.37 230.373C250.95 230.373 250.558 230.415 250.194 230.499V228.329H254.002V226.999H248.738V231.647H250.866C252.224 231.647 252.994 232.235 252.994 233.285C252.994 234.349 252.182 235.035 251.076 235.035C250.082 235.035 249.396 234.517 248.836 233.663L247.8 234.405C248.43 235.595 249.592 236.393 251.118 236.393C252.952 236.393 254.52 235.119 254.52 233.257ZM262.868 233.201C262.868 231.451 261.44 230.107 259.83 230.107C259.676 230.107 259.55 230.121 259.424 230.149L261.65 226.999H259.9L257.59 230.261C257.268 230.723 257.03 231.073 256.876 231.325C256.722 231.577 256.596 231.857 256.484 232.179C256.386 232.487 256.33 232.823 256.33 233.187C256.288 235.007 257.842 236.421 259.592 236.393C261.356 236.393 262.868 235.007 262.868 233.201ZM261.398 233.201C261.398 233.719 261.216 234.167 260.866 234.517C260.516 234.867 260.096 235.035 259.592 235.035C259.074 235.035 258.654 234.867 258.304 234.517C257.954 234.167 257.786 233.719 257.786 233.201C257.786 232.683 257.954 232.249 258.304 231.899C258.654 231.549 259.074 231.367 259.592 231.367C260.096 231.367 260.516 231.549 260.866 231.899C261.216 232.249 261.398 232.683 261.398 233.201ZM268.907 226.999V228.329H273.247L269.173 236.239H270.783L275.249 227.405V226.999H268.907ZM283.091 233.831C283.091 232.655 282.307 231.885 281.089 231.437C282.111 230.891 282.657 230.177 282.657 229.211C282.657 228.469 282.377 227.881 281.831 227.475C281.285 227.055 280.585 226.845 279.745 226.845C278.891 226.845 278.191 227.055 277.631 227.475C277.085 227.881 276.805 228.469 276.805 229.211C276.805 230.205 277.365 230.891 278.373 231.437C277.141 231.885 276.371 232.655 276.371 233.831C276.371 235.385 277.757 236.393 279.745 236.393C281.719 236.393 283.091 235.385 283.091 233.831ZM278.219 229.267C278.219 228.525 278.849 228.063 279.745 228.063C280.627 228.063 281.243 228.525 281.243 229.267C281.243 229.953 280.781 230.317 279.731 230.765C278.681 230.303 278.219 229.939 278.219 229.267ZM281.593 233.775C281.593 234.615 280.935 235.161 279.745 235.161C278.555 235.161 277.869 234.615 277.869 233.775C277.869 232.949 278.499 232.515 279.731 232.081C280.963 232.529 281.593 232.935 281.593 233.775ZM291.487 230.051C291.529 228.231 289.975 226.817 288.225 226.845C286.461 226.845 284.949 228.231 284.949 230.037C284.949 231.787 286.391 233.131 287.973 233.131C288.127 233.131 288.253 233.117 288.379 233.089L286.153 236.239H287.917L290.213 232.977C290.535 232.529 290.773 232.179 290.927 231.927C291.081 231.661 291.221 231.381 291.319 231.073C291.431 230.751 291.487 230.415 291.487 230.051ZM290.017 230.037C290.017 230.555 289.849 230.989 289.499 231.339C289.149 231.689 288.729 231.871 288.225 231.871C287.707 231.871 287.273 231.703 286.923 231.353C286.573 231.003 286.405 230.555 286.405 230.037C286.405 229.519 286.573 229.085 286.923 228.735C287.273 228.385 287.707 228.203 288.225 228.203C288.729 228.203 289.149 228.385 289.499 228.735C289.849 229.085 290.017 229.519 290.017 230.037ZM293.453 231.535C293.453 234.265 294.615 236.393 296.981 236.393C299.361 236.393 300.495 234.265 300.495 231.535C300.495 230.121 300.201 228.987 299.599 228.133C299.011 227.279 298.143 226.845 296.981 226.845C295.819 226.845 294.951 227.279 294.349 228.147C293.747 229.001 293.453 230.135 293.453 231.535ZM298.955 231.549C298.955 233.733 298.339 235.035 296.981 235.035C295.623 235.035 294.993 233.733 294.993 231.549C294.993 229.323 295.651 228.203 296.981 228.203C298.297 228.203 298.955 229.323 298.955 231.549ZM309.814 226.999L306.608 228.049L306.972 229.351L308.848 228.749V236.239H310.332V226.999H309.814ZM315.588 234.951L317.212 233.229C317.856 232.543 318.346 231.955 318.668 231.437C319.004 230.919 319.172 230.345 319.172 229.715C319.172 228.091 317.87 226.845 316.106 226.845C314.216 226.845 312.998 228.287 312.998 229.799C312.998 230.079 313.026 230.345 313.096 230.597H314.594C314.552 230.317 314.524 230.079 314.524 229.883C314.524 228.931 315.154 228.203 316.092 228.203C317.03 228.203 317.632 228.889 317.632 229.827C317.632 230.611 317.184 231.283 316.162 232.361L312.872 235.903V236.239H319.494V234.951H315.588ZM328.173 233.831C328.173 232.655 327.389 231.885 326.171 231.437C327.193 230.891 327.739 230.177 327.739 229.211C327.739 228.469 327.459 227.881 326.913 227.475C326.367 227.055 325.667 226.845 324.827 226.845C323.973 226.845 323.273 227.055 322.713 227.475C322.167 227.881 321.887 228.469 321.887 229.211C321.887 230.205 322.447 230.891 323.455 231.437C322.223 231.885 321.453 232.655 321.453 233.831C321.453 235.385 322.839 236.393 324.827 236.393C326.801 236.393 328.173 235.385 328.173 233.831ZM323.301 229.267C323.301 228.525 323.931 228.063 324.827 228.063C325.709 228.063 326.325 228.525 326.325 229.267C326.325 229.953 325.863 230.317 324.813 230.765C323.763 230.303 323.301 229.939 323.301 229.267ZM326.675 233.775C326.675 234.615 326.017 235.161 324.827 235.161C323.637 235.161 322.951 234.615 322.951 233.775C322.951 232.949 323.581 232.515 324.813 232.081C326.045 232.529 326.675 232.935 326.675 233.775ZM336.569 230.051C336.611 228.231 335.057 226.817 333.307 226.845C331.543 226.845 330.031 228.231 330.031 230.037C330.031 231.787 331.473 233.131 333.055 233.131C333.209 233.131 333.335 233.117 333.461 233.089L331.235 236.239H332.999L335.295 232.977C335.617 232.529 335.855 232.179 336.009 231.927C336.163 231.661 336.303 231.381 336.401 231.073C336.513 230.751 336.569 230.415 336.569 230.051ZM335.099 230.037C335.099 230.555 334.931 230.989 334.581 231.339C334.231 231.689 333.811 231.871 333.307 231.871C332.789 231.871 332.355 231.703 332.005 231.353C331.655 231.003 331.487 230.555 331.487 230.037C331.487 229.519 331.655 229.085 332.005 228.735C332.355 228.385 332.789 228.203 333.307 228.203C333.811 228.203 334.231 228.385 334.581 228.735C334.931 229.085 335.099 229.519 335.099 230.037Z" fill="white"/>
<path d="M430.129 99.3608H442.899V122.307H430.129V99.3608Z" fill="#FF5F00"/>
<path d="M421.493 133.857V131.425C421.493 130.492 420.925 129.884 419.952 129.884C419.466 129.884 418.939 130.046 418.574 130.574C418.29 130.128 417.885 129.884 417.277 129.884C416.871 129.884 416.466 130.006 416.141 130.452V129.965H415.29V133.857H416.141V131.709C416.141 131.02 416.506 130.695 417.074 130.695C417.641 130.695 417.925 131.06 417.925 131.709V133.857H418.777V131.709C418.777 131.02 419.182 130.695 419.709 130.695C420.277 130.695 420.56 131.06 420.56 131.709V133.857H421.493V133.857ZM434.101 129.965H432.723V128.79H431.872V129.965H431.101V130.735H431.871V132.519C431.871 133.411 432.236 133.938 433.209 133.938C433.574 133.938 433.979 133.817 434.263 133.655L434.02 132.925C433.777 133.087 433.493 133.128 433.29 133.128C432.885 133.128 432.723 132.884 432.723 132.479V130.735H434.101V129.965V129.965ZM441.318 129.884C440.831 129.884 440.507 130.128 440.304 130.452V129.965H439.453V133.857H440.304V131.668C440.304 131.02 440.588 130.655 441.115 130.655C441.277 130.655 441.48 130.695 441.642 130.736L441.885 129.925C441.723 129.884 441.48 129.884 441.318 129.884V129.884ZM430.412 130.29C430.006 130.006 429.439 129.884 428.831 129.884C427.858 129.884 427.209 130.371 427.209 131.141C427.209 131.79 427.696 132.155 428.547 132.276L428.952 132.317C429.398 132.398 429.642 132.519 429.642 132.722C429.642 133.006 429.317 133.209 428.75 133.209C428.182 133.209 427.736 133.006 427.452 132.803L427.047 133.452C427.493 133.776 428.101 133.938 428.709 133.938C429.844 133.938 430.493 133.411 430.493 132.682C430.493 131.992 429.966 131.627 429.155 131.506L428.75 131.465C428.385 131.425 428.101 131.344 428.101 131.101C428.101 130.817 428.385 130.655 428.831 130.655C429.317 130.655 429.804 130.857 430.047 130.979L430.412 130.29V130.29ZM453.034 129.884C452.547 129.884 452.223 130.128 452.02 130.452V129.965H451.169V133.857H452.02V131.668C452.02 131.02 452.304 130.655 452.831 130.655C452.993 130.655 453.196 130.695 453.358 130.736L453.602 129.925C453.439 129.884 453.196 129.884 453.034 129.884V129.884ZM442.169 131.911C442.169 133.087 442.98 133.938 444.237 133.938C444.804 133.938 445.209 133.817 445.615 133.493L445.209 132.803C444.885 133.047 444.561 133.168 444.196 133.168C443.507 133.168 443.02 132.682 443.02 131.911C443.02 131.182 443.507 130.695 444.196 130.655C444.561 130.655 444.885 130.776 445.209 131.02L445.615 130.33C445.209 130.006 444.804 129.884 444.237 129.884C442.98 129.884 442.169 130.736 442.169 131.911ZM450.034 131.911V129.965H449.183V130.452C448.899 130.087 448.493 129.884 447.966 129.884C446.872 129.884 446.02 130.736 446.02 131.911C446.02 133.087 446.872 133.938 447.966 133.938C448.534 133.938 448.939 133.736 449.183 133.371V133.857H450.034V131.911V131.911ZM446.912 131.911C446.912 131.222 447.358 130.655 448.088 130.655C448.777 130.655 449.264 131.182 449.264 131.911C449.264 132.601 448.777 133.168 448.088 133.168C447.358 133.127 446.912 132.601 446.912 131.911V131.911ZM436.736 129.884C435.601 129.884 434.79 130.695 434.79 131.911C434.79 133.128 435.601 133.938 436.777 133.938C437.344 133.938 437.912 133.776 438.358 133.411L437.953 132.803C437.628 133.047 437.223 133.209 436.818 133.209C436.29 133.209 435.763 132.965 435.642 132.276H438.52V131.952C438.561 130.695 437.831 129.884 436.736 129.884H436.736ZM436.736 130.614C437.263 130.614 437.628 130.938 437.709 131.547H435.682C435.763 131.02 436.128 130.614 436.736 130.614ZM457.858 131.911V128.425H457.007V130.452C456.723 130.087 456.318 129.884 455.791 129.884C454.696 129.884 453.845 130.736 453.845 131.911C453.845 133.087 454.696 133.938 455.791 133.938C456.358 133.938 456.764 133.736 457.007 133.371V133.857H457.858V131.911V131.911ZM454.737 131.911C454.737 131.222 455.183 130.655 455.912 130.655C456.602 130.655 457.088 131.182 457.088 131.911C457.088 132.601 456.602 133.168 455.912 133.168C455.183 133.127 454.737 132.601 454.737 131.911V131.911ZM426.277 131.911V129.965H425.425V130.452C425.141 130.087 424.736 129.884 424.209 129.884C423.114 129.884 422.263 130.736 422.263 131.911C422.263 133.087 423.114 133.938 424.209 133.938C424.777 133.938 425.182 133.736 425.425 133.371V133.857H426.277V131.911V131.911ZM423.114 131.911C423.114 131.222 423.56 130.655 424.29 130.655C424.979 130.655 425.466 131.182 425.466 131.911C425.466 132.601 424.979 133.168 424.29 133.168C423.56 133.127 423.114 132.601 423.114 131.911V131.911Z" fill="white"/>
<path d="M430.939 110.834C430.939 106.172 433.129 102.037 436.493 99.3611C434.021 97.4152 430.899 96.2395 427.494 96.2395C419.426 96.2395 412.898 102.767 412.898 110.834C412.898 118.902 419.426 125.429 427.493 125.429C430.899 125.429 434.02 124.254 436.493 122.308C433.129 119.672 430.939 115.497 430.939 110.834V110.834Z" fill="#EB001B"/>
<path d="M460.128 110.834C460.128 118.902 453.601 125.429 445.533 125.429C442.128 125.429 439.006 124.254 436.533 122.308C439.939 119.632 442.087 115.497 442.087 110.834C442.087 106.172 439.898 102.037 436.533 99.3611C439.006 97.4152 442.128 96.2395 445.533 96.2395C453.601 96.2395 460.128 102.807 460.128 110.834H460.128Z" fill="#F79E1B"/>
<path d="M201.335 149.906C204.107 149.486 206.011 147.75 206.011 145.174C206.011 142.934 204.555 141.422 201.839 140.386L199.767 139.602C198.227 138.93 197.527 138.398 197.527 137.306C197.527 136.046 198.675 135.43 200.103 135.43C201.559 135.43 202.595 136.074 203.575 137.502L205.591 135.99C204.611 134.254 203.183 133.218 201.335 132.882V129.606H198.619V132.938C196.239 133.414 194.587 135.066 194.587 137.334C194.587 139.378 195.931 140.946 198.647 142.01L200.579 142.766C202.287 143.522 203.071 144.11 203.071 145.23C203.071 146.574 201.839 147.386 200.131 147.386C198.255 147.386 196.743 146.434 195.539 144.558L193.495 146.07C194.615 148.086 196.379 149.43 198.619 149.85V153.238H201.335V149.906ZM221.806 144.614C221.806 140.89 218.81 138.846 215.506 138.846C214.666 138.846 213.882 138.93 213.154 139.098V134.758H220.77V132.098H210.242V141.394H214.498C217.214 141.394 218.754 142.57 218.754 144.67C218.754 146.798 217.13 148.17 214.918 148.17C212.93 148.17 211.558 147.134 210.438 145.426L208.366 146.91C209.626 149.29 211.95 150.886 215.002 150.886C218.67 150.886 221.806 148.338 221.806 144.614ZM225.323 155.562H227.703L229.019 147.61H225.603L225.323 155.562ZM231.749 132.098V134.758H240.429L232.281 150.578H235.501L244.433 132.91V132.098H231.749ZM259.377 144.614C259.377 140.89 256.381 138.846 253.077 138.846C252.237 138.846 251.453 138.93 250.725 139.098V134.758H258.341V132.098H247.813V141.394H252.069C254.785 141.394 256.325 142.57 256.325 144.67C256.325 146.798 254.701 148.17 252.489 148.17C250.501 148.17 249.129 147.134 248.009 145.426L245.937 146.91C247.197 149.29 249.521 150.886 252.573 150.886C256.241 150.886 259.377 148.338 259.377 144.614ZM262.445 141.17C262.445 146.63 264.769 150.886 269.501 150.886C274.261 150.886 276.529 146.63 276.529 141.17C276.529 138.342 275.941 136.074 274.737 134.366C273.561 132.658 271.825 131.79 269.501 131.79C267.177 131.79 265.441 132.658 264.237 134.394C263.033 136.102 262.445 138.37 262.445 141.17ZM273.449 141.198C273.449 145.566 272.217 148.17 269.501 148.17C266.785 148.17 265.525 145.566 265.525 141.198C265.525 136.746 266.841 134.506 269.501 134.506C272.133 134.506 273.449 136.746 273.449 141.198ZM280.12 155.562H282.5L283.816 147.61H280.4L280.12 155.562ZM292.532 148.002L295.78 144.558C297.068 143.186 298.048 142.01 298.692 140.974C299.364 139.938 299.7 138.79 299.7 137.53C299.7 134.282 297.096 131.79 293.568 131.79C289.788 131.79 287.352 134.674 287.352 137.698C287.352 138.258 287.408 138.79 287.548 139.294H290.544C290.46 138.734 290.404 138.258 290.404 137.866C290.404 135.962 291.664 134.506 293.54 134.506C295.416 134.506 296.62 135.878 296.62 137.754C296.62 139.322 295.724 140.666 293.68 142.822L287.1 149.906V150.578H300.344V148.002H292.532ZM303.543 141.17C303.543 146.63 305.867 150.886 310.599 150.886C315.359 150.886 317.627 146.63 317.627 141.17C317.627 138.342 317.039 136.074 315.835 134.366C314.659 132.658 312.923 131.79 310.599 131.79C308.275 131.79 306.539 132.658 305.335 134.394C304.131 136.102 303.543 138.37 303.543 141.17ZM314.547 141.198C314.547 145.566 313.315 148.17 310.599 148.17C307.883 148.17 306.623 145.566 306.623 141.198C306.623 136.746 307.939 134.506 310.599 134.506C313.231 134.506 314.547 136.746 314.547 141.198Z" fill="white"/>
<path opacity="0.54" d="M193.089 109.867C193.033 112.513 195.315 114.683 197.947 114.641C199.669 114.641 201.125 113.815 201.909 112.513L200.789 111.687C200.131 112.709 199.179 113.283 197.961 113.283C196.071 113.283 194.629 111.827 194.629 109.867C194.629 107.907 196.071 106.451 197.961 106.451C199.179 106.451 200.131 107.025 200.789 108.047L201.909 107.221C201.111 105.919 199.641 105.093 197.947 105.093C195.315 105.051 193.033 107.221 193.089 109.867ZM203.516 111.603C203.516 113.451 204.804 114.641 206.526 114.641C208.206 114.641 209.508 113.451 209.508 111.603V107.613H208.038V111.715C208.038 112.667 207.38 113.283 206.526 113.283C205.63 113.283 204.972 112.667 204.972 111.715V107.613H203.516V111.603ZM215.505 107.613C215.337 107.571 215.155 107.543 214.945 107.543C214.161 107.543 213.433 107.893 212.943 108.509V107.613H211.571V114.487H213.041V110.819C213.041 109.601 213.895 108.915 215.057 108.915H215.505V107.613ZM220.755 107.613C220.587 107.571 220.405 107.543 220.195 107.543C219.411 107.543 218.683 107.893 218.193 108.509V107.613H216.821V114.487H218.291V110.819C218.291 109.601 219.145 108.915 220.307 108.915H220.755V107.613ZM228.122 111.533C228.192 111.211 228.234 110.903 228.234 110.609C228.234 108.817 226.876 107.459 225.056 107.459C223.11 107.417 221.458 109.083 221.5 111.057C221.5 113.087 223.096 114.641 225.196 114.641C226.246 114.641 227.156 114.277 227.94 113.535L227.24 112.527C226.624 113.073 225.952 113.339 225.238 113.339C224.062 113.339 223.18 112.653 222.998 111.533H228.122ZM223.026 110.385C223.25 109.363 224.034 108.705 225 108.705C225.966 108.705 226.75 109.335 226.764 110.385H223.026ZM235.924 110.189C235.924 108.551 234.958 107.459 233.348 107.459C232.494 107.459 231.808 107.739 231.29 108.285V107.613H229.918V114.487H231.388V110.385C231.388 109.447 232.046 108.789 232.956 108.789C233.852 108.789 234.454 109.433 234.454 110.385V114.487H235.924V110.189ZM242.059 113.241C241.653 113.283 241.359 113.311 241.149 113.311C240.253 113.311 239.791 113.003 239.791 112.121V108.887H241.835V107.613H239.791V105.807H238.307V107.613H237.187V108.887H238.307V112.247C238.307 113.857 239.259 114.641 240.841 114.641C241.191 114.641 241.597 114.585 242.059 114.487V113.241ZM254.529 111.799C254.529 110.665 253.885 109.797 252.807 109.447C253.311 109.013 253.577 108.425 253.577 107.711C253.577 106.283 252.471 105.247 250.805 105.247H247.571V114.487H251.533C253.339 114.487 254.529 113.353 254.529 111.799ZM250.665 106.549C251.575 106.549 252.093 107.011 252.093 107.781C252.093 108.551 251.575 109.041 250.665 109.041H249.027V106.549H250.665ZM253.031 111.757C253.031 112.639 252.429 113.185 251.407 113.185H249.027V110.315H251.407C252.429 110.315 253.031 110.875 253.031 111.757ZM261.587 110.329C261.587 108.481 260.467 107.459 258.773 107.459C257.583 107.459 256.561 107.935 255.875 108.929L256.729 109.797C257.303 109.111 257.863 108.775 258.633 108.775C259.571 108.775 260.103 109.293 260.103 110.245V110.693H258.157C256.603 110.693 255.623 111.463 255.623 112.653C255.623 113.843 256.575 114.641 258.017 114.641C258.955 114.641 259.711 114.319 260.215 113.717V114.487H261.587V110.329ZM260.103 111.883C260.103 112.821 259.319 113.507 258.325 113.507C257.611 113.507 257.121 113.171 257.121 112.597C257.121 112.037 257.555 111.757 258.339 111.757H260.103V111.883ZM263.633 114.487H265.103V103.987H263.633V114.487ZM272.689 110.329C272.689 108.481 271.569 107.459 269.875 107.459C268.685 107.459 267.663 107.935 266.977 108.929L267.831 109.797C268.405 109.111 268.965 108.775 269.735 108.775C270.673 108.775 271.205 109.293 271.205 110.245V110.693H269.259C267.705 110.693 266.725 111.463 266.725 112.653C266.725 113.843 267.677 114.641 269.119 114.641C270.057 114.641 270.813 114.319 271.317 113.717V114.487H272.689V110.329ZM271.205 111.883C271.205 112.821 270.421 113.507 269.427 113.507C268.713 113.507 268.223 113.171 268.223 112.597C268.223 112.037 268.657 111.757 269.441 111.757H271.205V111.883ZM280.741 110.189C280.741 108.551 279.775 107.459 278.165 107.459C277.311 107.459 276.625 107.739 276.107 108.285V107.613H274.735V114.487H276.205V110.385C276.205 109.447 276.863 108.789 277.773 108.789C278.669 108.789 279.271 109.433 279.271 110.385V114.487H280.741V110.189ZM282.354 111.043C282.354 113.045 283.964 114.641 285.994 114.641C287.24 114.641 288.276 114.039 288.892 113.045L287.856 112.247C287.352 112.933 286.736 113.283 286.008 113.283C284.776 113.283 283.852 112.303 283.852 111.043C283.852 109.797 284.776 108.817 286.008 108.817C286.75 108.817 287.366 109.167 287.856 109.867L288.892 109.055C288.29 108.061 287.268 107.459 285.994 107.459C284.02 107.431 282.312 109.069 282.354 111.043ZM296.564 111.533C296.634 111.211 296.676 110.903 296.676 110.609C296.676 108.817 295.318 107.459 293.498 107.459C291.552 107.417 289.9 109.083 289.942 111.057C289.942 113.087 291.538 114.641 293.638 114.641C294.688 114.641 295.598 114.277 296.382 113.535L295.682 112.527C295.066 113.073 294.394 113.339 293.68 113.339C292.504 113.339 291.622 112.653 291.44 111.533H296.564ZM291.468 110.385C291.692 109.363 292.476 108.705 293.442 108.705C294.408 108.705 295.192 109.335 295.206 110.385H291.468Z" fill="white"/>
</g>
<g opacity="0.75" filter="url(#filter1_ddd_589_7249)">
<rect x="138" y="92" width="376.63" height="220" rx="35.8696" fill="#4A14BD"/>
<mask id="mask1_589_7249" style="mask-type:alpha" maskUnits="userSpaceOnUse" x="138" y="92" width="377" height="220">
<rect x="138" y="92" width="376.63" height="220" rx="35.8696" fill="#ED713C"/>
</mask>
<g mask="url(#mask1_589_7249)">
<ellipse opacity="0.1" cx="167.293" cy="346.674" rx="191.902" ry="135.109" fill="black"/>
<ellipse opacity="0.08" cx="485.337" cy="57.3262" rx="191.902" ry="135.109" fill="black"/>
</g>
<path d="M438.39 274.861C438.39 277.591 439.552 279.719 441.918 279.719C444.298 279.719 445.432 277.591 445.432 274.861C445.432 273.447 445.138 272.313 444.536 271.459C443.948 270.605 443.08 270.171 441.918 270.171C440.756 270.171 439.888 270.605 439.286 271.473C438.684 272.327 438.39 273.461 438.39 274.861ZM443.892 274.875C443.892 277.059 443.276 278.361 441.918 278.361C440.56 278.361 439.93 277.059 439.93 274.875C439.93 272.649 440.588 271.529 441.918 271.529C443.234 271.529 443.892 272.649 443.892 274.875ZM453.954 273.377C453.996 271.557 452.442 270.143 450.692 270.171C448.928 270.171 447.416 271.557 447.416 273.363C447.416 275.113 448.858 276.457 450.44 276.457C450.594 276.457 450.72 276.443 450.846 276.415L448.62 279.565H450.384L452.68 276.303C453.002 275.855 453.24 275.505 453.394 275.253C453.548 274.987 453.688 274.707 453.786 274.399C453.898 274.077 453.954 273.741 453.954 273.377ZM452.484 273.363C452.484 273.881 452.316 274.315 451.966 274.665C451.616 275.015 451.196 275.197 450.692 275.197C450.174 275.197 449.74 275.029 449.39 274.679C449.04 274.329 448.872 273.881 448.872 273.363C448.872 272.845 449.04 272.411 449.39 272.061C449.74 271.711 450.174 271.529 450.692 271.529C451.196 271.529 451.616 271.711 451.966 272.061C452.316 272.411 452.484 272.845 452.484 273.363ZM453.454 281.259H455.092L462.414 268.645H460.776L453.454 281.259ZM465.789 278.277L467.413 276.555C468.057 275.869 468.547 275.281 468.869 274.763C469.205 274.245 469.373 273.671 469.373 273.041C469.373 271.417 468.071 270.171 466.307 270.171C464.417 270.171 463.199 271.613 463.199 273.125C463.199 273.405 463.227 273.671 463.297 273.923H464.795C464.753 273.643 464.725 273.405 464.725 273.209C464.725 272.257 465.355 271.529 466.293 271.529C467.231 271.529 467.833 272.215 467.833 273.153C467.833 273.937 467.385 274.609 466.363 275.687L463.073 279.229V279.565H469.695V278.277H465.789ZM478.08 276.583C478.08 274.721 476.582 273.699 474.93 273.699C474.51 273.699 474.118 273.741 473.754 273.825V271.655H477.562V270.325H472.298V274.973H474.426C475.784 274.973 476.554 275.561 476.554 276.611C476.554 277.675 475.742 278.361 474.636 278.361C473.642 278.361 472.956 277.843 472.396 276.989L471.36 277.731C471.99 278.921 473.152 279.719 474.678 279.719C476.512 279.719 478.08 278.445 478.08 276.583Z" fill="white"/>
<path opacity="0.9" d="M181.01 276.583C181.01 274.721 179.512 273.699 177.86 273.699C177.44 273.699 177.048 273.741 176.684 273.825V271.655H180.492V270.325H175.228V274.973H177.356C178.714 274.973 179.484 275.561 179.484 276.611C179.484 277.675 178.672 278.361 177.566 278.361C176.572 278.361 175.886 277.843 175.326 276.989L174.29 277.731C174.92 278.921 176.082 279.719 177.608 279.719C179.442 279.719 181.01 278.445 181.01 276.583ZM185.55 278.277L187.174 276.555C187.818 275.869 188.308 275.281 188.63 274.763C188.966 274.245 189.134 273.671 189.134 273.041C189.134 271.417 187.832 270.171 186.068 270.171C184.178 270.171 182.96 271.613 182.96 273.125C182.96 273.405 182.988 273.671 183.058 273.923H184.556C184.514 273.643 184.486 273.405 184.486 273.209C184.486 272.257 185.116 271.529 186.054 271.529C186.992 271.529 187.594 272.215 187.594 273.153C187.594 273.937 187.146 274.609 186.124 275.687L182.834 279.229V279.565H189.456V278.277H185.55ZM198.136 277.157C198.136 275.981 197.352 275.211 196.134 274.763C197.156 274.217 197.702 273.503 197.702 272.537C197.702 271.795 197.422 271.207 196.876 270.801C196.33 270.381 195.63 270.171 194.79 270.171C193.936 270.171 193.236 270.381 192.676 270.801C192.13 271.207 191.85 271.795 191.85 272.537C191.85 273.531 192.41 274.217 193.418 274.763C192.186 275.211 191.416 275.981 191.416 277.157C191.416 278.711 192.802 279.719 194.79 279.719C196.764 279.719 198.136 278.711 198.136 277.157ZM193.264 272.593C193.264 271.851 193.894 271.389 194.79 271.389C195.672 271.389 196.288 271.851 196.288 272.593C196.288 273.279 195.826 273.643 194.776 274.091C193.726 273.629 193.264 273.265 193.264 272.593ZM196.638 277.101C196.638 277.941 195.98 278.487 194.79 278.487C193.6 278.487 192.914 277.941 192.914 277.101C192.914 276.275 193.544 275.841 194.776 275.407C196.008 275.855 196.638 276.261 196.638 277.101ZM202.724 278.277L204.348 276.555C204.992 275.869 205.482 275.281 205.804 274.763C206.14 274.245 206.308 273.671 206.308 273.041C206.308 271.417 205.006 270.171 203.242 270.171C201.352 270.171 200.134 271.613 200.134 273.125C200.134 273.405 200.162 273.671 200.232 273.923H201.73C201.688 273.643 201.66 273.405 201.66 273.209C201.66 272.257 202.29 271.529 203.228 271.529C204.166 271.529 204.768 272.215 204.768 273.153C204.768 273.937 204.32 274.609 203.298 275.687L200.008 279.229V279.565H206.63V278.277H202.724ZM219.215 276.597C219.215 275.799 218.977 275.155 218.501 274.665C218.025 274.175 217.451 273.867 216.765 273.755L219.005 270.731V270.325H213.251V271.683H216.695L214.539 274.581V274.987H215.561C216.919 274.987 217.689 275.561 217.689 276.611C217.689 277.661 216.905 278.361 215.799 278.361C214.847 278.361 214.189 277.843 213.629 276.989L212.593 277.717C213.209 278.907 214.343 279.719 215.841 279.719C217.661 279.719 219.215 278.473 219.215 276.597ZM228.017 276.681H226.757V273.839H225.273V276.681H222.515L225.133 270.325H223.607L220.653 277.549V277.955H225.273V279.565H226.757V277.955H228.017V276.681ZM235.902 276.583C235.902 274.721 234.404 273.699 232.752 273.699C232.332 273.699 231.94 273.741 231.576 273.825V271.655H235.384V270.325H230.12V274.973H232.248C233.606 274.973 234.376 275.561 234.376 276.611C234.376 277.675 233.564 278.361 232.458 278.361C231.464 278.361 230.778 277.843 230.218 276.989L229.182 277.731C229.812 278.921 230.974 279.719 232.5 279.719C234.334 279.719 235.902 278.445 235.902 276.583ZM244.251 276.527C244.251 274.777 242.823 273.433 241.213 273.433C241.059 273.433 240.933 273.447 240.807 273.475L243.033 270.325H241.283L238.973 273.587C238.651 274.049 238.413 274.399 238.259 274.651C238.105 274.903 237.979 275.183 237.867 275.505C237.769 275.813 237.713 276.149 237.713 276.513C237.671 278.333 239.225 279.747 240.975 279.719C242.739 279.719 244.251 278.333 244.251 276.527ZM242.781 276.527C242.781 277.045 242.599 277.493 242.249 277.843C241.899 278.193 241.479 278.361 240.975 278.361C240.457 278.361 240.037 278.193 239.687 277.843C239.337 277.493 239.169 277.045 239.169 276.527C239.169 276.009 239.337 275.575 239.687 275.225C240.037 274.875 240.457 274.693 240.975 274.693C241.479 274.693 241.899 274.875 242.249 275.225C242.599 275.575 242.781 276.009 242.781 276.527ZM250.29 270.325V271.655H254.63L250.556 279.565H252.166L256.632 270.731V270.325H250.29ZM264.474 277.157C264.474 275.981 263.69 275.211 262.472 274.763C263.494 274.217 264.04 273.503 264.04 272.537C264.04 271.795 263.76 271.207 263.214 270.801C262.668 270.381 261.968 270.171 261.128 270.171C260.274 270.171 259.574 270.381 259.014 270.801C258.468 271.207 258.188 271.795 258.188 272.537C258.188 273.531 258.748 274.217 259.756 274.763C258.524 275.211 257.754 275.981 257.754 277.157C257.754 278.711 259.14 279.719 261.128 279.719C263.102 279.719 264.474 278.711 264.474 277.157ZM259.602 272.593C259.602 271.851 260.232 271.389 261.128 271.389C262.01 271.389 262.626 271.851 262.626 272.593C262.626 273.279 262.164 273.643 261.114 274.091C260.064 273.629 259.602 273.265 259.602 272.593ZM262.976 277.101C262.976 277.941 262.318 278.487 261.128 278.487C259.938 278.487 259.252 277.941 259.252 277.101C259.252 276.275 259.882 275.841 261.114 275.407C262.346 275.855 262.976 276.261 262.976 277.101ZM272.87 273.377C272.912 271.557 271.358 270.143 269.608 270.171C267.844 270.171 266.332 271.557 266.332 273.363C266.332 275.113 267.774 276.457 269.356 276.457C269.51 276.457 269.636 276.443 269.762 276.415L267.536 279.565H269.3L271.596 276.303C271.918 275.855 272.156 275.505 272.31 275.253C272.464 274.987 272.604 274.707 272.702 274.399C272.814 274.077 272.87 273.741 272.87 273.377ZM271.4 273.363C271.4 273.881 271.232 274.315 270.882 274.665C270.532 275.015 270.112 275.197 269.608 275.197C269.09 275.197 268.656 275.029 268.306 274.679C267.956 274.329 267.788 273.881 267.788 273.363C267.788 272.845 267.956 272.411 268.306 272.061C268.656 271.711 269.09 271.529 269.608 271.529C270.112 271.529 270.532 271.711 270.882 272.061C271.232 272.411 271.4 272.845 271.4 273.363ZM274.835 274.861C274.835 277.591 275.997 279.719 278.363 279.719C280.743 279.719 281.877 277.591 281.877 274.861C281.877 273.447 281.583 272.313 280.981 271.459C280.393 270.605 279.525 270.171 278.363 270.171C277.201 270.171 276.333 270.605 275.731 271.473C275.129 272.327 274.835 273.461 274.835 274.861ZM280.337 274.875C280.337 277.059 279.721 278.361 278.363 278.361C277.005 278.361 276.375 277.059 276.375 274.875C276.375 272.649 277.033 271.529 278.363 271.529C279.679 271.529 280.337 272.649 280.337 274.875ZM291.197 270.325L287.991 271.375L288.355 272.677L290.231 272.075V279.565H291.715V270.325H291.197ZM296.97 278.277L298.594 276.555C299.238 275.869 299.728 275.281 300.05 274.763C300.386 274.245 300.554 273.671 300.554 273.041C300.554 271.417 299.252 270.171 297.488 270.171C295.598 270.171 294.38 271.613 294.38 273.125C294.38 273.405 294.408 273.671 294.478 273.923H295.976C295.934 273.643 295.906 273.405 295.906 273.209C295.906 272.257 296.536 271.529 297.474 271.529C298.412 271.529 299.014 272.215 299.014 273.153C299.014 273.937 298.566 274.609 297.544 275.687L294.254 279.229V279.565H300.876V278.277H296.97ZM309.556 277.157C309.556 275.981 308.772 275.211 307.554 274.763C308.576 274.217 309.122 273.503 309.122 272.537C309.122 271.795 308.842 271.207 308.296 270.801C307.75 270.381 307.05 270.171 306.21 270.171C305.356 270.171 304.656 270.381 304.096 270.801C303.55 271.207 303.27 271.795 303.27 272.537C303.27 273.531 303.83 274.217 304.838 274.763C303.606 275.211 302.836 275.981 302.836 277.157C302.836 278.711 304.222 279.719 306.21 279.719C308.184 279.719 309.556 278.711 309.556 277.157ZM304.684 272.593C304.684 271.851 305.314 271.389 306.21 271.389C307.092 271.389 307.708 271.851 307.708 272.593C307.708 273.279 307.246 273.643 306.196 274.091C305.146 273.629 304.684 273.265 304.684 272.593ZM308.058 277.101C308.058 277.941 307.4 278.487 306.21 278.487C305.02 278.487 304.334 277.941 304.334 277.101C304.334 276.275 304.964 275.841 306.196 275.407C307.428 275.855 308.058 276.261 308.058 277.101ZM317.952 273.377C317.994 271.557 316.44 270.143 314.69 270.171C312.926 270.171 311.414 271.557 311.414 273.363C311.414 275.113 312.856 276.457 314.438 276.457C314.592 276.457 314.718 276.443 314.844 276.415L312.618 279.565H314.382L316.678 276.303C317 275.855 317.238 275.505 317.392 275.253C317.546 274.987 317.686 274.707 317.784 274.399C317.896 274.077 317.952 273.741 317.952 273.377ZM316.482 273.363C316.482 273.881 316.314 274.315 315.964 274.665C315.614 275.015 315.194 275.197 314.69 275.197C314.172 275.197 313.738 275.029 313.388 274.679C313.038 274.329 312.87 273.881 312.87 273.363C312.87 272.845 313.038 272.411 313.388 272.061C313.738 271.711 314.172 271.529 314.69 271.529C315.194 271.529 315.614 271.711 315.964 272.061C316.314 272.411 316.482 272.845 316.482 273.363Z" fill="white"/>
<path d="M444.585 125.447H459.133V151.587H444.585V125.447Z" fill="#FF5F00"/>
<path d="M434.747 164.745V161.974C434.747 160.911 434.101 160.219 432.992 160.219C432.438 160.219 431.838 160.404 431.422 161.004C431.099 160.496 430.637 160.219 429.944 160.219C429.482 160.219 429.021 160.357 428.651 160.865V160.311H427.681V164.745H428.651V162.297C428.651 161.512 429.067 161.142 429.713 161.142C430.36 161.142 430.683 161.558 430.683 162.297V164.745H431.653V162.297C431.653 161.512 432.115 161.142 432.715 161.142C433.362 161.142 433.685 161.558 433.685 162.297V164.745H434.747V164.745ZM449.11 160.311H447.54V158.972H446.57V160.311H445.693V161.188H446.57V163.221C446.57 164.237 446.986 164.837 448.094 164.837C448.51 164.837 448.972 164.699 449.295 164.514L449.018 163.682C448.741 163.867 448.418 163.913 448.187 163.913C447.725 163.913 447.54 163.636 447.54 163.174V161.188H449.11V160.311V160.311ZM457.331 160.219C456.777 160.219 456.408 160.496 456.177 160.865V160.311H455.207V164.745H456.177V162.251C456.177 161.512 456.5 161.096 457.1 161.096C457.285 161.096 457.516 161.143 457.701 161.189L457.978 160.265C457.793 160.219 457.516 160.219 457.331 160.219V160.219ZM444.908 160.681C444.446 160.357 443.799 160.219 443.106 160.219C441.998 160.219 441.259 160.773 441.259 161.65C441.259 162.389 441.813 162.805 442.783 162.944L443.245 162.99C443.753 163.082 444.03 163.221 444.03 163.452C444.03 163.775 443.661 164.006 443.014 164.006C442.368 164.006 441.86 163.775 441.536 163.544L441.074 164.283C441.582 164.652 442.275 164.837 442.968 164.837C444.261 164.837 445 164.237 445 163.405C445 162.62 444.4 162.205 443.476 162.066L443.014 162.02C442.598 161.974 442.275 161.881 442.275 161.604C442.275 161.281 442.598 161.096 443.106 161.096C443.661 161.096 444.215 161.327 444.492 161.466L444.908 160.681V160.681ZM470.678 160.219C470.124 160.219 469.754 160.496 469.523 160.865V160.311H468.554V164.745H469.523V162.251C469.523 161.512 469.847 161.096 470.447 161.096C470.632 161.096 470.863 161.143 471.048 161.189L471.325 160.265C471.14 160.219 470.863 160.219 470.678 160.219V160.219ZM458.301 162.528C458.301 163.867 459.225 164.837 460.656 164.837C461.303 164.837 461.765 164.699 462.226 164.329L461.765 163.544C461.395 163.821 461.026 163.96 460.61 163.96C459.825 163.96 459.271 163.405 459.271 162.528C459.271 161.697 459.825 161.142 460.61 161.096C461.026 161.096 461.395 161.235 461.765 161.512L462.226 160.727C461.765 160.357 461.303 160.219 460.656 160.219C459.225 160.219 458.301 161.189 458.301 162.528ZM467.261 162.528V160.311H466.291V160.865C465.967 160.45 465.506 160.219 464.905 160.219C463.658 160.219 462.688 161.189 462.688 162.528C462.688 163.867 463.658 164.837 464.905 164.837C465.552 164.837 466.014 164.606 466.291 164.191V164.745H467.261V162.528V162.528ZM463.704 162.528C463.704 161.743 464.212 161.096 465.044 161.096C465.829 161.096 466.383 161.697 466.383 162.528C466.383 163.313 465.829 163.96 465.044 163.96C464.212 163.913 463.704 163.313 463.704 162.528V162.528ZM452.112 160.219C450.819 160.219 449.895 161.142 449.895 162.528C449.895 163.913 450.819 164.837 452.158 164.837C452.805 164.837 453.452 164.652 453.96 164.237L453.498 163.544C453.128 163.821 452.667 164.006 452.205 164.006C451.604 164.006 451.004 163.729 450.865 162.943H454.144V162.574C454.191 161.142 453.359 160.219 452.112 160.219H452.112ZM452.112 161.05C452.713 161.05 453.129 161.42 453.221 162.112H450.912C451.004 161.512 451.42 161.05 452.112 161.05ZM476.174 162.528V158.556H475.204V160.865C474.881 160.45 474.419 160.219 473.819 160.219C472.572 160.219 471.602 161.189 471.602 162.528C471.602 163.867 472.572 164.837 473.819 164.837C474.465 164.837 474.927 164.606 475.204 164.191V164.745H476.174V162.528V162.528ZM472.618 162.528C472.618 161.743 473.126 161.096 473.957 161.096C474.742 161.096 475.297 161.697 475.297 162.528C475.297 163.313 474.742 163.96 473.957 163.96C473.126 163.913 472.618 163.313 472.618 162.528V162.528ZM440.197 162.528V160.311H439.227V160.865C438.904 160.45 438.442 160.219 437.841 160.219C436.595 160.219 435.625 161.189 435.625 162.528C435.625 163.867 436.595 164.837 437.841 164.837C438.488 164.837 438.95 164.606 439.227 164.191V164.745H440.197V162.528V162.528ZM436.595 162.528C436.595 161.743 437.103 161.096 437.934 161.096C438.719 161.096 439.273 161.697 439.273 162.528C439.273 163.313 438.719 163.96 437.934 163.96C437.103 163.913 436.595 163.313 436.595 162.528V162.528Z" fill="white"/>
<path d="M445.508 138.518C445.508 133.206 448.002 128.496 451.835 125.447C449.018 123.231 445.462 121.891 441.583 121.891C432.392 121.891 424.957 129.327 424.957 138.518C424.957 147.708 432.392 155.144 441.583 155.144C445.462 155.144 449.018 153.804 451.835 151.587C448.002 148.585 445.508 143.829 445.508 138.518V138.518Z" fill="#EB001B"/>
<path d="M478.76 138.518C478.76 147.708 471.324 155.144 462.134 155.144C458.254 155.144 454.698 153.804 451.881 151.587C455.76 148.539 458.208 143.829 458.208 138.518C458.208 133.206 455.714 128.496 451.881 125.447C454.698 123.231 458.254 121.891 462.134 121.891C471.324 121.891 478.76 129.373 478.76 138.518H478.76Z" fill="#F79E1B"/>
<path d="M182.718 179.502C185.49 179.082 187.394 177.346 187.394 174.77C187.394 172.53 185.938 171.018 183.222 169.982L181.15 169.198C179.61 168.526 178.91 167.994 178.91 166.902C178.91 165.642 180.058 165.026 181.486 165.026C182.942 165.026 183.978 165.67 184.958 167.098L186.974 165.586C185.994 163.85 184.566 162.814 182.718 162.478V159.202H180.002V162.534C177.622 163.01 175.97 164.662 175.97 166.93C175.97 168.974 177.314 170.542 180.03 171.606L181.962 172.362C183.67 173.118 184.454 173.706 184.454 174.826C184.454 176.17 183.222 176.982 181.514 176.982C179.638 176.982 178.126 176.03 176.922 174.154L174.878 175.666C175.998 177.682 177.762 179.026 180.002 179.446V182.834H182.718V179.502ZM203.189 174.21C203.189 170.486 200.193 168.442 196.889 168.442C196.049 168.442 195.265 168.526 194.537 168.694V164.354H202.153V161.694H191.625V170.99H195.881C198.597 170.99 200.137 172.166 200.137 174.266C200.137 176.394 198.513 177.766 196.301 177.766C194.313 177.766 192.941 176.73 191.821 175.022L189.749 176.506C191.009 178.886 193.333 180.482 196.385 180.482C200.053 180.482 203.189 177.934 203.189 174.21ZM206.705 185.158H209.085L210.401 177.206H206.985L206.705 185.158ZM213.132 161.694V164.354H221.812L213.664 180.174H216.884L225.816 162.506V161.694H213.132ZM240.759 174.21C240.759 170.486 237.763 168.442 234.459 168.442C233.619 168.442 232.835 168.526 232.107 168.694V164.354H239.723V161.694H229.195V170.99H233.451C236.167 170.99 237.707 172.166 237.707 174.266C237.707 176.394 236.083 177.766 233.871 177.766C231.883 177.766 230.511 176.73 229.391 175.022L227.319 176.506C228.579 178.886 230.903 180.482 233.955 180.482C237.623 180.482 240.759 177.934 240.759 174.21ZM243.828 170.766C243.828 176.226 246.152 180.482 250.884 180.482C255.644 180.482 257.912 176.226 257.912 170.766C257.912 167.938 257.324 165.67 256.12 163.962C254.944 162.254 253.208 161.386 250.884 161.386C248.56 161.386 246.824 162.254 245.62 163.99C244.416 165.698 243.828 167.966 243.828 170.766ZM254.832 170.794C254.832 175.162 253.6 177.766 250.884 177.766C248.168 177.766 246.908 175.162 246.908 170.794C246.908 166.342 248.224 164.102 250.884 164.102C253.516 164.102 254.832 166.342 254.832 170.794ZM261.502 185.158H263.882L265.198 177.206H261.782L261.502 185.158ZM273.914 177.598L277.162 174.154C278.45 172.782 279.43 171.606 280.074 170.57C280.746 169.534 281.082 168.386 281.082 167.126C281.082 163.878 278.478 161.386 274.95 161.386C271.17 161.386 268.734 164.27 268.734 167.294C268.734 167.854 268.79 168.386 268.93 168.89H271.926C271.842 168.33 271.786 167.854 271.786 167.462C271.786 165.558 273.046 164.102 274.922 164.102C276.798 164.102 278.002 165.474 278.002 167.35C278.002 168.918 277.106 170.262 275.062 172.418L268.482 179.502V180.174H281.726V177.598H273.914ZM284.925 170.766C284.925 176.226 287.249 180.482 291.981 180.482C296.741 180.482 299.009 176.226 299.009 170.766C299.009 167.938 298.421 165.67 297.217 163.962C296.041 162.254 294.305 161.386 291.981 161.386C289.657 161.386 287.921 162.254 286.717 163.99C285.513 165.698 284.925 167.966 284.925 170.766ZM295.929 170.794C295.929 175.162 294.697 177.766 291.981 177.766C289.265 177.766 288.005 175.162 288.005 170.794C288.005 166.342 289.321 164.102 291.981 164.102C294.613 164.102 295.929 166.342 295.929 170.794Z" fill="white"/>
<path opacity="0.54" d="M174.472 136.249C174.416 138.895 176.698 141.065 179.33 141.023C181.052 141.023 182.508 140.197 183.292 138.895L182.172 138.069C181.514 139.091 180.562 139.665 179.344 139.665C177.454 139.665 176.012 138.209 176.012 136.249C176.012 134.289 177.454 132.833 179.344 132.833C180.562 132.833 181.514 133.407 182.172 134.429L183.292 133.603C182.494 132.301 181.024 131.475 179.33 131.475C176.698 131.433 174.416 133.603 174.472 136.249ZM184.899 137.985C184.899 139.833 186.187 141.023 187.909 141.023C189.589 141.023 190.891 139.833 190.891 137.985V133.995H189.421V138.097C189.421 139.049 188.763 139.665 187.909 139.665C187.013 139.665 186.355 139.049 186.355 138.097V133.995H184.899V137.985ZM196.887 133.995C196.719 133.953 196.537 133.925 196.327 133.925C195.543 133.925 194.815 134.275 194.325 134.891V133.995H192.953V140.869H194.423V137.201C194.423 135.983 195.277 135.297 196.439 135.297H196.887V133.995ZM202.137 133.995C201.969 133.953 201.787 133.925 201.577 133.925C200.793 133.925 200.065 134.275 199.575 134.891V133.995H198.203V140.869H199.673V137.201C199.673 135.983 200.527 135.297 201.689 135.297H202.137V133.995ZM209.504 137.915C209.574 137.593 209.616 137.285 209.616 136.991C209.616 135.199 208.258 133.841 206.438 133.841C204.492 133.799 202.84 135.465 202.882 137.439C202.882 139.469 204.478 141.023 206.578 141.023C207.628 141.023 208.538 140.659 209.322 139.917L208.622 138.909C208.006 139.455 207.334 139.721 206.62 139.721C205.444 139.721 204.562 139.035 204.38 137.915H209.504ZM204.408 136.767C204.632 135.745 205.416 135.087 206.382 135.087C207.348 135.087 208.132 135.717 208.146 136.767H204.408ZM217.307 136.571C217.307 134.933 216.341 133.841 214.731 133.841C213.877 133.841 213.191 134.121 212.673 134.667V133.995H211.301V140.869H212.771V136.767C212.771 135.829 213.429 135.171 214.339 135.171C215.235 135.171 215.837 135.815 215.837 136.767V140.869H217.307V136.571ZM223.442 139.623C223.036 139.665 222.742 139.693 222.532 139.693C221.636 139.693 221.174 139.385 221.174 138.503V135.269H223.218V133.995H221.174V132.189H219.69V133.995H218.57V135.269H219.69V138.629C219.69 140.239 220.642 141.023 222.224 141.023C222.574 141.023 222.98 140.967 223.442 140.869V139.623ZM235.912 138.181C235.912 137.047 235.268 136.179 234.19 135.829C234.694 135.395 234.96 134.807 234.96 134.093C234.96 132.665 233.854 131.629 232.188 131.629H228.954V140.869H232.916C234.722 140.869 235.912 139.735 235.912 138.181ZM232.048 132.931C232.958 132.931 233.476 133.393 233.476 134.163C233.476 134.933 232.958 135.423 232.048 135.423H230.41V132.931H232.048ZM234.414 138.139C234.414 139.021 233.812 139.567 232.79 139.567H230.41V136.697H232.79C233.812 136.697 234.414 137.257 234.414 138.139ZM242.97 136.711C242.97 134.863 241.85 133.841 240.156 133.841C238.966 133.841 237.944 134.317 237.258 135.311L238.112 136.179C238.686 135.493 239.246 135.157 240.016 135.157C240.954 135.157 241.486 135.675 241.486 136.627V137.075H239.54C237.986 137.075 237.006 137.845 237.006 139.035C237.006 140.225 237.958 141.023 239.4 141.023C240.338 141.023 241.094 140.701 241.598 140.099V140.869H242.97V136.711ZM241.486 138.265C241.486 139.203 240.702 139.889 239.708 139.889C238.994 139.889 238.504 139.553 238.504 138.979C238.504 138.419 238.938 138.139 239.722 138.139H241.486V138.265ZM245.016 140.869H246.486V130.369H245.016V140.869ZM254.071 136.711C254.071 134.863 252.951 133.841 251.257 133.841C250.067 133.841 249.045 134.317 248.359 135.311L249.213 136.179C249.787 135.493 250.347 135.157 251.117 135.157C252.055 135.157 252.587 135.675 252.587 136.627V137.075H250.641C249.087 137.075 248.107 137.845 248.107 139.035C248.107 140.225 249.059 141.023 250.501 141.023C251.439 141.023 252.195 140.701 252.699 140.099V140.869H254.071V136.711ZM252.587 138.265C252.587 139.203 251.803 139.889 250.809 139.889C250.095 139.889 249.605 139.553 249.605 138.979C249.605 138.419 250.039 138.139 250.823 138.139H252.587V138.265ZM262.123 136.571C262.123 134.933 261.157 133.841 259.547 133.841C258.693 133.841 258.007 134.121 257.489 134.667V133.995H256.117V140.869H257.587V136.767C257.587 135.829 258.245 135.171 259.155 135.171C260.051 135.171 260.653 135.815 260.653 136.767V140.869H262.123V136.571ZM263.736 137.425C263.736 139.427 265.346 141.023 267.376 141.023C268.622 141.023 269.658 140.421 270.274 139.427L269.238 138.629C268.734 139.315 268.118 139.665 267.39 139.665C266.158 139.665 265.234 138.685 265.234 137.425C265.234 136.179 266.158 135.199 267.39 135.199C268.132 135.199 268.748 135.549 269.238 136.249L270.274 135.437C269.672 134.443 268.65 133.841 267.376 133.841C265.402 133.813 263.694 135.451 263.736 137.425ZM277.946 137.915C278.016 137.593 278.058 137.285 278.058 136.991C278.058 135.199 276.7 133.841 274.88 133.841C272.934 133.799 271.282 135.465 271.324 137.439C271.324 139.469 272.92 141.023 275.02 141.023C276.07 141.023 276.98 140.659 277.764 139.917L277.064 138.909C276.448 139.455 275.776 139.721 275.062 139.721C273.886 139.721 273.004 139.035 272.822 137.915H277.946ZM272.85 136.767C273.074 135.745 273.858 135.087 274.824 135.087C275.79 135.087 276.574 135.717 276.588 136.767H272.85Z" fill="white"/>
</g>
<g filter="url(#filter2_ddd_589_7249)">
<rect x="107" y="115" width="438.261" height="256" rx="41.7391" fill="#4A14BD"/>
<mask id="mask2_589_7249" style="mask-type:alpha" maskUnits="userSpaceOnUse" x="107" y="115" width="439" height="256">
<rect x="107" y="115" width="438.261" height="256" rx="41.7391" fill="#ED713C"/>
</mask>
<g mask="url(#mask2_589_7249)">
<ellipse opacity="0.1" cx="141.087" cy="411.348" rx="223.304" ry="157.217" fill="black"/>
<ellipse opacity="0.08" cx="511.174" cy="74.6522" rx="223.304" ry="157.217" fill="black"/>
</g>
<path d="M463.151 326.427C463.151 329.157 464.313 331.285 466.679 331.285C469.059 331.285 470.193 329.157 470.193 326.427C470.193 325.013 469.899 323.879 469.297 323.025C468.709 322.171 467.841 321.737 466.679 321.737C465.517 321.737 464.649 322.171 464.047 323.039C463.445 323.893 463.151 325.027 463.151 326.427ZM468.653 326.441C468.653 328.625 468.037 329.927 466.679 329.927C465.321 329.927 464.691 328.625 464.691 326.441C464.691 324.215 465.349 323.095 466.679 323.095C467.995 323.095 468.653 324.215 468.653 326.441ZM478.715 324.943C478.757 323.123 477.203 321.709 475.453 321.737C473.689 321.737 472.177 323.123 472.177 324.929C472.177 326.679 473.619 328.023 475.201 328.023C475.355 328.023 475.481 328.009 475.607 327.981L473.381 331.131H475.145L477.441 327.869C477.763 327.421 478.001 327.071 478.155 326.819C478.309 326.553 478.449 326.273 478.547 325.965C478.659 325.643 478.715 325.307 478.715 324.943ZM477.245 324.929C477.245 325.447 477.077 325.881 476.727 326.231C476.377 326.581 475.957 326.763 475.453 326.763C474.935 326.763 474.501 326.595 474.151 326.245C473.801 325.895 473.633 325.447 473.633 324.929C473.633 324.411 473.801 323.977 474.151 323.627C474.501 323.277 474.935 323.095 475.453 323.095C475.957 323.095 476.377 323.277 476.727 323.627C477.077 323.977 477.245 324.411 477.245 324.929ZM478.215 332.825H479.853L487.175 320.211H485.537L478.215 332.825ZM490.55 329.843L492.174 328.121C492.818 327.435 493.308 326.847 493.63 326.329C493.966 325.811 494.134 325.237 494.134 324.607C494.134 322.983 492.832 321.737 491.068 321.737C489.178 321.737 487.96 323.179 487.96 324.691C487.96 324.971 487.988 325.237 488.058 325.489H489.556C489.514 325.209 489.486 324.971 489.486 324.775C489.486 323.823 490.116 323.095 491.054 323.095C491.992 323.095 492.594 323.781 492.594 324.719C492.594 325.503 492.146 326.175 491.124 327.253L487.834 330.795V331.131H494.456V329.843H490.55ZM502.842 328.149C502.842 326.287 501.344 325.265 499.692 325.265C499.272 325.265 498.88 325.307 498.516 325.391V323.221H502.324V321.891H497.06V326.539H499.188C500.546 326.539 501.316 327.127 501.316 328.177C501.316 329.241 500.504 329.927 499.398 329.927C498.404 329.927 497.718 329.409 497.158 328.555L496.122 329.297C496.752 330.487 497.914 331.285 499.44 331.285C501.274 331.285 502.842 330.011 502.842 328.149Z" fill="white"/>
<path opacity="0.9" d="M155.879 328.149C155.879 326.287 154.381 325.265 152.729 325.265C152.309 325.265 151.917 325.307 151.553 325.391V323.221H155.361V321.891H150.097V326.539H152.225C153.583 326.539 154.353 327.127 154.353 328.177C154.353 329.241 153.541 329.927 152.435 329.927C151.441 329.927 150.755 329.409 150.195 328.555L149.159 329.297C149.789 330.487 150.951 331.285 152.477 331.285C154.311 331.285 155.879 330.011 155.879 328.149ZM160.42 329.843L162.044 328.121C162.688 327.435 163.178 326.847 163.5 326.329C163.836 325.811 164.004 325.237 164.004 324.607C164.004 322.983 162.702 321.737 160.938 321.737C159.048 321.737 157.83 323.179 157.83 324.691C157.83 324.971 157.858 325.237 157.928 325.489H159.426C159.384 325.209 159.356 324.971 159.356 324.775C159.356 323.823 159.986 323.095 160.924 323.095C161.862 323.095 162.464 323.781 162.464 324.719C162.464 325.503 162.016 326.175 160.994 327.253L157.704 330.795V331.131H164.326V329.843H160.42ZM173.005 328.723C173.005 327.547 172.221 326.777 171.003 326.329C172.025 325.783 172.571 325.069 172.571 324.103C172.571 323.361 172.291 322.773 171.745 322.367C171.199 321.947 170.499 321.737 169.659 321.737C168.805 321.737 168.105 321.947 167.545 322.367C166.999 322.773 166.719 323.361 166.719 324.103C166.719 325.097 167.279 325.783 168.287 326.329C167.055 326.777 166.285 327.547 166.285 328.723C166.285 330.277 167.671 331.285 169.659 331.285C171.633 331.285 173.005 330.277 173.005 328.723ZM168.133 324.159C168.133 323.417 168.763 322.955 169.659 322.955C170.541 322.955 171.157 323.417 171.157 324.159C171.157 324.845 170.695 325.209 169.645 325.657C168.595 325.195 168.133 324.831 168.133 324.159ZM171.507 328.667C171.507 329.507 170.849 330.053 169.659 330.053C168.469 330.053 167.783 329.507 167.783 328.667C167.783 327.841 168.413 327.407 169.645 326.973C170.877 327.421 171.507 327.827 171.507 328.667ZM177.593 329.843L179.217 328.121C179.861 327.435 180.351 326.847 180.673 326.329C181.009 325.811 181.177 325.237 181.177 324.607C181.177 322.983 179.875 321.737 178.111 321.737C176.221 321.737 175.003 323.179 175.003 324.691C175.003 324.971 175.031 325.237 175.101 325.489H176.599C176.557 325.209 176.529 324.971 176.529 324.775C176.529 323.823 177.159 323.095 178.097 323.095C179.035 323.095 179.637 323.781 179.637 324.719C179.637 325.503 179.189 326.175 178.167 327.253L174.877 330.795V331.131H181.499V329.843H177.593ZM194.085 328.163C194.085 327.365 193.847 326.721 193.371 326.231C192.895 325.741 192.321 325.433 191.635 325.321L193.875 322.297V321.891H188.121V323.249H191.565L189.409 326.147V326.553H190.431C191.789 326.553 192.559 327.127 192.559 328.177C192.559 329.227 191.775 329.927 190.669 329.927C189.717 329.927 189.059 329.409 188.499 328.555L187.463 329.283C188.079 330.473 189.213 331.285 190.711 331.285C192.531 331.285 194.085 330.039 194.085 328.163ZM202.887 328.247H201.627V325.405H200.143V328.247H197.385L200.003 321.891H198.477L195.523 329.115V329.521H200.143V331.131H201.627V329.521H202.887V328.247ZM210.772 328.149C210.772 326.287 209.274 325.265 207.622 325.265C207.202 325.265 206.81 325.307 206.446 325.391V323.221H210.254V321.891H204.99V326.539H207.118C208.476 326.539 209.246 327.127 209.246 328.177C209.246 329.241 208.434 329.927 207.328 329.927C206.334 329.927 205.648 329.409 205.088 328.555L204.052 329.297C204.682 330.487 205.844 331.285 207.37 331.285C209.204 331.285 210.772 330.011 210.772 328.149ZM219.12 328.093C219.12 326.343 217.692 324.999 216.082 324.999C215.928 324.999 215.802 325.013 215.676 325.041L217.902 321.891H216.152L213.842 325.153C213.52 325.615 213.282 325.965 213.128 326.217C212.974 326.469 212.848 326.749 212.736 327.071C212.638 327.379 212.582 327.715 212.582 328.079C212.54 329.899 214.094 331.313 215.844 331.285C217.608 331.285 219.12 329.899 219.12 328.093ZM217.65 328.093C217.65 328.611 217.468 329.059 217.118 329.409C216.768 329.759 216.348 329.927 215.844 329.927C215.326 329.927 214.906 329.759 214.556 329.409C214.206 329.059 214.038 328.611 214.038 328.093C214.038 327.575 214.206 327.141 214.556 326.791C214.906 326.441 215.326 326.259 215.844 326.259C216.348 326.259 216.768 326.441 217.118 326.791C217.468 327.141 217.65 327.575 217.65 328.093ZM225.159 321.891V323.221H229.499L225.425 331.131H227.035L231.501 322.297V321.891H225.159ZM239.343 328.723C239.343 327.547 238.559 326.777 237.341 326.329C238.363 325.783 238.909 325.069 238.909 324.103C238.909 323.361 238.629 322.773 238.083 322.367C237.537 321.947 236.837 321.737 235.997 321.737C235.143 321.737 234.443 321.947 233.883 322.367C233.337 322.773 233.057 323.361 233.057 324.103C233.057 325.097 233.617 325.783 234.625 326.329C233.393 326.777 232.623 327.547 232.623 328.723C232.623 330.277 234.009 331.285 235.997 331.285C237.971 331.285 239.343 330.277 239.343 328.723ZM234.471 324.159C234.471 323.417 235.101 322.955 235.997 322.955C236.879 322.955 237.495 323.417 237.495 324.159C237.495 324.845 237.033 325.209 235.983 325.657C234.933 325.195 234.471 324.831 234.471 324.159ZM237.845 328.667C237.845 329.507 237.187 330.053 235.997 330.053C234.807 330.053 234.121 329.507 234.121 328.667C234.121 327.841 234.751 327.407 235.983 326.973C237.215 327.421 237.845 327.827 237.845 328.667ZM247.739 324.943C247.781 323.123 246.227 321.709 244.477 321.737C242.713 321.737 241.201 323.123 241.201 324.929C241.201 326.679 242.643 328.023 244.225 328.023C244.379 328.023 244.505 328.009 244.631 327.981L242.405 331.131H244.169L246.465 327.869C246.787 327.421 247.025 327.071 247.179 326.819C247.333 326.553 247.473 326.273 247.571 325.965C247.683 325.643 247.739 325.307 247.739 324.943ZM246.269 324.929C246.269 325.447 246.101 325.881 245.751 326.231C245.401 326.581 244.981 326.763 244.477 326.763C243.959 326.763 243.525 326.595 243.175 326.245C242.825 325.895 242.657 325.447 242.657 324.929C242.657 324.411 242.825 323.977 243.175 323.627C243.525 323.277 243.959 323.095 244.477 323.095C244.981 323.095 245.401 323.277 245.751 323.627C246.101 323.977 246.269 324.411 246.269 324.929ZM249.705 326.427C249.705 329.157 250.867 331.285 253.233 331.285C255.613 331.285 256.747 329.157 256.747 326.427C256.747 325.013 256.453 323.879 255.851 323.025C255.263 322.171 254.395 321.737 253.233 321.737C252.071 321.737 251.203 322.171 250.601 323.039C249.999 323.893 249.705 325.027 249.705 326.427ZM255.207 326.441C255.207 328.625 254.591 329.927 253.233 329.927C251.875 329.927 251.245 328.625 251.245 326.441C251.245 324.215 251.903 323.095 253.233 323.095C254.549 323.095 255.207 324.215 255.207 326.441ZM266.066 321.891L262.86 322.941L263.224 324.243L265.1 323.641V331.131H266.584V321.891H266.066ZM271.839 329.843L273.463 328.121C274.107 327.435 274.597 326.847 274.919 326.329C275.255 325.811 275.423 325.237 275.423 324.607C275.423 322.983 274.121 321.737 272.357 321.737C270.467 321.737 269.249 323.179 269.249 324.691C269.249 324.971 269.277 325.237 269.347 325.489H270.845C270.803 325.209 270.775 324.971 270.775 324.775C270.775 323.823 271.405 323.095 272.343 323.095C273.281 323.095 273.883 323.781 273.883 324.719C273.883 325.503 273.435 326.175 272.413 327.253L269.123 330.795V331.131H275.745V329.843H271.839ZM284.425 328.723C284.425 327.547 283.641 326.777 282.423 326.329C283.445 325.783 283.991 325.069 283.991 324.103C283.991 323.361 283.711 322.773 283.165 322.367C282.619 321.947 281.919 321.737 281.079 321.737C280.225 321.737 279.525 321.947 278.965 322.367C278.419 322.773 278.139 323.361 278.139 324.103C278.139 325.097 278.699 325.783 279.707 326.329C278.475 326.777 277.705 327.547 277.705 328.723C277.705 330.277 279.091 331.285 281.079 331.285C283.053 331.285 284.425 330.277 284.425 328.723ZM279.553 324.159C279.553 323.417 280.183 322.955 281.079 322.955C281.961 322.955 282.577 323.417 282.577 324.159C282.577 324.845 282.115 325.209 281.065 325.657C280.015 325.195 279.553 324.831 279.553 324.159ZM282.927 328.667C282.927 329.507 282.269 330.053 281.079 330.053C279.889 330.053 279.203 329.507 279.203 328.667C279.203 327.841 279.833 327.407 281.065 326.973C282.297 327.421 282.927 327.827 282.927 328.667ZM292.821 324.943C292.863 323.123 291.309 321.709 289.559 321.737C287.795 321.737 286.283 323.123 286.283 324.929C286.283 326.679 287.725 328.023 289.307 328.023C289.461 328.023 289.587 328.009 289.713 327.981L287.487 331.131H289.251L291.547 327.869C291.869 327.421 292.107 327.071 292.261 326.819C292.415 326.553 292.555 326.273 292.653 325.965C292.765 325.643 292.821 325.307 292.821 324.943ZM291.351 324.929C291.351 325.447 291.183 325.881 290.833 326.231C290.483 326.581 290.063 326.763 289.559 326.763C289.041 326.763 288.607 326.595 288.257 326.245C287.907 325.895 287.739 325.447 287.739 324.929C287.739 324.411 287.907 323.977 288.257 323.627C288.607 323.277 289.041 323.095 289.559 323.095C290.063 323.095 290.483 323.277 290.833 323.627C291.183 323.977 291.351 324.411 291.351 324.929Z" fill="white"/>
<path d="M463.754 153.92H480.682V184.338H463.754V153.92Z" fill="#FF5F00"/>
<path d="M452.307 199.648V196.424C452.307 195.188 451.554 194.382 450.264 194.382C449.619 194.382 448.921 194.597 448.437 195.295C448.061 194.704 447.524 194.382 446.717 194.382C446.18 194.382 445.643 194.543 445.213 195.134V194.489H444.084V199.648H445.213V196.8C445.213 195.887 445.696 195.456 446.449 195.456C447.201 195.456 447.577 195.94 447.577 196.8V199.648H448.706V196.8C448.706 195.887 449.243 195.456 449.942 195.456C450.694 195.456 451.07 195.94 451.07 196.8V199.648H452.307V199.648ZM469.02 194.489H467.193V192.931H466.064V194.489H465.043V195.51H466.064V197.875C466.064 199.057 466.548 199.756 467.838 199.756C468.321 199.756 468.858 199.595 469.235 199.38L468.912 198.412C468.59 198.627 468.214 198.681 467.945 198.681C467.408 198.681 467.193 198.359 467.193 197.821V195.51H469.02V194.489V194.489ZM478.586 194.381C477.941 194.381 477.511 194.704 477.242 195.134V194.489H476.114V199.648H477.242V196.746C477.242 195.887 477.618 195.403 478.317 195.403C478.532 195.403 478.801 195.457 479.016 195.51L479.338 194.436C479.123 194.382 478.801 194.382 478.586 194.382V194.381ZM464.129 194.919C463.592 194.543 462.84 194.382 462.033 194.382C460.744 194.382 459.884 195.027 459.884 196.048C459.884 196.908 460.529 197.391 461.657 197.552L462.195 197.606C462.786 197.714 463.108 197.875 463.108 198.144C463.108 198.52 462.678 198.788 461.926 198.788C461.174 198.788 460.582 198.52 460.206 198.251L459.669 199.111C460.26 199.541 461.066 199.756 461.872 199.756C463.377 199.756 464.237 199.057 464.237 198.09C464.237 197.176 463.538 196.692 462.463 196.531L461.926 196.478C461.442 196.424 461.066 196.316 461.066 195.994C461.066 195.618 461.442 195.403 462.033 195.403C462.678 195.403 463.323 195.671 463.646 195.833L464.129 194.919V194.919ZM494.117 194.382C493.472 194.382 493.042 194.704 492.773 195.134V194.489H491.645V199.648H492.773V196.746C492.773 195.887 493.15 195.403 493.848 195.403C494.063 195.403 494.332 195.457 494.547 195.51L494.869 194.436C494.654 194.382 494.332 194.382 494.117 194.382V194.382ZM479.714 197.069C479.714 198.627 480.789 199.756 482.455 199.756C483.207 199.756 483.745 199.595 484.282 199.165L483.745 198.251C483.315 198.574 482.885 198.735 482.401 198.735C481.488 198.735 480.843 198.09 480.843 197.069C480.843 196.101 481.488 195.456 482.401 195.403C482.885 195.403 483.315 195.564 483.745 195.887L484.282 194.973C483.745 194.543 483.207 194.382 482.455 194.382C480.789 194.382 479.714 195.51 479.714 197.069ZM490.14 197.069V194.489H489.012V195.134C488.635 194.651 488.098 194.382 487.399 194.382C485.948 194.382 484.82 195.51 484.82 197.069C484.82 198.627 485.948 199.756 487.399 199.756C488.152 199.756 488.689 199.487 489.012 199.003V199.648H490.14V197.069V197.069ZM486.002 197.069C486.002 196.155 486.593 195.403 487.56 195.403C488.474 195.403 489.119 196.101 489.119 197.069C489.119 197.982 488.474 198.735 487.56 198.735C486.593 198.681 486.002 197.982 486.002 197.069V197.069ZM472.513 194.382C471.008 194.382 469.933 195.456 469.933 197.069C469.933 198.681 471.008 199.756 472.567 199.756C473.319 199.756 474.072 199.541 474.663 199.057L474.125 198.251C473.695 198.574 473.158 198.788 472.621 198.788C471.922 198.788 471.223 198.466 471.062 197.552H474.878V197.123C474.932 195.456 473.964 194.382 472.513 194.382H472.513ZM472.513 195.349C473.212 195.349 473.695 195.779 473.803 196.585H471.116C471.223 195.887 471.707 195.349 472.513 195.349ZM500.512 197.069V192.447H499.383V195.134C499.007 194.651 498.47 194.382 497.771 194.382C496.32 194.382 495.192 195.51 495.192 197.069C495.192 198.627 496.32 199.756 497.771 199.756C498.524 199.756 499.061 199.487 499.383 199.003V199.648H500.512V197.069V197.069ZM496.374 197.069C496.374 196.155 496.965 195.403 497.933 195.403C498.846 195.403 499.491 196.101 499.491 197.069C499.491 197.982 498.846 198.735 497.933 198.735C496.965 198.681 496.374 197.982 496.374 197.069V197.069ZM458.648 197.069V194.489H457.519V195.134C457.143 194.651 456.606 194.382 455.907 194.382C454.456 194.382 453.327 195.51 453.327 197.069C453.327 198.627 454.456 199.756 455.907 199.756C456.659 199.756 457.197 199.487 457.519 199.003V199.648H458.648V197.069V197.069ZM454.456 197.069C454.456 196.155 455.047 195.403 456.014 195.403C456.928 195.403 457.573 196.101 457.573 197.069C457.573 197.982 456.928 198.735 456.014 198.735C455.047 198.681 454.456 197.982 454.456 197.069V197.069Z" fill="white"/>
<path d="M464.828 169.13C464.828 162.949 467.73 157.468 472.19 153.921C468.912 151.341 464.774 149.783 460.26 149.783C449.565 149.783 440.913 158.435 440.913 169.13C440.913 179.824 449.565 188.476 460.26 188.476C464.774 188.476 468.912 186.918 472.19 184.338C467.73 180.845 464.828 175.31 464.828 169.13V169.13Z" fill="#EB001B"/>
<path d="M503.521 169.13C503.521 179.824 494.869 188.476 484.174 188.476C479.66 188.476 475.522 186.918 472.244 184.338C476.758 180.791 479.606 175.31 479.606 169.13C479.606 162.949 476.704 157.468 472.244 153.921C475.522 151.341 479.66 149.783 484.174 149.783C494.869 149.783 503.521 158.489 503.521 169.13H503.521Z" fill="#F79E1B"/>
<path d="M157.587 212.676C160.359 212.256 162.263 210.52 162.263 207.944C162.263 205.704 160.807 204.192 158.091 203.156L156.019 202.372C154.479 201.7 153.779 201.168 153.779 200.076C153.779 198.816 154.927 198.2 156.355 198.2C157.811 198.2 158.847 198.844 159.827 200.272L161.843 198.76C160.863 197.024 159.435 195.988 157.587 195.652V192.376H154.871V195.708C152.491 196.184 150.839 197.836 150.839 200.104C150.839 202.148 152.183 203.716 154.899 204.78L156.831 205.536C158.539 206.292 159.323 206.88 159.323 208C159.323 209.344 158.091 210.156 156.383 210.156C154.507 210.156 152.995 209.204 151.791 207.328L149.747 208.84C150.867 210.856 152.631 212.2 154.871 212.62V216.008H157.587V212.676ZM178.058 207.384C178.058 203.66 175.062 201.616 171.758 201.616C170.918 201.616 170.134 201.7 169.406 201.868V197.528H177.022V194.868H166.494V204.164H170.75C173.466 204.164 175.006 205.34 175.006 207.44C175.006 209.568 173.382 210.94 171.17 210.94C169.182 210.94 167.81 209.904 166.69 208.196L164.618 209.68C165.878 212.06 168.202 213.656 171.254 213.656C174.922 213.656 178.058 211.108 178.058 207.384ZM181.575 218.332H183.955L185.271 210.38H181.855L181.575 218.332ZM188.001 194.868V197.528H196.681L188.533 213.348H191.753L200.685 195.68V194.868H188.001ZM215.629 207.384C215.629 203.66 212.633 201.616 209.329 201.616C208.489 201.616 207.705 201.7 206.977 201.868V197.528H214.593V194.868H204.065V204.164H208.321C211.037 204.164 212.577 205.34 212.577 207.44C212.577 209.568 210.953 210.94 208.741 210.94C206.753 210.94 205.381 209.904 204.261 208.196L202.189 209.68C203.449 212.06 205.773 213.656 208.825 213.656C212.493 213.656 215.629 211.108 215.629 207.384ZM218.697 203.94C218.697 209.4 221.021 213.656 225.753 213.656C230.513 213.656 232.781 209.4 232.781 203.94C232.781 201.112 232.193 198.844 230.989 197.136C229.813 195.428 228.077 194.56 225.753 194.56C223.429 194.56 221.693 195.428 220.489 197.164C219.285 198.872 218.697 201.14 218.697 203.94ZM229.701 203.968C229.701 208.336 228.469 210.94 225.753 210.94C223.037 210.94 221.777 208.336 221.777 203.968C221.777 199.516 223.093 197.276 225.753 197.276C228.385 197.276 229.701 199.516 229.701 203.968ZM236.372 218.332H238.752L240.068 210.38H236.652L236.372 218.332ZM248.783 210.772L252.031 207.328C253.319 205.956 254.299 204.78 254.943 203.744C255.615 202.708 255.951 201.56 255.951 200.3C255.951 197.052 253.347 194.56 249.819 194.56C246.039 194.56 243.603 197.444 243.603 200.468C243.603 201.028 243.659 201.56 243.799 202.064H246.795C246.711 201.504 246.655 201.028 246.655 200.636C246.655 198.732 247.915 197.276 249.791 197.276C251.667 197.276 252.871 198.648 252.871 200.524C252.871 202.092 251.975 203.436 249.931 205.592L243.351 212.676V213.348H256.595V210.772H248.783ZM259.795 203.94C259.795 209.4 262.119 213.656 266.851 213.656C271.611 213.656 273.879 209.4 273.879 203.94C273.879 201.112 273.291 198.844 272.087 197.136C270.911 195.428 269.175 194.56 266.851 194.56C264.527 194.56 262.791 195.428 261.587 197.164C260.383 198.872 259.795 201.14 259.795 203.94ZM270.799 203.968C270.799 208.336 269.567 210.94 266.851 210.94C264.135 210.94 262.875 208.336 262.875 203.968C262.875 199.516 264.191 197.276 266.851 197.276C269.483 197.276 270.799 199.516 270.799 203.968Z" fill="white"/>
<path opacity="0.54" d="M149.341 165.119C149.285 167.765 151.567 169.935 154.199 169.893C155.921 169.893 157.377 169.067 158.161 167.765L157.041 166.939C156.383 167.961 155.431 168.535 154.213 168.535C152.323 168.535 150.881 167.079 150.881 165.119C150.881 163.159 152.323 161.703 154.213 161.703C155.431 161.703 156.383 162.277 157.041 163.299L158.161 162.473C157.363 161.171 155.893 160.345 154.199 160.345C151.567 160.303 149.285 162.473 149.341 165.119ZM159.768 166.855C159.768 168.703 161.056 169.893 162.778 169.893C164.458 169.893 165.76 168.703 165.76 166.855V162.865H164.29V166.967C164.29 167.919 163.632 168.535 162.778 168.535C161.882 168.535 161.224 167.919 161.224 166.967V162.865H159.768V166.855ZM171.757 162.865C171.589 162.823 171.407 162.795 171.197 162.795C170.413 162.795 169.685 163.145 169.195 163.761V162.865H167.823V169.739H169.293V166.071C169.293 164.853 170.147 164.167 171.309 164.167H171.757V162.865ZM177.007 162.865C176.839 162.823 176.657 162.795 176.447 162.795C175.663 162.795 174.935 163.145 174.445 163.761V162.865H173.073V169.739H174.543V166.071C174.543 164.853 175.397 164.167 176.559 164.167H177.007V162.865ZM184.374 166.785C184.444 166.463 184.486 166.155 184.486 165.861C184.486 164.069 183.128 162.711 181.308 162.711C179.362 162.669 177.71 164.335 177.752 166.309C177.752 168.339 179.348 169.893 181.448 169.893C182.498 169.893 183.408 169.529 184.192 168.787L183.492 167.779C182.876 168.325 182.204 168.591 181.49 168.591C180.314 168.591 179.432 167.905 179.25 166.785H184.374ZM179.278 165.637C179.502 164.615 180.286 163.957 181.252 163.957C182.218 163.957 183.002 164.587 183.016 165.637H179.278ZM192.176 165.441C192.176 163.803 191.21 162.711 189.6 162.711C188.746 162.711 188.06 162.991 187.542 163.537V162.865H186.17V169.739H187.64V165.637C187.64 164.699 188.298 164.041 189.208 164.041C190.104 164.041 190.706 164.685 190.706 165.637V169.739H192.176V165.441ZM198.311 168.493C197.905 168.535 197.611 168.563 197.401 168.563C196.505 168.563 196.043 168.255 196.043 167.373V164.139H198.087V162.865H196.043V161.059H194.559V162.865H193.439V164.139H194.559V167.499C194.559 169.109 195.511 169.893 197.093 169.893C197.443 169.893 197.849 169.837 198.311 169.739V168.493ZM210.781 167.051C210.781 165.917 210.137 165.049 209.059 164.699C209.563 164.265 209.829 163.677 209.829 162.963C209.829 161.535 208.723 160.499 207.057 160.499H203.823V169.739H207.785C209.591 169.739 210.781 168.605 210.781 167.051ZM206.917 161.801C207.827 161.801 208.345 162.263 208.345 163.033C208.345 163.803 207.827 164.293 206.917 164.293H205.279V161.801H206.917ZM209.283 167.009C209.283 167.891 208.681 168.437 207.659 168.437H205.279V165.567H207.659C208.681 165.567 209.283 166.127 209.283 167.009ZM217.839 165.581C217.839 163.733 216.719 162.711 215.025 162.711C213.835 162.711 212.813 163.187 212.127 164.181L212.981 165.049C213.555 164.363 214.115 164.027 214.885 164.027C215.823 164.027 216.355 164.545 216.355 165.497V165.945H214.409C212.855 165.945 211.875 166.715 211.875 167.905C211.875 169.095 212.827 169.893 214.269 169.893C215.207 169.893 215.963 169.571 216.467 168.969V169.739H217.839V165.581ZM216.355 167.135C216.355 168.073 215.571 168.759 214.577 168.759C213.863 168.759 213.373 168.423 213.373 167.849C213.373 167.289 213.807 167.009 214.591 167.009H216.355V167.135ZM219.885 169.739H221.355V159.239H219.885V169.739ZM228.941 165.581C228.941 163.733 227.821 162.711 226.127 162.711C224.937 162.711 223.915 163.187 223.229 164.181L224.083 165.049C224.657 164.363 225.217 164.027 225.987 164.027C226.925 164.027 227.457 164.545 227.457 165.497V165.945H225.511C223.957 165.945 222.977 166.715 222.977 167.905C222.977 169.095 223.929 169.893 225.371 169.893C226.309 169.893 227.065 169.571 227.569 168.969V169.739H228.941V165.581ZM227.457 167.135C227.457 168.073 226.673 168.759 225.679 168.759C224.965 168.759 224.475 168.423 224.475 167.849C224.475 167.289 224.909 167.009 225.693 167.009H227.457V167.135ZM236.993 165.441C236.993 163.803 236.027 162.711 234.417 162.711C233.563 162.711 232.877 162.991 232.359 163.537V162.865H230.987V169.739H232.457V165.637C232.457 164.699 233.115 164.041 234.025 164.041C234.921 164.041 235.523 164.685 235.523 165.637V169.739H236.993V165.441ZM238.606 166.295C238.606 168.297 240.216 169.893 242.246 169.893C243.492 169.893 244.528 169.291 245.144 168.297L244.108 167.499C243.604 168.185 242.988 168.535 242.26 168.535C241.028 168.535 240.104 167.555 240.104 166.295C240.104 165.049 241.028 164.069 242.26 164.069C243.002 164.069 243.618 164.419 244.108 165.119L245.144 164.307C244.542 163.313 243.52 162.711 242.246 162.711C240.272 162.683 238.564 164.321 238.606 166.295ZM252.815 166.785C252.885 166.463 252.927 166.155 252.927 165.861C252.927 164.069 251.569 162.711 249.749 162.711C247.803 162.669 246.151 164.335 246.193 166.309C246.193 168.339 247.789 169.893 249.889 169.893C250.939 169.893 251.849 169.529 252.633 168.787L251.933 167.779C251.317 168.325 250.645 168.591 249.931 168.591C248.755 168.591 247.873 167.905 247.691 166.785H252.815ZM247.719 165.637C247.943 164.615 248.727 163.957 249.693 163.957C250.659 163.957 251.443 164.587 251.457 165.637H247.719Z" fill="white"/>
</g>
</g>
<defs>
<filter id="filter0_ddd_589_7249" x="112.719" y="70" width="427.178" height="289.683" filterUnits="userSpaceOnUse" color-interpolation-filters="sRGB">
<feFlood flood-opacity="0" result="BackgroundImageFix"/>
<feColorMatrix in="SourceAlpha" type="matrix" values="0 0 0 0 0 0 0 0 0 0 0 0 0 0 0 0 0 0 127 0" result="hardAlpha"/>
<feOffset dy="12.0701"/>
<feGaussianBlur stdDeviation="6.03507"/>
<feColorMatrix type="matrix" values="0 0 0 0 0 0 0 0 0 0 0 0 0 0 0 0 0 0 0.25 0"/>
<feBlend mode="normal" in2="BackgroundImageFix" result="effect1_dropShadow_589_7249"/>
<feColorMatrix in="SourceAlpha" type="matrix" values="0 0 0 0 0 0 0 0 0 0 0 0 0 0 0 0 0 0 127 0" result="hardAlpha"/>
<feOffset dy="24.1403"/>
<feGaussianBlur stdDeviation="12.0701"/>
<feColorMatrix type="matrix" values="0 0 0 0 0 0 0 0 0 0 0 0 0 0 0 0 0 0 0.25 0"/>
<feBlend mode="normal" in2="effect1_dropShadow_589_7249" result="effect2_dropShadow_589_7249"/>
<feColorMatrix in="SourceAlpha" type="matrix" values="0 0 0 0 0 0 0 0 0 0 0 0 0 0 0 0 0 0 127 0" result="hardAlpha"/>
<feOffset dy="48.2805"/>
<feGaussianBlur stdDeviation="24.1403"/>
<feColorMatrix type="matrix" values="0 0 0 0 0 0 0 0 0 0 0 0 0 0 0 0 0 0 0.25 0"/>
<feBlend mode="normal" in2="effect2_dropShadow_589_7249" result="effect3_dropShadow_589_7249"/>
<feBlend mode="normal" in="SourceGraphic" in2="effect3_dropShadow_589_7249" result="shape"/>
</filter>
<filter id="filter1_ddd_589_7249" x="83" y="92" width="486.63" height="330" filterUnits="userSpaceOnUse" color-interpolation-filters="sRGB">
<feFlood flood-opacity="0" result="BackgroundImageFix"/>
<feColorMatrix in="SourceAlpha" type="matrix" values="0 0 0 0 0 0 0 0 0 0 0 0 0 0 0 0 0 0 127 0" result="hardAlpha"/>
<feOffset dy="13.75"/>
<feGaussianBlur stdDeviation="6.875"/>
<feColorMatrix type="matrix" values="0 0 0 0 0 0 0 0 0 0 0 0 0 0 0 0 0 0 0.25 0"/>
<feBlend mode="normal" in2="BackgroundImageFix" result="effect1_dropShadow_589_7249"/>
<feColorMatrix in="SourceAlpha" type="matrix" values="0 0 0 0 0 0 0 0 0 0 0 0 0 0 0 0 0 0 127 0" result="hardAlpha"/>
<feOffset dy="27.5"/>
<feGaussianBlur stdDeviation="13.75"/>
<feColorMatrix type="matrix" values="0 0 0 0 0 0 0 0 0 0 0 0 0 0 0 0 0 0 0.25 0"/>
<feBlend mode="normal" in2="effect1_dropShadow_589_7249" result="effect2_dropShadow_589_7249"/>
<feColorMatrix in="SourceAlpha" type="matrix" values="0 0 0 0 0 0 0 0 0 0 0 0 0 0 0 0 0 0 127 0" result="hardAlpha"/>
<feOffset dy="55"/>
<feGaussianBlur stdDeviation="27.5"/>
<feColorMatrix type="matrix" values="0 0 0 0 0 0 0 0 0 0 0 0 0 0 0 0 0 0 0.25 0"/>
<feBlend mode="normal" in2="effect2_dropShadow_589_7249" result="effect3_dropShadow_589_7249"/>
<feBlend mode="normal" in="SourceGraphic" in2="effect3_dropShadow_589_7249" result="shape"/>
</filter>
<filter id="filter2_ddd_589_7249" x="43" y="115" width="566.261" height="384" filterUnits="userSpaceOnUse" color-interpolation-filters="sRGB">
<feFlood flood-opacity="0" result="BackgroundImageFix"/>
<feColorMatrix in="SourceAlpha" type="matrix" values="0 0 0 0 0 0 0 0 0 0 0 0 0 0 0 0 0 0 127 0" result="hardAlpha"/>
<feOffset dy="16"/>
<feGaussianBlur stdDeviation="8"/>
<feColorMatrix type="matrix" values="0 0 0 0 0 0 0 0 0 0 0 0 0 0 0 0 0 0 0.25 0"/>
<feBlend mode="normal" in2="BackgroundImageFix" result="effect1_dropShadow_589_7249"/>
<feColorMatrix in="SourceAlpha" type="matrix" values="0 0 0 0 0 0 0 0 0 0 0 0 0 0 0 0 0 0 127 0" result="hardAlpha"/>
<feOffset dy="32"/>
<feGaussianBlur stdDeviation="16"/>
<feColorMatrix type="matrix" values="0 0 0 0 0 0 0 0 0 0 0 0 0 0 0 0 0 0 0.25 0"/>
<feBlend mode="normal" in2="effect1_dropShadow_589_7249" result="effect2_dropShadow_589_7249"/>
<feColorMatrix in="SourceAlpha" type="matrix" values="0 0 0 0 0 0 0 0 0 0 0 0 0 0 0 0 0 0 127 0" result="hardAlpha"/>
<feOffset dy="64"/>
<feGaussianBlur stdDeviation="32"/>
<feColorMatrix type="matrix" values="0 0 0 0 0 0 0 0 0 0 0 0 0 0 0 0 0 0 0.25 0"/>
<feBlend mode="normal" in2="effect2_dropShadow_589_7249" result="effect3_dropShadow_589_7249"/>
<feBlend mode="normal" in="SourceGraphic" in2="effect3_dropShadow_589_7249" result="shape"/>
</filter>
<clipPath id="clip0_589_7249">
<rect width="653" height="326.5" fill="white"/>
</clipPath>
</defs>
</svg>
