<svg width="653" height="327" viewBox="0 0 653 327" fill="none" xmlns="http://www.w3.org/2000/svg">
<g clip-path="url(#clip0_589_7258)">
<g opacity="0.75" filter="url(#filter0_ddd_589_7258)">
<rect x="161" y="70.8779" width="330.617" height="193.122" rx="31.4873" fill="url(#paint0_linear_589_7258)"/>
<mask id="mask0_589_7258" style="mask-type:alpha" maskUnits="userSpaceOnUse" x="161" y="70" width="331" height="194">
<rect x="161" y="70.8779" width="330.617" height="193.122" rx="31.4873" fill="#ED713C"/>
</mask>
<g mask="url(#mask0_589_7258)">
<ellipse opacity="0.1" cx="186.714" cy="294.438" rx="168.457" ry="118.602" fill="black"/>
<ellipse opacity="0.08" cx="465.901" cy="40.4401" rx="168.457" ry="118.602" fill="black"/>
</g>
<path d="M419.759 232.412C419.759 235.142 420.921 237.27 423.287 237.27C425.667 237.27 426.801 235.142 426.801 232.412C426.801 230.998 426.507 229.864 425.905 229.01C425.317 228.156 424.449 227.722 423.287 227.722C422.125 227.722 421.257 228.156 420.655 229.024C420.053 229.878 419.759 231.012 419.759 232.412ZM425.261 232.426C425.261 234.61 424.645 235.912 423.287 235.912C421.929 235.912 421.299 234.61 421.299 232.426C421.299 230.2 421.957 229.08 423.287 229.08C424.603 229.08 425.261 230.2 425.261 232.426ZM435.323 230.928C435.365 229.108 433.811 227.694 432.061 227.722C430.297 227.722 428.785 229.108 428.785 230.914C428.785 232.664 430.227 234.008 431.809 234.008C431.963 234.008 432.089 233.994 432.215 233.966L429.989 237.116H431.753L434.049 233.854C434.371 233.406 434.609 233.056 434.763 232.804C434.917 232.538 435.057 232.258 435.155 231.95C435.267 231.628 435.323 231.292 435.323 230.928ZM433.853 230.914C433.853 231.432 433.685 231.866 433.335 232.216C432.985 232.566 432.565 232.748 432.061 232.748C431.543 232.748 431.109 232.58 430.759 232.23C430.409 231.88 430.241 231.432 430.241 230.914C430.241 230.396 430.409 229.962 430.759 229.612C431.109 229.262 431.543 229.08 432.061 229.08C432.565 229.08 432.985 229.262 433.335 229.612C433.685 229.962 433.853 230.396 433.853 230.914ZM434.822 238.81H436.46L443.782 226.196H442.144L434.822 238.81ZM447.157 235.828L448.781 234.106C449.425 233.42 449.915 232.832 450.237 232.314C450.573 231.796 450.741 231.222 450.741 230.592C450.741 228.968 449.439 227.722 447.675 227.722C445.785 227.722 444.567 229.164 444.567 230.676C444.567 230.956 444.595 231.222 444.665 231.474H446.163C446.121 231.194 446.093 230.956 446.093 230.76C446.093 229.808 446.723 229.08 447.661 229.08C448.599 229.08 449.201 229.766 449.201 230.704C449.201 231.488 448.753 232.16 447.731 233.238L444.441 236.78V237.116H451.063V235.828H447.157ZM459.449 234.134C459.449 232.272 457.951 231.25 456.299 231.25C455.879 231.25 455.487 231.292 455.123 231.376V229.206H458.931V227.876H453.667V232.524H455.795C457.153 232.524 457.923 233.112 457.923 234.162C457.923 235.226 457.111 235.912 456.005 235.912C455.011 235.912 454.325 235.394 453.765 234.54L452.729 235.282C453.359 236.472 454.521 237.27 456.047 237.27C457.881 237.27 459.449 235.996 459.449 234.134Z" fill="black"/>
<path opacity="0.9" d="M199.627 234.134C199.627 232.272 198.129 231.25 196.477 231.25C196.057 231.25 195.665 231.292 195.301 231.376V229.206H199.109V227.876H193.845V232.524H195.973C197.331 232.524 198.101 233.112 198.101 234.162C198.101 235.226 197.289 235.912 196.183 235.912C195.189 235.912 194.503 235.394 193.943 234.54L192.907 235.282C193.537 236.472 194.699 237.27 196.225 237.27C198.059 237.27 199.627 235.996 199.627 234.134ZM204.168 235.828L205.792 234.106C206.436 233.42 206.926 232.832 207.248 232.314C207.584 231.796 207.752 231.222 207.752 230.592C207.752 228.968 206.45 227.722 204.686 227.722C202.796 227.722 201.578 229.164 201.578 230.676C201.578 230.956 201.606 231.222 201.676 231.474H203.174C203.132 231.194 203.104 230.956 203.104 230.76C203.104 229.808 203.734 229.08 204.672 229.08C205.61 229.08 206.212 229.766 206.212 230.704C206.212 231.488 205.764 232.16 204.742 233.238L201.452 236.78V237.116H208.074V235.828H204.168ZM216.753 234.708C216.753 233.532 215.969 232.762 214.751 232.314C215.773 231.768 216.319 231.054 216.319 230.088C216.319 229.346 216.039 228.758 215.493 228.352C214.947 227.932 214.247 227.722 213.407 227.722C212.553 227.722 211.853 227.932 211.293 228.352C210.747 228.758 210.467 229.346 210.467 230.088C210.467 231.082 211.027 231.768 212.035 232.314C210.803 232.762 210.033 233.532 210.033 234.708C210.033 236.262 211.419 237.27 213.407 237.27C215.381 237.27 216.753 236.262 216.753 234.708ZM211.881 230.144C211.881 229.402 212.511 228.94 213.407 228.94C214.289 228.94 214.905 229.402 214.905 230.144C214.905 230.83 214.443 231.194 213.393 231.642C212.343 231.18 211.881 230.816 211.881 230.144ZM215.255 234.652C215.255 235.492 214.597 236.038 213.407 236.038C212.217 236.038 211.531 235.492 211.531 234.652C211.531 233.826 212.161 233.392 213.393 232.958C214.625 233.406 215.255 233.812 215.255 234.652ZM221.341 235.828L222.965 234.106C223.609 233.42 224.099 232.832 224.421 232.314C224.757 231.796 224.925 231.222 224.925 230.592C224.925 228.968 223.623 227.722 221.859 227.722C219.969 227.722 218.751 229.164 218.751 230.676C218.751 230.956 218.779 231.222 218.849 231.474H220.347C220.305 231.194 220.277 230.956 220.277 230.76C220.277 229.808 220.907 229.08 221.845 229.08C222.783 229.08 223.385 229.766 223.385 230.704C223.385 231.488 222.937 232.16 221.915 233.238L218.625 236.78V237.116H225.247V235.828H221.341ZM237.833 234.148C237.833 233.35 237.595 232.706 237.119 232.216C236.643 231.726 236.069 231.418 235.383 231.306L237.623 228.282V227.876H231.869V229.234H235.313L233.157 232.132V232.538H234.179C235.537 232.538 236.307 233.112 236.307 234.162C236.307 235.212 235.523 235.912 234.417 235.912C233.465 235.912 232.807 235.394 232.247 234.54L231.211 235.268C231.827 236.458 232.961 237.27 234.459 237.27C236.279 237.27 237.833 236.024 237.833 234.148ZM246.635 234.232H245.375V231.39H243.891V234.232H241.133L243.751 227.876H242.225L239.271 235.1V235.506H243.891V237.116H245.375V235.506H246.635V234.232ZM254.52 234.134C254.52 232.272 253.022 231.25 251.37 231.25C250.95 231.25 250.558 231.292 250.194 231.376V229.206H254.002V227.876H248.738V232.524H250.866C252.224 232.524 252.994 233.112 252.994 234.162C252.994 235.226 252.182 235.912 251.076 235.912C250.082 235.912 249.396 235.394 248.836 234.54L247.8 235.282C248.43 236.472 249.592 237.27 251.118 237.27C252.952 237.27 254.52 235.996 254.52 234.134ZM262.868 234.078C262.868 232.328 261.44 230.984 259.83 230.984C259.676 230.984 259.55 230.998 259.424 231.026L261.65 227.876H259.9L257.59 231.138C257.268 231.6 257.03 231.95 256.876 232.202C256.722 232.454 256.596 232.734 256.484 233.056C256.386 233.364 256.33 233.7 256.33 234.064C256.288 235.884 257.842 237.298 259.592 237.27C261.356 237.27 262.868 235.884 262.868 234.078ZM261.398 234.078C261.398 234.596 261.216 235.044 260.866 235.394C260.516 235.744 260.096 235.912 259.592 235.912C259.074 235.912 258.654 235.744 258.304 235.394C257.954 235.044 257.786 234.596 257.786 234.078C257.786 233.56 257.954 233.126 258.304 232.776C258.654 232.426 259.074 232.244 259.592 232.244C260.096 232.244 260.516 232.426 260.866 232.776C261.216 233.126 261.398 233.56 261.398 234.078ZM268.907 227.876V229.206H273.247L269.173 237.116H270.783L275.249 228.282V227.876H268.907ZM283.091 234.708C283.091 233.532 282.307 232.762 281.089 232.314C282.111 231.768 282.657 231.054 282.657 230.088C282.657 229.346 282.377 228.758 281.831 228.352C281.285 227.932 280.585 227.722 279.745 227.722C278.891 227.722 278.191 227.932 277.631 228.352C277.085 228.758 276.805 229.346 276.805 230.088C276.805 231.082 277.365 231.768 278.373 232.314C277.141 232.762 276.371 233.532 276.371 234.708C276.371 236.262 277.757 237.27 279.745 237.27C281.719 237.27 283.091 236.262 283.091 234.708ZM278.219 230.144C278.219 229.402 278.849 228.94 279.745 228.94C280.627 228.94 281.243 229.402 281.243 230.144C281.243 230.83 280.781 231.194 279.731 231.642C278.681 231.18 278.219 230.816 278.219 230.144ZM281.593 234.652C281.593 235.492 280.935 236.038 279.745 236.038C278.555 236.038 277.869 235.492 277.869 234.652C277.869 233.826 278.499 233.392 279.731 232.958C280.963 233.406 281.593 233.812 281.593 234.652ZM291.487 230.928C291.529 229.108 289.975 227.694 288.225 227.722C286.461 227.722 284.949 229.108 284.949 230.914C284.949 232.664 286.391 234.008 287.973 234.008C288.127 234.008 288.253 233.994 288.379 233.966L286.153 237.116H287.917L290.213 233.854C290.535 233.406 290.773 233.056 290.927 232.804C291.081 232.538 291.221 232.258 291.319 231.95C291.431 231.628 291.487 231.292 291.487 230.928ZM290.017 230.914C290.017 231.432 289.849 231.866 289.499 232.216C289.149 232.566 288.729 232.748 288.225 232.748C287.707 232.748 287.273 232.58 286.923 232.23C286.573 231.88 286.405 231.432 286.405 230.914C286.405 230.396 286.573 229.962 286.923 229.612C287.273 229.262 287.707 229.08 288.225 229.08C288.729 229.08 289.149 229.262 289.499 229.612C289.849 229.962 290.017 230.396 290.017 230.914ZM293.453 232.412C293.453 235.142 294.615 237.27 296.981 237.27C299.361 237.27 300.495 235.142 300.495 232.412C300.495 230.998 300.201 229.864 299.599 229.01C299.011 228.156 298.143 227.722 296.981 227.722C295.819 227.722 294.951 228.156 294.349 229.024C293.747 229.878 293.453 231.012 293.453 232.412ZM298.955 232.426C298.955 234.61 298.339 235.912 296.981 235.912C295.623 235.912 294.993 234.61 294.993 232.426C294.993 230.2 295.651 229.08 296.981 229.08C298.297 229.08 298.955 230.2 298.955 232.426ZM309.814 227.876L306.608 228.926L306.972 230.228L308.848 229.626V237.116H310.332V227.876H309.814ZM315.588 235.828L317.212 234.106C317.856 233.42 318.346 232.832 318.668 232.314C319.004 231.796 319.172 231.222 319.172 230.592C319.172 228.968 317.87 227.722 316.106 227.722C314.216 227.722 312.998 229.164 312.998 230.676C312.998 230.956 313.026 231.222 313.096 231.474H314.594C314.552 231.194 314.524 230.956 314.524 230.76C314.524 229.808 315.154 229.08 316.092 229.08C317.03 229.08 317.632 229.766 317.632 230.704C317.632 231.488 317.184 232.16 316.162 233.238L312.872 236.78V237.116H319.494V235.828H315.588ZM328.173 234.708C328.173 233.532 327.389 232.762 326.171 232.314C327.193 231.768 327.739 231.054 327.739 230.088C327.739 229.346 327.459 228.758 326.913 228.352C326.367 227.932 325.667 227.722 324.827 227.722C323.973 227.722 323.273 227.932 322.713 228.352C322.167 228.758 321.887 229.346 321.887 230.088C321.887 231.082 322.447 231.768 323.455 232.314C322.223 232.762 321.453 233.532 321.453 234.708C321.453 236.262 322.839 237.27 324.827 237.27C326.801 237.27 328.173 236.262 328.173 234.708ZM323.301 230.144C323.301 229.402 323.931 228.94 324.827 228.94C325.709 228.94 326.325 229.402 326.325 230.144C326.325 230.83 325.863 231.194 324.813 231.642C323.763 231.18 323.301 230.816 323.301 230.144ZM326.675 234.652C326.675 235.492 326.017 236.038 324.827 236.038C323.637 236.038 322.951 235.492 322.951 234.652C322.951 233.826 323.581 233.392 324.813 232.958C326.045 233.406 326.675 233.812 326.675 234.652ZM336.569 230.928C336.611 229.108 335.057 227.694 333.307 227.722C331.543 227.722 330.031 229.108 330.031 230.914C330.031 232.664 331.473 234.008 333.055 234.008C333.209 234.008 333.335 233.994 333.461 233.966L331.235 237.116H332.999L335.295 233.854C335.617 233.406 335.855 233.056 336.009 232.804C336.163 232.538 336.303 232.258 336.401 231.95C336.513 231.628 336.569 231.292 336.569 230.928ZM335.099 230.914C335.099 231.432 334.931 231.866 334.581 232.216C334.231 232.566 333.811 232.748 333.307 232.748C332.789 232.748 332.355 232.58 332.005 232.23C331.655 231.88 331.487 231.432 331.487 230.914C331.487 230.396 331.655 229.962 332.005 229.612C332.355 229.262 332.789 229.08 333.307 229.08C333.811 229.08 334.231 229.262 334.581 229.612C334.931 229.962 335.099 230.396 335.099 230.914Z" fill="black"/>
<path d="M430.128 100.239H442.899V123.185H430.128V100.239Z" fill="#FF5F00"/>
<path d="M421.493 134.735V132.303C421.493 131.37 420.926 130.762 419.953 130.762C419.466 130.762 418.939 130.924 418.574 131.451C418.291 131.005 417.885 130.762 417.277 130.762C416.872 130.762 416.466 130.884 416.142 131.33V130.843H415.291V134.735H416.142V132.586C416.142 131.897 416.507 131.573 417.075 131.573C417.642 131.573 417.926 131.938 417.926 132.586V134.735H418.777V132.586C418.777 131.897 419.182 131.573 419.709 131.573C420.277 131.573 420.561 131.938 420.561 132.586V134.735H421.493V134.735ZM434.102 130.843H432.723V129.668H431.872V130.843H431.102V131.613H431.872V133.397C431.872 134.289 432.237 134.816 433.21 134.816C433.575 134.816 433.98 134.695 434.264 134.533L434.021 133.803C433.777 133.965 433.494 134.006 433.291 134.006C432.886 134.006 432.723 133.762 432.723 133.357V131.613H434.102V130.843V130.843ZM441.318 130.762C440.832 130.762 440.507 131.005 440.305 131.33V130.843H439.453V134.735H440.305V132.546C440.305 131.897 440.588 131.533 441.115 131.533C441.277 131.533 441.48 131.573 441.642 131.614L441.886 130.803C441.723 130.762 441.48 130.762 441.318 130.762V130.762ZM430.412 131.168C430.007 130.884 429.439 130.762 428.831 130.762C427.858 130.762 427.21 131.249 427.21 132.019C427.21 132.668 427.696 133.032 428.548 133.154L428.953 133.195C429.399 133.276 429.642 133.397 429.642 133.6C429.642 133.884 429.318 134.087 428.75 134.087C428.183 134.087 427.737 133.884 427.453 133.681L427.047 134.33C427.493 134.654 428.102 134.816 428.71 134.816C429.845 134.816 430.494 134.289 430.494 133.56C430.494 132.87 429.966 132.505 429.156 132.384L428.75 132.343C428.385 132.303 428.102 132.222 428.102 131.979C428.102 131.695 428.385 131.533 428.831 131.533C429.318 131.533 429.804 131.735 430.048 131.857L430.412 131.168V131.168ZM453.035 130.762C452.548 130.762 452.224 131.005 452.021 131.33V130.843H451.17V134.735H452.021V132.546C452.021 131.897 452.305 131.533 452.832 131.533C452.994 131.533 453.197 131.573 453.359 131.614L453.602 130.803C453.44 130.762 453.197 130.762 453.035 130.762V130.762ZM442.169 132.789C442.169 133.965 442.98 134.816 444.237 134.816C444.805 134.816 445.21 134.695 445.615 134.37L445.21 133.681C444.886 133.924 444.561 134.046 444.196 134.046C443.507 134.046 443.021 133.56 443.021 132.789C443.021 132.06 443.507 131.573 444.196 131.533C444.561 131.533 444.886 131.654 445.21 131.897L445.615 131.208C445.21 130.884 444.805 130.762 444.237 130.762C442.98 130.762 442.169 131.614 442.169 132.789ZM450.035 132.789V130.843H449.183V131.33C448.899 130.965 448.494 130.762 447.967 130.762C446.872 130.762 446.021 131.614 446.021 132.789C446.021 133.965 446.872 134.816 447.967 134.816C448.534 134.816 448.94 134.614 449.183 134.249V134.735H450.035V132.789V132.789ZM446.913 132.789C446.913 132.1 447.359 131.533 448.088 131.533C448.778 131.533 449.264 132.06 449.264 132.789C449.264 133.478 448.778 134.046 448.088 134.046C447.359 134.005 446.913 133.478 446.913 132.789V132.789ZM436.737 130.762C435.602 130.762 434.791 131.573 434.791 132.789C434.791 134.006 435.602 134.816 436.777 134.816C437.345 134.816 437.913 134.654 438.359 134.289L437.953 133.681C437.629 133.924 437.223 134.087 436.818 134.087C436.291 134.087 435.764 133.843 435.642 133.154H438.521V132.83C438.561 131.573 437.832 130.762 436.737 130.762H436.737ZM436.737 131.492C437.264 131.492 437.629 131.816 437.71 132.425H435.683C435.764 131.897 436.129 131.492 436.737 131.492ZM457.859 132.789V129.303H457.008V131.33C456.724 130.965 456.318 130.762 455.791 130.762C454.697 130.762 453.845 131.614 453.845 132.789C453.845 133.965 454.697 134.816 455.791 134.816C456.359 134.816 456.764 134.614 457.008 134.249V134.735H457.859V132.789V132.789ZM454.737 132.789C454.737 132.1 455.183 131.533 455.913 131.533C456.602 131.533 457.089 132.06 457.089 132.789C457.089 133.478 456.602 134.046 455.913 134.046C455.183 134.005 454.737 133.478 454.737 132.789V132.789ZM426.277 132.789V130.843H425.426V131.33C425.142 130.965 424.737 130.762 424.21 130.762C423.115 130.762 422.264 131.614 422.264 132.789C422.264 133.965 423.115 134.816 424.21 134.816C424.777 134.816 425.183 134.614 425.426 134.249V134.735H426.277V132.789V132.789ZM423.115 132.789C423.115 132.1 423.561 131.533 424.291 131.533C424.98 131.533 425.466 132.06 425.466 132.789C425.466 133.478 424.98 134.046 424.291 134.046C423.561 134.005 423.115 133.478 423.115 132.789V132.789Z" fill="black"/>
<path d="M430.939 111.712C430.939 107.05 433.128 102.915 436.493 100.239C434.02 98.2928 430.898 97.1172 427.493 97.1172C419.425 97.1172 412.898 103.644 412.898 111.712C412.898 119.78 419.425 126.307 427.493 126.307C430.898 126.307 434.02 125.131 436.493 123.185C433.128 120.55 430.939 116.374 430.939 111.712V111.712Z" fill="#EB001B"/>
<path d="M460.129 111.712C460.129 119.78 453.602 126.307 445.534 126.307C442.128 126.307 439.007 125.131 436.534 123.185C439.939 120.51 442.088 116.374 442.088 111.712C442.088 107.05 439.899 102.915 436.534 100.239C439.007 98.2928 442.128 97.1172 445.534 97.1172C453.602 97.1172 460.129 103.685 460.129 111.712H460.129Z" fill="#F79E1B"/>
<path d="M201.335 150.784C204.107 150.364 206.011 148.628 206.011 146.052C206.011 143.812 204.555 142.3 201.839 141.264L199.767 140.48C198.227 139.808 197.527 139.276 197.527 138.184C197.527 136.924 198.675 136.308 200.103 136.308C201.559 136.308 202.595 136.952 203.575 138.38L205.591 136.868C204.611 135.132 203.183 134.096 201.335 133.76V130.484H198.619V133.816C196.239 134.292 194.587 135.944 194.587 138.212C194.587 140.256 195.931 141.824 198.647 142.888L200.579 143.644C202.287 144.4 203.071 144.988 203.071 146.108C203.071 147.452 201.839 148.264 200.131 148.264C198.255 148.264 196.743 147.312 195.539 145.436L193.495 146.948C194.615 148.964 196.379 150.308 198.619 150.728V154.116H201.335V150.784ZM221.806 145.492C221.806 141.768 218.81 139.724 215.506 139.724C214.666 139.724 213.882 139.808 213.154 139.976V135.636H220.77V132.976H210.242V142.272H214.498C217.214 142.272 218.754 143.448 218.754 145.548C218.754 147.676 217.13 149.048 214.918 149.048C212.93 149.048 211.558 148.012 210.438 146.304L208.366 147.788C209.626 150.168 211.95 151.764 215.002 151.764C218.67 151.764 221.806 149.216 221.806 145.492ZM225.323 156.44H227.703L229.019 148.488H225.603L225.323 156.44ZM231.749 132.976V135.636H240.429L232.281 151.456H235.501L244.433 133.788V132.976H231.749ZM259.377 145.492C259.377 141.768 256.381 139.724 253.077 139.724C252.237 139.724 251.453 139.808 250.725 139.976V135.636H258.341V132.976H247.813V142.272H252.069C254.785 142.272 256.325 143.448 256.325 145.548C256.325 147.676 254.701 149.048 252.489 149.048C250.501 149.048 249.129 148.012 248.009 146.304L245.937 147.788C247.197 150.168 249.521 151.764 252.573 151.764C256.241 151.764 259.377 149.216 259.377 145.492ZM262.445 142.048C262.445 147.508 264.769 151.764 269.501 151.764C274.261 151.764 276.529 147.508 276.529 142.048C276.529 139.22 275.941 136.952 274.737 135.244C273.561 133.536 271.825 132.668 269.501 132.668C267.177 132.668 265.441 133.536 264.237 135.272C263.033 136.98 262.445 139.248 262.445 142.048ZM273.449 142.076C273.449 146.444 272.217 149.048 269.501 149.048C266.785 149.048 265.525 146.444 265.525 142.076C265.525 137.624 266.841 135.384 269.501 135.384C272.133 135.384 273.449 137.624 273.449 142.076ZM280.12 156.44H282.5L283.816 148.488H280.4L280.12 156.44ZM292.532 148.88L295.78 145.436C297.068 144.064 298.048 142.888 298.692 141.852C299.364 140.816 299.7 139.668 299.7 138.408C299.7 135.16 297.096 132.668 293.568 132.668C289.788 132.668 287.352 135.552 287.352 138.576C287.352 139.136 287.408 139.668 287.548 140.172H290.544C290.46 139.612 290.404 139.136 290.404 138.744C290.404 136.84 291.664 135.384 293.54 135.384C295.416 135.384 296.62 136.756 296.62 138.632C296.62 140.2 295.724 141.544 293.68 143.7L287.1 150.784V151.456H300.344V148.88H292.532ZM303.543 142.048C303.543 147.508 305.867 151.764 310.599 151.764C315.359 151.764 317.627 147.508 317.627 142.048C317.627 139.22 317.039 136.952 315.835 135.244C314.659 133.536 312.923 132.668 310.599 132.668C308.275 132.668 306.539 133.536 305.335 135.272C304.131 136.98 303.543 139.248 303.543 142.048ZM314.547 142.076C314.547 146.444 313.315 149.048 310.599 149.048C307.883 149.048 306.623 146.444 306.623 142.076C306.623 137.624 307.939 135.384 310.599 135.384C313.231 135.384 314.547 137.624 314.547 142.076Z" fill="black"/>
<path opacity="0.54" d="M193.089 110.745C193.033 113.391 195.315 115.561 197.947 115.519C199.669 115.519 201.125 114.693 201.909 113.391L200.789 112.565C200.131 113.587 199.179 114.161 197.961 114.161C196.071 114.161 194.629 112.705 194.629 110.745C194.629 108.785 196.071 107.329 197.961 107.329C199.179 107.329 200.131 107.903 200.789 108.925L201.909 108.099C201.111 106.797 199.641 105.971 197.947 105.971C195.315 105.929 193.033 108.099 193.089 110.745ZM203.516 112.481C203.516 114.329 204.804 115.519 206.526 115.519C208.206 115.519 209.508 114.329 209.508 112.481V108.491H208.038V112.593C208.038 113.545 207.38 114.161 206.526 114.161C205.63 114.161 204.972 113.545 204.972 112.593V108.491H203.516V112.481ZM215.505 108.491C215.337 108.449 215.155 108.421 214.945 108.421C214.161 108.421 213.433 108.771 212.943 109.387V108.491H211.571V115.365H213.041V111.697C213.041 110.479 213.895 109.793 215.057 109.793H215.505V108.491ZM220.755 108.491C220.587 108.449 220.405 108.421 220.195 108.421C219.411 108.421 218.683 108.771 218.193 109.387V108.491H216.821V115.365H218.291V111.697C218.291 110.479 219.145 109.793 220.307 109.793H220.755V108.491ZM228.122 112.411C228.192 112.089 228.234 111.781 228.234 111.487C228.234 109.695 226.876 108.337 225.056 108.337C223.11 108.295 221.458 109.961 221.5 111.935C221.5 113.965 223.096 115.519 225.196 115.519C226.246 115.519 227.156 115.155 227.94 114.413L227.24 113.405C226.624 113.951 225.952 114.217 225.238 114.217C224.062 114.217 223.18 113.531 222.998 112.411H228.122ZM223.026 111.263C223.25 110.241 224.034 109.583 225 109.583C225.966 109.583 226.75 110.213 226.764 111.263H223.026ZM235.924 111.067C235.924 109.429 234.958 108.337 233.348 108.337C232.494 108.337 231.808 108.617 231.29 109.163V108.491H229.918V115.365H231.388V111.263C231.388 110.325 232.046 109.667 232.956 109.667C233.852 109.667 234.454 110.311 234.454 111.263V115.365H235.924V111.067ZM242.059 114.119C241.653 114.161 241.359 114.189 241.149 114.189C240.253 114.189 239.791 113.881 239.791 112.999V109.765H241.835V108.491H239.791V106.685H238.307V108.491H237.187V109.765H238.307V113.125C238.307 114.735 239.259 115.519 240.841 115.519C241.191 115.519 241.597 115.463 242.059 115.365V114.119ZM254.529 112.677C254.529 111.543 253.885 110.675 252.807 110.325C253.311 109.891 253.577 109.303 253.577 108.589C253.577 107.161 252.471 106.125 250.805 106.125H247.571V115.365H251.533C253.339 115.365 254.529 114.231 254.529 112.677ZM250.665 107.427C251.575 107.427 252.093 107.889 252.093 108.659C252.093 109.429 251.575 109.919 250.665 109.919H249.027V107.427H250.665ZM253.031 112.635C253.031 113.517 252.429 114.063 251.407 114.063H249.027V111.193H251.407C252.429 111.193 253.031 111.753 253.031 112.635ZM261.587 111.207C261.587 109.359 260.467 108.337 258.773 108.337C257.583 108.337 256.561 108.813 255.875 109.807L256.729 110.675C257.303 109.989 257.863 109.653 258.633 109.653C259.571 109.653 260.103 110.171 260.103 111.123V111.571H258.157C256.603 111.571 255.623 112.341 255.623 113.531C255.623 114.721 256.575 115.519 258.017 115.519C258.955 115.519 259.711 115.197 260.215 114.595V115.365H261.587V111.207ZM260.103 112.761C260.103 113.699 259.319 114.385 258.325 114.385C257.611 114.385 257.121 114.049 257.121 113.475C257.121 112.915 257.555 112.635 258.339 112.635H260.103V112.761ZM263.633 115.365H265.103V104.865H263.633V115.365ZM272.689 111.207C272.689 109.359 271.569 108.337 269.875 108.337C268.685 108.337 267.663 108.813 266.977 109.807L267.831 110.675C268.405 109.989 268.965 109.653 269.735 109.653C270.673 109.653 271.205 110.171 271.205 111.123V111.571H269.259C267.705 111.571 266.725 112.341 266.725 113.531C266.725 114.721 267.677 115.519 269.119 115.519C270.057 115.519 270.813 115.197 271.317 114.595V115.365H272.689V111.207ZM271.205 112.761C271.205 113.699 270.421 114.385 269.427 114.385C268.713 114.385 268.223 114.049 268.223 113.475C268.223 112.915 268.657 112.635 269.441 112.635H271.205V112.761ZM280.741 111.067C280.741 109.429 279.775 108.337 278.165 108.337C277.311 108.337 276.625 108.617 276.107 109.163V108.491H274.735V115.365H276.205V111.263C276.205 110.325 276.863 109.667 277.773 109.667C278.669 109.667 279.271 110.311 279.271 111.263V115.365H280.741V111.067ZM282.354 111.921C282.354 113.923 283.964 115.519 285.994 115.519C287.24 115.519 288.276 114.917 288.892 113.923L287.856 113.125C287.352 113.811 286.736 114.161 286.008 114.161C284.776 114.161 283.852 113.181 283.852 111.921C283.852 110.675 284.776 109.695 286.008 109.695C286.75 109.695 287.366 110.045 287.856 110.745L288.892 109.933C288.29 108.939 287.268 108.337 285.994 108.337C284.02 108.309 282.312 109.947 282.354 111.921ZM296.564 112.411C296.634 112.089 296.676 111.781 296.676 111.487C296.676 109.695 295.318 108.337 293.498 108.337C291.552 108.295 289.9 109.961 289.942 111.935C289.942 113.965 291.538 115.519 293.638 115.519C294.688 115.519 295.598 115.155 296.382 114.413L295.682 113.405C295.066 113.951 294.394 114.217 293.68 114.217C292.504 114.217 291.622 113.531 291.44 112.411H296.564ZM291.468 111.263C291.692 110.241 292.476 109.583 293.442 109.583C294.408 109.583 295.192 110.213 295.206 111.263H291.468Z" fill="black"/>
</g>
<g opacity="0.75" filter="url(#filter1_ddd_589_7258)">
<rect x="138" y="93" width="376.63" height="220" rx="35.8696" fill="url(#paint1_linear_589_7258)"/>
<mask id="mask1_589_7258" style="mask-type:alpha" maskUnits="userSpaceOnUse" x="138" y="93" width="377" height="220">
<rect x="138" y="93" width="376.63" height="220" rx="35.8696" fill="#ED713C"/>
</mask>
<g mask="url(#mask1_589_7258)">
<ellipse opacity="0.1" cx="167.293" cy="347.674" rx="191.902" ry="135.109" fill="black"/>
<ellipse opacity="0.08" cx="485.336" cy="58.3262" rx="191.902" ry="135.109" fill="black"/>
</g>
<path d="M438.39 275.861C438.39 278.591 439.552 280.719 441.918 280.719C444.298 280.719 445.432 278.591 445.432 275.861C445.432 274.447 445.138 273.313 444.536 272.459C443.948 271.605 443.08 271.171 441.918 271.171C440.756 271.171 439.888 271.605 439.286 272.473C438.684 273.327 438.39 274.461 438.39 275.861ZM443.892 275.875C443.892 278.059 443.276 279.361 441.918 279.361C440.56 279.361 439.93 278.059 439.93 275.875C439.93 273.649 440.588 272.529 441.918 272.529C443.234 272.529 443.892 273.649 443.892 275.875ZM453.954 274.377C453.996 272.557 452.442 271.143 450.692 271.171C448.928 271.171 447.416 272.557 447.416 274.363C447.416 276.113 448.858 277.457 450.44 277.457C450.594 277.457 450.72 277.443 450.846 277.415L448.62 280.565H450.384L452.68 277.303C453.002 276.855 453.24 276.505 453.394 276.253C453.548 275.987 453.688 275.707 453.786 275.399C453.898 275.077 453.954 274.741 453.954 274.377ZM452.484 274.363C452.484 274.881 452.316 275.315 451.966 275.665C451.616 276.015 451.196 276.197 450.692 276.197C450.174 276.197 449.74 276.029 449.39 275.679C449.04 275.329 448.872 274.881 448.872 274.363C448.872 273.845 449.04 273.411 449.39 273.061C449.74 272.711 450.174 272.529 450.692 272.529C451.196 272.529 451.616 272.711 451.966 273.061C452.316 273.411 452.484 273.845 452.484 274.363ZM453.454 282.259H455.092L462.414 269.645H460.776L453.454 282.259ZM465.789 279.277L467.413 277.555C468.057 276.869 468.547 276.281 468.869 275.763C469.205 275.245 469.373 274.671 469.373 274.041C469.373 272.417 468.071 271.171 466.307 271.171C464.417 271.171 463.199 272.613 463.199 274.125C463.199 274.405 463.227 274.671 463.297 274.923H464.795C464.753 274.643 464.725 274.405 464.725 274.209C464.725 273.257 465.355 272.529 466.293 272.529C467.231 272.529 467.833 273.215 467.833 274.153C467.833 274.937 467.385 275.609 466.363 276.687L463.073 280.229V280.565H469.695V279.277H465.789ZM478.08 277.583C478.08 275.721 476.582 274.699 474.93 274.699C474.51 274.699 474.118 274.741 473.754 274.825V272.655H477.562V271.325H472.298V275.973H474.426C475.784 275.973 476.554 276.561 476.554 277.611C476.554 278.675 475.742 279.361 474.636 279.361C473.642 279.361 472.956 278.843 472.396 277.989L471.36 278.731C471.99 279.921 473.152 280.719 474.678 280.719C476.512 280.719 478.08 279.445 478.08 277.583Z" fill="black"/>
<path opacity="0.9" d="M181.01 277.583C181.01 275.721 179.512 274.699 177.86 274.699C177.44 274.699 177.048 274.741 176.684 274.825V272.655H180.492V271.325H175.228V275.973H177.356C178.714 275.973 179.484 276.561 179.484 277.611C179.484 278.675 178.672 279.361 177.566 279.361C176.572 279.361 175.886 278.843 175.326 277.989L174.29 278.731C174.92 279.921 176.082 280.719 177.608 280.719C179.442 280.719 181.01 279.445 181.01 277.583ZM185.55 279.277L187.174 277.555C187.818 276.869 188.308 276.281 188.63 275.763C188.966 275.245 189.134 274.671 189.134 274.041C189.134 272.417 187.832 271.171 186.068 271.171C184.178 271.171 182.96 272.613 182.96 274.125C182.96 274.405 182.988 274.671 183.058 274.923H184.556C184.514 274.643 184.486 274.405 184.486 274.209C184.486 273.257 185.116 272.529 186.054 272.529C186.992 272.529 187.594 273.215 187.594 274.153C187.594 274.937 187.146 275.609 186.124 276.687L182.834 280.229V280.565H189.456V279.277H185.55ZM198.136 278.157C198.136 276.981 197.352 276.211 196.134 275.763C197.156 275.217 197.702 274.503 197.702 273.537C197.702 272.795 197.422 272.207 196.876 271.801C196.33 271.381 195.63 271.171 194.79 271.171C193.936 271.171 193.236 271.381 192.676 271.801C192.13 272.207 191.85 272.795 191.85 273.537C191.85 274.531 192.41 275.217 193.418 275.763C192.186 276.211 191.416 276.981 191.416 278.157C191.416 279.711 192.802 280.719 194.79 280.719C196.764 280.719 198.136 279.711 198.136 278.157ZM193.264 273.593C193.264 272.851 193.894 272.389 194.79 272.389C195.672 272.389 196.288 272.851 196.288 273.593C196.288 274.279 195.826 274.643 194.776 275.091C193.726 274.629 193.264 274.265 193.264 273.593ZM196.638 278.101C196.638 278.941 195.98 279.487 194.79 279.487C193.6 279.487 192.914 278.941 192.914 278.101C192.914 277.275 193.544 276.841 194.776 276.407C196.008 276.855 196.638 277.261 196.638 278.101ZM202.724 279.277L204.348 277.555C204.992 276.869 205.482 276.281 205.804 275.763C206.14 275.245 206.308 274.671 206.308 274.041C206.308 272.417 205.006 271.171 203.242 271.171C201.352 271.171 200.134 272.613 200.134 274.125C200.134 274.405 200.162 274.671 200.232 274.923H201.73C201.688 274.643 201.66 274.405 201.66 274.209C201.66 273.257 202.29 272.529 203.228 272.529C204.166 272.529 204.768 273.215 204.768 274.153C204.768 274.937 204.32 275.609 203.298 276.687L200.008 280.229V280.565H206.63V279.277H202.724ZM219.215 277.597C219.215 276.799 218.977 276.155 218.501 275.665C218.025 275.175 217.451 274.867 216.765 274.755L219.005 271.731V271.325H213.251V272.683H216.695L214.539 275.581V275.987H215.561C216.919 275.987 217.689 276.561 217.689 277.611C217.689 278.661 216.905 279.361 215.799 279.361C214.847 279.361 214.189 278.843 213.629 277.989L212.593 278.717C213.209 279.907 214.343 280.719 215.841 280.719C217.661 280.719 219.215 279.473 219.215 277.597ZM228.017 277.681H226.757V274.839H225.273V277.681H222.515L225.133 271.325H223.607L220.653 278.549V278.955H225.273V280.565H226.757V278.955H228.017V277.681ZM235.902 277.583C235.902 275.721 234.404 274.699 232.752 274.699C232.332 274.699 231.94 274.741 231.576 274.825V272.655H235.384V271.325H230.12V275.973H232.248C233.606 275.973 234.376 276.561 234.376 277.611C234.376 278.675 233.564 279.361 232.458 279.361C231.464 279.361 230.778 278.843 230.218 277.989L229.182 278.731C229.812 279.921 230.974 280.719 232.5 280.719C234.334 280.719 235.902 279.445 235.902 277.583ZM244.251 277.527C244.251 275.777 242.823 274.433 241.213 274.433C241.059 274.433 240.933 274.447 240.807 274.475L243.033 271.325H241.283L238.973 274.587C238.651 275.049 238.413 275.399 238.259 275.651C238.105 275.903 237.979 276.183 237.867 276.505C237.769 276.813 237.713 277.149 237.713 277.513C237.671 279.333 239.225 280.747 240.975 280.719C242.739 280.719 244.251 279.333 244.251 277.527ZM242.781 277.527C242.781 278.045 242.599 278.493 242.249 278.843C241.899 279.193 241.479 279.361 240.975 279.361C240.457 279.361 240.037 279.193 239.687 278.843C239.337 278.493 239.169 278.045 239.169 277.527C239.169 277.009 239.337 276.575 239.687 276.225C240.037 275.875 240.457 275.693 240.975 275.693C241.479 275.693 241.899 275.875 242.249 276.225C242.599 276.575 242.781 277.009 242.781 277.527ZM250.29 271.325V272.655H254.63L250.556 280.565H252.166L256.632 271.731V271.325H250.29ZM264.474 278.157C264.474 276.981 263.69 276.211 262.472 275.763C263.494 275.217 264.04 274.503 264.04 273.537C264.04 272.795 263.76 272.207 263.214 271.801C262.668 271.381 261.968 271.171 261.128 271.171C260.274 271.171 259.574 271.381 259.014 271.801C258.468 272.207 258.188 272.795 258.188 273.537C258.188 274.531 258.748 275.217 259.756 275.763C258.524 276.211 257.754 276.981 257.754 278.157C257.754 279.711 259.14 280.719 261.128 280.719C263.102 280.719 264.474 279.711 264.474 278.157ZM259.602 273.593C259.602 272.851 260.232 272.389 261.128 272.389C262.01 272.389 262.626 272.851 262.626 273.593C262.626 274.279 262.164 274.643 261.114 275.091C260.064 274.629 259.602 274.265 259.602 273.593ZM262.976 278.101C262.976 278.941 262.318 279.487 261.128 279.487C259.938 279.487 259.252 278.941 259.252 278.101C259.252 277.275 259.882 276.841 261.114 276.407C262.346 276.855 262.976 277.261 262.976 278.101ZM272.87 274.377C272.912 272.557 271.358 271.143 269.608 271.171C267.844 271.171 266.332 272.557 266.332 274.363C266.332 276.113 267.774 277.457 269.356 277.457C269.51 277.457 269.636 277.443 269.762 277.415L267.536 280.565H269.3L271.596 277.303C271.918 276.855 272.156 276.505 272.31 276.253C272.464 275.987 272.604 275.707 272.702 275.399C272.814 275.077 272.87 274.741 272.87 274.377ZM271.4 274.363C271.4 274.881 271.232 275.315 270.882 275.665C270.532 276.015 270.112 276.197 269.608 276.197C269.09 276.197 268.656 276.029 268.306 275.679C267.956 275.329 267.788 274.881 267.788 274.363C267.788 273.845 267.956 273.411 268.306 273.061C268.656 272.711 269.09 272.529 269.608 272.529C270.112 272.529 270.532 272.711 270.882 273.061C271.232 273.411 271.4 273.845 271.4 274.363ZM274.835 275.861C274.835 278.591 275.997 280.719 278.363 280.719C280.743 280.719 281.877 278.591 281.877 275.861C281.877 274.447 281.583 273.313 280.981 272.459C280.393 271.605 279.525 271.171 278.363 271.171C277.201 271.171 276.333 271.605 275.731 272.473C275.129 273.327 274.835 274.461 274.835 275.861ZM280.337 275.875C280.337 278.059 279.721 279.361 278.363 279.361C277.005 279.361 276.375 278.059 276.375 275.875C276.375 273.649 277.033 272.529 278.363 272.529C279.679 272.529 280.337 273.649 280.337 275.875ZM291.197 271.325L287.991 272.375L288.355 273.677L290.231 273.075V280.565H291.715V271.325H291.197ZM296.97 279.277L298.594 277.555C299.238 276.869 299.728 276.281 300.05 275.763C300.386 275.245 300.554 274.671 300.554 274.041C300.554 272.417 299.252 271.171 297.488 271.171C295.598 271.171 294.38 272.613 294.38 274.125C294.38 274.405 294.408 274.671 294.478 274.923H295.976C295.934 274.643 295.906 274.405 295.906 274.209C295.906 273.257 296.536 272.529 297.474 272.529C298.412 272.529 299.014 273.215 299.014 274.153C299.014 274.937 298.566 275.609 297.544 276.687L294.254 280.229V280.565H300.876V279.277H296.97ZM309.556 278.157C309.556 276.981 308.772 276.211 307.554 275.763C308.576 275.217 309.122 274.503 309.122 273.537C309.122 272.795 308.842 272.207 308.296 271.801C307.75 271.381 307.05 271.171 306.21 271.171C305.356 271.171 304.656 271.381 304.096 271.801C303.55 272.207 303.27 272.795 303.27 273.537C303.27 274.531 303.83 275.217 304.838 275.763C303.606 276.211 302.836 276.981 302.836 278.157C302.836 279.711 304.222 280.719 306.21 280.719C308.184 280.719 309.556 279.711 309.556 278.157ZM304.684 273.593C304.684 272.851 305.314 272.389 306.21 272.389C307.092 272.389 307.708 272.851 307.708 273.593C307.708 274.279 307.246 274.643 306.196 275.091C305.146 274.629 304.684 274.265 304.684 273.593ZM308.058 278.101C308.058 278.941 307.4 279.487 306.21 279.487C305.02 279.487 304.334 278.941 304.334 278.101C304.334 277.275 304.964 276.841 306.196 276.407C307.428 276.855 308.058 277.261 308.058 278.101ZM317.952 274.377C317.994 272.557 316.44 271.143 314.69 271.171C312.926 271.171 311.414 272.557 311.414 274.363C311.414 276.113 312.856 277.457 314.438 277.457C314.592 277.457 314.718 277.443 314.844 277.415L312.618 280.565H314.382L316.678 277.303C317 276.855 317.238 276.505 317.392 276.253C317.546 275.987 317.686 275.707 317.784 275.399C317.896 275.077 317.952 274.741 317.952 274.377ZM316.482 274.363C316.482 274.881 316.314 275.315 315.964 275.665C315.614 276.015 315.194 276.197 314.69 276.197C314.172 276.197 313.738 276.029 313.388 275.679C313.038 275.329 312.87 274.881 312.87 274.363C312.87 273.845 313.038 273.411 313.388 273.061C313.738 272.711 314.172 272.529 314.69 272.529C315.194 272.529 315.614 272.711 315.964 273.061C316.314 273.411 316.482 273.845 316.482 274.363Z" fill="black"/>
<path d="M444.584 126.447H459.132V152.587H444.584V126.447Z" fill="#FF5F00"/>
<path d="M434.747 165.745V162.974C434.747 161.911 434.101 161.219 432.992 161.219C432.438 161.219 431.838 161.404 431.422 162.004C431.099 161.496 430.637 161.219 429.944 161.219C429.482 161.219 429.021 161.357 428.651 161.865V161.311H427.681V165.745H428.651V163.297C428.651 162.512 429.067 162.142 429.713 162.142C430.36 162.142 430.683 162.558 430.683 163.297V165.745H431.653V163.297C431.653 162.512 432.115 162.142 432.715 162.142C433.362 162.142 433.685 162.558 433.685 163.297V165.745H434.747V165.745ZM449.11 161.311H447.54V159.972H446.57V161.311H445.693V162.188H446.57V164.221C446.57 165.237 446.986 165.837 448.094 165.837C448.51 165.837 448.972 165.699 449.295 165.514L449.018 164.682C448.741 164.867 448.418 164.913 448.187 164.913C447.725 164.913 447.54 164.636 447.54 164.174V162.188H449.11V161.311V161.311ZM457.331 161.219C456.777 161.219 456.408 161.496 456.177 161.865V161.311H455.207V165.745H456.177V163.251C456.177 162.512 456.5 162.096 457.1 162.096C457.285 162.096 457.516 162.143 457.701 162.189L457.978 161.265C457.793 161.219 457.516 161.219 457.331 161.219V161.219ZM444.908 161.681C444.446 161.357 443.799 161.219 443.106 161.219C441.998 161.219 441.259 161.773 441.259 162.65C441.259 163.389 441.813 163.805 442.783 163.944L443.245 163.99C443.753 164.082 444.03 164.221 444.03 164.452C444.03 164.775 443.661 165.006 443.014 165.006C442.368 165.006 441.86 164.775 441.536 164.544L441.074 165.283C441.582 165.652 442.275 165.837 442.968 165.837C444.261 165.837 445 165.237 445 164.405C445 163.62 444.4 163.205 443.476 163.066L443.014 163.02C442.598 162.974 442.275 162.881 442.275 162.604C442.275 162.281 442.598 162.096 443.106 162.096C443.661 162.096 444.215 162.327 444.492 162.466L444.908 161.681V161.681ZM470.678 161.219C470.124 161.219 469.754 161.496 469.523 161.865V161.311H468.554V165.745H469.523V163.251C469.523 162.512 469.847 162.096 470.447 162.096C470.632 162.096 470.863 162.143 471.048 162.189L471.325 161.265C471.14 161.219 470.863 161.219 470.678 161.219V161.219ZM458.301 163.528C458.301 164.867 459.225 165.837 460.656 165.837C461.303 165.837 461.765 165.699 462.226 165.329L461.765 164.544C461.395 164.821 461.026 164.96 460.61 164.96C459.825 164.96 459.271 164.405 459.271 163.528C459.271 162.697 459.825 162.142 460.61 162.096C461.026 162.096 461.395 162.235 461.765 162.512L462.226 161.727C461.765 161.357 461.303 161.219 460.656 161.219C459.225 161.219 458.301 162.189 458.301 163.528ZM467.261 163.528V161.311H466.291V161.865C465.967 161.45 465.506 161.219 464.905 161.219C463.658 161.219 462.688 162.189 462.688 163.528C462.688 164.867 463.658 165.837 464.905 165.837C465.552 165.837 466.014 165.606 466.291 165.191V165.745H467.261V163.528V163.528ZM463.704 163.528C463.704 162.743 464.212 162.096 465.044 162.096C465.829 162.096 466.383 162.697 466.383 163.528C466.383 164.313 465.829 164.96 465.044 164.96C464.212 164.913 463.704 164.313 463.704 163.528V163.528ZM452.112 161.219C450.819 161.219 449.895 162.142 449.895 163.528C449.895 164.913 450.819 165.837 452.158 165.837C452.805 165.837 453.452 165.652 453.96 165.237L453.498 164.544C453.128 164.821 452.667 165.006 452.205 165.006C451.604 165.006 451.004 164.729 450.865 163.943H454.144V163.574C454.191 162.142 453.359 161.219 452.112 161.219H452.112ZM452.112 162.05C452.713 162.05 453.129 162.42 453.221 163.112H450.912C451.004 162.512 451.42 162.05 452.112 162.05ZM476.174 163.528V159.556H475.204V161.865C474.881 161.45 474.419 161.219 473.819 161.219C472.572 161.219 471.602 162.189 471.602 163.528C471.602 164.867 472.572 165.837 473.819 165.837C474.465 165.837 474.927 165.606 475.204 165.191V165.745H476.174V163.528V163.528ZM472.618 163.528C472.618 162.743 473.126 162.096 473.957 162.096C474.742 162.096 475.297 162.697 475.297 163.528C475.297 164.313 474.742 164.96 473.957 164.96C473.126 164.913 472.618 164.313 472.618 163.528V163.528ZM440.197 163.528V161.311H439.227V161.865C438.904 161.45 438.442 161.219 437.841 161.219C436.595 161.219 435.625 162.189 435.625 163.528C435.625 164.867 436.595 165.837 437.841 165.837C438.488 165.837 438.95 165.606 439.227 165.191V165.745H440.197V163.528V163.528ZM436.595 163.528C436.595 162.743 437.103 162.096 437.934 162.096C438.719 162.096 439.273 162.697 439.273 163.528C439.273 164.313 438.719 164.96 437.934 164.96C437.103 164.913 436.595 164.313 436.595 163.528V163.528Z" fill="black"/>
<path d="M445.508 139.518C445.508 134.206 448.002 129.496 451.835 126.447C449.018 124.231 445.462 122.891 441.582 122.891C432.392 122.891 424.956 130.327 424.956 139.518C424.956 148.708 432.392 156.144 441.582 156.144C445.462 156.144 449.018 154.804 451.835 152.587C448.002 149.585 445.508 144.829 445.508 139.518V139.518Z" fill="#EB001B"/>
<path d="M478.76 139.518C478.76 148.708 471.324 156.144 462.134 156.144C458.254 156.144 454.698 154.804 451.881 152.587C455.76 149.539 458.208 144.829 458.208 139.518C458.208 134.206 455.714 129.496 451.881 126.447C454.698 124.231 458.254 122.891 462.134 122.891C471.324 122.891 478.76 130.373 478.76 139.518H478.76Z" fill="#F79E1B"/>
<path d="M182.718 180.502C185.49 180.082 187.394 178.346 187.394 175.77C187.394 173.53 185.938 172.018 183.222 170.982L181.15 170.198C179.61 169.526 178.91 168.994 178.91 167.902C178.91 166.642 180.058 166.026 181.486 166.026C182.942 166.026 183.978 166.67 184.958 168.098L186.974 166.586C185.994 164.85 184.566 163.814 182.718 163.478V160.202H180.002V163.534C177.622 164.01 175.97 165.662 175.97 167.93C175.97 169.974 177.314 171.542 180.03 172.606L181.962 173.362C183.67 174.118 184.454 174.706 184.454 175.826C184.454 177.17 183.222 177.982 181.514 177.982C179.638 177.982 178.126 177.03 176.922 175.154L174.878 176.666C175.998 178.682 177.762 180.026 180.002 180.446V183.834H182.718V180.502ZM203.189 175.21C203.189 171.486 200.193 169.442 196.889 169.442C196.049 169.442 195.265 169.526 194.537 169.694V165.354H202.153V162.694H191.625V171.99H195.881C198.597 171.99 200.137 173.166 200.137 175.266C200.137 177.394 198.513 178.766 196.301 178.766C194.313 178.766 192.941 177.73 191.821 176.022L189.749 177.506C191.009 179.886 193.333 181.482 196.385 181.482C200.053 181.482 203.189 178.934 203.189 175.21ZM206.705 186.158H209.085L210.401 178.206H206.985L206.705 186.158ZM213.132 162.694V165.354H221.812L213.664 181.174H216.884L225.816 163.506V162.694H213.132ZM240.759 175.21C240.759 171.486 237.763 169.442 234.459 169.442C233.619 169.442 232.835 169.526 232.107 169.694V165.354H239.723V162.694H229.195V171.99H233.451C236.167 171.99 237.707 173.166 237.707 175.266C237.707 177.394 236.083 178.766 233.871 178.766C231.883 178.766 230.511 177.73 229.391 176.022L227.319 177.506C228.579 179.886 230.903 181.482 233.955 181.482C237.623 181.482 240.759 178.934 240.759 175.21ZM243.828 171.766C243.828 177.226 246.152 181.482 250.884 181.482C255.644 181.482 257.912 177.226 257.912 171.766C257.912 168.938 257.324 166.67 256.12 164.962C254.944 163.254 253.208 162.386 250.884 162.386C248.56 162.386 246.824 163.254 245.62 164.99C244.416 166.698 243.828 168.966 243.828 171.766ZM254.832 171.794C254.832 176.162 253.6 178.766 250.884 178.766C248.168 178.766 246.908 176.162 246.908 171.794C246.908 167.342 248.224 165.102 250.884 165.102C253.516 165.102 254.832 167.342 254.832 171.794ZM261.502 186.158H263.882L265.198 178.206H261.782L261.502 186.158ZM273.914 178.598L277.162 175.154C278.45 173.782 279.43 172.606 280.074 171.57C280.746 170.534 281.082 169.386 281.082 168.126C281.082 164.878 278.478 162.386 274.95 162.386C271.17 162.386 268.734 165.27 268.734 168.294C268.734 168.854 268.79 169.386 268.93 169.89H271.926C271.842 169.33 271.786 168.854 271.786 168.462C271.786 166.558 273.046 165.102 274.922 165.102C276.798 165.102 278.002 166.474 278.002 168.35C278.002 169.918 277.106 171.262 275.062 173.418L268.482 180.502V181.174H281.726V178.598H273.914ZM284.925 171.766C284.925 177.226 287.249 181.482 291.981 181.482C296.741 181.482 299.009 177.226 299.009 171.766C299.009 168.938 298.421 166.67 297.217 164.962C296.041 163.254 294.305 162.386 291.981 162.386C289.657 162.386 287.921 163.254 286.717 164.99C285.513 166.698 284.925 168.966 284.925 171.766ZM295.929 171.794C295.929 176.162 294.697 178.766 291.981 178.766C289.265 178.766 288.005 176.162 288.005 171.794C288.005 167.342 289.321 165.102 291.981 165.102C294.613 165.102 295.929 167.342 295.929 171.794Z" fill="black"/>
<path opacity="0.54" d="M174.472 137.249C174.416 139.895 176.698 142.065 179.33 142.023C181.052 142.023 182.508 141.197 183.292 139.895L182.172 139.069C181.514 140.091 180.562 140.665 179.344 140.665C177.454 140.665 176.012 139.209 176.012 137.249C176.012 135.289 177.454 133.833 179.344 133.833C180.562 133.833 181.514 134.407 182.172 135.429L183.292 134.603C182.494 133.301 181.024 132.475 179.33 132.475C176.698 132.433 174.416 134.603 174.472 137.249ZM184.899 138.985C184.899 140.833 186.187 142.023 187.909 142.023C189.589 142.023 190.891 140.833 190.891 138.985V134.995H189.421V139.097C189.421 140.049 188.763 140.665 187.909 140.665C187.013 140.665 186.355 140.049 186.355 139.097V134.995H184.899V138.985ZM196.887 134.995C196.719 134.953 196.537 134.925 196.327 134.925C195.543 134.925 194.815 135.275 194.325 135.891V134.995H192.953V141.869H194.423V138.201C194.423 136.983 195.277 136.297 196.439 136.297H196.887V134.995ZM202.137 134.995C201.969 134.953 201.787 134.925 201.577 134.925C200.793 134.925 200.065 135.275 199.575 135.891V134.995H198.203V141.869H199.673V138.201C199.673 136.983 200.527 136.297 201.689 136.297H202.137V134.995ZM209.504 138.915C209.574 138.593 209.616 138.285 209.616 137.991C209.616 136.199 208.258 134.841 206.438 134.841C204.492 134.799 202.84 136.465 202.882 138.439C202.882 140.469 204.478 142.023 206.578 142.023C207.628 142.023 208.538 141.659 209.322 140.917L208.622 139.909C208.006 140.455 207.334 140.721 206.62 140.721C205.444 140.721 204.562 140.035 204.38 138.915H209.504ZM204.408 137.767C204.632 136.745 205.416 136.087 206.382 136.087C207.348 136.087 208.132 136.717 208.146 137.767H204.408ZM217.307 137.571C217.307 135.933 216.341 134.841 214.731 134.841C213.877 134.841 213.191 135.121 212.673 135.667V134.995H211.301V141.869H212.771V137.767C212.771 136.829 213.429 136.171 214.339 136.171C215.235 136.171 215.837 136.815 215.837 137.767V141.869H217.307V137.571ZM223.442 140.623C223.036 140.665 222.742 140.693 222.532 140.693C221.636 140.693 221.174 140.385 221.174 139.503V136.269H223.218V134.995H221.174V133.189H219.69V134.995H218.57V136.269H219.69V139.629C219.69 141.239 220.642 142.023 222.224 142.023C222.574 142.023 222.98 141.967 223.442 141.869V140.623ZM235.912 139.181C235.912 138.047 235.268 137.179 234.19 136.829C234.694 136.395 234.96 135.807 234.96 135.093C234.96 133.665 233.854 132.629 232.188 132.629H228.954V141.869H232.916C234.722 141.869 235.912 140.735 235.912 139.181ZM232.048 133.931C232.958 133.931 233.476 134.393 233.476 135.163C233.476 135.933 232.958 136.423 232.048 136.423H230.41V133.931H232.048ZM234.414 139.139C234.414 140.021 233.812 140.567 232.79 140.567H230.41V137.697H232.79C233.812 137.697 234.414 138.257 234.414 139.139ZM242.97 137.711C242.97 135.863 241.85 134.841 240.156 134.841C238.966 134.841 237.944 135.317 237.258 136.311L238.112 137.179C238.686 136.493 239.246 136.157 240.016 136.157C240.954 136.157 241.486 136.675 241.486 137.627V138.075H239.54C237.986 138.075 237.006 138.845 237.006 140.035C237.006 141.225 237.958 142.023 239.4 142.023C240.338 142.023 241.094 141.701 241.598 141.099V141.869H242.97V137.711ZM241.486 139.265C241.486 140.203 240.702 140.889 239.708 140.889C238.994 140.889 238.504 140.553 238.504 139.979C238.504 139.419 238.938 139.139 239.722 139.139H241.486V139.265ZM245.016 141.869H246.486V131.369H245.016V141.869ZM254.071 137.711C254.071 135.863 252.951 134.841 251.257 134.841C250.067 134.841 249.045 135.317 248.359 136.311L249.213 137.179C249.787 136.493 250.347 136.157 251.117 136.157C252.055 136.157 252.587 136.675 252.587 137.627V138.075H250.641C249.087 138.075 248.107 138.845 248.107 140.035C248.107 141.225 249.059 142.023 250.501 142.023C251.439 142.023 252.195 141.701 252.699 141.099V141.869H254.071V137.711ZM252.587 139.265C252.587 140.203 251.803 140.889 250.809 140.889C250.095 140.889 249.605 140.553 249.605 139.979C249.605 139.419 250.039 139.139 250.823 139.139H252.587V139.265ZM262.123 137.571C262.123 135.933 261.157 134.841 259.547 134.841C258.693 134.841 258.007 135.121 257.489 135.667V134.995H256.117V141.869H257.587V137.767C257.587 136.829 258.245 136.171 259.155 136.171C260.051 136.171 260.653 136.815 260.653 137.767V141.869H262.123V137.571ZM263.736 138.425C263.736 140.427 265.346 142.023 267.376 142.023C268.622 142.023 269.658 141.421 270.274 140.427L269.238 139.629C268.734 140.315 268.118 140.665 267.39 140.665C266.158 140.665 265.234 139.685 265.234 138.425C265.234 137.179 266.158 136.199 267.39 136.199C268.132 136.199 268.748 136.549 269.238 137.249L270.274 136.437C269.672 135.443 268.65 134.841 267.376 134.841C265.402 134.813 263.694 136.451 263.736 138.425ZM277.946 138.915C278.016 138.593 278.058 138.285 278.058 137.991C278.058 136.199 276.7 134.841 274.88 134.841C272.934 134.799 271.282 136.465 271.324 138.439C271.324 140.469 272.92 142.023 275.02 142.023C276.07 142.023 276.98 141.659 277.764 140.917L277.064 139.909C276.448 140.455 275.776 140.721 275.062 140.721C273.886 140.721 273.004 140.035 272.822 138.915H277.946ZM272.85 137.767C273.074 136.745 273.858 136.087 274.824 136.087C275.79 136.087 276.574 136.717 276.588 137.767H272.85Z" fill="black"/>
</g>
<g filter="url(#filter2_ddd_589_7258)">
<rect x="107" y="115" width="438.261" height="256" rx="41.7391" fill="url(#paint2_linear_589_7258)"/>
<mask id="mask2_589_7258" style="mask-type:alpha" maskUnits="userSpaceOnUse" x="107" y="115" width="439" height="256">
<rect x="107" y="115" width="438.261" height="256" rx="41.7391" fill="#ED713C"/>
</mask>
<g mask="url(#mask2_589_7258)">
<ellipse opacity="0.1" cx="141.087" cy="411.348" rx="223.304" ry="157.217" fill="black"/>
<ellipse opacity="0.08" cx="511.173" cy="74.6522" rx="223.304" ry="157.217" fill="black"/>
</g>
<path d="M463.151 326.427C463.151 329.157 464.313 331.285 466.679 331.285C469.059 331.285 470.193 329.157 470.193 326.427C470.193 325.013 469.899 323.879 469.297 323.025C468.709 322.171 467.841 321.737 466.679 321.737C465.517 321.737 464.649 322.171 464.047 323.039C463.445 323.893 463.151 325.027 463.151 326.427ZM468.653 326.441C468.653 328.625 468.037 329.927 466.679 329.927C465.321 329.927 464.691 328.625 464.691 326.441C464.691 324.215 465.349 323.095 466.679 323.095C467.995 323.095 468.653 324.215 468.653 326.441ZM478.715 324.943C478.757 323.123 477.203 321.709 475.453 321.737C473.689 321.737 472.177 323.123 472.177 324.929C472.177 326.679 473.619 328.023 475.201 328.023C475.355 328.023 475.481 328.009 475.607 327.981L473.381 331.131H475.145L477.441 327.869C477.763 327.421 478.001 327.071 478.155 326.819C478.309 326.553 478.449 326.273 478.547 325.965C478.659 325.643 478.715 325.307 478.715 324.943ZM477.245 324.929C477.245 325.447 477.077 325.881 476.727 326.231C476.377 326.581 475.957 326.763 475.453 326.763C474.935 326.763 474.501 326.595 474.151 326.245C473.801 325.895 473.633 325.447 473.633 324.929C473.633 324.411 473.801 323.977 474.151 323.627C474.501 323.277 474.935 323.095 475.453 323.095C475.957 323.095 476.377 323.277 476.727 323.627C477.077 323.977 477.245 324.411 477.245 324.929ZM478.215 332.825H479.853L487.175 320.211H485.537L478.215 332.825ZM490.55 329.843L492.174 328.121C492.818 327.435 493.308 326.847 493.63 326.329C493.966 325.811 494.134 325.237 494.134 324.607C494.134 322.983 492.832 321.737 491.068 321.737C489.178 321.737 487.96 323.179 487.96 324.691C487.96 324.971 487.988 325.237 488.058 325.489H489.556C489.514 325.209 489.486 324.971 489.486 324.775C489.486 323.823 490.116 323.095 491.054 323.095C491.992 323.095 492.594 323.781 492.594 324.719C492.594 325.503 492.146 326.175 491.124 327.253L487.834 330.795V331.131H494.456V329.843H490.55ZM502.842 328.149C502.842 326.287 501.344 325.265 499.692 325.265C499.272 325.265 498.88 325.307 498.516 325.391V323.221H502.324V321.891H497.06V326.539H499.188C500.546 326.539 501.316 327.127 501.316 328.177C501.316 329.241 500.504 329.927 499.398 329.927C498.404 329.927 497.718 329.409 497.158 328.555L496.122 329.297C496.752 330.487 497.914 331.285 499.44 331.285C501.274 331.285 502.842 330.011 502.842 328.149Z" fill="black"/>
<path opacity="0.9" d="M155.879 328.149C155.879 326.287 154.381 325.265 152.729 325.265C152.309 325.265 151.917 325.307 151.553 325.391V323.221H155.361V321.891H150.097V326.539H152.225C153.583 326.539 154.353 327.127 154.353 328.177C154.353 329.241 153.541 329.927 152.435 329.927C151.441 329.927 150.755 329.409 150.195 328.555L149.159 329.297C149.789 330.487 150.951 331.285 152.477 331.285C154.311 331.285 155.879 330.011 155.879 328.149ZM160.42 329.843L162.044 328.121C162.688 327.435 163.178 326.847 163.5 326.329C163.836 325.811 164.004 325.237 164.004 324.607C164.004 322.983 162.702 321.737 160.938 321.737C159.048 321.737 157.83 323.179 157.83 324.691C157.83 324.971 157.858 325.237 157.928 325.489H159.426C159.384 325.209 159.356 324.971 159.356 324.775C159.356 323.823 159.986 323.095 160.924 323.095C161.862 323.095 162.464 323.781 162.464 324.719C162.464 325.503 162.016 326.175 160.994 327.253L157.704 330.795V331.131H164.326V329.843H160.42ZM173.005 328.723C173.005 327.547 172.221 326.777 171.003 326.329C172.025 325.783 172.571 325.069 172.571 324.103C172.571 323.361 172.291 322.773 171.745 322.367C171.199 321.947 170.499 321.737 169.659 321.737C168.805 321.737 168.105 321.947 167.545 322.367C166.999 322.773 166.719 323.361 166.719 324.103C166.719 325.097 167.279 325.783 168.287 326.329C167.055 326.777 166.285 327.547 166.285 328.723C166.285 330.277 167.671 331.285 169.659 331.285C171.633 331.285 173.005 330.277 173.005 328.723ZM168.133 324.159C168.133 323.417 168.763 322.955 169.659 322.955C170.541 322.955 171.157 323.417 171.157 324.159C171.157 324.845 170.695 325.209 169.645 325.657C168.595 325.195 168.133 324.831 168.133 324.159ZM171.507 328.667C171.507 329.507 170.849 330.053 169.659 330.053C168.469 330.053 167.783 329.507 167.783 328.667C167.783 327.841 168.413 327.407 169.645 326.973C170.877 327.421 171.507 327.827 171.507 328.667ZM177.593 329.843L179.217 328.121C179.861 327.435 180.351 326.847 180.673 326.329C181.009 325.811 181.177 325.237 181.177 324.607C181.177 322.983 179.875 321.737 178.111 321.737C176.221 321.737 175.003 323.179 175.003 324.691C175.003 324.971 175.031 325.237 175.101 325.489H176.599C176.557 325.209 176.529 324.971 176.529 324.775C176.529 323.823 177.159 323.095 178.097 323.095C179.035 323.095 179.637 323.781 179.637 324.719C179.637 325.503 179.189 326.175 178.167 327.253L174.877 330.795V331.131H181.499V329.843H177.593ZM194.085 328.163C194.085 327.365 193.847 326.721 193.371 326.231C192.895 325.741 192.321 325.433 191.635 325.321L193.875 322.297V321.891H188.121V323.249H191.565L189.409 326.147V326.553H190.431C191.789 326.553 192.559 327.127 192.559 328.177C192.559 329.227 191.775 329.927 190.669 329.927C189.717 329.927 189.059 329.409 188.499 328.555L187.463 329.283C188.079 330.473 189.213 331.285 190.711 331.285C192.531 331.285 194.085 330.039 194.085 328.163ZM202.887 328.247H201.627V325.405H200.143V328.247H197.385L200.003 321.891H198.477L195.523 329.115V329.521H200.143V331.131H201.627V329.521H202.887V328.247ZM210.772 328.149C210.772 326.287 209.274 325.265 207.622 325.265C207.202 325.265 206.81 325.307 206.446 325.391V323.221H210.254V321.891H204.99V326.539H207.118C208.476 326.539 209.246 327.127 209.246 328.177C209.246 329.241 208.434 329.927 207.328 329.927C206.334 329.927 205.648 329.409 205.088 328.555L204.052 329.297C204.682 330.487 205.844 331.285 207.37 331.285C209.204 331.285 210.772 330.011 210.772 328.149ZM219.12 328.093C219.12 326.343 217.692 324.999 216.082 324.999C215.928 324.999 215.802 325.013 215.676 325.041L217.902 321.891H216.152L213.842 325.153C213.52 325.615 213.282 325.965 213.128 326.217C212.974 326.469 212.848 326.749 212.736 327.071C212.638 327.379 212.582 327.715 212.582 328.079C212.54 329.899 214.094 331.313 215.844 331.285C217.608 331.285 219.12 329.899 219.12 328.093ZM217.65 328.093C217.65 328.611 217.468 329.059 217.118 329.409C216.768 329.759 216.348 329.927 215.844 329.927C215.326 329.927 214.906 329.759 214.556 329.409C214.206 329.059 214.038 328.611 214.038 328.093C214.038 327.575 214.206 327.141 214.556 326.791C214.906 326.441 215.326 326.259 215.844 326.259C216.348 326.259 216.768 326.441 217.118 326.791C217.468 327.141 217.65 327.575 217.65 328.093ZM225.159 321.891V323.221H229.499L225.425 331.131H227.035L231.501 322.297V321.891H225.159ZM239.343 328.723C239.343 327.547 238.559 326.777 237.341 326.329C238.363 325.783 238.909 325.069 238.909 324.103C238.909 323.361 238.629 322.773 238.083 322.367C237.537 321.947 236.837 321.737 235.997 321.737C235.143 321.737 234.443 321.947 233.883 322.367C233.337 322.773 233.057 323.361 233.057 324.103C233.057 325.097 233.617 325.783 234.625 326.329C233.393 326.777 232.623 327.547 232.623 328.723C232.623 330.277 234.009 331.285 235.997 331.285C237.971 331.285 239.343 330.277 239.343 328.723ZM234.471 324.159C234.471 323.417 235.101 322.955 235.997 322.955C236.879 322.955 237.495 323.417 237.495 324.159C237.495 324.845 237.033 325.209 235.983 325.657C234.933 325.195 234.471 324.831 234.471 324.159ZM237.845 328.667C237.845 329.507 237.187 330.053 235.997 330.053C234.807 330.053 234.121 329.507 234.121 328.667C234.121 327.841 234.751 327.407 235.983 326.973C237.215 327.421 237.845 327.827 237.845 328.667ZM247.739 324.943C247.781 323.123 246.227 321.709 244.477 321.737C242.713 321.737 241.201 323.123 241.201 324.929C241.201 326.679 242.643 328.023 244.225 328.023C244.379 328.023 244.505 328.009 244.631 327.981L242.405 331.131H244.169L246.465 327.869C246.787 327.421 247.025 327.071 247.179 326.819C247.333 326.553 247.473 326.273 247.571 325.965C247.683 325.643 247.739 325.307 247.739 324.943ZM246.269 324.929C246.269 325.447 246.101 325.881 245.751 326.231C245.401 326.581 244.981 326.763 244.477 326.763C243.959 326.763 243.525 326.595 243.175 326.245C242.825 325.895 242.657 325.447 242.657 324.929C242.657 324.411 242.825 323.977 243.175 323.627C243.525 323.277 243.959 323.095 244.477 323.095C244.981 323.095 245.401 323.277 245.751 323.627C246.101 323.977 246.269 324.411 246.269 324.929ZM249.705 326.427C249.705 329.157 250.867 331.285 253.233 331.285C255.613 331.285 256.747 329.157 256.747 326.427C256.747 325.013 256.453 323.879 255.851 323.025C255.263 322.171 254.395 321.737 253.233 321.737C252.071 321.737 251.203 322.171 250.601 323.039C249.999 323.893 249.705 325.027 249.705 326.427ZM255.207 326.441C255.207 328.625 254.591 329.927 253.233 329.927C251.875 329.927 251.245 328.625 251.245 326.441C251.245 324.215 251.903 323.095 253.233 323.095C254.549 323.095 255.207 324.215 255.207 326.441ZM266.066 321.891L262.86 322.941L263.224 324.243L265.1 323.641V331.131H266.584V321.891H266.066ZM271.839 329.843L273.463 328.121C274.107 327.435 274.597 326.847 274.919 326.329C275.255 325.811 275.423 325.237 275.423 324.607C275.423 322.983 274.121 321.737 272.357 321.737C270.467 321.737 269.249 323.179 269.249 324.691C269.249 324.971 269.277 325.237 269.347 325.489H270.845C270.803 325.209 270.775 324.971 270.775 324.775C270.775 323.823 271.405 323.095 272.343 323.095C273.281 323.095 273.883 323.781 273.883 324.719C273.883 325.503 273.435 326.175 272.413 327.253L269.123 330.795V331.131H275.745V329.843H271.839ZM284.425 328.723C284.425 327.547 283.641 326.777 282.423 326.329C283.445 325.783 283.991 325.069 283.991 324.103C283.991 323.361 283.711 322.773 283.165 322.367C282.619 321.947 281.919 321.737 281.079 321.737C280.225 321.737 279.525 321.947 278.965 322.367C278.419 322.773 278.139 323.361 278.139 324.103C278.139 325.097 278.699 325.783 279.707 326.329C278.475 326.777 277.705 327.547 277.705 328.723C277.705 330.277 279.091 331.285 281.079 331.285C283.053 331.285 284.425 330.277 284.425 328.723ZM279.553 324.159C279.553 323.417 280.183 322.955 281.079 322.955C281.961 322.955 282.577 323.417 282.577 324.159C282.577 324.845 282.115 325.209 281.065 325.657C280.015 325.195 279.553 324.831 279.553 324.159ZM282.927 328.667C282.927 329.507 282.269 330.053 281.079 330.053C279.889 330.053 279.203 329.507 279.203 328.667C279.203 327.841 279.833 327.407 281.065 326.973C282.297 327.421 282.927 327.827 282.927 328.667ZM292.821 324.943C292.863 323.123 291.309 321.709 289.559 321.737C287.795 321.737 286.283 323.123 286.283 324.929C286.283 326.679 287.725 328.023 289.307 328.023C289.461 328.023 289.587 328.009 289.713 327.981L287.487 331.131H289.251L291.547 327.869C291.869 327.421 292.107 327.071 292.261 326.819C292.415 326.553 292.555 326.273 292.653 325.965C292.765 325.643 292.821 325.307 292.821 324.943ZM291.351 324.929C291.351 325.447 291.183 325.881 290.833 326.231C290.483 326.581 290.063 326.763 289.559 326.763C289.041 326.763 288.607 326.595 288.257 326.245C287.907 325.895 287.739 325.447 287.739 324.929C287.739 324.411 287.907 323.977 288.257 323.627C288.607 323.277 289.041 323.095 289.559 323.095C290.063 323.095 290.483 323.277 290.833 323.627C291.183 323.977 291.351 324.411 291.351 324.929Z" fill="black"/>
<path d="M463.753 153.92H480.681V184.338H463.753V153.92Z" fill="#FF5F00"/>
<path d="M452.307 199.648V196.424C452.307 195.188 451.554 194.382 450.264 194.382C449.619 194.382 448.921 194.597 448.437 195.295C448.061 194.704 447.524 194.382 446.717 194.382C446.18 194.382 445.643 194.543 445.213 195.134V194.489H444.084V199.648H445.213V196.8C445.213 195.887 445.696 195.456 446.449 195.456C447.201 195.456 447.577 195.94 447.577 196.8V199.648H448.706V196.8C448.706 195.887 449.243 195.456 449.942 195.456C450.694 195.456 451.07 195.94 451.07 196.8V199.648H452.307V199.648ZM469.02 194.489H467.193V192.931H466.064V194.489H465.043V195.51H466.064V197.875C466.064 199.057 466.548 199.756 467.838 199.756C468.321 199.756 468.858 199.595 469.235 199.38L468.912 198.412C468.59 198.627 468.214 198.681 467.945 198.681C467.408 198.681 467.193 198.359 467.193 197.821V195.51H469.02V194.489V194.489ZM478.586 194.381C477.941 194.381 477.511 194.704 477.242 195.134V194.489H476.114V199.648H477.242V196.746C477.242 195.887 477.618 195.403 478.317 195.403C478.532 195.403 478.801 195.457 479.016 195.51L479.338 194.436C479.123 194.382 478.801 194.382 478.586 194.382V194.381ZM464.129 194.919C463.592 194.543 462.84 194.382 462.033 194.382C460.744 194.382 459.884 195.027 459.884 196.048C459.884 196.908 460.529 197.391 461.657 197.552L462.195 197.606C462.786 197.714 463.108 197.875 463.108 198.144C463.108 198.52 462.678 198.788 461.926 198.788C461.174 198.788 460.582 198.52 460.206 198.251L459.669 199.111C460.26 199.541 461.066 199.756 461.872 199.756C463.377 199.756 464.237 199.057 464.237 198.09C464.237 197.176 463.538 196.692 462.463 196.531L461.926 196.478C461.442 196.424 461.066 196.316 461.066 195.994C461.066 195.618 461.442 195.403 462.033 195.403C462.678 195.403 463.323 195.671 463.646 195.833L464.129 194.919V194.919ZM494.117 194.382C493.472 194.382 493.042 194.704 492.773 195.134V194.489H491.645V199.648H492.773V196.746C492.773 195.887 493.15 195.403 493.848 195.403C494.063 195.403 494.332 195.457 494.547 195.51L494.869 194.436C494.654 194.382 494.332 194.382 494.117 194.382V194.382ZM479.714 197.069C479.714 198.627 480.789 199.756 482.455 199.756C483.207 199.756 483.745 199.595 484.282 199.165L483.745 198.251C483.315 198.574 482.885 198.735 482.401 198.735C481.488 198.735 480.843 198.09 480.843 197.069C480.843 196.101 481.488 195.456 482.401 195.403C482.885 195.403 483.315 195.564 483.745 195.887L484.282 194.973C483.745 194.543 483.207 194.382 482.455 194.382C480.789 194.382 479.714 195.51 479.714 197.069ZM490.14 197.069V194.489H489.012V195.134C488.635 194.651 488.098 194.382 487.399 194.382C485.948 194.382 484.82 195.51 484.82 197.069C484.82 198.627 485.948 199.756 487.399 199.756C488.152 199.756 488.689 199.487 489.012 199.003V199.648H490.14V197.069V197.069ZM486.002 197.069C486.002 196.155 486.593 195.403 487.56 195.403C488.474 195.403 489.119 196.101 489.119 197.069C489.119 197.982 488.474 198.735 487.56 198.735C486.593 198.681 486.002 197.982 486.002 197.069V197.069ZM472.513 194.382C471.008 194.382 469.933 195.456 469.933 197.069C469.933 198.681 471.008 199.756 472.567 199.756C473.319 199.756 474.072 199.541 474.663 199.057L474.125 198.251C473.695 198.574 473.158 198.788 472.621 198.788C471.922 198.788 471.223 198.466 471.062 197.552H474.878V197.123C474.932 195.456 473.964 194.382 472.513 194.382H472.513ZM472.513 195.349C473.212 195.349 473.695 195.779 473.803 196.585H471.116C471.223 195.887 471.707 195.349 472.513 195.349ZM500.512 197.069V192.447H499.383V195.134C499.007 194.651 498.47 194.382 497.771 194.382C496.32 194.382 495.192 195.51 495.192 197.069C495.192 198.627 496.32 199.756 497.771 199.756C498.524 199.756 499.061 199.487 499.383 199.003V199.648H500.512V197.069V197.069ZM496.374 197.069C496.374 196.155 496.965 195.403 497.933 195.403C498.846 195.403 499.491 196.101 499.491 197.069C499.491 197.982 498.846 198.735 497.933 198.735C496.965 198.681 496.374 197.982 496.374 197.069V197.069ZM458.648 197.069V194.489H457.519V195.134C457.143 194.651 456.606 194.382 455.907 194.382C454.456 194.382 453.327 195.51 453.327 197.069C453.327 198.627 454.456 199.756 455.907 199.756C456.659 199.756 457.197 199.487 457.519 199.003V199.648H458.648V197.069V197.069ZM454.456 197.069C454.456 196.155 455.047 195.403 456.014 195.403C456.928 195.403 457.573 196.101 457.573 197.069C457.573 197.982 456.928 198.735 456.014 198.735C455.047 198.681 454.456 197.982 454.456 197.069V197.069Z" fill="black"/>
<path d="M464.827 169.13C464.827 162.949 467.729 157.468 472.19 153.921C468.912 151.341 464.774 149.783 460.26 149.783C449.565 149.783 440.913 158.435 440.913 169.13C440.913 179.824 449.565 188.476 460.259 188.476C464.774 188.476 468.912 186.918 472.19 184.338C467.729 180.845 464.827 175.31 464.827 169.13V169.13Z" fill="#EB001B"/>
<path d="M503.521 169.13C503.521 179.824 494.869 188.476 484.174 188.476C479.66 188.476 475.522 186.918 472.244 184.338C476.758 180.791 479.606 175.31 479.606 169.13C479.606 162.949 476.704 157.468 472.244 153.921C475.522 151.341 479.66 149.783 484.174 149.783C494.869 149.783 503.521 158.489 503.521 169.13H503.521Z" fill="#F79E1B"/>
<path d="M157.587 212.676C160.359 212.256 162.263 210.52 162.263 207.944C162.263 205.704 160.807 204.192 158.091 203.156L156.019 202.372C154.479 201.7 153.779 201.168 153.779 200.076C153.779 198.816 154.927 198.2 156.355 198.2C157.811 198.2 158.847 198.844 159.827 200.272L161.843 198.76C160.863 197.024 159.435 195.988 157.587 195.652V192.376H154.871V195.708C152.491 196.184 150.839 197.836 150.839 200.104C150.839 202.148 152.183 203.716 154.899 204.78L156.831 205.536C158.539 206.292 159.323 206.88 159.323 208C159.323 209.344 158.091 210.156 156.383 210.156C154.507 210.156 152.995 209.204 151.791 207.328L149.747 208.84C150.867 210.856 152.631 212.2 154.871 212.62V216.008H157.587V212.676ZM178.058 207.384C178.058 203.66 175.062 201.616 171.758 201.616C170.918 201.616 170.134 201.7 169.406 201.868V197.528H177.022V194.868H166.494V204.164H170.75C173.466 204.164 175.006 205.34 175.006 207.44C175.006 209.568 173.382 210.94 171.17 210.94C169.182 210.94 167.81 209.904 166.69 208.196L164.618 209.68C165.878 212.06 168.202 213.656 171.254 213.656C174.922 213.656 178.058 211.108 178.058 207.384ZM181.575 218.332H183.955L185.271 210.38H181.855L181.575 218.332ZM188.001 194.868V197.528H196.681L188.533 213.348H191.753L200.685 195.68V194.868H188.001ZM215.629 207.384C215.629 203.66 212.633 201.616 209.329 201.616C208.489 201.616 207.705 201.7 206.977 201.868V197.528H214.593V194.868H204.065V204.164H208.321C211.037 204.164 212.577 205.34 212.577 207.44C212.577 209.568 210.953 210.94 208.741 210.94C206.753 210.94 205.381 209.904 204.261 208.196L202.189 209.68C203.449 212.06 205.773 213.656 208.825 213.656C212.493 213.656 215.629 211.108 215.629 207.384ZM218.697 203.94C218.697 209.4 221.021 213.656 225.753 213.656C230.513 213.656 232.781 209.4 232.781 203.94C232.781 201.112 232.193 198.844 230.989 197.136C229.813 195.428 228.077 194.56 225.753 194.56C223.429 194.56 221.693 195.428 220.489 197.164C219.285 198.872 218.697 201.14 218.697 203.94ZM229.701 203.968C229.701 208.336 228.469 210.94 225.753 210.94C223.037 210.94 221.777 208.336 221.777 203.968C221.777 199.516 223.093 197.276 225.753 197.276C228.385 197.276 229.701 199.516 229.701 203.968ZM236.372 218.332H238.752L240.068 210.38H236.652L236.372 218.332ZM248.783 210.772L252.031 207.328C253.319 205.956 254.299 204.78 254.943 203.744C255.615 202.708 255.951 201.56 255.951 200.3C255.951 197.052 253.347 194.56 249.819 194.56C246.039 194.56 243.603 197.444 243.603 200.468C243.603 201.028 243.659 201.56 243.799 202.064H246.795C246.711 201.504 246.655 201.028 246.655 200.636C246.655 198.732 247.915 197.276 249.791 197.276C251.667 197.276 252.871 198.648 252.871 200.524C252.871 202.092 251.975 203.436 249.931 205.592L243.351 212.676V213.348H256.595V210.772H248.783ZM259.795 203.94C259.795 209.4 262.119 213.656 266.851 213.656C271.611 213.656 273.879 209.4 273.879 203.94C273.879 201.112 273.291 198.844 272.087 197.136C270.911 195.428 269.175 194.56 266.851 194.56C264.527 194.56 262.791 195.428 261.587 197.164C260.383 198.872 259.795 201.14 259.795 203.94ZM270.799 203.968C270.799 208.336 269.567 210.94 266.851 210.94C264.135 210.94 262.875 208.336 262.875 203.968C262.875 199.516 264.191 197.276 266.851 197.276C269.483 197.276 270.799 199.516 270.799 203.968Z" fill="black"/>
<path opacity="0.54" d="M149.341 165.119C149.285 167.765 151.567 169.935 154.199 169.893C155.921 169.893 157.377 169.067 158.161 167.765L157.041 166.939C156.383 167.961 155.431 168.535 154.213 168.535C152.323 168.535 150.881 167.079 150.881 165.119C150.881 163.159 152.323 161.703 154.213 161.703C155.431 161.703 156.383 162.277 157.041 163.299L158.161 162.473C157.363 161.171 155.893 160.345 154.199 160.345C151.567 160.303 149.285 162.473 149.341 165.119ZM159.768 166.855C159.768 168.703 161.056 169.893 162.778 169.893C164.458 169.893 165.76 168.703 165.76 166.855V162.865H164.29V166.967C164.29 167.919 163.632 168.535 162.778 168.535C161.882 168.535 161.224 167.919 161.224 166.967V162.865H159.768V166.855ZM171.757 162.865C171.589 162.823 171.407 162.795 171.197 162.795C170.413 162.795 169.685 163.145 169.195 163.761V162.865H167.823V169.739H169.293V166.071C169.293 164.853 170.147 164.167 171.309 164.167H171.757V162.865ZM177.007 162.865C176.839 162.823 176.657 162.795 176.447 162.795C175.663 162.795 174.935 163.145 174.445 163.761V162.865H173.073V169.739H174.543V166.071C174.543 164.853 175.397 164.167 176.559 164.167H177.007V162.865ZM184.374 166.785C184.444 166.463 184.486 166.155 184.486 165.861C184.486 164.069 183.128 162.711 181.308 162.711C179.362 162.669 177.71 164.335 177.752 166.309C177.752 168.339 179.348 169.893 181.448 169.893C182.498 169.893 183.408 169.529 184.192 168.787L183.492 167.779C182.876 168.325 182.204 168.591 181.49 168.591C180.314 168.591 179.432 167.905 179.25 166.785H184.374ZM179.278 165.637C179.502 164.615 180.286 163.957 181.252 163.957C182.218 163.957 183.002 164.587 183.016 165.637H179.278ZM192.176 165.441C192.176 163.803 191.21 162.711 189.6 162.711C188.746 162.711 188.06 162.991 187.542 163.537V162.865H186.17V169.739H187.64V165.637C187.64 164.699 188.298 164.041 189.208 164.041C190.104 164.041 190.706 164.685 190.706 165.637V169.739H192.176V165.441ZM198.311 168.493C197.905 168.535 197.611 168.563 197.401 168.563C196.505 168.563 196.043 168.255 196.043 167.373V164.139H198.087V162.865H196.043V161.059H194.559V162.865H193.439V164.139H194.559V167.499C194.559 169.109 195.511 169.893 197.093 169.893C197.443 169.893 197.849 169.837 198.311 169.739V168.493ZM210.781 167.051C210.781 165.917 210.137 165.049 209.059 164.699C209.563 164.265 209.829 163.677 209.829 162.963C209.829 161.535 208.723 160.499 207.057 160.499H203.823V169.739H207.785C209.591 169.739 210.781 168.605 210.781 167.051ZM206.917 161.801C207.827 161.801 208.345 162.263 208.345 163.033C208.345 163.803 207.827 164.293 206.917 164.293H205.279V161.801H206.917ZM209.283 167.009C209.283 167.891 208.681 168.437 207.659 168.437H205.279V165.567H207.659C208.681 165.567 209.283 166.127 209.283 167.009ZM217.839 165.581C217.839 163.733 216.719 162.711 215.025 162.711C213.835 162.711 212.813 163.187 212.127 164.181L212.981 165.049C213.555 164.363 214.115 164.027 214.885 164.027C215.823 164.027 216.355 164.545 216.355 165.497V165.945H214.409C212.855 165.945 211.875 166.715 211.875 167.905C211.875 169.095 212.827 169.893 214.269 169.893C215.207 169.893 215.963 169.571 216.467 168.969V169.739H217.839V165.581ZM216.355 167.135C216.355 168.073 215.571 168.759 214.577 168.759C213.863 168.759 213.373 168.423 213.373 167.849C213.373 167.289 213.807 167.009 214.591 167.009H216.355V167.135ZM219.885 169.739H221.355V159.239H219.885V169.739ZM228.941 165.581C228.941 163.733 227.821 162.711 226.127 162.711C224.937 162.711 223.915 163.187 223.229 164.181L224.083 165.049C224.657 164.363 225.217 164.027 225.987 164.027C226.925 164.027 227.457 164.545 227.457 165.497V165.945H225.511C223.957 165.945 222.977 166.715 222.977 167.905C222.977 169.095 223.929 169.893 225.371 169.893C226.309 169.893 227.065 169.571 227.569 168.969V169.739H228.941V165.581ZM227.457 167.135C227.457 168.073 226.673 168.759 225.679 168.759C224.965 168.759 224.475 168.423 224.475 167.849C224.475 167.289 224.909 167.009 225.693 167.009H227.457V167.135ZM236.993 165.441C236.993 163.803 236.027 162.711 234.417 162.711C233.563 162.711 232.877 162.991 232.359 163.537V162.865H230.987V169.739H232.457V165.637C232.457 164.699 233.115 164.041 234.025 164.041C234.921 164.041 235.523 164.685 235.523 165.637V169.739H236.993V165.441ZM238.606 166.295C238.606 168.297 240.216 169.893 242.246 169.893C243.492 169.893 244.528 169.291 245.144 168.297L244.108 167.499C243.604 168.185 242.988 168.535 242.26 168.535C241.028 168.535 240.104 167.555 240.104 166.295C240.104 165.049 241.028 164.069 242.26 164.069C243.002 164.069 243.618 164.419 244.108 165.119L245.144 164.307C244.542 163.313 243.52 162.711 242.246 162.711C240.272 162.683 238.564 164.321 238.606 166.295ZM252.815 166.785C252.885 166.463 252.927 166.155 252.927 165.861C252.927 164.069 251.569 162.711 249.749 162.711C247.803 162.669 246.151 164.335 246.193 166.309C246.193 168.339 247.789 169.893 249.889 169.893C250.939 169.893 251.849 169.529 252.633 168.787L251.933 167.779C251.317 168.325 250.645 168.591 249.931 168.591C248.755 168.591 247.873 167.905 247.691 166.785H252.815ZM247.719 165.637C247.943 164.615 248.727 163.957 249.693 163.957C250.659 163.957 251.443 164.587 251.457 165.637H247.719Z" fill="black"/>
</g>
</g>
<defs>
<filter id="filter0_ddd_589_7258" x="112.719" y="70.8779" width="427.178" height="289.683" filterUnits="userSpaceOnUse" color-interpolation-filters="sRGB">
<feFlood flood-opacity="0" result="BackgroundImageFix"/>
<feColorMatrix in="SourceAlpha" type="matrix" values="0 0 0 0 0 0 0 0 0 0 0 0 0 0 0 0 0 0 127 0" result="hardAlpha"/>
<feOffset dy="12.0701"/>
<feGaussianBlur stdDeviation="6.03507"/>
<feColorMatrix type="matrix" values="0 0 0 0 0 0 0 0 0 0 0 0 0 0 0 0 0 0 0.25 0"/>
<feBlend mode="normal" in2="BackgroundImageFix" result="effect1_dropShadow_589_7258"/>
<feColorMatrix in="SourceAlpha" type="matrix" values="0 0 0 0 0 0 0 0 0 0 0 0 0 0 0 0 0 0 127 0" result="hardAlpha"/>
<feOffset dy="24.1403"/>
<feGaussianBlur stdDeviation="12.0701"/>
<feColorMatrix type="matrix" values="0 0 0 0 0 0 0 0 0 0 0 0 0 0 0 0 0 0 0.25 0"/>
<feBlend mode="normal" in2="effect1_dropShadow_589_7258" result="effect2_dropShadow_589_7258"/>
<feColorMatrix in="SourceAlpha" type="matrix" values="0 0 0 0 0 0 0 0 0 0 0 0 0 0 0 0 0 0 127 0" result="hardAlpha"/>
<feOffset dy="48.2805"/>
<feGaussianBlur stdDeviation="24.1403"/>
<feColorMatrix type="matrix" values="0 0 0 0 0 0 0 0 0 0 0 0 0 0 0 0 0 0 0.25 0"/>
<feBlend mode="normal" in2="effect2_dropShadow_589_7258" result="effect3_dropShadow_589_7258"/>
<feBlend mode="normal" in="SourceGraphic" in2="effect3_dropShadow_589_7258" result="shape"/>
</filter>
<filter id="filter1_ddd_589_7258" x="83" y="93" width="486.63" height="330" filterUnits="userSpaceOnUse" color-interpolation-filters="sRGB">
<feFlood flood-opacity="0" result="BackgroundImageFix"/>
<feColorMatrix in="SourceAlpha" type="matrix" values="0 0 0 0 0 0 0 0 0 0 0 0 0 0 0 0 0 0 127 0" result="hardAlpha"/>
<feOffset dy="13.75"/>
<feGaussianBlur stdDeviation="6.875"/>
<feColorMatrix type="matrix" values="0 0 0 0 0 0 0 0 0 0 0 0 0 0 0 0 0 0 0.25 0"/>
<feBlend mode="normal" in2="BackgroundImageFix" result="effect1_dropShadow_589_7258"/>
<feColorMatrix in="SourceAlpha" type="matrix" values="0 0 0 0 0 0 0 0 0 0 0 0 0 0 0 0 0 0 127 0" result="hardAlpha"/>
<feOffset dy="27.5"/>
<feGaussianBlur stdDeviation="13.75"/>
<feColorMatrix type="matrix" values="0 0 0 0 0 0 0 0 0 0 0 0 0 0 0 0 0 0 0.25 0"/>
<feBlend mode="normal" in2="effect1_dropShadow_589_7258" result="effect2_dropShadow_589_7258"/>
<feColorMatrix in="SourceAlpha" type="matrix" values="0 0 0 0 0 0 0 0 0 0 0 0 0 0 0 0 0 0 127 0" result="hardAlpha"/>
<feOffset dy="55"/>
<feGaussianBlur stdDeviation="27.5"/>
<feColorMatrix type="matrix" values="0 0 0 0 0 0 0 0 0 0 0 0 0 0 0 0 0 0 0.25 0"/>
<feBlend mode="normal" in2="effect2_dropShadow_589_7258" result="effect3_dropShadow_589_7258"/>
<feBlend mode="normal" in="SourceGraphic" in2="effect3_dropShadow_589_7258" result="shape"/>
</filter>
<filter id="filter2_ddd_589_7258" x="43" y="115" width="566.261" height="384" filterUnits="userSpaceOnUse" color-interpolation-filters="sRGB">
<feFlood flood-opacity="0" result="BackgroundImageFix"/>
<feColorMatrix in="SourceAlpha" type="matrix" values="0 0 0 0 0 0 0 0 0 0 0 0 0 0 0 0 0 0 127 0" result="hardAlpha"/>
<feOffset dy="16"/>
<feGaussianBlur stdDeviation="8"/>
<feColorMatrix type="matrix" values="0 0 0 0 0 0 0 0 0 0 0 0 0 0 0 0 0 0 0.25 0"/>
<feBlend mode="normal" in2="BackgroundImageFix" result="effect1_dropShadow_589_7258"/>
<feColorMatrix in="SourceAlpha" type="matrix" values="0 0 0 0 0 0 0 0 0 0 0 0 0 0 0 0 0 0 127 0" result="hardAlpha"/>
<feOffset dy="32"/>
<feGaussianBlur stdDeviation="16"/>
<feColorMatrix type="matrix" values="0 0 0 0 0 0 0 0 0 0 0 0 0 0 0 0 0 0 0.25 0"/>
<feBlend mode="normal" in2="effect1_dropShadow_589_7258" result="effect2_dropShadow_589_7258"/>
<feColorMatrix in="SourceAlpha" type="matrix" values="0 0 0 0 0 0 0 0 0 0 0 0 0 0 0 0 0 0 127 0" result="hardAlpha"/>
<feOffset dy="64"/>
<feGaussianBlur stdDeviation="32"/>
<feColorMatrix type="matrix" values="0 0 0 0 0 0 0 0 0 0 0 0 0 0 0 0 0 0 0.25 0"/>
<feBlend mode="normal" in2="effect2_dropShadow_589_7258" result="effect3_dropShadow_589_7258"/>
<feBlend mode="normal" in="SourceGraphic" in2="effect3_dropShadow_589_7258" result="shape"/>
</filter>
<linearGradient id="paint0_linear_589_7258" x1="326.308" y1="70.8779" x2="326.308" y2="264" gradientUnits="userSpaceOnUse">
<stop stop-color="#E7E8E9"/>
<stop offset="1" stop-color="#565758"/>
</linearGradient>
<linearGradient id="paint1_linear_589_7258" x1="326.315" y1="93" x2="326.315" y2="313" gradientUnits="userSpaceOnUse">
<stop stop-color="#E7E8E9"/>
<stop offset="1" stop-color="#565758"/>
</linearGradient>
<linearGradient id="paint2_linear_589_7258" x1="326.13" y1="115" x2="326.13" y2="371" gradientUnits="userSpaceOnUse">
<stop stop-color="#E7E8E9"/>
<stop offset="1" stop-color="#565758"/>
</linearGradient>
<clipPath id="clip0_589_7258">
<rect width="653" height="326.5" fill="white"/>
</clipPath>
</defs>
</svg>
