<svg width="847" height="323" viewBox="0 0 847 323" fill="none" xmlns="http://www.w3.org/2000/svg">
<rect width="847" height="323" fill="white"/>
<path d="M743.744 29.08L740.912 33.904V37H739.952V33.904L737.12 29.08H738.26L739.796 31.792L740.432 32.92L741.068 31.792L742.604 29.08H743.744ZM746.624 37.12C746.056 37.12 745.548 36.996 745.1 36.748C744.66 36.5 744.316 36.144 744.068 35.68C743.82 35.208 743.696 34.648 743.696 34C743.696 33.352 743.82 32.796 744.068 32.332C744.316 31.86 744.656 31.5 745.088 31.252C745.52 31.004 746.012 30.88 746.564 30.88C747.124 30.88 747.6 31 747.992 31.24C748.392 31.48 748.696 31.808 748.904 32.224C749.112 32.632 749.216 33.092 749.216 33.604C749.216 33.74 749.212 33.864 749.204 33.976C749.196 34.088 749.184 34.188 749.168 34.276H744.32V33.424H748.748L748.256 33.52C748.256 32.944 748.096 32.5 747.776 32.188C747.464 31.876 747.052 31.72 746.54 31.72C746.148 31.72 745.808 31.812 745.52 31.996C745.24 32.172 745.02 32.432 744.86 32.776C744.708 33.112 744.632 33.52 744.632 34C744.632 34.472 744.712 34.88 744.872 35.224C745.032 35.568 745.256 35.832 745.544 36.016C745.84 36.192 746.192 36.28 746.6 36.28C747.04 36.28 747.396 36.196 747.668 36.028C747.948 35.86 748.172 35.632 748.34 35.344L749.096 35.788C748.944 36.06 748.748 36.296 748.508 36.496C748.276 36.696 748 36.852 747.68 36.964C747.368 37.068 747.016 37.12 746.624 37.12ZM754.546 33.124C754.546 32.676 754.426 32.332 754.186 32.092C753.946 31.844 753.606 31.72 753.166 31.72C752.75 31.72 752.398 31.812 752.11 31.996C751.822 32.172 751.61 32.46 751.474 32.86L750.694 32.38C750.854 31.932 751.15 31.572 751.582 31.3C752.014 31.02 752.55 30.88 753.19 30.88C753.622 30.88 754.014 30.956 754.366 31.108C754.718 31.252 754.994 31.476 755.194 31.78C755.402 32.076 755.506 32.46 755.506 32.932V35.836C755.506 36.124 755.658 36.268 755.962 36.268C756.114 36.268 756.262 36.248 756.406 36.208L756.358 36.964C756.198 37.044 755.99 37.084 755.734 37.084C755.502 37.084 755.294 37.04 755.11 36.952C754.926 36.864 754.782 36.732 754.678 36.556C754.574 36.372 754.522 36.144 754.522 35.872V35.752L754.762 35.788C754.666 36.1 754.502 36.356 754.27 36.556C754.038 36.748 753.778 36.892 753.49 36.988C753.202 37.076 752.918 37.12 752.638 37.12C752.286 37.12 751.958 37.06 751.654 36.94C751.35 36.82 751.106 36.64 750.922 36.4C750.746 36.152 750.658 35.848 750.658 35.488C750.658 35.04 750.806 34.672 751.102 34.384C751.406 34.088 751.826 33.888 752.362 33.784L754.738 33.316V34.108L752.806 34.504C752.414 34.584 752.122 34.696 751.93 34.84C751.738 34.984 751.642 35.184 751.642 35.44C751.642 35.688 751.738 35.892 751.93 36.052C752.13 36.204 752.41 36.28 752.77 36.28C753.002 36.28 753.222 36.252 753.43 36.196C753.646 36.132 753.838 36.04 754.006 35.92C754.174 35.792 754.306 35.636 754.402 35.452C754.498 35.26 754.546 35.036 754.546 34.78V33.124ZM757.839 37V31H758.619L758.751 31.984C758.919 31.616 759.163 31.34 759.483 31.156C759.811 30.972 760.207 30.88 760.671 30.88C760.775 30.88 760.887 30.888 761.007 30.904C761.135 30.92 761.243 30.952 761.331 31L761.163 31.876C761.075 31.844 760.979 31.82 760.875 31.804C760.771 31.788 760.623 31.78 760.431 31.78C760.183 31.78 759.931 31.852 759.675 31.996C759.427 32.14 759.219 32.36 759.051 32.656C758.883 32.944 758.799 33.312 758.799 33.76V37H757.839Z" fill="#D5D6D7"/>
<path d="M769.258 39V37.895C770.38 37.0677 771.315 36.3423 772.063 35.719C772.822 35.0957 773.429 34.529 773.882 34.019C774.335 33.509 774.658 33.0273 774.851 32.574C775.044 32.1093 775.14 31.6277 775.14 31.129C775.14 30.4603 774.925 29.922 774.494 29.514C774.075 29.0947 773.497 28.885 772.76 28.885C771.989 28.885 771.372 29.14 770.907 29.65C770.442 30.1487 770.17 30.8173 770.091 31.656L768.901 30.942C769.003 30.2847 769.213 29.7067 769.53 29.208C769.859 28.7093 770.295 28.3183 770.839 28.035C771.394 27.7517 772.052 27.61 772.811 27.61C773.389 27.61 773.905 27.695 774.358 27.865C774.823 28.035 775.219 28.2787 775.548 28.596C775.877 28.902 776.126 29.2703 776.296 29.701C776.477 30.1317 776.568 30.6077 776.568 31.129C776.568 31.8317 776.398 32.523 776.058 33.203C775.718 33.8717 775.157 34.5743 774.375 35.311C773.593 36.0477 772.533 36.8637 771.196 37.759V37.776C771.321 37.7647 771.491 37.759 771.706 37.759C771.933 37.7477 772.154 37.742 772.369 37.742C772.596 37.7307 772.766 37.725 772.879 37.725H776.806V39H769.258ZM783.198 39.17C781.929 39.17 780.914 38.677 780.155 37.691C779.396 36.705 779.016 35.2713 779.016 33.39C779.016 31.5087 779.396 30.075 780.155 29.089C780.914 28.103 781.929 27.61 783.198 27.61C784.479 27.61 785.493 28.103 786.241 29.089C787 30.075 787.38 31.5087 787.38 33.39C787.38 35.2713 787 36.705 786.241 37.691C785.493 38.677 784.479 39.17 783.198 39.17ZM783.198 37.946C783.799 37.946 784.303 37.776 784.711 37.436C785.13 37.0847 785.442 36.569 785.646 35.889C785.861 35.209 785.969 34.376 785.969 33.39C785.969 32.404 785.861 31.571 785.646 30.891C785.442 30.211 785.13 29.701 784.711 29.361C784.303 29.0097 783.799 28.834 783.198 28.834C782.597 28.834 782.087 29.0097 781.668 29.361C781.26 29.701 780.948 30.211 780.733 30.891C780.529 31.571 780.427 32.404 780.427 33.39C780.427 34.376 780.529 35.209 780.733 35.889C780.948 36.569 781.26 37.0847 781.668 37.436C782.087 37.776 782.597 37.946 783.198 37.946ZM789.744 39V37.895C790.866 37.0677 791.801 36.3423 792.549 35.719C793.309 35.0957 793.915 34.529 794.368 34.019C794.822 33.509 795.145 33.0273 795.337 32.574C795.53 32.1093 795.626 31.6277 795.626 31.129C795.626 30.4603 795.411 29.922 794.98 29.514C794.561 29.0947 793.983 28.885 793.246 28.885C792.476 28.885 791.858 29.14 791.393 29.65C790.929 30.1487 790.657 30.8173 790.577 31.656L789.387 30.942C789.489 30.2847 789.699 29.7067 790.016 29.208C790.345 28.7093 790.781 28.3183 791.325 28.035C791.881 27.7517 792.538 27.61 793.297 27.61C793.875 27.61 794.391 27.695 794.844 27.865C795.309 28.035 795.706 28.2787 796.034 28.596C796.363 28.902 796.612 29.2703 796.782 29.701C796.964 30.1317 797.054 30.6077 797.054 31.129C797.054 31.8317 796.884 32.523 796.544 33.203C796.204 33.8717 795.643 34.5743 794.861 35.311C794.079 36.0477 793.02 36.8637 791.682 37.759V37.776C791.807 37.7647 791.977 37.759 792.192 37.759C792.419 37.7477 792.64 37.742 792.855 37.742C793.082 37.7307 793.252 37.725 793.365 37.725H797.292V39H789.744ZM803.684 39.17C802.415 39.17 801.401 38.677 800.641 37.691C799.882 36.705 799.502 35.2713 799.502 33.39C799.502 31.5087 799.882 30.075 800.641 29.089C801.401 28.103 802.415 27.61 803.684 27.61C804.965 27.61 805.979 28.103 806.727 29.089C807.487 30.075 807.866 31.5087 807.866 33.39C807.866 35.2713 807.487 36.705 806.727 37.691C805.979 38.677 804.965 39.17 803.684 39.17ZM803.684 37.946C804.285 37.946 804.789 37.776 805.197 37.436C805.617 37.0847 805.928 36.569 806.132 35.889C806.348 35.209 806.455 34.376 806.455 33.39C806.455 32.404 806.348 31.571 806.132 30.891C805.928 30.211 805.617 29.701 805.197 29.361C804.789 29.0097 804.285 28.834 803.684 28.834C803.084 28.834 802.574 29.0097 802.154 29.361C801.746 29.701 801.435 30.211 801.219 30.891C801.015 31.571 800.913 32.404 800.913 33.39C800.913 34.376 801.015 35.209 801.219 35.889C801.435 36.569 801.746 37.0847 802.154 37.436C802.574 37.776 803.084 37.946 803.684 37.946Z" fill="#6C7172"/>
<path d="M37.5227 26.4545V41H35.7614V26.4545H37.5227ZM42.5032 34.4375V41H40.8271V30.0909H42.4464V31.7955H42.5884C42.8441 31.2415 43.2324 30.7964 43.7532 30.4602C44.274 30.1193 44.9464 29.9489 45.7702 29.9489C46.5089 29.9489 47.1552 30.1004 47.7092 30.4034C48.2631 30.7017 48.694 31.1562 49.0018 31.767C49.3095 32.3731 49.4634 33.1402 49.4634 34.0682V41H47.7873V34.1818C47.7873 33.3248 47.5647 32.6572 47.1197 32.179C46.6746 31.696 46.0638 31.4545 45.2873 31.4545C44.7522 31.4545 44.274 31.5705 43.8526 31.8026C43.436 32.0346 43.1069 32.3731 42.8654 32.8182C42.6239 33.2633 42.5032 33.803 42.5032 34.4375ZM57.3842 30.0909V31.5114H51.5036V30.0909H57.3842ZM53.2649 41V28.5852C53.2649 27.9602 53.4117 27.4394 53.7053 27.0227C53.9988 26.6061 54.38 26.2936 54.8487 26.0852C55.3175 25.8769 55.8123 25.7727 56.3331 25.7727C56.745 25.7727 57.0812 25.8059 57.3416 25.8722C57.602 25.9384 57.7962 26 57.924 26.0568L57.4411 27.5057C57.3558 27.4773 57.2375 27.4418 57.0859 27.3991C56.9392 27.3565 56.745 27.3352 56.5036 27.3352C55.9496 27.3352 55.5495 27.4749 55.3033 27.7543C55.0618 28.0336 54.9411 28.4432 54.9411 28.983V41H53.2649ZM63.7159 41.2273C62.7311 41.2273 61.867 40.9929 61.1236 40.5241C60.3849 40.0554 59.8073 39.3996 59.3906 38.5568C58.9787 37.714 58.7727 36.7292 58.7727 35.6023C58.7727 34.4659 58.9787 33.474 59.3906 32.6264C59.8073 31.7789 60.3849 31.1207 61.1236 30.652C61.867 30.1832 62.7311 29.9489 63.7159 29.9489C64.7008 29.9489 65.5625 30.1832 66.3011 30.652C67.0445 31.1207 67.6222 31.7789 68.0341 32.6264C68.4508 33.474 68.6591 34.4659 68.6591 35.6023C68.6591 36.7292 68.4508 37.714 68.0341 38.5568C67.6222 39.3996 67.0445 40.0554 66.3011 40.5241C65.5625 40.9929 64.7008 41.2273 63.7159 41.2273ZM63.7159 39.7216C64.464 39.7216 65.0795 39.5298 65.5625 39.1463C66.0455 38.7628 66.4029 38.2585 66.6349 37.6335C66.867 37.0085 66.983 36.3314 66.983 35.6023C66.983 34.8731 66.867 34.1937 66.6349 33.5639C66.4029 32.9342 66.0455 32.4252 65.5625 32.0369C65.0795 31.6487 64.464 31.4545 63.7159 31.4545C62.9678 31.4545 62.3523 31.6487 61.8693 32.0369C61.3864 32.4252 61.0289 32.9342 60.7969 33.5639C60.5649 34.1937 60.4489 34.8731 60.4489 35.6023C60.4489 36.3314 60.5649 37.0085 60.7969 37.6335C61.0289 38.2585 61.3864 38.7628 61.8693 39.1463C62.3523 39.5298 62.9678 39.7216 63.7159 39.7216ZM76.8143 41V39.7216L81.6154 34.4659C82.1789 33.8504 82.6429 33.3153 83.0075 32.8608C83.372 32.4015 83.6419 31.9706 83.8171 31.5682C83.997 31.161 84.087 30.7348 84.087 30.2898C84.087 29.7784 83.9639 29.3357 83.7177 28.9616C83.4762 28.5876 83.1448 28.2988 82.7234 28.0952C82.302 27.8916 81.8285 27.7898 81.3029 27.7898C80.7442 27.7898 80.2565 27.9058 79.8398 28.1378C79.4279 28.3651 79.1083 28.6847 78.881 29.0966C78.6585 29.5085 78.5472 29.9915 78.5472 30.5455H76.8711C76.8711 29.6932 77.0676 28.9451 77.4606 28.3011C77.8536 27.6572 78.3886 27.1553 79.0657 26.7955C79.7475 26.4356 80.5122 26.2557 81.3597 26.2557C82.212 26.2557 82.9672 26.4356 83.6254 26.7955C84.2835 27.1553 84.7996 27.6406 85.1737 28.2514C85.5477 28.8622 85.7347 29.5417 85.7347 30.2898C85.7347 30.8248 85.6377 31.348 85.4435 31.8594C85.2541 32.366 84.9227 32.9318 84.4492 33.5568C83.9805 34.1771 83.3294 34.9347 82.4961 35.8295L79.229 39.3239V39.4375H85.9904V41H76.8143Z" fill="black"/>
<line x1="4.37114e-08" y1="63.5" x2="847" y2="63.5001" stroke="#EAEBEB"/>
<path d="M51.35 113.15C50.47 113.15 49.69 112.945 49.01 112.535C48.34 112.115 47.885 111.54 47.645 110.81L48.845 110.195C48.965 110.565 49.13 110.89 49.34 111.17C49.55 111.44 49.825 111.65 50.165 111.8C50.515 111.95 50.95 112.025 51.47 112.025C51.91 112.025 52.28 111.945 52.58 111.785C52.88 111.625 53.11 111.41 53.27 111.14C53.43 110.86 53.51 110.54 53.51 110.18C53.51 109.82 53.44 109.52 53.3 109.28C53.17 109.04 52.96 108.865 52.67 108.755C52.38 108.635 52 108.575 51.53 108.575C51.42 108.575 51.3 108.58 51.17 108.59C51.04 108.59 50.905 108.6 50.765 108.62V107.42C50.855 107.43 50.94 107.435 51.02 107.435C51.11 107.435 51.19 107.435 51.26 107.435C51.99 107.435 52.51 107.295 52.82 107.015C53.13 106.725 53.285 106.275 53.285 105.665C53.285 105.145 53.125 104.75 52.805 104.48C52.485 104.21 52.03 104.075 51.44 104.075C50.81 104.075 50.33 104.215 50 104.495C49.67 104.765 49.41 105.135 49.22 105.605L48.08 105.065C48.24 104.645 48.48 104.275 48.8 103.955C49.12 103.635 49.505 103.385 49.955 103.205C50.415 103.025 50.92 102.935 51.47 102.935C52.16 102.935 52.73 103.055 53.18 103.295C53.63 103.525 53.965 103.835 54.185 104.225C54.415 104.615 54.53 105.045 54.53 105.515C54.53 105.875 54.48 106.2 54.38 106.49C54.28 106.77 54.14 107.015 53.96 107.225C53.79 107.435 53.595 107.605 53.375 107.735C53.155 107.855 52.92 107.935 52.67 107.975V108.005C53 108.015 53.29 108.08 53.54 108.2C53.8 108.32 54.02 108.48 54.2 108.68C54.38 108.88 54.515 109.11 54.605 109.37C54.705 109.62 54.755 109.885 54.755 110.165C54.755 110.745 54.61 111.26 54.32 111.71C54.04 112.16 53.645 112.515 53.135 112.775C52.625 113.025 52.03 113.15 51.35 113.15ZM60.4101 113.15C59.2901 113.15 58.3951 112.715 57.7251 111.845C57.0551 110.975 56.7201 109.71 56.7201 108.05C56.7201 106.39 57.0551 105.125 57.7251 104.255C58.3951 103.385 59.2901 102.95 60.4101 102.95C61.5401 102.95 62.4351 103.385 63.0951 104.255C63.7651 105.125 64.1001 106.39 64.1001 108.05C64.1001 109.71 63.7651 110.975 63.0951 111.845C62.4351 112.715 61.5401 113.15 60.4101 113.15ZM60.4101 112.07C60.9401 112.07 61.3851 111.92 61.7451 111.62C62.1151 111.31 62.3901 110.855 62.5701 110.255C62.7601 109.655 62.8551 108.92 62.8551 108.05C62.8551 107.18 62.7601 106.445 62.5701 105.845C62.3901 105.245 62.1151 104.795 61.7451 104.495C61.3851 104.185 60.9401 104.03 60.4101 104.03C59.8801 104.03 59.4301 104.185 59.0601 104.495C58.7001 104.795 58.4251 105.245 58.2351 105.845C58.0551 106.445 57.9651 107.18 57.9651 108.05C57.9651 108.92 58.0551 109.655 58.2351 110.255C58.4251 110.855 58.7001 111.31 59.0601 111.62C59.4301 111.92 59.8801 112.07 60.4101 112.07ZM73.0562 105.5L69.8162 108.74L69.5312 109.025L67.0712 111.485V109.985L71.5412 105.5H73.0562ZM67.6712 102.05V113H66.4712V102.05H67.6712ZM69.9212 108.125L73.2362 113H71.7812L68.9162 108.8L69.9212 108.125Z" fill="#ABAEAF"/>
<path d="M48.11 159V158.025C49.1 157.295 49.925 156.655 50.585 156.105C51.255 155.555 51.79 155.055 52.19 154.605C52.59 154.155 52.875 153.73 53.045 153.33C53.215 152.92 53.3 152.495 53.3 152.055C53.3 151.465 53.11 150.99 52.73 150.63C52.36 150.26 51.85 150.075 51.2 150.075C50.52 150.075 49.975 150.3 49.565 150.75C49.155 151.19 48.915 151.78 48.845 152.52L47.795 151.89C47.885 151.31 48.07 150.8 48.35 150.36C48.64 149.92 49.025 149.575 49.505 149.325C49.995 149.075 50.575 148.95 51.245 148.95C51.755 148.95 52.21 149.025 52.61 149.175C53.02 149.325 53.37 149.54 53.66 149.82C53.95 150.09 54.17 150.415 54.32 150.795C54.48 151.175 54.56 151.595 54.56 152.055C54.56 152.675 54.41 153.285 54.11 153.885C53.81 154.475 53.315 155.095 52.625 155.745C51.935 156.395 51 157.115 49.82 157.905V157.92C49.93 157.91 50.08 157.905 50.27 157.905C50.47 157.895 50.665 157.89 50.855 157.89C51.055 157.88 51.205 157.875 51.305 157.875H54.77V159H48.11ZM60.4101 159.15C59.2901 159.15 58.3951 158.715 57.7251 157.845C57.0551 156.975 56.7201 155.71 56.7201 154.05C56.7201 152.39 57.0551 151.125 57.7251 150.255C58.3951 149.385 59.2901 148.95 60.4101 148.95C61.5401 148.95 62.4351 149.385 63.0951 150.255C63.7651 151.125 64.1001 152.39 64.1001 154.05C64.1001 155.71 63.7651 156.975 63.0951 157.845C62.4351 158.715 61.5401 159.15 60.4101 159.15ZM60.4101 158.07C60.9401 158.07 61.3851 157.92 61.7451 157.62C62.1151 157.31 62.3901 156.855 62.5701 156.255C62.7601 155.655 62.8551 154.92 62.8551 154.05C62.8551 153.18 62.7601 152.445 62.5701 151.845C62.3901 151.245 62.1151 150.795 61.7451 150.495C61.3851 150.185 60.9401 150.03 60.4101 150.03C59.8801 150.03 59.4301 150.185 59.0601 150.495C58.7001 150.795 58.4251 151.245 58.2351 151.845C58.0551 152.445 57.9651 153.18 57.9651 154.05C57.9651 154.92 58.0551 155.655 58.2351 156.255C58.4251 156.855 58.7001 157.31 59.0601 157.62C59.4301 157.92 59.8801 158.07 60.4101 158.07ZM73.0562 151.5L69.8162 154.74L69.5312 155.025L67.0712 157.485V155.985L71.5412 151.5H73.0562ZM67.6712 148.05V159H66.4712V148.05H67.6712ZM69.9212 154.125L73.2362 159H71.7812L68.9162 154.8L69.9212 154.125Z" fill="#ABAEAF"/>
<path d="M50.12 205V197.74C50.12 197.57 50.12 197.39 50.12 197.2C50.13 197 50.14 196.795 50.15 196.585C49.81 196.915 49.415 197.205 48.965 197.455C48.515 197.695 48.055 197.87 47.585 197.98L47.27 196.885C47.45 196.865 47.675 196.8 47.945 196.69C48.225 196.57 48.515 196.425 48.815 196.255C49.125 196.075 49.41 195.885 49.67 195.685C49.93 195.485 50.13 195.29 50.27 195.1H51.32V205H50.12ZM57.5097 205.15C56.3897 205.15 55.4947 204.715 54.8247 203.845C54.1547 202.975 53.8197 201.71 53.8197 200.05C53.8197 198.39 54.1547 197.125 54.8247 196.255C55.4947 195.385 56.3897 194.95 57.5097 194.95C58.6397 194.95 59.5347 195.385 60.1947 196.255C60.8647 197.125 61.1997 198.39 61.1997 200.05C61.1997 201.71 60.8647 202.975 60.1947 203.845C59.5347 204.715 58.6397 205.15 57.5097 205.15ZM57.5097 204.07C58.0397 204.07 58.4847 203.92 58.8447 203.62C59.2147 203.31 59.4897 202.855 59.6697 202.255C59.8597 201.655 59.9547 200.92 59.9547 200.05C59.9547 199.18 59.8597 198.445 59.6697 197.845C59.4897 197.245 59.2147 196.795 58.8447 196.495C58.4847 196.185 58.0397 196.03 57.5097 196.03C56.9797 196.03 56.5297 196.185 56.1597 196.495C55.7997 196.795 55.5247 197.245 55.3347 197.845C55.1547 198.445 55.0647 199.18 55.0647 200.05C55.0647 200.92 55.1547 201.655 55.3347 202.255C55.5247 202.855 55.7997 203.31 56.1597 203.62C56.5297 203.92 56.9797 204.07 57.5097 204.07ZM70.1558 197.5L66.9158 200.74L66.6308 201.025L64.1708 203.485V201.985L68.6408 197.5H70.1558ZM64.7708 194.05V205H63.5708V194.05H64.7708ZM67.0208 200.125L70.3358 205H68.8808L66.0158 200.8L67.0208 200.125Z" fill="#ABAEAF"/>
<path d="M51.665 251.15C50.545 251.15 49.65 250.715 48.98 249.845C48.31 248.975 47.975 247.71 47.975 246.05C47.975 244.39 48.31 243.125 48.98 242.255C49.65 241.385 50.545 240.95 51.665 240.95C52.795 240.95 53.69 241.385 54.35 242.255C55.02 243.125 55.355 244.39 55.355 246.05C55.355 247.71 55.02 248.975 54.35 249.845C53.69 250.715 52.795 251.15 51.665 251.15ZM51.665 250.07C52.195 250.07 52.64 249.92 53 249.62C53.37 249.31 53.645 248.855 53.825 248.255C54.015 247.655 54.11 246.92 54.11 246.05C54.11 245.18 54.015 244.445 53.825 243.845C53.645 243.245 53.37 242.795 53 242.495C52.64 242.185 52.195 242.03 51.665 242.03C51.135 242.03 50.685 242.185 50.315 242.495C49.955 242.795 49.68 243.245 49.49 243.845C49.31 244.445 49.22 245.18 49.22 246.05C49.22 246.92 49.31 247.655 49.49 248.255C49.68 248.855 49.955 249.31 50.315 249.62C50.685 249.92 51.135 250.07 51.665 250.07Z" fill="#ABAEAF"/>
<path d="M98.975 281.1V287.61C98.975 288.72 98.675 289.59 98.075 290.22C97.485 290.84 96.665 291.15 95.615 291.15C94.875 291.15 94.265 291.01 93.785 290.73C93.305 290.45 92.97 290.055 92.78 289.545C92.6 289.025 92.575 288.42 92.705 287.73L93.815 287.505C93.705 288.355 93.78 288.99 94.04 289.41C94.31 289.82 94.82 290.025 95.57 290.025C96.42 290.025 97 289.795 97.31 289.335C97.62 288.865 97.775 288.19 97.775 287.31V281.1H98.975ZM106.007 286.155C106.007 285.595 105.857 285.165 105.557 284.865C105.257 284.555 104.832 284.4 104.282 284.4C103.762 284.4 103.322 284.515 102.962 284.745C102.602 284.965 102.337 285.325 102.167 285.825L101.192 285.225C101.392 284.665 101.762 284.215 102.302 283.875C102.842 283.525 103.512 283.35 104.312 283.35C104.852 283.35 105.342 283.445 105.782 283.635C106.222 283.815 106.567 284.095 106.817 284.475C107.077 284.845 107.207 285.325 107.207 285.915V289.545C107.207 289.905 107.397 290.085 107.777 290.085C107.967 290.085 108.152 290.06 108.332 290.01L108.272 290.955C108.072 291.055 107.812 291.105 107.492 291.105C107.202 291.105 106.942 291.05 106.712 290.94C106.482 290.83 106.302 290.665 106.172 290.445C106.042 290.215 105.977 289.93 105.977 289.59V289.44L106.277 289.485C106.157 289.875 105.952 290.195 105.662 290.445C105.372 290.685 105.047 290.865 104.687 290.985C104.327 291.095 103.972 291.15 103.622 291.15C103.182 291.15 102.772 291.075 102.392 290.925C102.012 290.775 101.707 290.55 101.477 290.25C101.257 289.94 101.147 289.56 101.147 289.11C101.147 288.55 101.332 288.09 101.702 287.73C102.082 287.36 102.607 287.11 103.277 286.98L106.247 286.395V287.385L103.832 287.88C103.342 287.98 102.977 288.12 102.737 288.3C102.497 288.48 102.377 288.73 102.377 289.05C102.377 289.36 102.497 289.615 102.737 289.815C102.987 290.005 103.337 290.1 103.787 290.1C104.077 290.1 104.352 290.065 104.612 289.995C104.882 289.915 105.122 289.8 105.332 289.65C105.542 289.49 105.707 289.295 105.827 289.065C105.947 288.825 106.007 288.545 106.007 288.225V286.155ZM110.124 291V283.5H111.174L111.279 285.18L111.084 285.015C111.244 284.615 111.459 284.295 111.729 284.055C111.999 283.805 112.309 283.625 112.659 283.515C113.019 283.405 113.389 283.35 113.769 283.35C114.309 283.35 114.799 283.455 115.239 283.665C115.679 283.865 116.029 284.175 116.289 284.595C116.559 285.015 116.694 285.55 116.694 286.2V291H115.494V286.62C115.494 285.79 115.314 285.215 114.954 284.895C114.604 284.565 114.169 284.4 113.649 284.4C113.289 284.4 112.929 284.485 112.569 284.655C112.209 284.825 111.909 285.1 111.669 285.48C111.439 285.86 111.324 286.37 111.324 287.01V291H110.124Z" fill="#ABAEAF"/>
<path d="M161.55 282.225H155.82V285.42H160.29V286.545H155.82V291H154.62V281.1H161.55V282.225ZM165.865 291.15C165.155 291.15 164.52 290.995 163.96 290.685C163.41 290.375 162.98 289.93 162.67 289.35C162.36 288.76 162.205 288.06 162.205 287.25C162.205 286.44 162.36 285.745 162.67 285.165C162.98 284.575 163.405 284.125 163.945 283.815C164.485 283.505 165.1 283.35 165.79 283.35C166.49 283.35 167.085 283.5 167.575 283.8C168.075 284.1 168.455 284.51 168.715 285.03C168.975 285.54 169.105 286.115 169.105 286.755C169.105 286.925 169.1 287.08 169.09 287.22C169.08 287.36 169.065 287.485 169.045 287.595H162.985V286.53H168.52L167.905 286.65C167.905 285.93 167.705 285.375 167.305 284.985C166.915 284.595 166.4 284.4 165.76 284.4C165.27 284.4 164.845 284.515 164.485 284.745C164.135 284.965 163.86 285.29 163.66 285.72C163.47 286.14 163.375 286.65 163.375 287.25C163.375 287.84 163.475 288.35 163.675 288.78C163.875 289.21 164.155 289.54 164.515 289.77C164.885 289.99 165.325 290.1 165.835 290.1C166.385 290.1 166.83 289.995 167.17 289.785C167.52 289.575 167.8 289.29 168.01 288.93L168.955 289.485C168.765 289.825 168.52 290.12 168.22 290.37C167.93 290.62 167.585 290.815 167.185 290.955C166.795 291.085 166.355 291.15 165.865 291.15ZM175.062 291.15C174.642 291.15 174.252 291.075 173.892 290.925C173.532 290.775 173.222 290.565 172.962 290.295C172.702 290.025 172.507 289.72 172.377 289.38L172.542 289.17L172.437 291H171.387V280.05H172.587V285.195L172.437 284.97C172.637 284.5 172.972 284.115 173.442 283.815C173.922 283.505 174.467 283.35 175.077 283.35C175.697 283.35 176.267 283.505 176.787 283.815C177.307 284.125 177.722 284.57 178.032 285.15C178.342 285.73 178.497 286.43 178.497 287.25C178.497 288.06 178.337 288.76 178.017 289.35C177.707 289.93 177.292 290.375 176.772 290.685C176.252 290.995 175.682 291.15 175.062 291.15ZM174.942 290.1C175.682 290.1 176.257 289.84 176.667 289.32C177.087 288.8 177.297 288.11 177.297 287.25C177.297 286.39 177.092 285.7 176.682 285.18C176.272 284.66 175.697 284.4 174.957 284.4C174.487 284.4 174.072 284.52 173.712 284.76C173.362 285 173.087 285.335 172.887 285.765C172.687 286.195 172.587 286.7 172.587 287.28C172.587 287.85 172.682 288.35 172.872 288.78C173.072 289.2 173.347 289.525 173.697 289.755C174.057 289.985 174.472 290.1 174.942 290.1Z" fill="#ABAEAF"/>
<path d="M225.19 281.1V291H224.05V284.775L224.185 282.165H224.17L220.915 291H219.895L216.64 282.165H216.625L216.76 284.775V291H215.62V281.1H217.465L219.64 287.115L220.39 289.59H220.42L221.185 287.13L223.345 281.1H225.19ZM232.49 286.155C232.49 285.595 232.34 285.165 232.04 284.865C231.74 284.555 231.315 284.4 230.765 284.4C230.245 284.4 229.805 284.515 229.445 284.745C229.085 284.965 228.82 285.325 228.65 285.825L227.675 285.225C227.875 284.665 228.245 284.215 228.785 283.875C229.325 283.525 229.995 283.35 230.795 283.35C231.335 283.35 231.825 283.445 232.265 283.635C232.705 283.815 233.05 284.095 233.3 284.475C233.56 284.845 233.69 285.325 233.69 285.915V289.545C233.69 289.905 233.88 290.085 234.26 290.085C234.45 290.085 234.635 290.06 234.815 290.01L234.755 290.955C234.555 291.055 234.295 291.105 233.975 291.105C233.685 291.105 233.425 291.05 233.195 290.94C232.965 290.83 232.785 290.665 232.655 290.445C232.525 290.215 232.46 289.93 232.46 289.59V289.44L232.76 289.485C232.64 289.875 232.435 290.195 232.145 290.445C231.855 290.685 231.53 290.865 231.17 290.985C230.81 291.095 230.455 291.15 230.105 291.15C229.665 291.15 229.255 291.075 228.875 290.925C228.495 290.775 228.19 290.55 227.96 290.25C227.74 289.94 227.63 289.56 227.63 289.11C227.63 288.55 227.815 288.09 228.185 287.73C228.565 287.36 229.09 287.11 229.76 286.98L232.73 286.395V287.385L230.315 287.88C229.825 287.98 229.46 288.12 229.22 288.3C228.98 288.48 228.86 288.73 228.86 289.05C228.86 289.36 228.98 289.615 229.22 289.815C229.47 290.005 229.82 290.1 230.27 290.1C230.56 290.1 230.835 290.065 231.095 289.995C231.365 289.915 231.605 289.8 231.815 289.65C232.025 289.49 232.19 289.295 232.31 289.065C232.43 288.825 232.49 288.545 232.49 288.225V286.155ZM236.606 291V283.5H237.581L237.746 284.73C237.956 284.27 238.261 283.925 238.661 283.695C239.071 283.465 239.566 283.35 240.146 283.35C240.276 283.35 240.416 283.36 240.566 283.38C240.726 283.4 240.861 283.44 240.971 283.5L240.761 284.595C240.651 284.555 240.531 284.525 240.401 284.505C240.271 284.485 240.086 284.475 239.846 284.475C239.536 284.475 239.221 284.565 238.901 284.745C238.591 284.925 238.331 285.2 238.121 285.57C237.911 285.93 237.806 286.39 237.806 286.95V291H236.606Z" fill="#ABAEAF"/>
<path d="M276.39 291L280.245 281.1H281.67L285.51 291H284.235L281.415 283.62L280.95 282.24H280.92L280.485 283.575L277.65 291H276.39ZM278.28 288.255V287.13H283.575V288.255H278.28ZM287.297 294.15V283.5H288.347L288.452 285.33L288.287 285.12C288.417 284.77 288.612 284.465 288.872 284.205C289.132 283.935 289.447 283.725 289.817 283.575C290.187 283.425 290.587 283.35 291.017 283.35C291.627 283.35 292.187 283.505 292.697 283.815C293.217 284.125 293.632 284.57 293.942 285.15C294.252 285.73 294.407 286.43 294.407 287.25C294.407 288.06 294.247 288.76 293.927 289.35C293.617 289.93 293.202 290.375 292.682 290.685C292.162 290.995 291.592 291.15 290.972 291.15C290.352 291.15 289.807 291 289.337 290.7C288.877 290.39 288.547 290 288.347 289.53L288.497 289.305V294.15H287.297ZM290.852 290.1C291.592 290.1 292.167 289.84 292.577 289.32C292.997 288.8 293.207 288.11 293.207 287.25C293.207 286.39 293.002 285.7 292.592 285.18C292.192 284.66 291.627 284.4 290.897 284.4C290.417 284.4 289.997 284.52 289.637 284.76C289.277 284.99 288.997 285.32 288.797 285.75C288.597 286.17 288.497 286.67 288.497 287.25C288.497 287.82 288.592 288.32 288.782 288.75C288.982 289.18 289.257 289.515 289.607 289.755C289.967 289.985 290.382 290.1 290.852 290.1ZM296.702 291V283.5H297.677L297.842 284.73C298.052 284.27 298.357 283.925 298.757 283.695C299.167 283.465 299.662 283.35 300.242 283.35C300.372 283.35 300.512 283.36 300.662 283.38C300.822 283.4 300.957 283.44 301.067 283.5L300.857 284.595C300.747 284.555 300.627 284.525 300.497 284.505C300.367 284.485 300.182 284.475 299.942 284.475C299.632 284.475 299.317 284.565 298.997 284.745C298.687 284.925 298.427 285.2 298.217 285.57C298.007 285.93 297.902 286.39 297.902 286.95V291H296.702Z" fill="#ABAEAF"/>
<path d="M348.19 281.1V291H347.05V284.775L347.185 282.165H347.17L343.915 291H342.895L339.64 282.165H339.625L339.76 284.775V291H338.62V281.1H340.465L342.64 287.115L343.39 289.59H343.42L344.185 287.13L346.345 281.1H348.19ZM355.49 286.155C355.49 285.595 355.34 285.165 355.04 284.865C354.74 284.555 354.315 284.4 353.765 284.4C353.245 284.4 352.805 284.515 352.445 284.745C352.085 284.965 351.82 285.325 351.65 285.825L350.675 285.225C350.875 284.665 351.245 284.215 351.785 283.875C352.325 283.525 352.995 283.35 353.795 283.35C354.335 283.35 354.825 283.445 355.265 283.635C355.705 283.815 356.05 284.095 356.3 284.475C356.56 284.845 356.69 285.325 356.69 285.915V289.545C356.69 289.905 356.88 290.085 357.26 290.085C357.45 290.085 357.635 290.06 357.815 290.01L357.755 290.955C357.555 291.055 357.295 291.105 356.975 291.105C356.685 291.105 356.425 291.05 356.195 290.94C355.965 290.83 355.785 290.665 355.655 290.445C355.525 290.215 355.46 289.93 355.46 289.59V289.44L355.76 289.485C355.64 289.875 355.435 290.195 355.145 290.445C354.855 290.685 354.53 290.865 354.17 290.985C353.81 291.095 353.455 291.15 353.105 291.15C352.665 291.15 352.255 291.075 351.875 290.925C351.495 290.775 351.19 290.55 350.96 290.25C350.74 289.94 350.63 289.56 350.63 289.11C350.63 288.55 350.815 288.09 351.185 287.73C351.565 287.36 352.09 287.11 352.76 286.98L355.73 286.395V287.385L353.315 287.88C352.825 287.98 352.46 288.12 352.22 288.3C351.98 288.48 351.86 288.73 351.86 289.05C351.86 289.36 351.98 289.615 352.22 289.815C352.47 290.005 352.82 290.1 353.27 290.1C353.56 290.1 353.835 290.065 354.095 289.995C354.365 289.915 354.605 289.8 354.815 289.65C355.025 289.49 355.19 289.295 355.31 289.065C355.43 288.825 355.49 288.545 355.49 288.225V286.155ZM365.331 283.5L361.806 292.26C361.616 292.75 361.406 293.135 361.176 293.415C360.956 293.705 360.706 293.91 360.426 294.03C360.156 294.16 359.841 294.225 359.481 294.225C359.141 294.225 358.826 294.175 358.536 294.075C358.256 293.985 358.006 293.86 357.786 293.7L358.116 292.65C358.316 292.83 358.526 292.96 358.746 293.04C358.976 293.13 359.201 293.175 359.421 293.175C359.681 293.175 359.926 293.095 360.156 292.935C360.386 292.775 360.596 292.45 360.786 291.96L361.176 290.985L360.426 289.2L358.041 283.5H359.406L361.281 288.39L361.746 289.725L362.286 288.24L364.041 283.5H365.331Z" fill="#ABAEAF"/>
<path d="M407.975 281.1V287.61C407.975 288.72 407.675 289.59 407.075 290.22C406.485 290.84 405.665 291.15 404.615 291.15C403.875 291.15 403.265 291.01 402.785 290.73C402.305 290.45 401.97 290.055 401.78 289.545C401.6 289.025 401.575 288.42 401.705 287.73L402.815 287.505C402.705 288.355 402.78 288.99 403.04 289.41C403.31 289.82 403.82 290.025 404.57 290.025C405.42 290.025 406 289.795 406.31 289.335C406.62 288.865 406.775 288.19 406.775 287.31V281.1H407.975ZM413.474 291.15C412.994 291.15 412.539 291.06 412.109 290.88C411.689 290.7 411.344 290.41 411.074 290.01C410.814 289.6 410.684 289.07 410.684 288.42V283.5H411.884V288.105C411.884 288.865 412.049 289.39 412.379 289.68C412.709 289.96 413.174 290.1 413.774 290.1C414.054 290.1 414.329 290.055 414.599 289.965C414.869 289.865 415.109 289.715 415.319 289.515C415.539 289.305 415.709 289.04 415.829 288.72C415.959 288.4 416.024 288.02 416.024 287.58V283.5H417.224V291H416.174L416.099 289.86C415.839 290.31 415.484 290.64 415.034 290.85C414.594 291.05 414.074 291.15 413.474 291.15ZM420.017 291V283.5H421.067L421.172 285.18L420.977 285.015C421.137 284.615 421.352 284.295 421.622 284.055C421.892 283.805 422.202 283.625 422.552 283.515C422.912 283.405 423.282 283.35 423.662 283.35C424.202 283.35 424.692 283.455 425.132 283.665C425.572 283.865 425.922 284.175 426.182 284.595C426.452 285.015 426.587 285.55 426.587 286.2V291H425.387V286.62C425.387 285.79 425.207 285.215 424.847 284.895C424.497 284.565 424.062 284.4 423.542 284.4C423.182 284.4 422.822 284.485 422.462 284.655C422.102 284.825 421.802 285.1 421.562 285.48C421.332 285.86 421.217 286.37 421.217 287.01V291H420.017Z" fill="#ABAEAF"/>
<path d="M469.975 281.1V287.61C469.975 288.72 469.675 289.59 469.075 290.22C468.485 290.84 467.665 291.15 466.615 291.15C465.875 291.15 465.265 291.01 464.785 290.73C464.305 290.45 463.97 290.055 463.78 289.545C463.6 289.025 463.575 288.42 463.705 287.73L464.815 287.505C464.705 288.355 464.78 288.99 465.04 289.41C465.31 289.82 465.82 290.025 466.57 290.025C467.42 290.025 468 289.795 468.31 289.335C468.62 288.865 468.775 288.19 468.775 287.31V281.1H469.975ZM475.474 291.15C474.994 291.15 474.539 291.06 474.109 290.88C473.689 290.7 473.344 290.41 473.074 290.01C472.814 289.6 472.684 289.07 472.684 288.42V283.5H473.884V288.105C473.884 288.865 474.049 289.39 474.379 289.68C474.709 289.96 475.174 290.1 475.774 290.1C476.054 290.1 476.329 290.055 476.599 289.965C476.869 289.865 477.109 289.715 477.319 289.515C477.539 289.305 477.709 289.04 477.829 288.72C477.959 288.4 478.024 288.02 478.024 287.58V283.5H479.224V291H478.174L478.099 289.86C477.839 290.31 477.484 290.64 477.034 290.85C476.594 291.05 476.074 291.15 475.474 291.15ZM483.157 280.05V289.095C483.157 289.475 483.227 289.74 483.367 289.89C483.507 290.03 483.732 290.1 484.042 290.1C484.242 290.1 484.407 290.085 484.537 290.055C484.667 290.025 484.842 289.97 485.062 289.89L484.867 290.94C484.707 291.01 484.532 291.06 484.342 291.09C484.152 291.13 483.957 291.15 483.757 291.15C483.147 291.15 482.692 290.985 482.392 290.655C482.102 290.325 481.957 289.82 481.957 289.14V280.05H483.157Z" fill="#ABAEAF"/>
<path d="M521.39 291L525.245 281.1H526.67L530.51 291H529.235L526.415 283.62L525.95 282.24H525.92L525.485 283.575L522.65 291H521.39ZM523.28 288.255V287.13H528.575V288.255H523.28ZM534.881 291.15C534.401 291.15 533.946 291.06 533.516 290.88C533.096 290.7 532.751 290.41 532.481 290.01C532.221 289.6 532.091 289.07 532.091 288.42V283.5H533.291V288.105C533.291 288.865 533.456 289.39 533.786 289.68C534.116 289.96 534.581 290.1 535.181 290.1C535.461 290.1 535.736 290.055 536.006 289.965C536.276 289.865 536.516 289.715 536.726 289.515C536.946 289.305 537.116 289.04 537.236 288.72C537.366 288.4 537.431 288.02 537.431 287.58V283.5H538.631V291H537.581L537.506 289.86C537.246 290.31 536.891 290.64 536.441 290.85C536.001 291.05 535.481 291.15 534.881 291.15ZM547.738 282.12L548.008 283.185C547.998 283.185 547.983 283.185 547.963 283.185C547.943 283.185 547.923 283.185 547.903 283.185C547.413 283.185 547.033 283.285 546.763 283.485C546.503 283.675 546.373 283.985 546.373 284.415L545.638 284.04C545.638 283.65 545.728 283.31 545.908 283.02C546.088 282.73 546.333 282.51 546.643 282.36C546.953 282.2 547.293 282.12 547.663 282.12C547.673 282.12 547.683 282.12 547.693 282.12C547.713 282.12 547.728 282.12 547.738 282.12ZM545.458 290.04C546.168 290.04 546.723 290.205 547.123 290.535C547.523 290.855 547.723 291.285 547.723 291.825C547.723 292.315 547.558 292.74 547.228 293.1C546.908 293.46 546.473 293.735 545.923 293.925C545.383 294.125 544.773 294.225 544.093 294.225C542.913 294.225 542.028 294.025 541.438 293.625C540.858 293.225 540.568 292.745 540.568 292.185C540.568 291.785 540.698 291.425 540.958 291.105C541.228 290.795 541.678 290.62 542.308 290.58L542.203 290.805C541.863 290.715 541.573 290.565 541.333 290.355C541.103 290.135 540.988 289.82 540.988 289.41C540.988 289 541.138 288.65 541.438 288.36C541.748 288.06 542.203 287.875 542.803 287.805L543.598 288.21H543.448C542.958 288.26 542.608 288.385 542.398 288.585C542.198 288.775 542.098 288.985 542.098 289.215C542.098 289.495 542.198 289.705 542.398 289.845C542.608 289.975 542.898 290.04 543.268 290.04H545.458ZM544.078 293.22C544.658 293.22 545.133 293.16 545.503 293.04C545.883 292.92 546.163 292.765 546.343 292.575C546.523 292.385 546.613 292.18 546.613 291.96C546.613 291.69 546.503 291.475 546.283 291.315C546.073 291.155 545.688 291.075 545.128 291.075H542.818C542.498 291.075 542.228 291.155 542.008 291.315C541.788 291.485 541.678 291.715 541.678 292.005C541.678 292.375 541.888 292.67 542.308 292.89C542.738 293.11 543.328 293.22 544.078 293.22ZM543.973 283.35C544.573 283.35 545.103 283.46 545.563 283.68C546.033 283.89 546.398 284.185 546.658 284.565C546.918 284.945 547.048 285.385 547.048 285.885C547.048 286.375 546.918 286.815 546.658 287.205C546.398 287.585 546.033 287.885 545.563 288.105C545.103 288.315 544.573 288.42 543.973 288.42C542.983 288.42 542.223 288.185 541.693 287.715C541.163 287.235 540.898 286.625 540.898 285.885C540.898 285.385 541.028 284.945 541.288 284.565C541.558 284.185 541.923 283.89 542.383 283.68C542.843 283.46 543.373 283.35 543.973 283.35ZM543.973 284.325C543.453 284.325 543.018 284.47 542.668 284.76C542.318 285.04 542.143 285.415 542.143 285.885C542.143 286.345 542.318 286.72 542.668 287.01C543.018 287.3 543.453 287.445 543.973 287.445C544.493 287.445 544.928 287.3 545.278 287.01C545.628 286.72 545.803 286.345 545.803 285.885C545.803 285.415 545.628 285.04 545.278 284.76C544.928 284.47 544.493 284.325 543.973 284.325Z" fill="#ABAEAF"/>
<path d="M588.8 280.95C589.67 280.95 590.42 281.13 591.05 281.49C591.68 281.84 592.205 282.36 592.625 283.05L591.62 283.83C591.25 283.19 590.83 282.74 590.36 282.48C589.9 282.21 589.34 282.075 588.68 282.075C588.15 282.075 587.71 282.15 587.36 282.3C587.02 282.45 586.77 282.65 586.61 282.9C586.45 283.14 586.37 283.415 586.37 283.725C586.37 284.075 586.48 284.385 586.7 284.655C586.92 284.915 587.36 285.12 588.02 285.27L590.165 285.75C591.115 285.96 591.775 286.28 592.145 286.71C592.525 287.13 592.715 287.655 592.715 288.285C592.715 288.845 592.555 289.345 592.235 289.785C591.925 290.215 591.485 290.55 590.915 290.79C590.345 291.03 589.675 291.15 588.905 291.15C588.185 291.15 587.55 291.055 587 290.865C586.46 290.665 585.995 290.4 585.605 290.07C585.215 289.74 584.895 289.37 584.645 288.96L585.695 288.105C585.885 288.485 586.13 288.82 586.43 289.11C586.73 289.4 587.09 289.625 587.51 289.785C587.94 289.945 588.43 290.025 588.98 290.025C589.49 290.025 589.93 289.965 590.3 289.845C590.68 289.715 590.97 289.53 591.17 289.29C591.37 289.04 591.47 288.74 591.47 288.39C591.47 288.07 591.365 287.785 591.155 287.535C590.945 287.275 590.55 287.08 589.97 286.95L587.645 286.425C587.035 286.285 586.54 286.095 586.16 285.855C585.79 285.605 585.52 285.315 585.35 284.985C585.19 284.645 585.11 284.28 585.11 283.89C585.11 283.36 585.255 282.875 585.545 282.435C585.845 281.985 586.27 281.625 586.82 281.355C587.38 281.085 588.04 280.95 588.8 280.95ZM598.139 291.15C597.429 291.15 596.794 290.995 596.234 290.685C595.684 290.375 595.254 289.93 594.944 289.35C594.634 288.76 594.479 288.06 594.479 287.25C594.479 286.44 594.634 285.745 594.944 285.165C595.254 284.575 595.679 284.125 596.219 283.815C596.759 283.505 597.374 283.35 598.064 283.35C598.764 283.35 599.359 283.5 599.849 283.8C600.349 284.1 600.729 284.51 600.989 285.03C601.249 285.54 601.379 286.115 601.379 286.755C601.379 286.925 601.374 287.08 601.364 287.22C601.354 287.36 601.339 287.485 601.319 287.595H595.259V286.53H600.794L600.179 286.65C600.179 285.93 599.979 285.375 599.579 284.985C599.189 284.595 598.674 284.4 598.034 284.4C597.544 284.4 597.119 284.515 596.759 284.745C596.409 284.965 596.134 285.29 595.934 285.72C595.744 286.14 595.649 286.65 595.649 287.25C595.649 287.84 595.749 288.35 595.949 288.78C596.149 289.21 596.429 289.54 596.789 289.77C597.159 289.99 597.599 290.1 598.109 290.1C598.659 290.1 599.104 289.995 599.444 289.785C599.794 289.575 600.074 289.29 600.284 288.93L601.229 289.485C601.039 289.825 600.794 290.12 600.494 290.37C600.204 290.62 599.859 290.815 599.459 290.955C599.069 291.085 598.629 291.15 598.139 291.15ZM603.662 294.15V283.5H604.712L604.817 285.33L604.652 285.12C604.782 284.77 604.977 284.465 605.237 284.205C605.497 283.935 605.812 283.725 606.182 283.575C606.552 283.425 606.952 283.35 607.382 283.35C607.992 283.35 608.552 283.505 609.062 283.815C609.582 284.125 609.997 284.57 610.307 285.15C610.617 285.73 610.772 286.43 610.772 287.25C610.772 288.06 610.612 288.76 610.292 289.35C609.982 289.93 609.567 290.375 609.047 290.685C608.527 290.995 607.957 291.15 607.337 291.15C606.717 291.15 606.172 291 605.702 290.7C605.242 290.39 604.912 290 604.712 289.53L604.862 289.305V294.15H603.662ZM607.217 290.1C607.957 290.1 608.532 289.84 608.942 289.32C609.362 288.8 609.572 288.11 609.572 287.25C609.572 286.39 609.367 285.7 608.957 285.18C608.557 284.66 607.992 284.4 607.262 284.4C606.782 284.4 606.362 284.52 606.002 284.76C605.642 284.99 605.362 285.32 605.162 285.75C604.962 286.17 604.862 286.67 604.862 287.25C604.862 287.82 604.957 288.32 605.147 288.75C605.347 289.18 605.622 289.515 605.972 289.755C606.332 289.985 606.747 290.1 607.217 290.1Z" fill="#ABAEAF"/>
<path d="M647.61 280.95C648.55 280.95 649.36 281.16 650.04 281.58C650.73 281.99 651.26 282.575 651.63 283.335C652.01 284.095 652.2 285 652.2 286.05C652.2 287.1 652.01 288.005 651.63 288.765C651.26 289.525 650.73 290.115 650.04 290.535C649.36 290.945 648.55 291.15 647.61 291.15C646.67 291.15 645.855 290.945 645.165 290.535C644.485 290.115 643.955 289.525 643.575 288.765C643.205 288.005 643.02 287.1 643.02 286.05C643.02 285 643.205 284.095 643.575 283.335C643.955 282.575 644.485 281.99 645.165 281.58C645.855 281.16 646.67 280.95 647.61 280.95ZM647.61 282.075C646.93 282.075 646.34 282.235 645.84 282.555C645.34 282.865 644.955 283.32 644.685 283.92C644.415 284.51 644.28 285.22 644.28 286.05C644.28 286.88 644.415 287.595 644.685 288.195C644.955 288.785 645.34 289.24 645.84 289.56C646.34 289.87 646.93 290.025 647.61 290.025C648.3 290.025 648.89 289.87 649.38 289.56C649.88 289.24 650.265 288.785 650.535 288.195C650.805 287.595 650.94 286.88 650.94 286.05C650.94 285.22 650.805 284.51 650.535 283.92C650.265 283.32 649.88 282.865 649.38 282.555C648.89 282.235 648.3 282.075 647.61 282.075ZM657.721 283.35C658.241 283.35 658.696 283.43 659.086 283.59C659.486 283.75 659.831 283.98 660.121 284.28C660.411 284.58 660.646 284.935 660.826 285.345L659.686 285.885C659.526 285.405 659.281 285.04 658.951 284.79C658.631 284.53 658.211 284.4 657.691 284.4C657.191 284.4 656.761 284.515 656.401 284.745C656.041 284.965 655.766 285.29 655.576 285.72C655.386 286.14 655.291 286.65 655.291 287.25C655.291 287.84 655.386 288.35 655.576 288.78C655.766 289.21 656.041 289.54 656.401 289.77C656.761 289.99 657.191 290.1 657.691 290.1C658.081 290.1 658.416 290.04 658.696 289.92C658.986 289.8 659.221 289.625 659.401 289.395C659.591 289.165 659.721 288.885 659.791 288.555L660.901 288.945C660.731 289.405 660.496 289.8 660.196 290.13C659.906 290.46 659.551 290.715 659.131 290.895C658.721 291.065 658.251 291.15 657.721 291.15C657.021 291.15 656.396 290.995 655.846 290.685C655.296 290.375 654.866 289.93 654.556 289.35C654.246 288.76 654.091 288.06 654.091 287.25C654.091 286.44 654.246 285.745 654.556 285.165C654.866 284.575 655.296 284.125 655.846 283.815C656.396 283.505 657.021 283.35 657.721 283.35ZM664.779 281.37V288.93C664.779 289.3 664.884 289.575 665.094 289.755C665.304 289.935 665.574 290.025 665.904 290.025C666.194 290.025 666.444 289.975 666.654 289.875C666.864 289.775 667.054 289.64 667.224 289.47L667.644 290.475C667.414 290.685 667.139 290.85 666.819 290.97C666.509 291.09 666.149 291.15 665.739 291.15C665.359 291.15 665.004 291.085 664.674 290.955C664.344 290.815 664.079 290.6 663.879 290.31C663.689 290.01 663.589 289.62 663.579 289.14V281.7L664.779 281.37ZM667.509 283.5V284.535H662.079V283.5H667.509Z" fill="#ABAEAF"/>
<path d="M718.39 281.1V291H716.905L712.765 284.37L711.715 282.51H711.7L711.76 284.01V291H710.62V281.1H712.105L716.23 287.7L717.295 289.605H717.31L717.25 288.09V281.1H718.39ZM724.398 283.35C725.108 283.35 725.733 283.505 726.273 283.815C726.823 284.125 727.253 284.575 727.563 285.165C727.873 285.745 728.028 286.44 728.028 287.25C728.028 288.06 727.873 288.76 727.563 289.35C727.253 289.93 726.823 290.375 726.273 290.685C725.733 290.995 725.108 291.15 724.398 291.15C723.698 291.15 723.073 290.995 722.523 290.685C721.973 290.375 721.543 289.93 721.233 289.35C720.923 288.76 720.768 288.06 720.768 287.25C720.768 286.44 720.923 285.745 721.233 285.165C721.543 284.575 721.973 284.125 722.523 283.815C723.073 283.505 723.698 283.35 724.398 283.35ZM724.398 284.385C723.888 284.385 723.453 284.5 723.093 284.73C722.733 284.96 722.453 285.29 722.253 285.72C722.063 286.14 721.968 286.65 721.968 287.25C721.968 287.84 722.063 288.35 722.253 288.78C722.453 289.21 722.733 289.54 723.093 289.77C723.453 290 723.888 290.115 724.398 290.115C724.908 290.115 725.343 290 725.703 289.77C726.063 289.54 726.338 289.21 726.528 288.78C726.728 288.35 726.828 287.84 726.828 287.25C726.828 286.65 726.728 286.14 726.528 285.72C726.338 285.29 726.063 284.96 725.703 284.73C725.343 284.5 724.908 284.385 724.398 284.385ZM735.253 283.5H736.513L733.393 291H732.193L729.073 283.5H730.438L732.808 289.785L735.253 283.5Z" fill="#ABAEAF"/>
<path d="M774.815 281.1C776.365 281.1 777.58 281.53 778.46 282.39C779.35 283.24 779.795 284.46 779.795 286.05C779.795 287.64 779.35 288.865 778.46 289.725C777.58 290.575 776.365 291 774.815 291H771.62V281.1H774.815ZM774.935 289.875C776.065 289.875 776.945 289.54 777.575 288.87C778.215 288.19 778.535 287.25 778.535 286.05C778.535 284.85 778.215 283.915 777.575 283.245C776.945 282.565 776.065 282.225 774.935 282.225H772.82V289.875H774.935ZM785.341 291.15C784.631 291.15 783.996 290.995 783.436 290.685C782.886 290.375 782.456 289.93 782.146 289.35C781.836 288.76 781.681 288.06 781.681 287.25C781.681 286.44 781.836 285.745 782.146 285.165C782.456 284.575 782.881 284.125 783.421 283.815C783.961 283.505 784.576 283.35 785.266 283.35C785.966 283.35 786.561 283.5 787.051 283.8C787.551 284.1 787.931 284.51 788.191 285.03C788.451 285.54 788.581 286.115 788.581 286.755C788.581 286.925 788.576 287.08 788.566 287.22C788.556 287.36 788.541 287.485 788.521 287.595H782.461V286.53H787.996L787.381 286.65C787.381 285.93 787.181 285.375 786.781 284.985C786.391 284.595 785.876 284.4 785.236 284.4C784.746 284.4 784.321 284.515 783.961 284.745C783.611 284.965 783.336 285.29 783.136 285.72C782.946 286.14 782.851 286.65 782.851 287.25C782.851 287.84 782.951 288.35 783.151 288.78C783.351 289.21 783.631 289.54 783.991 289.77C784.361 289.99 784.801 290.1 785.311 290.1C785.861 290.1 786.306 289.995 786.646 289.785C786.996 289.575 787.276 289.29 787.486 288.93L788.431 289.485C788.241 289.825 787.996 290.12 787.696 290.37C787.406 290.62 787.061 290.815 786.661 290.955C786.271 291.085 785.831 291.15 785.341 291.15ZM793.968 283.35C794.488 283.35 794.943 283.43 795.333 283.59C795.733 283.75 796.078 283.98 796.368 284.28C796.658 284.58 796.893 284.935 797.073 285.345L795.933 285.885C795.773 285.405 795.528 285.04 795.198 284.79C794.878 284.53 794.458 284.4 793.938 284.4C793.438 284.4 793.008 284.515 792.648 284.745C792.288 284.965 792.013 285.29 791.823 285.72C791.633 286.14 791.538 286.65 791.538 287.25C791.538 287.84 791.633 288.35 791.823 288.78C792.013 289.21 792.288 289.54 792.648 289.77C793.008 289.99 793.438 290.1 793.938 290.1C794.328 290.1 794.663 290.04 794.943 289.92C795.233 289.8 795.468 289.625 795.648 289.395C795.838 289.165 795.968 288.885 796.038 288.555L797.148 288.945C796.978 289.405 796.743 289.8 796.443 290.13C796.153 290.46 795.798 290.715 795.378 290.895C794.968 291.065 794.498 291.15 793.968 291.15C793.268 291.15 792.643 290.995 792.093 290.685C791.543 290.375 791.113 289.93 790.803 289.35C790.493 288.76 790.338 288.06 790.338 287.25C790.338 286.44 790.493 285.745 790.803 285.165C791.113 284.575 791.543 284.125 792.093 283.815C792.643 283.505 793.268 283.35 793.968 283.35Z" fill="#ABAEAF"/>
<line x1="90" y1="108" x2="799" y2="108" stroke="#F2F3F3" stroke-width="2" stroke-dasharray="10 10"/>
<line x1="90" y1="155" x2="799" y2="155" stroke="#F2F3F3" stroke-width="2" stroke-dasharray="10 10"/>
<line x1="90" y1="201" x2="799" y2="201" stroke="#F2F3F3" stroke-width="2" stroke-dasharray="10 10"/>
<line x1="90" y1="247" x2="799" y2="247" stroke="#F2F3F3" stroke-width="2" stroke-dasharray="10 10"/>
<path fill-rule="evenodd" clip-rule="evenodd" d="M92 135.745C149.206 134.207 180.706 180.59 180.706 180.59C180.706 180.59 207.861 220.566 232.482 176.234C256.016 128.826 262.895 95 286.067 95C312.498 95.5125 314.207 178.796 351.239 178.796C388.272 178.796 390.342 103.2 433.79 103.456C433.79 103.456 433.79 248.242 433.79 248.242L92 248.498C92 248.498 92 135.745 92 135.745Z" fill="url(#paint0_linear_579_5427)"/>
<path fill-rule="evenodd" clip-rule="evenodd" d="M776 135.745C718.794 134.207 687.294 180.59 687.294 180.59C687.294 180.59 660.139 220.566 635.518 176.234C611.984 128.826 605.105 95 581.933 95C555.502 95.5125 553.793 178.796 516.761 178.796C479.728 178.796 477.658 103.2 434.21 103.456C434.21 103.456 434.21 248.242 434.21 248.242L776 248.498C776 248.498 776 135.745 776 135.745Z" fill="url(#paint1_linear_579_5427)"/>
<path d="M92 136.316C149.206 134.78 180.706 181.141 180.706 181.141C180.706 181.141 207.861 221.098 232.482 176.786C256.016 129.401 262.895 95.5904 286.067 95.5904C316.777 96.1856 314.207 179.348 351.239 179.348C388.272 179.348 389.98 104.043 433.79 104.043" stroke="#E575E7" stroke-width="4"/>
<path d="M776 136.316C718.794 134.78 687.294 181.141 687.294 181.141C687.294 181.141 660.139 221.098 635.518 176.786C611.984 129.401 605.105 95.5903 581.933 95.5903C551.223 96.1855 553.793 179.348 516.761 179.348C479.728 179.348 478.02 104.043 434.21 104.043" stroke="#E575E7" stroke-width="4"/>
<circle r="4.42783" transform="matrix(-1 0 0 1 776.428 134.428)" fill="white" stroke="#51ADCF" stroke-width="2.4"/>
<circle r="1.47594" transform="matrix(-1 0 0 1 776.428 134.428)" fill="#51ADCF"/>
<defs>
<linearGradient id="paint0_linear_579_5427" x1="-178.009" y1="-118.726" x2="-176.671" y2="261.575" gradientUnits="userSpaceOnUse">
<stop stop-color="#E575E7"/>
<stop offset="1" stop-color="white" stop-opacity="0.01"/>
</linearGradient>
<linearGradient id="paint1_linear_579_5427" x1="1046.01" y1="-118.726" x2="1044.67" y2="261.575" gradientUnits="userSpaceOnUse">
<stop stop-color="#E575E7"/>
<stop offset="1" stop-color="white" stop-opacity="0.01"/>
</linearGradient>
</defs>
</svg>
