<svg width="155" height="155" viewBox="0 0 155 155" fill="none" xmlns="http://www.w3.org/2000/svg">
<g clip-path="url(#clip0_1636_4931)">
<path d="M0.6061 38.8015V77.603H77.5732V0H0.6061V38.8015Z" fill="#867CFF"/>
<path d="M77.5668 116.294V155H0.599609V77.5883H77.5668V116.294Z" fill="#EBE9FF"/>
<path d="M77.5739 38.8015V77.603H154.541V0H77.5739V38.8015Z" fill="#D7D3FF"/>
<path d="M154.547 116.294V155H77.5801V77.5883H154.547V116.294Z" fill="#9A92FF"/>
<path d="M77.5957 27.9102V77.5693H127.251C127.251 50.1412 105.022 27.9102 77.5957 27.9102Z" fill="#4A3AFF"/>
<path d="M77.5957 48.8717V77.5694H106.291C106.291 61.7216 93.4423 48.8717 77.5957 48.8717Z" fill="#EBE9FF"/>
<path d="M77.5186 27.9102C50.0926 27.9102 27.8633 50.1412 27.8633 77.5693H77.5186V27.9102Z" fill="#9A92FF"/>
<path d="M77.5187 48.8717C61.6721 48.8717 48.8232 61.7216 48.8232 77.5694H77.5187V48.8717Z" fill="#C3BDFF"/>
<path d="M77.542 127.253V77.5944H127.197C127.197 105.017 104.962 127.253 77.542 127.253Z" fill="#7266FF"/>
<path d="M77.542 106.307V77.5883H106.26C106.253 93.4509 93.3977 106.307 77.542 106.307Z" fill="#C3BDFF"/>
<path d="M77.5186 127.253C50.0926 127.253 27.8633 105.023 27.8633 77.5944H77.5186V127.253Z" fill="#4A3AFF"/>
<path d="M77.5417 106.307C61.686 106.307 48.8232 93.4509 48.8232 77.5883H77.5417V106.307Z" fill="#9A92FF"/>
</g>
<defs>
<clipPath id="clip0_1636_4931">
<rect x="0.599609" width="153.947" height="155" rx="76.9736" fill="white"/>
</clipPath>
</defs>
</svg>
