<svg width="153" height="155" viewBox="0 0 153 155" fill="none" xmlns="http://www.w3.org/2000/svg">
<g clip-path="url(#clip0_1635_4470)">
<path d="M76.3784 115.558V76.532H152.606V154.584H76.3784V115.558Z" fill="#D7D3FF"/>
<path d="M76.3788 76.152H152.759C152.759 119.472 118.566 154.584 76.3788 154.584V76.152Z" fill="#AFA7FF"/>
<path d="M76.684 38.266V-1.63913e-05H0V76.532H76.684V38.266Z" fill="#AFA7FF"/>
<path d="M76.9119 0.07599H0.379883C0.379883 42.5147 34.6411 76.912 76.9119 76.912V0.07599Z" fill="#867CFF"/>
<path d="M77.0765 38.1607V76.2455H152.521V0.0759888H77.0765V38.1607Z" fill="#C3BDFF"/>
<path d="M76.5303 76.532H152.53C152.53 34.3449 118.507 0.15155 76.5303 0.15155V76.532Z" fill="#4A3AFF"/>
<path d="M-0.000116706 115.558V154.584H76.3799V76.532H-0.000116706V115.558Z" fill="#C3BDFF"/>
<path d="M-0.000116473 154.584H76.3799C76.3799 111.474 42.1867 76.532 -0.000116473 76.532V154.584Z" fill="#4A3AFF"/>
</g>
<defs>
<clipPath id="clip0_1635_4470">
<rect width="152.759" height="154.584" rx="76.3795" fill="white"/>
</clipPath>
</defs>
</svg>
