<svg  viewBox="0 0 250 250" fill="none" xmlns="http://www.w3.org/2000/svg">
<g clip-path="url(#clip0_585_6329)">
<rect width="250" height="250" fill="white"/>
<rect width="250" height="250" fill="white"/>
<path d="M25.707 41.1699H27.459C27.4238 41.7441 27.2656 42.2539 26.9844 42.6992C26.707 43.1445 26.3184 43.4922 25.8184 43.7422C25.3223 43.9922 24.7246 44.1172 24.0254 44.1172C23.4785 44.1172 22.9883 44.0234 22.5547 43.8359C22.1211 43.6445 21.75 43.3711 21.4414 43.0156C21.1367 42.6602 20.9043 42.2305 20.7441 41.7266C20.584 41.2227 20.5039 40.6582 20.5039 40.0332V39.4414C20.5039 38.8164 20.5859 38.252 20.75 37.748C20.918 37.2402 21.1562 36.8086 21.4648 36.4531C21.7773 36.0977 22.1504 35.8242 22.584 35.6328C23.0176 35.4414 23.502 35.3457 24.0371 35.3457C24.748 35.3457 25.3477 35.4746 25.8359 35.7324C26.3281 35.9902 26.709 36.3457 26.9785 36.7988C27.252 37.252 27.416 37.7676 27.4707 38.3457H25.7129C25.6934 38.002 25.625 37.7109 25.5078 37.4727C25.3906 37.2305 25.2129 37.0488 24.9746 36.9277C24.7402 36.8027 24.4277 36.7402 24.0371 36.7402C23.7441 36.7402 23.4883 36.7949 23.2695 36.9043C23.0508 37.0137 22.8672 37.1797 22.7188 37.4023C22.5703 37.625 22.459 37.9062 22.3848 38.2461C22.3145 38.582 22.2793 38.9766 22.2793 39.4297V40.0332C22.2793 40.4746 22.3125 40.8633 22.3789 41.1992C22.4453 41.5312 22.5469 41.8125 22.6836 42.043C22.8242 42.2695 23.0039 42.4414 23.2227 42.5586C23.4453 42.6719 23.7129 42.7285 24.0254 42.7285C24.3926 42.7285 24.6953 42.6699 24.9336 42.5527C25.1719 42.4355 25.3535 42.2617 25.4785 42.0312C25.6074 41.8008 25.6836 41.5137 25.707 41.1699ZM32.2578 42.4824V37.6602H33.9453V44H32.3574L32.2578 42.4824ZM32.4453 41.1816L32.9434 41.1699C32.9434 41.5918 32.8945 41.9844 32.7969 42.3477C32.6992 42.707 32.5527 43.0195 32.3574 43.2852C32.1621 43.5469 31.916 43.752 31.6191 43.9004C31.3223 44.0449 30.9727 44.1172 30.5703 44.1172C30.2617 44.1172 29.9766 44.0742 29.7148 43.9883C29.457 43.8984 29.2344 43.7598 29.0469 43.5723C28.8633 43.3809 28.7188 43.1367 28.6133 42.8398C28.5117 42.5391 28.4609 42.1777 28.4609 41.7559V37.6602H30.1484V41.7676C30.1484 41.9551 30.1699 42.1133 30.2129 42.2422C30.2598 42.3711 30.3242 42.4766 30.4062 42.5586C30.4883 42.6406 30.584 42.6992 30.6934 42.7344C30.8066 42.7695 30.9316 42.7871 31.0684 42.7871C31.416 42.7871 31.6895 42.7168 31.8887 42.5762C32.0918 42.4355 32.2344 42.2441 32.3164 42.002C32.4023 41.7559 32.4453 41.4824 32.4453 41.1816ZM38.6621 42.248C38.6621 42.127 38.627 42.0176 38.5566 41.9199C38.4863 41.8223 38.3555 41.7324 38.1641 41.6504C37.9766 41.5645 37.7051 41.4863 37.3496 41.416C37.0293 41.3457 36.7305 41.2578 36.4531 41.1523C36.1797 41.043 35.9414 40.9121 35.7383 40.7598C35.5391 40.6074 35.3828 40.4277 35.2695 40.2207C35.1562 40.0098 35.0996 39.7695 35.0996 39.5C35.0996 39.2344 35.1562 38.9844 35.2695 38.75C35.3867 38.5156 35.5527 38.3086 35.7676 38.1289C35.9863 37.9453 36.252 37.8027 36.5645 37.7012C36.8809 37.5957 37.2363 37.543 37.6309 37.543C38.1816 37.543 38.6543 37.6309 39.0488 37.8066C39.4473 37.9824 39.752 38.2246 39.9629 38.5332C40.1777 38.8379 40.2852 39.1855 40.2852 39.5762H38.5977C38.5977 39.4121 38.5625 39.2656 38.4922 39.1367C38.4258 39.0039 38.3203 38.9004 38.1758 38.8262C38.0352 38.748 37.8516 38.709 37.625 38.709C37.4375 38.709 37.2754 38.7422 37.1387 38.8086C37.002 38.8711 36.8965 38.957 36.8223 39.0664C36.752 39.1719 36.7168 39.2891 36.7168 39.418C36.7168 39.5156 36.7363 39.6035 36.7754 39.6816C36.8184 39.7559 36.8867 39.8242 36.9805 39.8867C37.0742 39.9492 37.1953 40.0078 37.3438 40.0625C37.4961 40.1133 37.6836 40.1602 37.9062 40.2031C38.3633 40.2969 38.7715 40.4199 39.1309 40.5723C39.4902 40.7207 39.7754 40.9238 39.9863 41.1816C40.1973 41.4355 40.3027 41.7695 40.3027 42.1836C40.3027 42.4648 40.2402 42.7227 40.1152 42.957C39.9902 43.1914 39.8105 43.3965 39.5762 43.5723C39.3418 43.7441 39.0605 43.8789 38.7324 43.9766C38.4082 44.0703 38.043 44.1172 37.6367 44.1172C37.0469 44.1172 36.5469 44.0117 36.1367 43.8008C35.7305 43.5898 35.4219 43.3223 35.2109 42.998C35.0039 42.6699 34.9004 42.334 34.9004 41.9902H36.5C36.5078 42.2207 36.5664 42.4062 36.6758 42.5469C36.7891 42.6875 36.9316 42.7891 37.1035 42.8516C37.2793 42.9141 37.4688 42.9453 37.6719 42.9453C37.8906 42.9453 38.0723 42.916 38.2168 42.8574C38.3613 42.7949 38.4707 42.7129 38.5449 42.6113C38.623 42.5059 38.6621 42.3848 38.6621 42.248ZM44.5039 37.6602V38.8555H40.8125V37.6602H44.5039ZM41.7266 36.0957H43.4141V42.0898C43.4141 42.2734 43.4375 42.4141 43.4844 42.5117C43.5352 42.6094 43.6094 42.6777 43.707 42.7168C43.8047 42.752 43.9277 42.7695 44.0762 42.7695C44.1816 42.7695 44.2754 42.7656 44.3574 42.7578C44.4434 42.7461 44.5156 42.7344 44.5742 42.7227L44.5801 43.9648C44.4355 44.0117 44.2793 44.0488 44.1113 44.0762C43.9434 44.1035 43.7578 44.1172 43.5547 44.1172C43.1836 44.1172 42.8594 44.0566 42.582 43.9355C42.3086 43.8105 42.0977 43.6113 41.9492 43.3379C41.8008 43.0645 41.7266 42.7051 41.7266 42.2598V36.0957ZM45.043 40.8945V40.7715C45.043 40.3066 45.1094 39.8789 45.2422 39.4883C45.375 39.0938 45.5684 38.752 45.8223 38.4629C46.0762 38.1738 46.3887 37.9492 46.7598 37.7891C47.1309 37.625 47.5566 37.543 48.0371 37.543C48.5176 37.543 48.9453 37.625 49.3203 37.7891C49.6953 37.9492 50.0098 38.1738 50.2637 38.4629C50.5215 38.752 50.7168 39.0938 50.8496 39.4883C50.9824 39.8789 51.0488 40.3066 51.0488 40.7715V40.8945C51.0488 41.3555 50.9824 41.7832 50.8496 42.1777C50.7168 42.5684 50.5215 42.9102 50.2637 43.2031C50.0098 43.4922 49.6973 43.7168 49.3262 43.877C48.9551 44.0371 48.5293 44.1172 48.0488 44.1172C47.5684 44.1172 47.1406 44.0371 46.7656 43.877C46.3945 43.7168 46.0801 43.4922 45.8223 43.2031C45.5684 42.9102 45.375 42.5684 45.2422 42.1777C45.1094 41.7832 45.043 41.3555 45.043 40.8945ZM46.7305 40.7715V40.8945C46.7305 41.1602 46.7539 41.4082 46.8008 41.6387C46.8477 41.8691 46.9219 42.0723 47.0234 42.248C47.1289 42.4199 47.2656 42.5547 47.4336 42.6523C47.6016 42.75 47.8066 42.7988 48.0488 42.7988C48.2832 42.7988 48.4844 42.75 48.6523 42.6523C48.8203 42.5547 48.9551 42.4199 49.0566 42.248C49.1582 42.0723 49.2324 41.8691 49.2793 41.6387C49.3301 41.4082 49.3555 41.1602 49.3555 40.8945V40.7715C49.3555 40.5137 49.3301 40.2715 49.2793 40.0449C49.2324 39.8145 49.1562 39.6113 49.0508 39.4355C48.9492 39.2559 48.8145 39.1152 48.6465 39.0137C48.4785 38.9121 48.2754 38.8613 48.0371 38.8613C47.7988 38.8613 47.5957 38.9121 47.4277 39.0137C47.2637 39.1152 47.1289 39.2559 47.0234 39.4355C46.9219 39.6113 46.8477 39.8145 46.8008 40.0449C46.7539 40.2715 46.7305 40.5137 46.7305 40.7715ZM53.7734 38.9727V44H52.0801V37.6602H53.668L53.7734 38.9727ZM53.5391 40.6074H53.0703C53.0703 40.166 53.123 39.7598 53.2285 39.3887C53.3379 39.0137 53.4961 38.6895 53.7031 38.416C53.9141 38.1387 54.1738 37.9238 54.4824 37.7715C54.791 37.6191 55.1484 37.543 55.5547 37.543C55.8359 37.543 56.0938 37.5859 56.3281 37.6719C56.5625 37.7539 56.7637 37.8848 56.9316 38.0645C57.1035 38.2402 57.2363 38.4707 57.3301 38.7559C57.4238 39.0371 57.4707 39.375 57.4707 39.7695V44H55.7832V39.957C55.7832 39.668 55.7441 39.4453 55.666 39.2891C55.5879 39.1328 55.4766 39.0234 55.332 38.9609C55.1914 38.8984 55.0215 38.8672 54.8223 38.8672C54.6035 38.8672 54.4121 38.9121 54.248 39.002C54.0879 39.0918 53.9551 39.2168 53.8496 39.377C53.7441 39.5332 53.666 39.7168 53.6152 39.9277C53.5645 40.1387 53.5391 40.3652 53.5391 40.6074ZM57.3125 40.4141L56.709 40.4902C56.709 40.0762 56.7598 39.6914 56.8613 39.3359C56.9668 38.9805 57.1211 38.668 57.3242 38.3984C57.5312 38.1289 57.7871 37.9199 58.0918 37.7715C58.3965 37.6191 58.748 37.543 59.1465 37.543C59.4512 37.543 59.7285 37.5879 59.9785 37.6777C60.2285 37.7637 60.4414 37.9023 60.6172 38.0938C60.7969 38.2812 60.9336 38.5273 61.0273 38.832C61.125 39.1367 61.1738 39.5098 61.1738 39.9512V44H59.4805V39.9512C59.4805 39.6582 59.4414 39.4355 59.3633 39.2832C59.2891 39.127 59.1797 39.0195 59.0352 38.9609C58.8945 38.8984 58.7266 38.8672 58.5312 38.8672C58.3281 38.8672 58.1504 38.9082 57.998 38.9902C57.8457 39.0684 57.7188 39.1777 57.6172 39.3184C57.5156 39.459 57.4395 39.623 57.3887 39.8105C57.3379 39.9941 57.3125 40.1953 57.3125 40.4141ZM65.3984 44.1172C64.9062 44.1172 64.4648 44.0391 64.0742 43.8828C63.6836 43.7227 63.3516 43.502 63.0781 43.2207C62.8086 42.9395 62.6016 42.6133 62.457 42.2422C62.3125 41.8672 62.2402 41.4688 62.2402 41.0469V40.8125C62.2402 40.332 62.3086 39.8926 62.4453 39.4941C62.582 39.0957 62.7773 38.75 63.0312 38.457C63.2891 38.1641 63.6016 37.9395 63.9688 37.7832C64.3359 37.623 64.75 37.543 65.2109 37.543C65.6602 37.543 66.0586 37.6172 66.4062 37.7656C66.7539 37.9141 67.0449 38.125 67.2793 38.3984C67.5176 38.6719 67.6973 39 67.8184 39.3828C67.9395 39.7617 68 40.1836 68 40.6484V41.3516H62.9609V40.2266H66.3418V40.0977C66.3418 39.8633 66.2988 39.6543 66.2129 39.4707C66.1309 39.2832 66.0059 39.1348 65.8379 39.0254C65.6699 38.916 65.4551 38.8613 65.1934 38.8613C64.9707 38.8613 64.7793 38.9102 64.6191 39.0078C64.459 39.1055 64.3281 39.2422 64.2266 39.418C64.1289 39.5938 64.0547 39.8008 64.0039 40.0391C63.957 40.2734 63.9336 40.5312 63.9336 40.8125V41.0469C63.9336 41.3008 63.9688 41.5352 64.0391 41.75C64.1133 41.9648 64.2168 42.1504 64.3496 42.3066C64.4863 42.4629 64.6504 42.584 64.8418 42.6699C65.0371 42.7559 65.2578 42.7988 65.5039 42.7988C65.8086 42.7988 66.0918 42.7402 66.3535 42.623C66.6191 42.502 66.8477 42.3203 67.0391 42.0781L67.8594 42.9688C67.7266 43.1602 67.5449 43.3438 67.3145 43.5195C67.0879 43.6953 66.8145 43.8398 66.4941 43.9531C66.1738 44.0625 65.8086 44.1172 65.3984 44.1172ZM70.6484 39.043V44H68.9609V37.6602H70.5488L70.6484 39.043ZM72.5586 37.6191L72.5293 39.1836C72.4473 39.1719 72.3477 39.1621 72.2305 39.1543C72.1172 39.1426 72.0137 39.1367 71.9199 39.1367C71.6816 39.1367 71.4746 39.168 71.2988 39.2305C71.127 39.2891 70.9824 39.377 70.8652 39.4941C70.752 39.6113 70.666 39.7539 70.6074 39.9219C70.5527 40.0898 70.5215 40.2812 70.5137 40.4961L70.1738 40.3906C70.1738 39.9805 70.2148 39.6035 70.2969 39.2598C70.3789 38.9121 70.498 38.6094 70.6543 38.3516C70.8145 38.0938 71.0098 37.8945 71.2402 37.7539C71.4707 37.6133 71.7344 37.543 72.0312 37.543C72.125 37.543 72.2207 37.5508 72.3184 37.5664C72.416 37.5781 72.4961 37.5957 72.5586 37.6191ZM78.0312 39.043V44H76.3438V37.6602H77.9316L78.0312 39.043ZM79.9414 37.6191L79.9121 39.1836C79.8301 39.1719 79.7305 39.1621 79.6133 39.1543C79.5 39.1426 79.3965 39.1367 79.3027 39.1367C79.0645 39.1367 78.8574 39.168 78.6816 39.2305C78.5098 39.2891 78.3652 39.377 78.248 39.4941C78.1348 39.6113 78.0488 39.7539 77.9902 39.9219C77.9355 40.0898 77.9043 40.2812 77.8965 40.4961L77.5566 40.3906C77.5566 39.9805 77.5977 39.6035 77.6797 39.2598C77.7617 38.9121 77.8809 38.6094 78.0371 38.3516C78.1973 38.0938 78.3926 37.8945 78.623 37.7539C78.8535 37.6133 79.1172 37.543 79.4141 37.543C79.5078 37.543 79.6035 37.5508 79.7012 37.5664C79.7988 37.5781 79.8789 37.5957 79.9414 37.6191ZM83.9609 42.5703V39.7461C83.9609 39.543 83.9277 39.3691 83.8613 39.2246C83.7949 39.0762 83.6914 38.9609 83.5508 38.8789C83.4141 38.7969 83.2363 38.7559 83.0176 38.7559C82.8301 38.7559 82.668 38.7891 82.5312 38.8555C82.3945 38.918 82.2891 39.0098 82.2148 39.1309C82.1406 39.248 82.1035 39.3867 82.1035 39.5469H80.416C80.416 39.2773 80.4785 39.0215 80.6035 38.7793C80.7285 38.5371 80.9102 38.3242 81.1484 38.1406C81.3867 37.9531 81.6699 37.8066 81.998 37.7012C82.3301 37.5957 82.7012 37.543 83.1113 37.543C83.6035 37.543 84.041 37.625 84.4238 37.7891C84.8066 37.9531 85.1074 38.1992 85.3262 38.5273C85.5488 38.8555 85.6602 39.2656 85.6602 39.7578V42.4707C85.6602 42.8184 85.6816 43.1035 85.7246 43.3262C85.7676 43.5449 85.8301 43.7363 85.9121 43.9004V44H84.207C84.125 43.8281 84.0625 43.6133 84.0195 43.3555C83.9805 43.0938 83.9609 42.832 83.9609 42.5703ZM84.1836 40.1387L84.1953 41.0938H83.252C83.0293 41.0938 82.8359 41.1191 82.6719 41.1699C82.5078 41.2207 82.373 41.293 82.2676 41.3867C82.1621 41.4766 82.084 41.582 82.0332 41.7031C81.9863 41.8242 81.9629 41.957 81.9629 42.1016C81.9629 42.2461 81.9961 42.377 82.0625 42.4941C82.1289 42.6074 82.2246 42.6973 82.3496 42.7637C82.4746 42.8262 82.6211 42.8574 82.7891 42.8574C83.043 42.8574 83.2637 42.8066 83.4512 42.7051C83.6387 42.6035 83.7832 42.4785 83.8848 42.3301C83.9902 42.1816 84.0449 42.041 84.0488 41.9082L84.4941 42.623C84.4316 42.7832 84.3457 42.9492 84.2363 43.1211C84.1309 43.293 83.9961 43.4551 83.832 43.6074C83.668 43.7559 83.4707 43.8789 83.2402 43.9766C83.0098 44.0703 82.7363 44.1172 82.4199 44.1172C82.0176 44.1172 81.6523 44.0371 81.3242 43.877C81 43.7129 80.7422 43.4883 80.5508 43.2031C80.3633 42.9141 80.2695 42.5859 80.2695 42.2188C80.2695 41.8867 80.332 41.5918 80.457 41.334C80.582 41.0762 80.7656 40.8594 81.0078 40.6836C81.2539 40.5039 81.5605 40.3691 81.9277 40.2793C82.2949 40.1855 82.7207 40.1387 83.2051 40.1387H84.1836ZM90.0664 37.6602V38.8555H86.375V37.6602H90.0664ZM87.2891 36.0957H88.9766V42.0898C88.9766 42.2734 89 42.4141 89.0469 42.5117C89.0977 42.6094 89.1719 42.6777 89.2695 42.7168C89.3672 42.752 89.4902 42.7695 89.6387 42.7695C89.7441 42.7695 89.8379 42.7656 89.9199 42.7578C90.0059 42.7461 90.0781 42.7344 90.1367 42.7227L90.1426 43.9648C89.998 44.0117 89.8418 44.0488 89.6738 44.0762C89.5059 44.1035 89.3203 44.1172 89.1172 44.1172C88.7461 44.1172 88.4219 44.0566 88.1445 43.9355C87.8711 43.8105 87.6602 43.6113 87.5117 43.3379C87.3633 43.0645 87.2891 42.7051 87.2891 42.2598V36.0957ZM93.9453 44.1172C93.4531 44.1172 93.0117 44.0391 92.6211 43.8828C92.2305 43.7227 91.8984 43.502 91.625 43.2207C91.3555 42.9395 91.1484 42.6133 91.0039 42.2422C90.8594 41.8672 90.7871 41.4688 90.7871 41.0469V40.8125C90.7871 40.332 90.8555 39.8926 90.9922 39.4941C91.1289 39.0957 91.3242 38.75 91.5781 38.457C91.8359 38.1641 92.1484 37.9395 92.5156 37.7832C92.8828 37.623 93.2969 37.543 93.7578 37.543C94.207 37.543 94.6055 37.6172 94.9531 37.7656C95.3008 37.9141 95.5918 38.125 95.8262 38.3984C96.0645 38.6719 96.2441 39 96.3652 39.3828C96.4863 39.7617 96.5469 40.1836 96.5469 40.6484V41.3516H91.5078V40.2266H94.8887V40.0977C94.8887 39.8633 94.8457 39.6543 94.7598 39.4707C94.6777 39.2832 94.5527 39.1348 94.3848 39.0254C94.2168 38.916 94.002 38.8613 93.7402 38.8613C93.5176 38.8613 93.3262 38.9102 93.166 39.0078C93.0059 39.1055 92.875 39.2422 92.7734 39.418C92.6758 39.5938 92.6016 39.8008 92.5508 40.0391C92.5039 40.2734 92.4805 40.5312 92.4805 40.8125V41.0469C92.4805 41.3008 92.5156 41.5352 92.5859 41.75C92.6602 41.9648 92.7637 42.1504 92.8965 42.3066C93.0332 42.4629 93.1973 42.584 93.3887 42.6699C93.584 42.7559 93.8047 42.7988 94.0508 42.7988C94.3555 42.7988 94.6387 42.7402 94.9004 42.623C95.166 42.502 95.3945 42.3203 95.5859 42.0781L96.4062 42.9688C96.2734 43.1602 96.0918 43.3438 95.8613 43.5195C95.6348 43.6953 95.3613 43.8398 95.041 43.9531C94.7207 44.0625 94.3555 44.1172 93.9453 44.1172Z" fill="#6B7A99"/>
<path d="M24.3477 85.2305L21.6523 84.5859L22.625 75.9375H32.2109V78.668H25.4023L24.9805 82.4531C25.207 82.3203 25.5508 82.1797 26.0117 82.0312C26.4727 81.875 26.9883 81.7969 27.5586 81.7969C28.3867 81.7969 29.1211 81.9258 29.7617 82.1836C30.4023 82.4414 30.9453 82.8164 31.3906 83.3086C31.8438 83.8008 32.1875 84.4023 32.4219 85.1133C32.6562 85.8242 32.7734 86.6289 32.7734 87.5273C32.7734 88.2852 32.6562 89.0078 32.4219 89.6953C32.1875 90.375 31.832 90.9844 31.3555 91.5234C30.8789 92.0547 30.2812 92.4727 29.5625 92.7773C28.8438 93.082 27.9922 93.2344 27.0078 93.2344C26.2734 93.2344 25.5625 93.125 24.875 92.9062C24.1953 92.6875 23.582 92.3633 23.0352 91.9336C22.4961 91.5039 22.0625 90.9844 21.7344 90.375C21.4141 89.7578 21.2461 89.0547 21.2305 88.2656H24.582C24.6289 88.75 24.7539 89.168 24.957 89.5195C25.168 89.8633 25.4453 90.1289 25.7891 90.3164C26.1328 90.5039 26.5352 90.5977 26.9961 90.5977C27.4258 90.5977 27.793 90.5156 28.0977 90.3516C28.4023 90.1875 28.6484 89.9609 28.8359 89.6719C29.0234 89.375 29.1602 89.0312 29.2461 88.6406C29.3398 88.2422 29.3867 87.8125 29.3867 87.3516C29.3867 86.8906 29.332 86.4727 29.2227 86.0977C29.1133 85.7227 28.9453 85.3984 28.7188 85.125C28.4922 84.8516 28.2031 84.6406 27.8516 84.4922C27.5078 84.3438 27.1055 84.2695 26.6445 84.2695C26.0195 84.2695 25.5352 84.3672 25.1914 84.5625C24.8555 84.7578 24.5742 84.9805 24.3477 85.2305ZM35.2578 91.3711C35.2578 90.8711 35.4297 90.4531 35.7734 90.1172C36.125 89.7812 36.5898 89.6133 37.168 89.6133C37.7461 89.6133 38.207 89.7812 38.5508 90.1172C38.9023 90.4531 39.0781 90.8711 39.0781 91.3711C39.0781 91.8711 38.9023 92.2891 38.5508 92.625C38.207 92.9609 37.7461 93.1289 37.168 93.1289C36.5898 93.1289 36.125 92.9609 35.7734 92.625C35.4297 92.2891 35.2578 91.8711 35.2578 91.3711ZM53.8672 86.625V89.2734H41.5742L41.4102 87.2227L48.5234 75.9375H51.207L48.3008 80.8008L44.7617 86.625H53.8672ZM51.9336 75.9375V93H48.5586V75.9375H51.9336ZM59.1523 83.0039H60.957C61.5352 83.0039 62.0117 82.9062 62.3867 82.7109C62.7617 82.5078 63.0391 82.2266 63.2188 81.8672C63.4062 81.5 63.5 81.0742 63.5 80.5898C63.5 80.1523 63.4141 79.7656 63.2422 79.4297C63.0781 79.0859 62.8242 78.8203 62.4805 78.6328C62.1367 78.4375 61.7031 78.3398 61.1797 78.3398C60.7656 78.3398 60.3828 78.4219 60.0312 78.5859C59.6797 78.75 59.3984 78.9805 59.1875 79.2773C58.9766 79.5742 58.8711 79.9336 58.8711 80.3555H55.4844C55.4844 79.418 55.7344 78.6016 56.2344 77.9062C56.7422 77.2109 57.4219 76.668 58.2734 76.2773C59.125 75.8867 60.0625 75.6914 61.0859 75.6914C62.2422 75.6914 63.2539 75.8789 64.1211 76.2539C64.9883 76.6211 65.6641 77.1641 66.1484 77.8828C66.6328 78.6016 66.875 79.4922 66.875 80.5547C66.875 81.0938 66.75 81.6172 66.5 82.125C66.25 82.625 65.8906 83.0781 65.4219 83.4844C64.9609 83.8828 64.3984 84.2031 63.7344 84.4453C63.0703 84.6797 62.3242 84.7969 61.4961 84.7969H59.1523V83.0039ZM59.1523 85.5703V83.8242H61.4961C62.4258 83.8242 63.2422 83.9297 63.9453 84.1406C64.6484 84.3516 65.2383 84.6562 65.7148 85.0547C66.1914 85.4453 66.5508 85.9102 66.793 86.4492C67.0352 86.9805 67.1562 87.5703 67.1562 88.2188C67.1562 89.0156 67.0039 89.7266 66.6992 90.3516C66.3945 90.9688 65.9648 91.4922 65.4102 91.9219C64.8633 92.3516 64.2227 92.6797 63.4883 92.9062C62.7539 93.125 61.9531 93.2344 61.0859 93.2344C60.3672 93.2344 59.6602 93.1367 58.9648 92.9414C58.2773 92.7383 57.6523 92.4375 57.0898 92.0391C56.5352 91.6328 56.0898 91.125 55.7539 90.5156C55.4258 89.8984 55.2617 89.168 55.2617 88.3242H58.6484C58.6484 88.7617 58.7578 89.1523 58.9766 89.4961C59.1953 89.8398 59.4961 90.1094 59.8789 90.3047C60.2695 90.5 60.7031 90.5977 61.1797 90.5977C61.7188 90.5977 62.1797 90.5 62.5625 90.3047C62.9531 90.1016 63.25 89.8203 63.4531 89.4609C63.6641 89.0938 63.7695 88.668 63.7695 88.1836C63.7695 87.5586 63.6562 87.0586 63.4297 86.6836C63.2031 86.3008 62.8789 86.0195 62.457 85.8398C62.0352 85.6602 61.5352 85.5703 60.957 85.5703H59.1523ZM69.4297 80.1211V79.2188C69.4297 78.5703 69.5703 77.9805 69.8516 77.4492C70.1328 76.918 70.5469 76.4922 71.0938 76.1719C71.6406 75.8516 72.3125 75.6914 73.1094 75.6914C73.9297 75.6914 74.6133 75.8516 75.1602 76.1719C75.7148 76.4922 76.1289 76.918 76.4023 77.4492C76.6836 77.9805 76.8242 78.5703 76.8242 79.2188V80.1211C76.8242 80.7539 76.6836 81.3359 76.4023 81.8672C76.1289 82.3984 75.7188 82.8242 75.1719 83.1445C74.625 83.4648 73.9492 83.625 73.1445 83.625C72.332 83.625 71.6484 83.4648 71.0938 83.1445C70.5469 82.8242 70.1328 82.3984 69.8516 81.8672C69.5703 81.3359 69.4297 80.7539 69.4297 80.1211ZM71.668 79.2188V80.1211C71.668 80.3945 71.7188 80.6562 71.8203 80.9062C71.9297 81.1484 72.0938 81.3477 72.3125 81.5039C72.5391 81.6523 72.8125 81.7266 73.1328 81.7266C73.4688 81.7266 73.7422 81.6523 73.9531 81.5039C74.1641 81.3477 74.3203 81.1484 74.4219 80.9062C74.5234 80.6562 74.5742 80.3945 74.5742 80.1211V79.2188C74.5742 78.9297 74.5195 78.6641 74.4102 78.4219C74.3086 78.1719 74.1484 77.9727 73.9297 77.8242C73.7188 77.668 73.4453 77.5898 73.1094 77.5898C72.7969 77.5898 72.5312 77.668 72.3125 77.8242C72.0938 77.9727 71.9297 78.1719 71.8203 78.4219C71.7188 78.6641 71.668 78.9297 71.668 79.2188ZM77.5859 89.7188V88.8164C77.5859 88.1758 77.7266 87.5898 78.0078 87.0586C78.2969 86.5273 78.7148 86.1016 79.2617 85.7812C79.8164 85.4609 80.4961 85.3008 81.3008 85.3008C82.1133 85.3008 82.793 85.4609 83.3398 85.7812C83.8867 86.1016 84.3008 86.5273 84.582 87.0586C84.8633 87.5898 85.0039 88.1758 85.0039 88.8164V89.7188C85.0039 90.3594 84.8633 90.9453 84.582 91.4766C84.3086 92.0078 83.8984 92.4336 83.3516 92.7539C82.8047 93.0742 82.1289 93.2344 81.3242 93.2344C80.5117 93.2344 79.8281 93.0742 79.2734 92.7539C78.7188 92.4336 78.2969 92.0078 78.0078 91.4766C77.7266 90.9453 77.5859 90.3594 77.5859 89.7188ZM79.8359 88.8164V89.7188C79.8359 90 79.8984 90.2656 80.0234 90.5156C80.1484 90.7656 80.3203 90.9648 80.5391 91.1133C80.7656 91.2617 81.0273 91.3359 81.3242 91.3359C81.6992 91.3359 81.9922 91.2617 82.2031 91.1133C82.4141 90.9648 82.5586 90.7656 82.6367 90.5156C82.7227 90.2656 82.7656 90 82.7656 89.7188V88.8164C82.7656 88.5352 82.7109 88.2734 82.6016 88.0312C82.4922 87.7812 82.3281 87.582 82.1094 87.4336C81.8984 87.2773 81.6289 87.1992 81.3008 87.1992C80.9727 87.1992 80.6992 87.2773 80.4805 87.4336C80.2695 87.582 80.1094 87.7812 80 88.0312C79.8906 88.2734 79.8359 88.5352 79.8359 88.8164ZM82.1328 78.375L73.8008 91.7109L72.1602 90.8438L80.4922 77.5078L82.1328 78.375Z" fill="#4D5E80"/>
<path fill-rule="evenodd" clip-rule="evenodd" d="M135 60L143.636 50L152.273 45L160.909 55L169.545 54L178.182 49L186.818 55L195.455 45L204.091 40L212.727 45L221.364 40L230 52V77L221.364 65L212.727 68L204.091 65L195.455 70L186.818 78L178.182 82L169.545 74L160.909 75L152.273 85L143.636 75L135 85V60Z" fill="#ECEEF5"/>
<path fill-rule="evenodd" clip-rule="evenodd" d="M135 85L143.636 75L152.273 85L160.909 75L169.545 74L178.182 82L186.818 78L195.455 70L204.091 65L212.727 68L221.364 65L230 77V100H135V85Z" fill="url(#paint0_radial_585_6329)"/>
<path d="M0 0H250H0ZM250 131H0V129H250V131ZM0 130V0V130ZM250 0V130V0Z" fill="#EDEFF2"/>
<rect x="20" y="185" width="10" height="10" rx="5" fill="#8833FF" fill-opacity="0.5"/>
<path d="M50.8945 190.514H47.5195V194H45.7617V185.469H51.3164V186.893H47.5195V189.096H50.8945V190.514ZM54.0117 194H52.3125V187.66H54.0117V194ZM52.2129 186.02C52.2129 185.766 52.2969 185.557 52.4648 185.393C52.6367 185.229 52.8691 185.146 53.1621 185.146C53.4512 185.146 53.6816 185.229 53.8535 185.393C54.0254 185.557 54.1113 185.766 54.1113 186.02C54.1113 186.277 54.0234 186.488 53.8477 186.652C53.6758 186.816 53.4473 186.898 53.1621 186.898C52.877 186.898 52.6465 186.816 52.4707 186.652C52.2988 186.488 52.2129 186.277 52.2129 186.02ZM58.9746 189.248C58.7441 189.217 58.541 189.201 58.3652 189.201C57.7246 189.201 57.3047 189.418 57.1055 189.852V194H55.4121V187.66H57.0117L57.0586 188.416C57.3984 187.834 57.8691 187.543 58.4707 187.543C58.6582 187.543 58.834 187.568 58.998 187.619L58.9746 189.248ZM63.2285 192.248C63.2285 192.041 63.125 191.879 62.918 191.762C62.7148 191.641 62.3867 191.533 61.9336 191.439C60.4258 191.123 59.6719 190.482 59.6719 189.518C59.6719 188.955 59.9043 188.486 60.3691 188.111C60.8379 187.732 61.4492 187.543 62.2031 187.543C63.0078 187.543 63.6504 187.732 64.1309 188.111C64.6152 188.49 64.8574 188.982 64.8574 189.588H63.1641C63.1641 189.346 63.0859 189.146 62.9297 188.99C62.7734 188.83 62.5293 188.75 62.1973 188.75C61.9121 188.75 61.6914 188.814 61.5352 188.943C61.3789 189.072 61.3008 189.236 61.3008 189.436C61.3008 189.623 61.3887 189.775 61.5645 189.893C61.7441 190.006 62.0449 190.105 62.4668 190.191C62.8887 190.273 63.2441 190.367 63.5332 190.473C64.4277 190.801 64.875 191.369 64.875 192.178C64.875 192.756 64.627 193.225 64.1309 193.584C63.6348 193.939 62.9941 194.117 62.209 194.117C61.6777 194.117 61.2051 194.023 60.791 193.836C60.3809 193.645 60.0586 193.385 59.8242 193.057C59.5898 192.725 59.4727 192.367 59.4727 191.984H61.0781C61.0938 192.285 61.2051 192.516 61.4121 192.676C61.6191 192.836 61.8965 192.916 62.2441 192.916C62.5684 192.916 62.8125 192.855 62.9766 192.734C63.1445 192.609 63.2285 192.447 63.2285 192.248ZM67.998 186.102V187.66H69.082V188.902H67.998V192.066C67.998 192.301 68.043 192.469 68.1328 192.57C68.2227 192.672 68.3945 192.723 68.6484 192.723C68.8359 192.723 69.002 192.709 69.1465 192.682V193.965C68.8145 194.066 68.4727 194.117 68.1211 194.117C66.9336 194.117 66.3281 193.518 66.3047 192.318V188.902H65.3789V187.66H66.3047V186.102H67.998ZM79.1953 186.893H76.582V194H74.8242V186.893H72.2461V185.469H79.1953V186.893ZM81.8789 194H80.1797V187.66H81.8789V194ZM80.0801 186.02C80.0801 185.766 80.1641 185.557 80.332 185.393C80.5039 185.229 80.7363 185.146 81.0293 185.146C81.3184 185.146 81.5488 185.229 81.7207 185.393C81.8926 185.557 81.9785 185.766 81.9785 186.02C81.9785 186.277 81.8906 186.488 81.7148 186.652C81.543 186.816 81.3145 186.898 81.0293 186.898C80.7441 186.898 80.5137 186.816 80.3379 186.652C80.166 186.488 80.0801 186.277 80.0801 186.02ZM84.8672 187.66L84.9199 188.369C85.3691 187.818 85.9766 187.543 86.7422 187.543C87.5586 187.543 88.1191 187.865 88.4238 188.51C88.8691 187.865 89.5039 187.543 90.3281 187.543C91.0156 187.543 91.5273 187.744 91.8633 188.146C92.1992 188.545 92.3672 189.146 92.3672 189.951V194H90.668V189.957C90.668 189.598 90.5977 189.336 90.457 189.172C90.3164 189.004 90.0684 188.92 89.7129 188.92C89.2051 188.92 88.8535 189.162 88.6582 189.646L88.6641 194H86.9707V189.963C86.9707 189.596 86.8984 189.33 86.7539 189.166C86.6094 189.002 86.3633 188.92 86.0156 188.92C85.5352 188.92 85.1875 189.119 84.9727 189.518V194H83.2793V187.66H84.8672ZM96.5918 194.117C95.6621 194.117 94.9043 193.832 94.3184 193.262C93.7363 192.691 93.4453 191.932 93.4453 190.982V190.818C93.4453 190.182 93.5684 189.613 93.8145 189.113C94.0605 188.609 94.4082 188.223 94.8574 187.953C95.3105 187.68 95.8262 187.543 96.4043 187.543C97.2715 187.543 97.9531 187.816 98.4492 188.363C98.9492 188.91 99.1992 189.686 99.1992 190.689V191.381H95.1621C95.2168 191.795 95.3809 192.127 95.6543 192.377C95.9316 192.627 96.2812 192.752 96.7031 192.752C97.3555 192.752 97.8652 192.516 98.2324 192.043L99.0645 192.975C98.8105 193.334 98.4668 193.615 98.0332 193.818C97.5996 194.018 97.1191 194.117 96.5918 194.117ZM96.3984 188.914C96.0625 188.914 95.7891 189.027 95.5781 189.254C95.3711 189.48 95.2383 189.805 95.1797 190.227H97.5352V190.092C97.5273 189.717 97.4258 189.428 97.2305 189.225C97.0352 189.018 96.7578 188.914 96.3984 188.914Z" fill="#6B7A99"/>
<rect x="130" y="185" width="10" height="10" rx="5" fill="#FF6633" fill-opacity="0.5"/>
<path d="M158.92 190.877H157.52V194H155.762V185.469H158.932C159.939 185.469 160.717 185.693 161.264 186.143C161.811 186.592 162.084 187.227 162.084 188.047C162.084 188.629 161.957 189.115 161.703 189.506C161.453 189.893 161.072 190.201 160.561 190.432L162.406 193.918V194H160.52L158.92 190.877ZM157.52 189.453H158.938C159.379 189.453 159.721 189.342 159.963 189.119C160.205 188.893 160.326 188.582 160.326 188.188C160.326 187.785 160.211 187.469 159.98 187.238C159.754 187.008 159.404 186.893 158.932 186.893H157.52V189.453ZM166.232 194.117C165.303 194.117 164.545 193.832 163.959 193.262C163.377 192.691 163.086 191.932 163.086 190.982V190.818C163.086 190.182 163.209 189.613 163.455 189.113C163.701 188.609 164.049 188.223 164.498 187.953C164.951 187.68 165.467 187.543 166.045 187.543C166.912 187.543 167.594 187.816 168.09 188.363C168.59 188.91 168.84 189.686 168.84 190.689V191.381H164.803C164.857 191.795 165.021 192.127 165.295 192.377C165.572 192.627 165.922 192.752 166.344 192.752C166.996 192.752 167.506 192.516 167.873 192.043L168.705 192.975C168.451 193.334 168.107 193.615 167.674 193.818C167.24 194.018 166.76 194.117 166.232 194.117ZM166.039 188.914C165.703 188.914 165.43 189.027 165.219 189.254C165.012 189.48 164.879 189.805 164.82 190.227H167.176V190.092C167.168 189.717 167.066 189.428 166.871 189.225C166.676 189.018 166.398 188.914 166.039 188.914ZM171.834 186.102V187.66H172.918V188.902H171.834V192.066C171.834 192.301 171.879 192.469 171.969 192.57C172.059 192.672 172.23 192.723 172.484 192.723C172.672 192.723 172.838 192.709 172.982 192.682V193.965C172.65 194.066 172.309 194.117 171.957 194.117C170.77 194.117 170.164 193.518 170.141 192.318V188.902H169.215V187.66H170.141V186.102H171.834ZM177.658 193.355C177.24 193.863 176.662 194.117 175.924 194.117C175.244 194.117 174.725 193.922 174.365 193.531C174.01 193.141 173.828 192.568 173.82 191.814V187.66H175.514V191.756C175.514 192.416 175.814 192.746 176.416 192.746C176.99 192.746 177.385 192.547 177.6 192.148V187.66H179.299V194H177.705L177.658 193.355ZM184.139 189.248C183.908 189.217 183.705 189.201 183.529 189.201C182.889 189.201 182.469 189.418 182.27 189.852V194H180.576V187.66H182.176L182.223 188.416C182.562 187.834 183.033 187.543 183.635 187.543C183.822 187.543 183.998 187.568 184.162 187.619L184.139 189.248ZM186.518 187.66L186.57 188.393C187.023 187.826 187.631 187.543 188.393 187.543C189.064 187.543 189.564 187.74 189.893 188.135C190.221 188.529 190.389 189.119 190.396 189.904V194H188.703V189.945C188.703 189.586 188.625 189.326 188.469 189.166C188.312 189.002 188.053 188.92 187.689 188.92C187.213 188.92 186.855 189.123 186.617 189.529V194H184.924V187.66H186.518ZM193.473 194H191.773V187.66H193.473V194ZM191.674 186.02C191.674 185.766 191.758 185.557 191.926 185.393C192.098 185.229 192.33 185.146 192.623 185.146C192.912 185.146 193.143 185.229 193.314 185.393C193.486 185.557 193.572 185.766 193.572 186.02C193.572 186.277 193.484 186.488 193.309 186.652C193.137 186.816 192.908 186.898 192.623 186.898C192.338 186.898 192.107 186.816 191.932 186.652C191.76 186.488 191.674 186.277 191.674 186.02ZM196.432 187.66L196.484 188.393C196.938 187.826 197.545 187.543 198.307 187.543C198.979 187.543 199.479 187.74 199.807 188.135C200.135 188.529 200.303 189.119 200.311 189.904V194H198.617V189.945C198.617 189.586 198.539 189.326 198.383 189.166C198.227 189.002 197.967 188.92 197.604 188.92C197.127 188.92 196.77 189.123 196.531 189.529V194H194.838V187.66H196.432ZM201.354 190.783C201.354 189.811 201.584 189.027 202.045 188.434C202.51 187.84 203.135 187.543 203.92 187.543C204.615 187.543 205.156 187.781 205.543 188.258L205.613 187.66H207.148V193.789C207.148 194.344 207.021 194.826 206.768 195.236C206.518 195.646 206.164 195.959 205.707 196.174C205.25 196.389 204.715 196.496 204.102 196.496C203.637 196.496 203.184 196.402 202.742 196.215C202.301 196.031 201.967 195.793 201.74 195.5L202.49 194.469C202.912 194.941 203.424 195.178 204.025 195.178C204.475 195.178 204.824 195.057 205.074 194.814C205.324 194.576 205.449 194.236 205.449 193.795V193.455C205.059 193.896 204.545 194.117 203.908 194.117C203.146 194.117 202.529 193.82 202.057 193.227C201.588 192.629 201.354 191.838 201.354 190.854V190.783ZM203.047 190.906C203.047 191.48 203.162 191.932 203.393 192.26C203.623 192.584 203.939 192.746 204.342 192.746C204.857 192.746 205.227 192.553 205.449 192.166V189.5C205.223 189.113 204.857 188.92 204.354 188.92C203.947 188.92 203.627 189.086 203.393 189.418C203.162 189.75 203.047 190.246 203.047 190.906Z" fill="#6B7A99"/>
</g>
<defs>
<radialGradient id="paint0_radial_585_6329" cx="0" cy="0" r="1" gradientUnits="userSpaceOnUse" gradientTransform="translate(228.163 65.946) rotate(159.94) scale(96.9223 97.6109)">
<stop stop-color="#E62CD3"/>
<stop offset="1" stop-color="#652CE6"/>
</radialGradient>
<clipPath id="clip0_585_6329">
<rect width="250" height="250" fill="white"/>
</clipPath>
</defs>
</svg>
