<svg width="157" height="156" viewBox="0 0 157 156" fill="none" xmlns="http://www.w3.org/2000/svg">
<g clip-path="url(#clip0_1637_5046)">
<path d="M78.0713 77.9595C78.0713 121.014 43.1164 155.919 0 155.919V0C43.1164 0 78.0713 34.9052 78.0713 77.9595Z" fill="#C3BDFF"/>
<path d="M156.622 78.0343C156.622 121.089 121.667 156 78.5508 156V0.074852C121.667 0.074852 156.622 34.98 156.622 78.0343Z" fill="#5E50FF"/>
<path d="M39.9336 77.9095C39.9336 56.6133 57.2238 39.3541 78.5512 39.3541V116.471C57.2238 116.465 39.9336 99.2058 39.9336 77.9095Z" fill="#7266FF"/>
<path d="M78.3084 155.931C121.557 155.931 156.617 121.028 156.617 77.9719C156.617 34.9161 121.557 0.0124626 78.3084 0.0124626C35.0598 0.0124626 0 34.9161 0 77.9719C0 121.028 35.0598 155.931 78.3084 155.931Z" stroke="#5E50FF" stroke-width="0.0234145" stroke-miterlimit="10"/>
</g>
<defs>
<clipPath id="clip0_1637_5046">
<rect width="156.622" height="156" rx="78" fill="white"/>
</clipPath>
</defs>
</svg>
